G75*
%MOIN*%
%OFA0B0*%
%FSLAX25Y25*%
%IPPOS*%
%LPD*%
%AMOC8*
5,1,8,0,0,1.08239X$1,22.5*
%
%ADD10R,0.04737X0.05131*%
%ADD11C,0.04737*%
%ADD12R,0.08674X0.05524*%
%ADD13R,0.06115X0.03162*%
%ADD14R,0.04737X0.01981*%
%ADD15R,0.05131X0.04737*%
%ADD16R,0.05800X0.03300*%
%ADD17C,0.08200*%
%ADD18R,0.05524X0.08674*%
%ADD19R,0.03162X0.06115*%
%ADD20C,0.13800*%
%ADD21C,0.01421*%
%ADD22R,0.03300X0.05800*%
D10*
X0188333Y0081654D03*
X0188333Y0088346D03*
X0188334Y0171650D03*
X0188334Y0178343D03*
X0178334Y0178343D03*
X0178334Y0171650D03*
X0198334Y0171650D03*
X0198334Y0178343D03*
X0163834Y0191650D03*
X0163834Y0198343D03*
X0178334Y0206650D03*
X0178334Y0213343D03*
X0188334Y0213343D03*
X0188334Y0206650D03*
X0198334Y0206650D03*
X0198334Y0213343D03*
D11*
X0138333Y0260000D03*
X0238333Y0055000D03*
D12*
X0123865Y0078973D03*
X0123865Y0101021D03*
X0123865Y0118973D03*
X0123865Y0141021D03*
X0123865Y0158973D03*
X0123865Y0181021D03*
X0123865Y0198973D03*
X0123865Y0221021D03*
X0252799Y0221023D03*
X0252799Y0198976D03*
X0252799Y0181023D03*
X0252799Y0158976D03*
X0252799Y0141023D03*
X0252799Y0118976D03*
X0252799Y0101023D03*
X0252799Y0078976D03*
D13*
X0238330Y0084094D03*
X0238330Y0088031D03*
X0238330Y0091968D03*
X0238330Y0095905D03*
X0238330Y0124094D03*
X0238330Y0128031D03*
X0238330Y0131968D03*
X0238330Y0135905D03*
X0238330Y0164094D03*
X0238330Y0168031D03*
X0238330Y0171968D03*
X0238330Y0175905D03*
X0238330Y0204094D03*
X0238330Y0208031D03*
X0238330Y0211968D03*
X0238330Y0215905D03*
X0138334Y0215902D03*
X0138334Y0211965D03*
X0138334Y0208028D03*
X0138334Y0204091D03*
X0138334Y0175902D03*
X0138334Y0171965D03*
X0138334Y0168028D03*
X0138334Y0164091D03*
X0138334Y0135902D03*
X0138334Y0131965D03*
X0138334Y0128028D03*
X0138334Y0124091D03*
X0138334Y0095902D03*
X0138334Y0091965D03*
X0138334Y0088028D03*
X0138334Y0084091D03*
D14*
X0176523Y0135922D03*
X0176523Y0138481D03*
X0176523Y0141040D03*
X0176523Y0143599D03*
X0176523Y0146158D03*
X0176523Y0148717D03*
X0176523Y0151276D03*
X0176523Y0153836D03*
X0176523Y0156395D03*
X0176523Y0158954D03*
X0176523Y0161513D03*
X0176523Y0164052D03*
X0200145Y0164072D03*
X0200145Y0161513D03*
X0200145Y0158954D03*
X0200145Y0156395D03*
X0200145Y0153836D03*
X0200145Y0151276D03*
X0200145Y0148717D03*
X0200145Y0146158D03*
X0200145Y0143599D03*
X0200145Y0141040D03*
X0200145Y0138481D03*
X0200145Y0135922D03*
D15*
X0218986Y0136003D03*
X0218986Y0130003D03*
X0218987Y0124000D03*
X0225680Y0124000D03*
X0225679Y0130003D03*
X0225679Y0136003D03*
X0225680Y0164000D03*
X0225679Y0170003D03*
X0225679Y0176003D03*
X0218986Y0176003D03*
X0218986Y0170003D03*
X0218987Y0164000D03*
X0218987Y0204000D03*
X0218986Y0210003D03*
X0218986Y0216003D03*
X0225679Y0216003D03*
X0225679Y0210003D03*
X0225680Y0204000D03*
X0157680Y0203997D03*
X0150987Y0203997D03*
X0150987Y0209997D03*
X0157680Y0209997D03*
X0157680Y0215997D03*
X0150987Y0215997D03*
X0150987Y0175997D03*
X0157680Y0175997D03*
X0157680Y0169997D03*
X0157680Y0163997D03*
X0150987Y0163997D03*
X0150987Y0169997D03*
X0150987Y0135997D03*
X0157680Y0135997D03*
X0157680Y0129997D03*
X0150987Y0129997D03*
X0150987Y0123997D03*
X0157680Y0123997D03*
X0157680Y0095997D03*
X0150987Y0095997D03*
X0150987Y0089997D03*
X0157680Y0089997D03*
X0157680Y0083997D03*
X0150987Y0083997D03*
X0218987Y0084000D03*
X0218986Y0090003D03*
X0218986Y0096003D03*
X0225679Y0096003D03*
X0225679Y0090003D03*
X0225680Y0084000D03*
D16*
X0198334Y0195897D03*
X0198334Y0199097D03*
X0188334Y0199097D03*
X0188334Y0195897D03*
X0178334Y0195897D03*
X0178334Y0199097D03*
D17*
X0163334Y0234997D03*
D18*
X0177310Y0259469D03*
X0199357Y0259469D03*
D19*
X0194239Y0245000D03*
X0190302Y0245000D03*
X0186365Y0245000D03*
X0182428Y0245000D03*
D20*
X0128333Y0255000D03*
X0248333Y0255000D03*
X0248333Y0060000D03*
X0128333Y0060000D03*
D21*
X0186675Y0064889D02*
X0189991Y0064889D01*
X0186675Y0064889D02*
X0186675Y0068205D01*
X0189991Y0068205D01*
X0189991Y0064889D01*
X0189991Y0066309D02*
X0186675Y0066309D01*
X0186675Y0067729D02*
X0189991Y0067729D01*
X0189991Y0071795D02*
X0186675Y0071795D01*
X0186675Y0075111D01*
X0189991Y0075111D01*
X0189991Y0071795D01*
X0189991Y0073215D02*
X0186675Y0073215D01*
X0186675Y0074635D02*
X0189991Y0074635D01*
D22*
X0190133Y0185000D03*
X0193333Y0185000D03*
X0196533Y0185000D03*
M02*
