G75*
%MOIN*%
%OFA0B0*%
%FSLAX25Y25*%
%IPPOS*%
%LPD*%
%AMOC8*
5,1,8,0,0,1.08239X$1,22.5*
%
%ADD10C,0.00900*%
%ADD11C,0.01200*%
%ADD12C,0.00600*%
%ADD13C,0.01000*%
%ADD14C,0.00800*%
%ADD15C,0.01575*%
%ADD16C,0.00300*%
%ADD17C,0.01181*%
%ADD18C,0.00500*%
%ADD19R,0.14331X0.00157*%
%ADD20R,0.15276X0.00157*%
%ADD21R,0.15906X0.00157*%
%ADD22R,0.16535X0.00157*%
%ADD23R,0.16850X0.00157*%
%ADD24R,0.17165X0.00157*%
%ADD25R,0.17480X0.00157*%
%ADD26R,0.06614X0.00157*%
%ADD27R,0.04094X0.00157*%
%ADD28R,0.06772X0.00157*%
%ADD29R,0.02992X0.00157*%
%ADD30R,0.01260X0.00157*%
%ADD31R,0.01575X0.00157*%
%ADD32R,0.00630X0.00157*%
%ADD33R,0.03780X0.00157*%
%ADD34R,0.00787X0.00157*%
%ADD35R,0.00472X0.00157*%
%ADD36R,0.03465X0.00157*%
%ADD37R,0.03150X0.00157*%
%ADD38R,0.01102X0.00157*%
%ADD39R,0.03307X0.00157*%
%ADD40R,0.00315X0.00157*%
%ADD41R,0.00945X0.00157*%
%ADD42R,0.00157X0.00157*%
%ADD43R,0.03622X0.00157*%
%ADD44R,0.01732X0.00157*%
%ADD45R,0.02205X0.00157*%
%ADD46R,0.01417X0.00157*%
%ADD47R,0.02835X0.00157*%
%ADD48R,0.01890X0.00157*%
%ADD49R,0.16220X0.00157*%
%ADD50R,0.17795X0.00157*%
%ADD51R,0.18425X0.00157*%
%ADD52R,0.18740X0.00157*%
%ADD53R,0.19055X0.00157*%
%ADD54R,0.11654X0.00157*%
%ADD55R,0.05669X0.00157*%
%ADD56R,0.04252X0.00157*%
%ADD57R,0.03937X0.00157*%
%ADD58R,0.06142X0.00157*%
%ADD59R,0.05827X0.00157*%
%ADD60R,0.05984X0.00157*%
%ADD61R,0.05512X0.00157*%
%ADD62R,0.13858X0.00157*%
%ADD63R,0.13701X0.00157*%
%ADD64R,0.02047X0.00157*%
%ADD65R,0.04882X0.00157*%
%ADD66R,0.04567X0.00157*%
%ADD67R,0.19370X0.00157*%
%ADD68R,0.10236X0.00157*%
%ADD69R,0.11181X0.00157*%
%ADD70R,0.11811X0.00157*%
%ADD71R,0.12441X0.00157*%
%ADD72R,0.12756X0.00157*%
%ADD73R,0.13071X0.00157*%
%ADD74R,0.13386X0.00157*%
%ADD75R,0.05197X0.00157*%
%ADD76R,0.02520X0.00157*%
D10*
X0170368Y0092450D02*
X0172069Y0092450D01*
X0171218Y0092450D02*
X0171218Y0097554D01*
X0170368Y0097554D02*
X0172069Y0097554D01*
X0179575Y0096704D02*
X0179575Y0093301D01*
X0180426Y0092450D01*
X0182128Y0092450D01*
X0182978Y0093301D01*
X0182978Y0096704D02*
X0182128Y0097554D01*
X0180426Y0097554D01*
X0179575Y0096704D01*
X0190625Y0097554D02*
X0190625Y0092450D01*
X0194028Y0092450D02*
X0194028Y0097554D01*
X0192326Y0095853D01*
X0190625Y0097554D01*
X0196150Y0095853D02*
X0196150Y0093301D01*
X0197000Y0092450D01*
X0199553Y0092450D01*
X0199553Y0095853D01*
X0201674Y0095853D02*
X0205077Y0092450D01*
X0201674Y0092450D02*
X0205077Y0095853D01*
X0197290Y0232450D02*
X0197290Y0235002D01*
X0196439Y0235853D01*
X0193887Y0235853D01*
X0193887Y0232450D01*
X0191906Y0232450D02*
X0190204Y0232450D01*
X0191055Y0232450D02*
X0191055Y0235853D01*
X0190204Y0235853D01*
X0191055Y0237554D02*
X0191055Y0238405D01*
X0188082Y0235002D02*
X0188082Y0232450D01*
X0185530Y0232450D01*
X0184679Y0233301D01*
X0185530Y0234151D01*
X0188082Y0234151D01*
X0188082Y0235002D02*
X0187232Y0235853D01*
X0185530Y0235853D01*
X0182558Y0237554D02*
X0182558Y0232450D01*
X0179155Y0232450D02*
X0179155Y0237554D01*
X0180856Y0235853D01*
X0182558Y0237554D01*
D11*
X0165653Y0213406D02*
X0166787Y0212272D01*
X0162250Y0207734D01*
X0163384Y0206600D01*
X0165653Y0206600D01*
X0166787Y0207734D01*
X0166787Y0212272D01*
X0165653Y0213406D02*
X0163384Y0213406D01*
X0162250Y0212272D01*
X0162250Y0207734D01*
X0164519Y0173406D02*
X0162250Y0171137D01*
X0164519Y0173406D02*
X0164519Y0166600D01*
X0166787Y0166600D02*
X0162250Y0166600D01*
X0163384Y0133406D02*
X0162250Y0132272D01*
X0163384Y0133406D02*
X0165653Y0133406D01*
X0166787Y0132272D01*
X0166787Y0131137D01*
X0162250Y0126600D01*
X0166787Y0126600D01*
X0210250Y0127734D02*
X0211384Y0126600D01*
X0213653Y0126600D01*
X0214787Y0127734D01*
X0214787Y0130003D01*
X0213653Y0131137D01*
X0212519Y0131137D01*
X0210250Y0130003D01*
X0210250Y0133406D01*
X0214787Y0133406D01*
X0213653Y0166600D02*
X0214787Y0167734D01*
X0214787Y0168869D01*
X0213653Y0170003D01*
X0210250Y0170003D01*
X0210250Y0167734D01*
X0211384Y0166600D01*
X0213653Y0166600D01*
X0210250Y0170003D02*
X0212519Y0172272D01*
X0214787Y0173406D01*
X0210250Y0206600D02*
X0210250Y0207734D01*
X0214787Y0212272D01*
X0214787Y0213406D01*
X0210250Y0213406D01*
X0213653Y0093406D02*
X0210250Y0090003D01*
X0214787Y0090003D01*
X0213653Y0086600D02*
X0213653Y0093406D01*
X0166787Y0092272D02*
X0166787Y0091137D01*
X0165653Y0090003D01*
X0166787Y0088869D01*
X0166787Y0087734D01*
X0165653Y0086600D01*
X0163384Y0086600D01*
X0162250Y0087734D01*
X0164519Y0090003D02*
X0165653Y0090003D01*
X0166787Y0092272D02*
X0165653Y0093406D01*
X0163384Y0093406D01*
X0162250Y0092272D01*
D12*
X0177198Y0189955D02*
X0176631Y0190523D01*
X0176631Y0191657D01*
X0177198Y0192224D01*
X0179467Y0189955D01*
X0180034Y0190523D01*
X0180034Y0191657D01*
X0179467Y0192224D01*
X0177198Y0192224D01*
X0175334Y0193097D02*
X0181334Y0193097D01*
X0181394Y0193099D01*
X0181455Y0193104D01*
X0181514Y0193113D01*
X0181573Y0193126D01*
X0181632Y0193142D01*
X0181689Y0193162D01*
X0181744Y0193185D01*
X0181799Y0193212D01*
X0181851Y0193241D01*
X0181902Y0193274D01*
X0181951Y0193310D01*
X0181997Y0193348D01*
X0182041Y0193390D01*
X0182083Y0193434D01*
X0182121Y0193480D01*
X0182157Y0193529D01*
X0182190Y0193580D01*
X0182219Y0193632D01*
X0182246Y0193687D01*
X0182269Y0193742D01*
X0182289Y0193799D01*
X0182305Y0193858D01*
X0182318Y0193917D01*
X0182327Y0193976D01*
X0182332Y0194037D01*
X0182334Y0194097D01*
X0182334Y0200897D01*
X0182332Y0200957D01*
X0182327Y0201018D01*
X0182318Y0201077D01*
X0182305Y0201136D01*
X0182289Y0201195D01*
X0182269Y0201252D01*
X0182246Y0201307D01*
X0182219Y0201362D01*
X0182190Y0201414D01*
X0182157Y0201465D01*
X0182121Y0201514D01*
X0182083Y0201560D01*
X0182041Y0201604D01*
X0181997Y0201646D01*
X0181951Y0201684D01*
X0181902Y0201720D01*
X0181851Y0201753D01*
X0181799Y0201782D01*
X0181744Y0201809D01*
X0181689Y0201832D01*
X0181632Y0201852D01*
X0181573Y0201868D01*
X0181514Y0201881D01*
X0181455Y0201890D01*
X0181394Y0201895D01*
X0181334Y0201897D01*
X0175334Y0201897D01*
X0175274Y0201895D01*
X0175213Y0201890D01*
X0175154Y0201881D01*
X0175095Y0201868D01*
X0175036Y0201852D01*
X0174979Y0201832D01*
X0174924Y0201809D01*
X0174869Y0201782D01*
X0174817Y0201753D01*
X0174766Y0201720D01*
X0174717Y0201684D01*
X0174671Y0201646D01*
X0174627Y0201604D01*
X0174585Y0201560D01*
X0174547Y0201514D01*
X0174511Y0201465D01*
X0174478Y0201414D01*
X0174449Y0201362D01*
X0174422Y0201307D01*
X0174399Y0201252D01*
X0174379Y0201195D01*
X0174363Y0201136D01*
X0174350Y0201077D01*
X0174341Y0201018D01*
X0174336Y0200957D01*
X0174334Y0200897D01*
X0174334Y0194097D01*
X0174336Y0194037D01*
X0174341Y0193976D01*
X0174350Y0193917D01*
X0174363Y0193858D01*
X0174379Y0193799D01*
X0174399Y0193742D01*
X0174422Y0193687D01*
X0174449Y0193632D01*
X0174478Y0193580D01*
X0174511Y0193529D01*
X0174547Y0193480D01*
X0174585Y0193434D01*
X0174627Y0193390D01*
X0174671Y0193348D01*
X0174717Y0193310D01*
X0174766Y0193274D01*
X0174817Y0193241D01*
X0174869Y0193212D01*
X0174924Y0193185D01*
X0174979Y0193162D01*
X0175036Y0193142D01*
X0175095Y0193126D01*
X0175154Y0193113D01*
X0175213Y0193104D01*
X0175274Y0193099D01*
X0175334Y0193097D01*
X0177198Y0189955D02*
X0179467Y0189955D01*
X0184334Y0194097D02*
X0184334Y0200897D01*
X0184336Y0200957D01*
X0184341Y0201018D01*
X0184350Y0201077D01*
X0184363Y0201136D01*
X0184379Y0201195D01*
X0184399Y0201252D01*
X0184422Y0201307D01*
X0184449Y0201362D01*
X0184478Y0201414D01*
X0184511Y0201465D01*
X0184547Y0201514D01*
X0184585Y0201560D01*
X0184627Y0201604D01*
X0184671Y0201646D01*
X0184717Y0201684D01*
X0184766Y0201720D01*
X0184817Y0201753D01*
X0184869Y0201782D01*
X0184924Y0201809D01*
X0184979Y0201832D01*
X0185036Y0201852D01*
X0185095Y0201868D01*
X0185154Y0201881D01*
X0185213Y0201890D01*
X0185274Y0201895D01*
X0185334Y0201897D01*
X0191334Y0201897D01*
X0191394Y0201895D01*
X0191455Y0201890D01*
X0191514Y0201881D01*
X0191573Y0201868D01*
X0191632Y0201852D01*
X0191689Y0201832D01*
X0191744Y0201809D01*
X0191799Y0201782D01*
X0191851Y0201753D01*
X0191902Y0201720D01*
X0191951Y0201684D01*
X0191997Y0201646D01*
X0192041Y0201604D01*
X0192083Y0201560D01*
X0192121Y0201514D01*
X0192157Y0201465D01*
X0192190Y0201414D01*
X0192219Y0201362D01*
X0192246Y0201307D01*
X0192269Y0201252D01*
X0192289Y0201195D01*
X0192305Y0201136D01*
X0192318Y0201077D01*
X0192327Y0201018D01*
X0192332Y0200957D01*
X0192334Y0200897D01*
X0192334Y0194097D01*
X0192332Y0194037D01*
X0192327Y0193976D01*
X0192318Y0193917D01*
X0192305Y0193858D01*
X0192289Y0193799D01*
X0192269Y0193742D01*
X0192246Y0193687D01*
X0192219Y0193632D01*
X0192190Y0193580D01*
X0192157Y0193529D01*
X0192121Y0193480D01*
X0192083Y0193434D01*
X0192041Y0193390D01*
X0191997Y0193348D01*
X0191951Y0193310D01*
X0191902Y0193274D01*
X0191851Y0193241D01*
X0191799Y0193212D01*
X0191744Y0193185D01*
X0191689Y0193162D01*
X0191632Y0193142D01*
X0191573Y0193126D01*
X0191514Y0193113D01*
X0191455Y0193104D01*
X0191394Y0193099D01*
X0191334Y0193097D01*
X0185334Y0193097D01*
X0185274Y0193099D01*
X0185213Y0193104D01*
X0185154Y0193113D01*
X0185095Y0193126D01*
X0185036Y0193142D01*
X0184979Y0193162D01*
X0184924Y0193185D01*
X0184869Y0193212D01*
X0184817Y0193241D01*
X0184766Y0193274D01*
X0184717Y0193310D01*
X0184671Y0193348D01*
X0184627Y0193390D01*
X0184585Y0193434D01*
X0184547Y0193480D01*
X0184511Y0193529D01*
X0184478Y0193580D01*
X0184449Y0193632D01*
X0184422Y0193687D01*
X0184399Y0193742D01*
X0184379Y0193799D01*
X0184363Y0193858D01*
X0184350Y0193917D01*
X0184341Y0193976D01*
X0184336Y0194037D01*
X0184334Y0194097D01*
X0186631Y0191090D02*
X0190034Y0191090D01*
X0190034Y0192224D02*
X0190034Y0189955D01*
X0187765Y0189955D02*
X0186631Y0191090D01*
X0194334Y0194097D02*
X0194334Y0200897D01*
X0194336Y0200957D01*
X0194341Y0201018D01*
X0194350Y0201077D01*
X0194363Y0201136D01*
X0194379Y0201195D01*
X0194399Y0201252D01*
X0194422Y0201307D01*
X0194449Y0201362D01*
X0194478Y0201414D01*
X0194511Y0201465D01*
X0194547Y0201514D01*
X0194585Y0201560D01*
X0194627Y0201604D01*
X0194671Y0201646D01*
X0194717Y0201684D01*
X0194766Y0201720D01*
X0194817Y0201753D01*
X0194869Y0201782D01*
X0194924Y0201809D01*
X0194979Y0201832D01*
X0195036Y0201852D01*
X0195095Y0201868D01*
X0195154Y0201881D01*
X0195213Y0201890D01*
X0195274Y0201895D01*
X0195334Y0201897D01*
X0201334Y0201897D01*
X0201394Y0201895D01*
X0201455Y0201890D01*
X0201514Y0201881D01*
X0201573Y0201868D01*
X0201632Y0201852D01*
X0201689Y0201832D01*
X0201744Y0201809D01*
X0201799Y0201782D01*
X0201851Y0201753D01*
X0201902Y0201720D01*
X0201951Y0201684D01*
X0201997Y0201646D01*
X0202041Y0201604D01*
X0202083Y0201560D01*
X0202121Y0201514D01*
X0202157Y0201465D01*
X0202190Y0201414D01*
X0202219Y0201362D01*
X0202246Y0201307D01*
X0202269Y0201252D01*
X0202289Y0201195D01*
X0202305Y0201136D01*
X0202318Y0201077D01*
X0202327Y0201018D01*
X0202332Y0200957D01*
X0202334Y0200897D01*
X0202334Y0194097D01*
X0202332Y0194037D01*
X0202327Y0193976D01*
X0202318Y0193917D01*
X0202305Y0193858D01*
X0202289Y0193799D01*
X0202269Y0193742D01*
X0202246Y0193687D01*
X0202219Y0193632D01*
X0202190Y0193580D01*
X0202157Y0193529D01*
X0202121Y0193480D01*
X0202083Y0193434D01*
X0202041Y0193390D01*
X0201997Y0193348D01*
X0201951Y0193310D01*
X0201902Y0193274D01*
X0201851Y0193241D01*
X0201799Y0193212D01*
X0201744Y0193185D01*
X0201689Y0193162D01*
X0201632Y0193142D01*
X0201573Y0193126D01*
X0201514Y0193113D01*
X0201455Y0193104D01*
X0201394Y0193099D01*
X0201334Y0193097D01*
X0195334Y0193097D01*
X0195274Y0193099D01*
X0195213Y0193104D01*
X0195154Y0193113D01*
X0195095Y0193126D01*
X0195036Y0193142D01*
X0194979Y0193162D01*
X0194924Y0193185D01*
X0194869Y0193212D01*
X0194817Y0193241D01*
X0194766Y0193274D01*
X0194717Y0193310D01*
X0194671Y0193348D01*
X0194627Y0193390D01*
X0194585Y0193434D01*
X0194547Y0193480D01*
X0194511Y0193529D01*
X0194478Y0193580D01*
X0194449Y0193632D01*
X0194422Y0193687D01*
X0194399Y0193742D01*
X0194379Y0193799D01*
X0194363Y0193858D01*
X0194350Y0193917D01*
X0194341Y0193976D01*
X0194336Y0194037D01*
X0194334Y0194097D01*
X0196631Y0191657D02*
X0196631Y0190523D01*
X0197198Y0189955D01*
X0196631Y0191657D02*
X0197198Y0192224D01*
X0197765Y0192224D01*
X0200034Y0189955D01*
X0200034Y0192224D01*
X0203631Y0192907D02*
X0204765Y0194041D01*
X0207034Y0194041D01*
X0207034Y0195455D02*
X0207034Y0197157D01*
X0206467Y0197724D01*
X0204198Y0197724D01*
X0203631Y0197157D01*
X0203631Y0195455D01*
X0207034Y0195455D01*
X0205332Y0194041D02*
X0205332Y0191772D01*
X0204765Y0191772D02*
X0203631Y0192907D01*
X0204765Y0191772D02*
X0207034Y0191772D01*
X0207034Y0199138D02*
X0203631Y0199138D01*
X0203631Y0200840D01*
X0204198Y0201407D01*
X0205332Y0201407D01*
X0205899Y0200840D01*
X0205899Y0199138D01*
X0205899Y0200273D02*
X0207034Y0201407D01*
X0155609Y0233300D02*
X0155609Y0236703D01*
X0154475Y0236703D02*
X0156744Y0236703D01*
X0157858Y0237900D02*
X0146809Y0237900D01*
X0147109Y0236703D02*
X0148810Y0236703D01*
X0149377Y0236136D01*
X0149377Y0235001D01*
X0148810Y0234434D01*
X0147109Y0234434D01*
X0148243Y0234434D02*
X0149377Y0233300D01*
X0150792Y0233867D02*
X0151359Y0233300D01*
X0152493Y0233300D01*
X0153060Y0233867D01*
X0153060Y0234434D01*
X0152493Y0235001D01*
X0151359Y0235001D01*
X0150792Y0235569D01*
X0150792Y0236136D01*
X0151359Y0236703D01*
X0152493Y0236703D01*
X0153060Y0236136D01*
X0147109Y0236703D02*
X0147109Y0233300D01*
D13*
X0153333Y0070000D02*
X0118333Y0070000D01*
X0130460Y0078186D02*
X0136956Y0078186D01*
X0136956Y0081139D01*
X0120224Y0084091D02*
X0120224Y0095902D01*
X0130460Y0101808D02*
X0136956Y0101808D01*
X0136956Y0098855D01*
X0153333Y0110000D02*
X0118333Y0110000D01*
X0130460Y0118186D02*
X0136956Y0118186D01*
X0136956Y0121139D01*
X0120224Y0124091D02*
X0120224Y0135902D01*
X0130460Y0141808D02*
X0136956Y0141808D01*
X0136956Y0138855D01*
X0153333Y0150000D02*
X0118333Y0150000D01*
X0130460Y0158186D02*
X0136956Y0158186D01*
X0136956Y0161139D01*
X0120224Y0164091D02*
X0120224Y0175902D01*
X0130460Y0181808D02*
X0136956Y0181808D01*
X0136956Y0178855D01*
X0153333Y0190000D02*
X0118333Y0190000D01*
X0130460Y0198186D02*
X0136956Y0198186D01*
X0136956Y0201139D01*
X0120224Y0204091D02*
X0120224Y0215902D01*
X0130460Y0221808D02*
X0136956Y0221808D01*
X0136956Y0218855D01*
X0153333Y0230000D02*
X0118333Y0230000D01*
X0153333Y0230000D02*
X0163333Y0220000D01*
X0163333Y0215000D01*
X0163333Y0205000D02*
X0163333Y0200000D01*
X0153333Y0190000D01*
X0163333Y0180000D01*
X0163333Y0175000D01*
X0163333Y0165000D02*
X0163333Y0160000D01*
X0153333Y0150000D01*
X0163333Y0140000D01*
X0163333Y0135000D01*
X0163333Y0125000D02*
X0163333Y0120000D01*
X0153333Y0110000D01*
X0163333Y0100000D01*
X0163333Y0095000D01*
X0163333Y0085000D02*
X0163333Y0080000D01*
X0153333Y0070000D01*
X0213333Y0080000D02*
X0223333Y0070000D01*
X0258333Y0070000D01*
X0246204Y0078189D02*
X0239708Y0078189D01*
X0239708Y0081141D01*
X0256440Y0084094D02*
X0256440Y0095905D01*
X0246204Y0101811D02*
X0239708Y0101811D01*
X0239708Y0098858D01*
X0223333Y0110000D02*
X0213333Y0100000D01*
X0213333Y0095000D01*
X0213333Y0085000D02*
X0213333Y0080000D01*
X0223333Y0110000D02*
X0258333Y0110000D01*
X0246204Y0118189D02*
X0239708Y0118189D01*
X0239708Y0121141D01*
X0256440Y0124094D02*
X0256440Y0135905D01*
X0246204Y0141811D02*
X0239708Y0141811D01*
X0239708Y0138858D01*
X0223333Y0150000D02*
X0213333Y0140000D01*
X0213333Y0135000D01*
X0213333Y0125000D02*
X0213333Y0120000D01*
X0223333Y0110000D01*
X0223333Y0150000D02*
X0258333Y0150000D01*
X0246204Y0158189D02*
X0239708Y0158189D01*
X0239708Y0161141D01*
X0256440Y0164094D02*
X0256440Y0175905D01*
X0246204Y0181811D02*
X0239708Y0181811D01*
X0239708Y0178858D01*
X0223333Y0190000D02*
X0213333Y0180000D01*
X0213333Y0175000D01*
X0213333Y0165000D02*
X0213333Y0160000D01*
X0223333Y0150000D01*
X0223333Y0190000D02*
X0258333Y0190000D01*
X0246204Y0198189D02*
X0239708Y0198189D01*
X0239708Y0201141D01*
X0256440Y0204094D02*
X0256440Y0215905D01*
X0246204Y0221811D02*
X0239708Y0221811D01*
X0239708Y0218858D01*
X0223333Y0230000D02*
X0258333Y0230000D01*
X0223333Y0230000D02*
X0213333Y0220000D01*
X0213333Y0215000D01*
X0213333Y0205000D02*
X0213333Y0200000D01*
X0223333Y0190000D01*
X0203333Y0235000D02*
X0200333Y0235000D01*
X0203333Y0235000D02*
X0208333Y0240000D01*
X0208333Y0265000D01*
X0194239Y0263110D02*
X0182428Y0263110D01*
X0176522Y0252874D02*
X0176522Y0246378D01*
X0179475Y0246378D01*
X0168333Y0240000D02*
X0168333Y0265000D01*
X0197192Y0246378D02*
X0200144Y0246378D01*
X0200144Y0252874D01*
X0176333Y0235000D02*
X0173333Y0235000D01*
X0168333Y0240000D01*
D14*
X0179672Y0165351D02*
X0179672Y0134643D01*
X0196995Y0134643D01*
X0196995Y0165351D01*
X0190696Y0165351D01*
X0190694Y0165259D01*
X0190688Y0165167D01*
X0190678Y0165076D01*
X0190665Y0164985D01*
X0190647Y0164895D01*
X0190626Y0164805D01*
X0190601Y0164717D01*
X0190572Y0164630D01*
X0190540Y0164544D01*
X0190504Y0164459D01*
X0190464Y0164376D01*
X0190421Y0164295D01*
X0190375Y0164216D01*
X0190325Y0164139D01*
X0190272Y0164064D01*
X0190215Y0163991D01*
X0190156Y0163921D01*
X0190094Y0163853D01*
X0190029Y0163788D01*
X0189961Y0163726D01*
X0189891Y0163667D01*
X0189818Y0163610D01*
X0189743Y0163557D01*
X0189666Y0163507D01*
X0189587Y0163461D01*
X0189506Y0163418D01*
X0189423Y0163378D01*
X0189338Y0163342D01*
X0189252Y0163310D01*
X0189165Y0163281D01*
X0189077Y0163256D01*
X0188987Y0163235D01*
X0188897Y0163217D01*
X0188806Y0163204D01*
X0188715Y0163194D01*
X0188623Y0163188D01*
X0188531Y0163186D01*
X0188439Y0163188D01*
X0188347Y0163194D01*
X0188256Y0163204D01*
X0188165Y0163217D01*
X0188075Y0163235D01*
X0187985Y0163256D01*
X0187897Y0163281D01*
X0187810Y0163310D01*
X0187724Y0163342D01*
X0187639Y0163378D01*
X0187556Y0163418D01*
X0187475Y0163461D01*
X0187396Y0163507D01*
X0187319Y0163557D01*
X0187244Y0163610D01*
X0187171Y0163667D01*
X0187101Y0163726D01*
X0187033Y0163788D01*
X0186968Y0163853D01*
X0186906Y0163921D01*
X0186847Y0163991D01*
X0186790Y0164064D01*
X0186737Y0164139D01*
X0186687Y0164216D01*
X0186641Y0164295D01*
X0186598Y0164376D01*
X0186558Y0164459D01*
X0186522Y0164544D01*
X0186490Y0164630D01*
X0186461Y0164717D01*
X0186436Y0164805D01*
X0186415Y0164895D01*
X0186397Y0164985D01*
X0186384Y0165076D01*
X0186374Y0165167D01*
X0186368Y0165259D01*
X0186366Y0165351D01*
X0186365Y0165351D02*
X0179672Y0165351D01*
X0176533Y0100104D02*
X0175132Y0100104D01*
X0174431Y0099403D01*
X0176533Y0100104D02*
X0177234Y0099403D01*
X0177234Y0098702D01*
X0174431Y0095900D01*
X0177234Y0095900D01*
D15*
X0138958Y0099839D02*
X0138960Y0099886D01*
X0138966Y0099932D01*
X0138975Y0099978D01*
X0138989Y0100022D01*
X0139006Y0100066D01*
X0139027Y0100107D01*
X0139051Y0100147D01*
X0139078Y0100185D01*
X0139109Y0100220D01*
X0139142Y0100253D01*
X0139178Y0100283D01*
X0139217Y0100309D01*
X0139257Y0100333D01*
X0139299Y0100352D01*
X0139343Y0100369D01*
X0139388Y0100381D01*
X0139434Y0100390D01*
X0139480Y0100395D01*
X0139527Y0100396D01*
X0139573Y0100393D01*
X0139619Y0100386D01*
X0139665Y0100375D01*
X0139709Y0100361D01*
X0139752Y0100343D01*
X0139793Y0100321D01*
X0139833Y0100296D01*
X0139870Y0100268D01*
X0139905Y0100237D01*
X0139937Y0100203D01*
X0139966Y0100166D01*
X0139991Y0100128D01*
X0140014Y0100087D01*
X0140033Y0100044D01*
X0140048Y0100000D01*
X0140060Y0099955D01*
X0140068Y0099909D01*
X0140072Y0099862D01*
X0140072Y0099816D01*
X0140068Y0099769D01*
X0140060Y0099723D01*
X0140048Y0099678D01*
X0140033Y0099634D01*
X0140014Y0099591D01*
X0139991Y0099550D01*
X0139966Y0099512D01*
X0139937Y0099475D01*
X0139905Y0099441D01*
X0139870Y0099410D01*
X0139833Y0099382D01*
X0139794Y0099357D01*
X0139752Y0099335D01*
X0139709Y0099317D01*
X0139665Y0099303D01*
X0139619Y0099292D01*
X0139573Y0099285D01*
X0139527Y0099282D01*
X0139480Y0099283D01*
X0139434Y0099288D01*
X0139388Y0099297D01*
X0139343Y0099309D01*
X0139299Y0099326D01*
X0139257Y0099345D01*
X0139217Y0099369D01*
X0139178Y0099395D01*
X0139142Y0099425D01*
X0139109Y0099458D01*
X0139078Y0099493D01*
X0139051Y0099531D01*
X0139027Y0099571D01*
X0139006Y0099612D01*
X0138989Y0099656D01*
X0138975Y0099700D01*
X0138966Y0099746D01*
X0138960Y0099792D01*
X0138958Y0099839D01*
X0138958Y0139839D02*
X0138960Y0139886D01*
X0138966Y0139932D01*
X0138975Y0139978D01*
X0138989Y0140022D01*
X0139006Y0140066D01*
X0139027Y0140107D01*
X0139051Y0140147D01*
X0139078Y0140185D01*
X0139109Y0140220D01*
X0139142Y0140253D01*
X0139178Y0140283D01*
X0139217Y0140309D01*
X0139257Y0140333D01*
X0139299Y0140352D01*
X0139343Y0140369D01*
X0139388Y0140381D01*
X0139434Y0140390D01*
X0139480Y0140395D01*
X0139527Y0140396D01*
X0139573Y0140393D01*
X0139619Y0140386D01*
X0139665Y0140375D01*
X0139709Y0140361D01*
X0139752Y0140343D01*
X0139793Y0140321D01*
X0139833Y0140296D01*
X0139870Y0140268D01*
X0139905Y0140237D01*
X0139937Y0140203D01*
X0139966Y0140166D01*
X0139991Y0140128D01*
X0140014Y0140087D01*
X0140033Y0140044D01*
X0140048Y0140000D01*
X0140060Y0139955D01*
X0140068Y0139909D01*
X0140072Y0139862D01*
X0140072Y0139816D01*
X0140068Y0139769D01*
X0140060Y0139723D01*
X0140048Y0139678D01*
X0140033Y0139634D01*
X0140014Y0139591D01*
X0139991Y0139550D01*
X0139966Y0139512D01*
X0139937Y0139475D01*
X0139905Y0139441D01*
X0139870Y0139410D01*
X0139833Y0139382D01*
X0139794Y0139357D01*
X0139752Y0139335D01*
X0139709Y0139317D01*
X0139665Y0139303D01*
X0139619Y0139292D01*
X0139573Y0139285D01*
X0139527Y0139282D01*
X0139480Y0139283D01*
X0139434Y0139288D01*
X0139388Y0139297D01*
X0139343Y0139309D01*
X0139299Y0139326D01*
X0139257Y0139345D01*
X0139217Y0139369D01*
X0139178Y0139395D01*
X0139142Y0139425D01*
X0139109Y0139458D01*
X0139078Y0139493D01*
X0139051Y0139531D01*
X0139027Y0139571D01*
X0139006Y0139612D01*
X0138989Y0139656D01*
X0138975Y0139700D01*
X0138966Y0139746D01*
X0138960Y0139792D01*
X0138958Y0139839D01*
X0138958Y0179839D02*
X0138960Y0179886D01*
X0138966Y0179932D01*
X0138975Y0179978D01*
X0138989Y0180022D01*
X0139006Y0180066D01*
X0139027Y0180107D01*
X0139051Y0180147D01*
X0139078Y0180185D01*
X0139109Y0180220D01*
X0139142Y0180253D01*
X0139178Y0180283D01*
X0139217Y0180309D01*
X0139257Y0180333D01*
X0139299Y0180352D01*
X0139343Y0180369D01*
X0139388Y0180381D01*
X0139434Y0180390D01*
X0139480Y0180395D01*
X0139527Y0180396D01*
X0139573Y0180393D01*
X0139619Y0180386D01*
X0139665Y0180375D01*
X0139709Y0180361D01*
X0139752Y0180343D01*
X0139793Y0180321D01*
X0139833Y0180296D01*
X0139870Y0180268D01*
X0139905Y0180237D01*
X0139937Y0180203D01*
X0139966Y0180166D01*
X0139991Y0180128D01*
X0140014Y0180087D01*
X0140033Y0180044D01*
X0140048Y0180000D01*
X0140060Y0179955D01*
X0140068Y0179909D01*
X0140072Y0179862D01*
X0140072Y0179816D01*
X0140068Y0179769D01*
X0140060Y0179723D01*
X0140048Y0179678D01*
X0140033Y0179634D01*
X0140014Y0179591D01*
X0139991Y0179550D01*
X0139966Y0179512D01*
X0139937Y0179475D01*
X0139905Y0179441D01*
X0139870Y0179410D01*
X0139833Y0179382D01*
X0139794Y0179357D01*
X0139752Y0179335D01*
X0139709Y0179317D01*
X0139665Y0179303D01*
X0139619Y0179292D01*
X0139573Y0179285D01*
X0139527Y0179282D01*
X0139480Y0179283D01*
X0139434Y0179288D01*
X0139388Y0179297D01*
X0139343Y0179309D01*
X0139299Y0179326D01*
X0139257Y0179345D01*
X0139217Y0179369D01*
X0139178Y0179395D01*
X0139142Y0179425D01*
X0139109Y0179458D01*
X0139078Y0179493D01*
X0139051Y0179531D01*
X0139027Y0179571D01*
X0139006Y0179612D01*
X0138989Y0179656D01*
X0138975Y0179700D01*
X0138966Y0179746D01*
X0138960Y0179792D01*
X0138958Y0179839D01*
X0138958Y0219839D02*
X0138960Y0219886D01*
X0138966Y0219932D01*
X0138975Y0219978D01*
X0138989Y0220022D01*
X0139006Y0220066D01*
X0139027Y0220107D01*
X0139051Y0220147D01*
X0139078Y0220185D01*
X0139109Y0220220D01*
X0139142Y0220253D01*
X0139178Y0220283D01*
X0139217Y0220309D01*
X0139257Y0220333D01*
X0139299Y0220352D01*
X0139343Y0220369D01*
X0139388Y0220381D01*
X0139434Y0220390D01*
X0139480Y0220395D01*
X0139527Y0220396D01*
X0139573Y0220393D01*
X0139619Y0220386D01*
X0139665Y0220375D01*
X0139709Y0220361D01*
X0139752Y0220343D01*
X0139793Y0220321D01*
X0139833Y0220296D01*
X0139870Y0220268D01*
X0139905Y0220237D01*
X0139937Y0220203D01*
X0139966Y0220166D01*
X0139991Y0220128D01*
X0140014Y0220087D01*
X0140033Y0220044D01*
X0140048Y0220000D01*
X0140060Y0219955D01*
X0140068Y0219909D01*
X0140072Y0219862D01*
X0140072Y0219816D01*
X0140068Y0219769D01*
X0140060Y0219723D01*
X0140048Y0219678D01*
X0140033Y0219634D01*
X0140014Y0219591D01*
X0139991Y0219550D01*
X0139966Y0219512D01*
X0139937Y0219475D01*
X0139905Y0219441D01*
X0139870Y0219410D01*
X0139833Y0219382D01*
X0139794Y0219357D01*
X0139752Y0219335D01*
X0139709Y0219317D01*
X0139665Y0219303D01*
X0139619Y0219292D01*
X0139573Y0219285D01*
X0139527Y0219282D01*
X0139480Y0219283D01*
X0139434Y0219288D01*
X0139388Y0219297D01*
X0139343Y0219309D01*
X0139299Y0219326D01*
X0139257Y0219345D01*
X0139217Y0219369D01*
X0139178Y0219395D01*
X0139142Y0219425D01*
X0139109Y0219458D01*
X0139078Y0219493D01*
X0139051Y0219531D01*
X0139027Y0219571D01*
X0139006Y0219612D01*
X0138989Y0219656D01*
X0138975Y0219700D01*
X0138966Y0219746D01*
X0138960Y0219792D01*
X0138958Y0219839D01*
X0197619Y0243819D02*
X0197621Y0243866D01*
X0197627Y0243912D01*
X0197636Y0243958D01*
X0197650Y0244002D01*
X0197667Y0244046D01*
X0197688Y0244087D01*
X0197712Y0244127D01*
X0197739Y0244165D01*
X0197770Y0244200D01*
X0197803Y0244233D01*
X0197839Y0244263D01*
X0197878Y0244289D01*
X0197918Y0244313D01*
X0197960Y0244332D01*
X0198004Y0244349D01*
X0198049Y0244361D01*
X0198095Y0244370D01*
X0198141Y0244375D01*
X0198188Y0244376D01*
X0198234Y0244373D01*
X0198280Y0244366D01*
X0198326Y0244355D01*
X0198370Y0244341D01*
X0198413Y0244323D01*
X0198454Y0244301D01*
X0198494Y0244276D01*
X0198531Y0244248D01*
X0198566Y0244217D01*
X0198598Y0244183D01*
X0198627Y0244146D01*
X0198652Y0244108D01*
X0198675Y0244067D01*
X0198694Y0244024D01*
X0198709Y0243980D01*
X0198721Y0243935D01*
X0198729Y0243889D01*
X0198733Y0243842D01*
X0198733Y0243796D01*
X0198729Y0243749D01*
X0198721Y0243703D01*
X0198709Y0243658D01*
X0198694Y0243614D01*
X0198675Y0243571D01*
X0198652Y0243530D01*
X0198627Y0243492D01*
X0198598Y0243455D01*
X0198566Y0243421D01*
X0198531Y0243390D01*
X0198494Y0243362D01*
X0198455Y0243337D01*
X0198413Y0243315D01*
X0198370Y0243297D01*
X0198326Y0243283D01*
X0198280Y0243272D01*
X0198234Y0243265D01*
X0198188Y0243262D01*
X0198141Y0243263D01*
X0198095Y0243268D01*
X0198049Y0243277D01*
X0198004Y0243289D01*
X0197960Y0243306D01*
X0197918Y0243325D01*
X0197878Y0243349D01*
X0197839Y0243375D01*
X0197803Y0243405D01*
X0197770Y0243438D01*
X0197739Y0243473D01*
X0197712Y0243511D01*
X0197688Y0243551D01*
X0197667Y0243592D01*
X0197650Y0243636D01*
X0197636Y0243680D01*
X0197627Y0243726D01*
X0197621Y0243772D01*
X0197619Y0243819D01*
X0236592Y0200157D02*
X0236594Y0200204D01*
X0236600Y0200250D01*
X0236609Y0200296D01*
X0236623Y0200340D01*
X0236640Y0200384D01*
X0236661Y0200425D01*
X0236685Y0200465D01*
X0236712Y0200503D01*
X0236743Y0200538D01*
X0236776Y0200571D01*
X0236812Y0200601D01*
X0236851Y0200627D01*
X0236891Y0200651D01*
X0236933Y0200670D01*
X0236977Y0200687D01*
X0237022Y0200699D01*
X0237068Y0200708D01*
X0237114Y0200713D01*
X0237161Y0200714D01*
X0237207Y0200711D01*
X0237253Y0200704D01*
X0237299Y0200693D01*
X0237343Y0200679D01*
X0237386Y0200661D01*
X0237427Y0200639D01*
X0237467Y0200614D01*
X0237504Y0200586D01*
X0237539Y0200555D01*
X0237571Y0200521D01*
X0237600Y0200484D01*
X0237625Y0200446D01*
X0237648Y0200405D01*
X0237667Y0200362D01*
X0237682Y0200318D01*
X0237694Y0200273D01*
X0237702Y0200227D01*
X0237706Y0200180D01*
X0237706Y0200134D01*
X0237702Y0200087D01*
X0237694Y0200041D01*
X0237682Y0199996D01*
X0237667Y0199952D01*
X0237648Y0199909D01*
X0237625Y0199868D01*
X0237600Y0199830D01*
X0237571Y0199793D01*
X0237539Y0199759D01*
X0237504Y0199728D01*
X0237467Y0199700D01*
X0237428Y0199675D01*
X0237386Y0199653D01*
X0237343Y0199635D01*
X0237299Y0199621D01*
X0237253Y0199610D01*
X0237207Y0199603D01*
X0237161Y0199600D01*
X0237114Y0199601D01*
X0237068Y0199606D01*
X0237022Y0199615D01*
X0236977Y0199627D01*
X0236933Y0199644D01*
X0236891Y0199663D01*
X0236851Y0199687D01*
X0236812Y0199713D01*
X0236776Y0199743D01*
X0236743Y0199776D01*
X0236712Y0199811D01*
X0236685Y0199849D01*
X0236661Y0199889D01*
X0236640Y0199930D01*
X0236623Y0199974D01*
X0236609Y0200018D01*
X0236600Y0200064D01*
X0236594Y0200110D01*
X0236592Y0200157D01*
X0236592Y0160157D02*
X0236594Y0160204D01*
X0236600Y0160250D01*
X0236609Y0160296D01*
X0236623Y0160340D01*
X0236640Y0160384D01*
X0236661Y0160425D01*
X0236685Y0160465D01*
X0236712Y0160503D01*
X0236743Y0160538D01*
X0236776Y0160571D01*
X0236812Y0160601D01*
X0236851Y0160627D01*
X0236891Y0160651D01*
X0236933Y0160670D01*
X0236977Y0160687D01*
X0237022Y0160699D01*
X0237068Y0160708D01*
X0237114Y0160713D01*
X0237161Y0160714D01*
X0237207Y0160711D01*
X0237253Y0160704D01*
X0237299Y0160693D01*
X0237343Y0160679D01*
X0237386Y0160661D01*
X0237427Y0160639D01*
X0237467Y0160614D01*
X0237504Y0160586D01*
X0237539Y0160555D01*
X0237571Y0160521D01*
X0237600Y0160484D01*
X0237625Y0160446D01*
X0237648Y0160405D01*
X0237667Y0160362D01*
X0237682Y0160318D01*
X0237694Y0160273D01*
X0237702Y0160227D01*
X0237706Y0160180D01*
X0237706Y0160134D01*
X0237702Y0160087D01*
X0237694Y0160041D01*
X0237682Y0159996D01*
X0237667Y0159952D01*
X0237648Y0159909D01*
X0237625Y0159868D01*
X0237600Y0159830D01*
X0237571Y0159793D01*
X0237539Y0159759D01*
X0237504Y0159728D01*
X0237467Y0159700D01*
X0237428Y0159675D01*
X0237386Y0159653D01*
X0237343Y0159635D01*
X0237299Y0159621D01*
X0237253Y0159610D01*
X0237207Y0159603D01*
X0237161Y0159600D01*
X0237114Y0159601D01*
X0237068Y0159606D01*
X0237022Y0159615D01*
X0236977Y0159627D01*
X0236933Y0159644D01*
X0236891Y0159663D01*
X0236851Y0159687D01*
X0236812Y0159713D01*
X0236776Y0159743D01*
X0236743Y0159776D01*
X0236712Y0159811D01*
X0236685Y0159849D01*
X0236661Y0159889D01*
X0236640Y0159930D01*
X0236623Y0159974D01*
X0236609Y0160018D01*
X0236600Y0160064D01*
X0236594Y0160110D01*
X0236592Y0160157D01*
X0236592Y0120157D02*
X0236594Y0120204D01*
X0236600Y0120250D01*
X0236609Y0120296D01*
X0236623Y0120340D01*
X0236640Y0120384D01*
X0236661Y0120425D01*
X0236685Y0120465D01*
X0236712Y0120503D01*
X0236743Y0120538D01*
X0236776Y0120571D01*
X0236812Y0120601D01*
X0236851Y0120627D01*
X0236891Y0120651D01*
X0236933Y0120670D01*
X0236977Y0120687D01*
X0237022Y0120699D01*
X0237068Y0120708D01*
X0237114Y0120713D01*
X0237161Y0120714D01*
X0237207Y0120711D01*
X0237253Y0120704D01*
X0237299Y0120693D01*
X0237343Y0120679D01*
X0237386Y0120661D01*
X0237427Y0120639D01*
X0237467Y0120614D01*
X0237504Y0120586D01*
X0237539Y0120555D01*
X0237571Y0120521D01*
X0237600Y0120484D01*
X0237625Y0120446D01*
X0237648Y0120405D01*
X0237667Y0120362D01*
X0237682Y0120318D01*
X0237694Y0120273D01*
X0237702Y0120227D01*
X0237706Y0120180D01*
X0237706Y0120134D01*
X0237702Y0120087D01*
X0237694Y0120041D01*
X0237682Y0119996D01*
X0237667Y0119952D01*
X0237648Y0119909D01*
X0237625Y0119868D01*
X0237600Y0119830D01*
X0237571Y0119793D01*
X0237539Y0119759D01*
X0237504Y0119728D01*
X0237467Y0119700D01*
X0237428Y0119675D01*
X0237386Y0119653D01*
X0237343Y0119635D01*
X0237299Y0119621D01*
X0237253Y0119610D01*
X0237207Y0119603D01*
X0237161Y0119600D01*
X0237114Y0119601D01*
X0237068Y0119606D01*
X0237022Y0119615D01*
X0236977Y0119627D01*
X0236933Y0119644D01*
X0236891Y0119663D01*
X0236851Y0119687D01*
X0236812Y0119713D01*
X0236776Y0119743D01*
X0236743Y0119776D01*
X0236712Y0119811D01*
X0236685Y0119849D01*
X0236661Y0119889D01*
X0236640Y0119930D01*
X0236623Y0119974D01*
X0236609Y0120018D01*
X0236600Y0120064D01*
X0236594Y0120110D01*
X0236592Y0120157D01*
X0236592Y0080157D02*
X0236594Y0080204D01*
X0236600Y0080250D01*
X0236609Y0080296D01*
X0236623Y0080340D01*
X0236640Y0080384D01*
X0236661Y0080425D01*
X0236685Y0080465D01*
X0236712Y0080503D01*
X0236743Y0080538D01*
X0236776Y0080571D01*
X0236812Y0080601D01*
X0236851Y0080627D01*
X0236891Y0080651D01*
X0236933Y0080670D01*
X0236977Y0080687D01*
X0237022Y0080699D01*
X0237068Y0080708D01*
X0237114Y0080713D01*
X0237161Y0080714D01*
X0237207Y0080711D01*
X0237253Y0080704D01*
X0237299Y0080693D01*
X0237343Y0080679D01*
X0237386Y0080661D01*
X0237427Y0080639D01*
X0237467Y0080614D01*
X0237504Y0080586D01*
X0237539Y0080555D01*
X0237571Y0080521D01*
X0237600Y0080484D01*
X0237625Y0080446D01*
X0237648Y0080405D01*
X0237667Y0080362D01*
X0237682Y0080318D01*
X0237694Y0080273D01*
X0237702Y0080227D01*
X0237706Y0080180D01*
X0237706Y0080134D01*
X0237702Y0080087D01*
X0237694Y0080041D01*
X0237682Y0079996D01*
X0237667Y0079952D01*
X0237648Y0079909D01*
X0237625Y0079868D01*
X0237600Y0079830D01*
X0237571Y0079793D01*
X0237539Y0079759D01*
X0237504Y0079728D01*
X0237467Y0079700D01*
X0237428Y0079675D01*
X0237386Y0079653D01*
X0237343Y0079635D01*
X0237299Y0079621D01*
X0237253Y0079610D01*
X0237207Y0079603D01*
X0237161Y0079600D01*
X0237114Y0079601D01*
X0237068Y0079606D01*
X0237022Y0079615D01*
X0236977Y0079627D01*
X0236933Y0079644D01*
X0236891Y0079663D01*
X0236851Y0079687D01*
X0236812Y0079713D01*
X0236776Y0079743D01*
X0236743Y0079776D01*
X0236712Y0079811D01*
X0236685Y0079849D01*
X0236661Y0079889D01*
X0236640Y0079930D01*
X0236623Y0079974D01*
X0236609Y0080018D01*
X0236600Y0080064D01*
X0236594Y0080110D01*
X0236592Y0080157D01*
D16*
X0209940Y0111701D02*
X0208404Y0111701D01*
X0208404Y0114850D01*
X0208365Y0115165D01*
X0208325Y0115441D01*
X0208286Y0115677D01*
X0208168Y0115874D01*
X0208050Y0116031D01*
X0207853Y0116150D01*
X0207656Y0116189D01*
X0207420Y0116228D01*
X0207105Y0116189D01*
X0206869Y0116150D01*
X0206672Y0116031D01*
X0206514Y0115835D01*
X0206396Y0115638D01*
X0206278Y0115362D01*
X0206239Y0115008D01*
X0206239Y0111701D01*
X0204703Y0111701D01*
X0204703Y0116583D01*
X0204703Y0117291D01*
X0206160Y0117291D01*
X0206160Y0116504D01*
X0206199Y0116504D01*
X0206357Y0116740D01*
X0206514Y0116898D01*
X0206711Y0117055D01*
X0206948Y0117213D01*
X0207184Y0117291D01*
X0207420Y0117370D01*
X0207656Y0117409D01*
X0207892Y0117409D01*
X0208444Y0117370D01*
X0208877Y0117252D01*
X0209231Y0117055D01*
X0209507Y0116780D01*
X0209703Y0116465D01*
X0209822Y0116071D01*
X0209900Y0115638D01*
X0209940Y0115126D01*
X0209940Y0111701D01*
X0209940Y0111792D02*
X0208404Y0111792D01*
X0208404Y0112090D02*
X0209940Y0112090D01*
X0209940Y0112389D02*
X0208404Y0112389D01*
X0208404Y0112687D02*
X0209940Y0112687D01*
X0209940Y0112986D02*
X0208404Y0112986D01*
X0208404Y0113284D02*
X0209940Y0113284D01*
X0209940Y0113583D02*
X0208404Y0113583D01*
X0208404Y0113881D02*
X0209940Y0113881D01*
X0209940Y0114180D02*
X0208404Y0114180D01*
X0208404Y0114478D02*
X0209940Y0114478D01*
X0209940Y0114777D02*
X0208404Y0114777D01*
X0208376Y0115075D02*
X0209940Y0115075D01*
X0209921Y0115374D02*
X0208335Y0115374D01*
X0208287Y0115672D02*
X0209894Y0115672D01*
X0209840Y0115971D02*
X0208095Y0115971D01*
X0206624Y0115971D02*
X0204703Y0115971D01*
X0204703Y0116270D02*
X0209762Y0116270D01*
X0209639Y0116568D02*
X0206242Y0116568D01*
X0206160Y0116568D02*
X0204703Y0116568D01*
X0204703Y0116867D02*
X0206160Y0116867D01*
X0206160Y0117165D02*
X0204703Y0117165D01*
X0203877Y0117165D02*
X0202341Y0117165D01*
X0202341Y0117291D02*
X0203877Y0117291D01*
X0203877Y0112409D01*
X0203877Y0111701D01*
X0202420Y0111701D01*
X0202420Y0112488D01*
X0202381Y0112488D01*
X0202223Y0112252D01*
X0202066Y0112055D01*
X0201869Y0111898D01*
X0201633Y0111780D01*
X0201436Y0111701D01*
X0201199Y0111622D01*
X0200924Y0111583D01*
X0200688Y0111543D01*
X0200136Y0111583D01*
X0199703Y0111740D01*
X0199349Y0111937D01*
X0199073Y0112173D01*
X0198877Y0112528D01*
X0198759Y0112921D01*
X0198680Y0113354D01*
X0198680Y0117291D01*
X0200176Y0117291D01*
X0200176Y0114142D01*
X0200215Y0113827D01*
X0200255Y0113512D01*
X0200294Y0113276D01*
X0200412Y0113118D01*
X0200530Y0112961D01*
X0200727Y0112843D01*
X0200924Y0112803D01*
X0201160Y0112764D01*
X0201475Y0112803D01*
X0201711Y0112843D01*
X0201908Y0112961D01*
X0202066Y0113118D01*
X0202184Y0113354D01*
X0202302Y0113630D01*
X0202341Y0113945D01*
X0202341Y0117291D01*
X0202341Y0116867D02*
X0203877Y0116867D01*
X0203877Y0116568D02*
X0202341Y0116568D01*
X0202341Y0116270D02*
X0203877Y0116270D01*
X0203877Y0115971D02*
X0202341Y0115971D01*
X0202341Y0115672D02*
X0203877Y0115672D01*
X0203877Y0115374D02*
X0202341Y0115374D01*
X0202341Y0115075D02*
X0203877Y0115075D01*
X0203877Y0114777D02*
X0202341Y0114777D01*
X0202341Y0114478D02*
X0203877Y0114478D01*
X0203877Y0114180D02*
X0202341Y0114180D01*
X0202333Y0113881D02*
X0203877Y0113881D01*
X0203877Y0113583D02*
X0202282Y0113583D01*
X0202149Y0113284D02*
X0203877Y0113284D01*
X0203877Y0112986D02*
X0201933Y0112986D01*
X0202314Y0112389D02*
X0198954Y0112389D01*
X0198829Y0112687D02*
X0203877Y0112687D01*
X0203877Y0112389D02*
X0202420Y0112389D01*
X0202420Y0112090D02*
X0203877Y0112090D01*
X0203877Y0111792D02*
X0202420Y0111792D01*
X0202094Y0112090D02*
X0199170Y0112090D01*
X0199610Y0111792D02*
X0201657Y0111792D01*
X0200511Y0112986D02*
X0198747Y0112986D01*
X0198693Y0113284D02*
X0200292Y0113284D01*
X0200246Y0113583D02*
X0198680Y0113583D01*
X0198680Y0113881D02*
X0200208Y0113881D01*
X0200176Y0114180D02*
X0198680Y0114180D01*
X0198680Y0114478D02*
X0200176Y0114478D01*
X0200176Y0114777D02*
X0198680Y0114777D01*
X0198680Y0115075D02*
X0200176Y0115075D01*
X0200176Y0115374D02*
X0198680Y0115374D01*
X0198680Y0115672D02*
X0200176Y0115672D01*
X0200176Y0115971D02*
X0198680Y0115971D01*
X0198680Y0116270D02*
X0200176Y0116270D01*
X0200176Y0116568D02*
X0198680Y0116568D01*
X0198680Y0116867D02*
X0200176Y0116867D01*
X0200176Y0117165D02*
X0198680Y0117165D01*
X0198207Y0117165D02*
X0195081Y0117165D01*
X0195058Y0117134D02*
X0195176Y0117291D01*
X0195648Y0117291D01*
X0195648Y0118079D01*
X0195766Y0118394D01*
X0195885Y0118669D01*
X0196081Y0118906D01*
X0196357Y0119102D01*
X0196672Y0119260D01*
X0197066Y0119378D01*
X0198207Y0119378D01*
X0198286Y0119339D01*
X0198286Y0118236D01*
X0197617Y0118236D01*
X0197459Y0118197D01*
X0197381Y0118157D01*
X0197302Y0118118D01*
X0197223Y0118000D01*
X0197184Y0117921D01*
X0197184Y0117764D01*
X0197144Y0117606D01*
X0197144Y0117291D01*
X0198207Y0117291D01*
X0198207Y0116268D01*
X0197144Y0116268D01*
X0197144Y0111701D01*
X0195648Y0111701D01*
X0195648Y0115677D01*
X0195648Y0116268D01*
X0194113Y0116268D01*
X0194270Y0116386D01*
X0194388Y0116504D01*
X0194507Y0116622D01*
X0194664Y0116780D01*
X0194782Y0116898D01*
X0194900Y0117016D01*
X0195058Y0117134D01*
X0194751Y0116867D02*
X0198207Y0116867D01*
X0198207Y0116568D02*
X0194453Y0116568D01*
X0194115Y0116270D02*
X0198207Y0116270D01*
X0197144Y0115971D02*
X0195648Y0115971D01*
X0195648Y0115672D02*
X0197144Y0115672D01*
X0197144Y0115374D02*
X0195648Y0115374D01*
X0195648Y0115075D02*
X0197144Y0115075D01*
X0197144Y0114777D02*
X0195648Y0114777D01*
X0195648Y0114478D02*
X0197144Y0114478D01*
X0197144Y0114180D02*
X0195648Y0114180D01*
X0195648Y0113881D02*
X0197144Y0113881D01*
X0197144Y0113583D02*
X0195648Y0113583D01*
X0195648Y0113284D02*
X0197144Y0113284D01*
X0197144Y0112986D02*
X0195648Y0112986D01*
X0195648Y0112687D02*
X0197144Y0112687D01*
X0197144Y0112389D02*
X0195648Y0112389D01*
X0195648Y0112090D02*
X0197144Y0112090D01*
X0197144Y0111792D02*
X0195648Y0111792D01*
X0194703Y0111701D02*
X0192853Y0111701D01*
X0191318Y0114181D01*
X0190727Y0113630D01*
X0190727Y0111701D01*
X0189192Y0111701D01*
X0189192Y0118551D01*
X0190727Y0119378D01*
X0190727Y0115283D01*
X0192656Y0117291D01*
X0194467Y0117291D01*
X0192381Y0115244D01*
X0194703Y0111701D01*
X0194644Y0111792D02*
X0192797Y0111792D01*
X0192612Y0112090D02*
X0194448Y0112090D01*
X0194252Y0112389D02*
X0192427Y0112389D01*
X0192242Y0112687D02*
X0194057Y0112687D01*
X0193861Y0112986D02*
X0192057Y0112986D01*
X0191873Y0113284D02*
X0193665Y0113284D01*
X0193470Y0113583D02*
X0191688Y0113583D01*
X0191503Y0113881D02*
X0193274Y0113881D01*
X0193078Y0114180D02*
X0191318Y0114180D01*
X0191316Y0114180D02*
X0189192Y0114180D01*
X0189192Y0114478D02*
X0192882Y0114478D01*
X0192687Y0114777D02*
X0189192Y0114777D01*
X0189192Y0115075D02*
X0192491Y0115075D01*
X0192513Y0115374D02*
X0190814Y0115374D01*
X0190727Y0115374D02*
X0189192Y0115374D01*
X0189192Y0115672D02*
X0190727Y0115672D01*
X0190727Y0115971D02*
X0189192Y0115971D01*
X0189192Y0116270D02*
X0190727Y0116270D01*
X0190727Y0116568D02*
X0189192Y0116568D01*
X0189192Y0116867D02*
X0190727Y0116867D01*
X0190727Y0117165D02*
X0189192Y0117165D01*
X0189192Y0117464D02*
X0190727Y0117464D01*
X0190727Y0117762D02*
X0189192Y0117762D01*
X0189192Y0118061D02*
X0190727Y0118061D01*
X0190727Y0118359D02*
X0189192Y0118359D01*
X0189389Y0118658D02*
X0190727Y0118658D01*
X0190727Y0118956D02*
X0189944Y0118956D01*
X0190498Y0119255D02*
X0190727Y0119255D01*
X0192341Y0119255D02*
X0193085Y0119255D01*
X0193089Y0119260D02*
X0193325Y0119496D01*
X0193522Y0119772D01*
X0193798Y0120047D01*
X0194034Y0120283D01*
X0194231Y0120520D01*
X0194428Y0120677D01*
X0194625Y0120835D01*
X0194822Y0120953D01*
X0195058Y0120992D01*
X0195806Y0120992D01*
X0196278Y0121071D01*
X0196711Y0121189D01*
X0197105Y0121346D01*
X0197499Y0121583D01*
X0197814Y0121858D01*
X0198129Y0122173D01*
X0198404Y0122528D01*
X0198798Y0123236D01*
X0198995Y0123945D01*
X0199034Y0124654D01*
X0198916Y0125283D01*
X0198719Y0125835D01*
X0198444Y0126307D01*
X0198129Y0126661D01*
X0197814Y0126819D01*
X0197814Y0126504D01*
X0197774Y0126386D01*
X0197735Y0126268D01*
X0197617Y0126189D01*
X0197499Y0126150D01*
X0197223Y0126150D01*
X0197066Y0126228D01*
X0196908Y0126307D01*
X0196790Y0126386D01*
X0196633Y0126504D01*
X0196514Y0126583D01*
X0196396Y0126701D01*
X0196318Y0126858D01*
X0196239Y0126976D01*
X0196199Y0127134D01*
X0196160Y0127252D01*
X0196199Y0127370D01*
X0196239Y0127449D01*
X0196278Y0127567D01*
X0196357Y0127685D01*
X0196514Y0127803D01*
X0196672Y0127882D01*
X0196869Y0127921D01*
X0197026Y0127961D01*
X0197144Y0127961D01*
X0197262Y0127921D01*
X0197381Y0127921D01*
X0197341Y0127961D01*
X0197184Y0128079D01*
X0196948Y0128197D01*
X0196633Y0128315D01*
X0196278Y0128433D01*
X0195885Y0128433D01*
X0195451Y0128354D01*
X0195018Y0128118D01*
X0194664Y0127803D01*
X0194467Y0127528D01*
X0194349Y0127173D01*
X0194349Y0126858D01*
X0194428Y0126504D01*
X0194625Y0126150D01*
X0194900Y0125835D01*
X0195215Y0125480D01*
X0195491Y0125165D01*
X0195609Y0124890D01*
X0195609Y0124614D01*
X0195530Y0124378D01*
X0195373Y0124181D01*
X0195136Y0124024D01*
X0194822Y0123945D01*
X0194507Y0123945D01*
X0194310Y0123984D01*
X0194113Y0124063D01*
X0193995Y0124142D01*
X0193877Y0124260D01*
X0193798Y0124417D01*
X0193759Y0124535D01*
X0193759Y0124654D01*
X0193798Y0124772D01*
X0193877Y0124890D01*
X0193955Y0124969D01*
X0194034Y0125047D01*
X0194152Y0125087D01*
X0194231Y0125126D01*
X0194310Y0125165D01*
X0194349Y0125205D01*
X0194270Y0125244D01*
X0194192Y0125244D01*
X0194034Y0125283D01*
X0193719Y0125283D01*
X0193483Y0125244D01*
X0193286Y0125165D01*
X0193089Y0125087D01*
X0192932Y0124969D01*
X0192735Y0124850D01*
X0192617Y0124654D01*
X0192499Y0124417D01*
X0192420Y0124181D01*
X0192381Y0123827D01*
X0192341Y0123472D01*
X0192341Y0118433D01*
X0192381Y0118433D01*
X0192459Y0118551D01*
X0192577Y0118669D01*
X0192696Y0118827D01*
X0192892Y0119024D01*
X0193089Y0119260D01*
X0192825Y0118956D02*
X0192341Y0118956D01*
X0192341Y0118658D02*
X0192566Y0118658D01*
X0192341Y0119553D02*
X0193366Y0119553D01*
X0193602Y0119852D02*
X0192341Y0119852D01*
X0192341Y0120150D02*
X0193901Y0120150D01*
X0194172Y0120449D02*
X0192341Y0120449D01*
X0192341Y0120747D02*
X0194515Y0120747D01*
X0196127Y0121046D02*
X0192341Y0121046D01*
X0192341Y0121344D02*
X0197099Y0121344D01*
X0197567Y0121643D02*
X0192341Y0121643D01*
X0192341Y0121941D02*
X0197897Y0121941D01*
X0198180Y0122240D02*
X0192341Y0122240D01*
X0192341Y0122538D02*
X0198410Y0122538D01*
X0198576Y0122837D02*
X0192341Y0122837D01*
X0192341Y0123135D02*
X0198742Y0123135D01*
X0198853Y0123434D02*
X0192341Y0123434D01*
X0192370Y0123732D02*
X0198936Y0123732D01*
X0199000Y0124031D02*
X0195147Y0124031D01*
X0195491Y0124329D02*
X0199016Y0124329D01*
X0199033Y0124628D02*
X0195609Y0124628D01*
X0195593Y0124926D02*
X0198983Y0124926D01*
X0198927Y0125225D02*
X0195439Y0125225D01*
X0195177Y0125523D02*
X0198830Y0125523D01*
X0198724Y0125822D02*
X0194912Y0125822D01*
X0194650Y0126120D02*
X0198552Y0126120D01*
X0198344Y0126419D02*
X0197785Y0126419D01*
X0197814Y0126717D02*
X0198017Y0126717D01*
X0196746Y0126419D02*
X0194475Y0126419D01*
X0194380Y0126717D02*
X0196388Y0126717D01*
X0196229Y0127016D02*
X0194349Y0127016D01*
X0194396Y0127314D02*
X0196181Y0127314D01*
X0196309Y0127613D02*
X0194528Y0127613D01*
X0194786Y0127911D02*
X0196820Y0127911D01*
X0196913Y0128210D02*
X0195187Y0128210D01*
X0194309Y0125225D02*
X0193435Y0125225D01*
X0193913Y0124926D02*
X0192861Y0124926D01*
X0192604Y0124628D02*
X0193759Y0124628D01*
X0193842Y0124329D02*
X0192469Y0124329D01*
X0192403Y0124031D02*
X0194193Y0124031D01*
X0196661Y0119255D02*
X0198286Y0119255D01*
X0198286Y0118956D02*
X0196152Y0118956D01*
X0195879Y0118658D02*
X0198286Y0118658D01*
X0198286Y0118359D02*
X0195753Y0118359D01*
X0195648Y0118061D02*
X0197263Y0118061D01*
X0197183Y0117762D02*
X0195648Y0117762D01*
X0195648Y0117464D02*
X0197144Y0117464D01*
X0194338Y0117165D02*
X0192535Y0117165D01*
X0192248Y0116867D02*
X0194034Y0116867D01*
X0193730Y0116568D02*
X0191961Y0116568D01*
X0191674Y0116270D02*
X0193426Y0116270D01*
X0193121Y0115971D02*
X0191388Y0115971D01*
X0191101Y0115672D02*
X0192817Y0115672D01*
X0190997Y0113881D02*
X0189192Y0113881D01*
X0189192Y0113583D02*
X0190727Y0113583D01*
X0190727Y0113284D02*
X0189192Y0113284D01*
X0189192Y0112986D02*
X0190727Y0112986D01*
X0190727Y0112687D02*
X0189192Y0112687D01*
X0189192Y0112389D02*
X0190727Y0112389D01*
X0190727Y0112090D02*
X0189192Y0112090D01*
X0189192Y0111792D02*
X0190727Y0111792D01*
X0186554Y0111792D02*
X0185018Y0111792D01*
X0185018Y0111701D02*
X0185018Y0116346D01*
X0185018Y0117016D01*
X0185215Y0117055D01*
X0185373Y0117094D01*
X0185570Y0117094D01*
X0185766Y0117134D01*
X0185924Y0117173D01*
X0186121Y0117213D01*
X0186318Y0117252D01*
X0186475Y0117291D01*
X0186475Y0116228D01*
X0186633Y0116504D01*
X0186790Y0116701D01*
X0186987Y0116937D01*
X0187184Y0117094D01*
X0187459Y0117252D01*
X0187696Y0117331D01*
X0187971Y0117409D01*
X0188522Y0117409D01*
X0188562Y0117370D01*
X0188601Y0117370D01*
X0188601Y0115953D01*
X0188562Y0115953D01*
X0188483Y0115992D01*
X0188050Y0115992D01*
X0187656Y0115953D01*
X0187341Y0115874D01*
X0187066Y0115717D01*
X0186869Y0115480D01*
X0186711Y0115205D01*
X0186633Y0114929D01*
X0186554Y0114575D01*
X0186554Y0111701D01*
X0185018Y0111701D01*
X0185018Y0112090D02*
X0186554Y0112090D01*
X0186554Y0112389D02*
X0185018Y0112389D01*
X0185018Y0112687D02*
X0186554Y0112687D01*
X0186554Y0112986D02*
X0185018Y0112986D01*
X0185018Y0113284D02*
X0186554Y0113284D01*
X0186554Y0113583D02*
X0185018Y0113583D01*
X0185018Y0113881D02*
X0186554Y0113881D01*
X0186554Y0114180D02*
X0185018Y0114180D01*
X0185018Y0114478D02*
X0186554Y0114478D01*
X0186599Y0114777D02*
X0185018Y0114777D01*
X0185018Y0115075D02*
X0186674Y0115075D01*
X0186808Y0115374D02*
X0185018Y0115374D01*
X0185018Y0115672D02*
X0187029Y0115672D01*
X0186499Y0116270D02*
X0188601Y0116270D01*
X0188601Y0116568D02*
X0186684Y0116568D01*
X0186475Y0116568D02*
X0185018Y0116568D01*
X0185018Y0116270D02*
X0186475Y0116270D01*
X0186475Y0116867D02*
X0185018Y0116867D01*
X0185018Y0115971D02*
X0187839Y0115971D01*
X0188525Y0115971D02*
X0188601Y0115971D01*
X0188601Y0116867D02*
X0186928Y0116867D01*
X0187307Y0117165D02*
X0188601Y0117165D01*
X0186475Y0117165D02*
X0185891Y0117165D01*
X0184034Y0116465D02*
X0184113Y0116268D01*
X0184152Y0116071D01*
X0184152Y0112646D01*
X0184192Y0112567D01*
X0184192Y0112213D01*
X0184231Y0112134D01*
X0184231Y0112055D01*
X0184270Y0111976D01*
X0184270Y0111858D01*
X0184310Y0111780D01*
X0184349Y0111740D01*
X0184349Y0111701D01*
X0182814Y0111701D01*
X0182814Y0111740D01*
X0182774Y0111780D01*
X0182774Y0111819D01*
X0182735Y0111858D01*
X0182735Y0111976D01*
X0182696Y0112016D01*
X0182696Y0112252D01*
X0182617Y0112134D01*
X0182499Y0112055D01*
X0182420Y0111976D01*
X0182302Y0111898D01*
X0182184Y0111858D01*
X0182066Y0111780D01*
X0181948Y0111740D01*
X0181829Y0111701D01*
X0181711Y0111661D01*
X0181593Y0111622D01*
X0181475Y0111622D01*
X0181357Y0111583D01*
X0181199Y0111583D01*
X0181081Y0111543D01*
X0180648Y0111543D01*
X0180451Y0111583D01*
X0180255Y0111583D01*
X0180097Y0111622D01*
X0179900Y0111701D01*
X0179743Y0111780D01*
X0179625Y0111858D01*
X0179467Y0111937D01*
X0179349Y0112055D01*
X0179270Y0112173D01*
X0179152Y0112331D01*
X0179073Y0112449D01*
X0179034Y0112646D01*
X0178955Y0112803D01*
X0178955Y0113000D01*
X0178916Y0113197D01*
X0178995Y0113630D01*
X0179113Y0113984D01*
X0179270Y0114260D01*
X0179546Y0114496D01*
X0179822Y0114654D01*
X0180136Y0114772D01*
X0180451Y0114850D01*
X0180806Y0114890D01*
X0181121Y0114063D01*
X0181003Y0114024D01*
X0180924Y0113984D01*
X0180885Y0113945D01*
X0180806Y0113906D01*
X0180727Y0113866D01*
X0180688Y0113827D01*
X0180609Y0113787D01*
X0180570Y0113709D01*
X0180530Y0113630D01*
X0180491Y0113551D01*
X0180491Y0113472D01*
X0180451Y0113394D01*
X0180451Y0113197D01*
X0180491Y0113079D01*
X0180491Y0113000D01*
X0180530Y0112921D01*
X0180570Y0112882D01*
X0180609Y0112803D01*
X0180688Y0112764D01*
X0180727Y0112724D01*
X0180806Y0112685D01*
X0180885Y0112646D01*
X0180963Y0112646D01*
X0181042Y0112606D01*
X0181121Y0112606D01*
X0181199Y0112567D01*
X0181396Y0112567D01*
X0181593Y0112606D01*
X0181790Y0112606D01*
X0181948Y0112685D01*
X0182105Y0112724D01*
X0182223Y0112803D01*
X0182302Y0112882D01*
X0182381Y0113000D01*
X0182459Y0113079D01*
X0182499Y0113197D01*
X0182538Y0113315D01*
X0182577Y0113394D01*
X0182617Y0113512D01*
X0182617Y0114417D01*
X0182577Y0114378D01*
X0182538Y0114339D01*
X0182459Y0114339D01*
X0182381Y0114299D01*
X0182302Y0114260D01*
X0182223Y0114260D01*
X0182144Y0114220D01*
X0181987Y0114220D01*
X0181790Y0115008D01*
X0182066Y0115087D01*
X0182302Y0115165D01*
X0182499Y0115283D01*
X0182617Y0115441D01*
X0182617Y0115874D01*
X0182577Y0115953D01*
X0182538Y0116031D01*
X0182499Y0116110D01*
X0182459Y0116150D01*
X0182420Y0116228D01*
X0182341Y0116268D01*
X0182262Y0116307D01*
X0182184Y0116346D01*
X0182105Y0116346D01*
X0182026Y0116386D01*
X0181318Y0116386D01*
X0181239Y0116346D01*
X0181160Y0116307D01*
X0181081Y0116268D01*
X0181003Y0116228D01*
X0180924Y0116189D01*
X0180885Y0116150D01*
X0180806Y0116071D01*
X0180766Y0116031D01*
X0180727Y0115953D01*
X0180688Y0115835D01*
X0180648Y0115756D01*
X0180648Y0115559D01*
X0179113Y0115559D01*
X0179152Y0115795D01*
X0179192Y0116031D01*
X0179270Y0116268D01*
X0179388Y0116425D01*
X0179507Y0116622D01*
X0179625Y0116780D01*
X0179782Y0116898D01*
X0179979Y0117016D01*
X0180176Y0117134D01*
X0180373Y0117213D01*
X0180570Y0117252D01*
X0180806Y0117331D01*
X0181042Y0117370D01*
X0181239Y0117409D01*
X0182144Y0117409D01*
X0182341Y0117370D01*
X0182577Y0117370D01*
X0182774Y0117331D01*
X0182971Y0117252D01*
X0183168Y0117213D01*
X0183365Y0117134D01*
X0183522Y0117016D01*
X0183680Y0116898D01*
X0183837Y0116780D01*
X0183955Y0116622D01*
X0184034Y0116465D01*
X0183982Y0116568D02*
X0179474Y0116568D01*
X0179272Y0116270D02*
X0181085Y0116270D01*
X0180736Y0115971D02*
X0179182Y0115971D01*
X0179132Y0115672D02*
X0180648Y0115672D01*
X0180806Y0114890D02*
X0181121Y0114063D01*
X0181199Y0114063D01*
X0181278Y0114102D01*
X0181436Y0114102D01*
X0181554Y0114142D01*
X0181711Y0114142D01*
X0181829Y0114181D01*
X0181908Y0114181D01*
X0181987Y0114220D01*
X0181790Y0115008D01*
X0181514Y0114969D01*
X0181160Y0114929D01*
X0180806Y0114890D01*
X0180849Y0114777D02*
X0180158Y0114777D01*
X0180849Y0114777D02*
X0181848Y0114777D01*
X0184152Y0114777D01*
X0184152Y0115075D02*
X0182027Y0115075D01*
X0181922Y0114478D02*
X0184152Y0114478D01*
X0184152Y0114180D02*
X0182617Y0114180D01*
X0182617Y0113881D02*
X0184152Y0113881D01*
X0184152Y0113583D02*
X0182617Y0113583D01*
X0182528Y0113284D02*
X0184152Y0113284D01*
X0184152Y0112986D02*
X0182371Y0112986D01*
X0181957Y0112687D02*
X0184152Y0112687D01*
X0184192Y0112389D02*
X0179113Y0112389D01*
X0179013Y0112687D02*
X0180801Y0112687D01*
X0180498Y0112986D02*
X0178955Y0112986D01*
X0178932Y0113284D02*
X0180451Y0113284D01*
X0180507Y0113583D02*
X0178986Y0113583D01*
X0179079Y0113881D02*
X0180758Y0113881D01*
X0181076Y0114180D02*
X0179225Y0114180D01*
X0179525Y0114478D02*
X0180962Y0114478D01*
X0181922Y0114478D01*
X0181826Y0114180D02*
X0181076Y0114180D01*
X0182567Y0115374D02*
X0184152Y0115374D01*
X0184152Y0115672D02*
X0182617Y0115672D01*
X0182568Y0115971D02*
X0184152Y0115971D01*
X0184112Y0116270D02*
X0182338Y0116270D01*
X0183287Y0117165D02*
X0180254Y0117165D01*
X0179741Y0116867D02*
X0183721Y0116867D01*
X0178325Y0115559D02*
X0178444Y0115008D01*
X0178483Y0114417D01*
X0176948Y0114457D01*
X0176948Y0114811D01*
X0176908Y0115126D01*
X0176790Y0115441D01*
X0176672Y0115717D01*
X0176475Y0115953D01*
X0176239Y0116110D01*
X0175963Y0116228D01*
X0175609Y0116268D01*
X0175294Y0116228D01*
X0174979Y0116110D01*
X0174782Y0115953D01*
X0174585Y0115717D01*
X0174467Y0115441D01*
X0174349Y0115126D01*
X0174310Y0114811D01*
X0174310Y0114142D01*
X0174388Y0113827D01*
X0174467Y0113512D01*
X0174585Y0113236D01*
X0174782Y0113039D01*
X0175018Y0112843D01*
X0175294Y0112764D01*
X0175648Y0112724D01*
X0175963Y0112764D01*
X0176278Y0112843D01*
X0176514Y0113039D01*
X0176672Y0113236D01*
X0176790Y0113512D01*
X0178129Y0112882D01*
X0177892Y0112449D01*
X0177538Y0112094D01*
X0177105Y0111780D01*
X0176633Y0111622D01*
X0176042Y0111543D01*
X0175806Y0111583D01*
X0175570Y0111622D01*
X0175333Y0111661D01*
X0175097Y0111780D01*
X0174900Y0111898D01*
X0174703Y0112016D01*
X0174546Y0112213D01*
X0174388Y0112409D01*
X0174349Y0112409D01*
X0174349Y0108394D01*
X0174192Y0108551D01*
X0173995Y0108748D01*
X0173798Y0108906D01*
X0173601Y0109063D01*
X0173404Y0109220D01*
X0173207Y0109417D01*
X0173050Y0109575D01*
X0172853Y0109732D01*
X0172853Y0117016D01*
X0173010Y0117055D01*
X0173207Y0117094D01*
X0173404Y0117094D01*
X0173562Y0117134D01*
X0173759Y0117173D01*
X0173916Y0117213D01*
X0174113Y0117252D01*
X0174310Y0117291D01*
X0174310Y0116583D01*
X0174467Y0116780D01*
X0174625Y0116937D01*
X0174822Y0117094D01*
X0175018Y0117213D01*
X0175215Y0117331D01*
X0175451Y0117370D01*
X0175688Y0117409D01*
X0175963Y0117409D01*
X0176554Y0117370D01*
X0177105Y0117173D01*
X0177538Y0116898D01*
X0177892Y0116504D01*
X0178168Y0116071D01*
X0178325Y0115559D01*
X0178291Y0115672D02*
X0176691Y0115672D01*
X0176815Y0115374D02*
X0178365Y0115374D01*
X0178429Y0115075D02*
X0176914Y0115075D01*
X0176948Y0114777D02*
X0178459Y0114777D01*
X0178479Y0114478D02*
X0176948Y0114478D01*
X0176948Y0114457D02*
X0178483Y0114417D01*
X0178444Y0113866D01*
X0178325Y0113354D01*
X0178129Y0112882D01*
X0176790Y0113512D01*
X0176908Y0113827D01*
X0176948Y0114142D01*
X0176948Y0114457D01*
X0176948Y0114180D02*
X0178466Y0114180D01*
X0178445Y0113881D02*
X0176915Y0113881D01*
X0176817Y0113583D02*
X0178378Y0113583D01*
X0178296Y0113284D02*
X0177273Y0113284D01*
X0176693Y0113284D01*
X0176450Y0112986D02*
X0177908Y0112986D01*
X0178172Y0112986D01*
X0178023Y0112687D02*
X0172853Y0112687D01*
X0172853Y0112389D02*
X0174349Y0112389D01*
X0174405Y0112389D02*
X0177832Y0112389D01*
X0177532Y0112090D02*
X0174644Y0112090D01*
X0174349Y0112090D02*
X0172853Y0112090D01*
X0172853Y0111792D02*
X0174349Y0111792D01*
X0174349Y0111493D02*
X0172853Y0111493D01*
X0172853Y0111195D02*
X0174349Y0111195D01*
X0174349Y0110896D02*
X0172853Y0110896D01*
X0172853Y0110598D02*
X0174349Y0110598D01*
X0174349Y0110299D02*
X0172853Y0110299D01*
X0172853Y0110001D02*
X0174349Y0110001D01*
X0174349Y0109702D02*
X0172891Y0109702D01*
X0173221Y0109404D02*
X0174349Y0109404D01*
X0174349Y0109105D02*
X0173548Y0109105D01*
X0173921Y0108807D02*
X0174349Y0108807D01*
X0174349Y0108508D02*
X0174235Y0108508D01*
X0175077Y0111792D02*
X0177122Y0111792D01*
X0179326Y0112090D02*
X0182552Y0112090D01*
X0182696Y0112090D02*
X0184231Y0112090D01*
X0184304Y0111792D02*
X0182774Y0111792D01*
X0182084Y0111792D02*
X0179724Y0111792D01*
X0178199Y0115971D02*
X0176448Y0115971D01*
X0177118Y0117165D02*
X0174939Y0117165D01*
X0174554Y0116867D02*
X0177566Y0116867D01*
X0177835Y0116568D02*
X0172853Y0116568D01*
X0172853Y0116270D02*
X0178042Y0116270D01*
X0174805Y0115971D02*
X0172853Y0115971D01*
X0172853Y0115672D02*
X0174566Y0115672D01*
X0174442Y0115374D02*
X0172853Y0115374D01*
X0172853Y0115075D02*
X0174343Y0115075D01*
X0174310Y0114777D02*
X0172853Y0114777D01*
X0172853Y0114478D02*
X0174310Y0114478D01*
X0174310Y0114180D02*
X0172853Y0114180D01*
X0172853Y0113881D02*
X0174375Y0113881D01*
X0174449Y0113583D02*
X0172853Y0113583D01*
X0172853Y0113284D02*
X0174565Y0113284D01*
X0174846Y0112986D02*
X0172853Y0112986D01*
X0172144Y0113000D02*
X0171987Y0112567D01*
X0171751Y0112252D01*
X0171436Y0111976D01*
X0171042Y0111780D01*
X0170609Y0111661D01*
X0170136Y0111583D01*
X0169664Y0111543D01*
X0169192Y0111583D01*
X0168719Y0111661D01*
X0168286Y0111780D01*
X0167892Y0111976D01*
X0167577Y0112252D01*
X0167302Y0112606D01*
X0167144Y0113000D01*
X0167066Y0113512D01*
X0168325Y0113512D01*
X0168522Y0113512D01*
X0168522Y0113276D01*
X0168601Y0113079D01*
X0168719Y0112921D01*
X0168877Y0112803D01*
X0169034Y0112685D01*
X0169270Y0112646D01*
X0169467Y0112606D01*
X0169703Y0112567D01*
X0169861Y0112606D01*
X0170018Y0112606D01*
X0170176Y0112646D01*
X0170333Y0112724D01*
X0170491Y0112843D01*
X0170609Y0112961D01*
X0170648Y0113118D01*
X0170688Y0113276D01*
X0170648Y0113433D01*
X0170570Y0113591D01*
X0170412Y0113709D01*
X0170215Y0113827D01*
X0169979Y0113906D01*
X0169664Y0113984D01*
X0169349Y0114063D01*
X0168955Y0114142D01*
X0168601Y0114220D01*
X0168286Y0114339D01*
X0168010Y0114457D01*
X0167735Y0114614D01*
X0167499Y0114772D01*
X0167341Y0115008D01*
X0167223Y0115283D01*
X0167184Y0115638D01*
X0167223Y0116110D01*
X0167381Y0116504D01*
X0167656Y0116819D01*
X0167932Y0117055D01*
X0168325Y0117252D01*
X0168719Y0117331D01*
X0169152Y0117409D01*
X0170058Y0117409D01*
X0170491Y0117331D01*
X0170885Y0117213D01*
X0171239Y0117055D01*
X0171554Y0116819D01*
X0171790Y0116504D01*
X0171987Y0116110D01*
X0172066Y0115638D01*
X0170609Y0115638D01*
X0170570Y0115835D01*
X0170491Y0116031D01*
X0170412Y0116150D01*
X0170294Y0116228D01*
X0170136Y0116307D01*
X0169940Y0116386D01*
X0169270Y0116386D01*
X0169152Y0116346D01*
X0168995Y0116307D01*
X0168877Y0116268D01*
X0168798Y0116150D01*
X0168719Y0116031D01*
X0168719Y0115874D01*
X0168759Y0115717D01*
X0168877Y0115559D01*
X0169034Y0115441D01*
X0169270Y0115323D01*
X0169507Y0115244D01*
X0169822Y0115205D01*
X0170136Y0115126D01*
X0170451Y0115047D01*
X0170766Y0114969D01*
X0171121Y0114890D01*
X0171396Y0114732D01*
X0171672Y0114575D01*
X0171908Y0114378D01*
X0172066Y0114142D01*
X0172184Y0113866D01*
X0172223Y0113512D01*
X0172144Y0113000D01*
X0172139Y0112986D02*
X0170615Y0112986D01*
X0170685Y0113284D02*
X0172188Y0113284D01*
X0172215Y0113583D02*
X0170573Y0113583D01*
X0170051Y0113881D02*
X0172177Y0113881D01*
X0172040Y0114180D02*
X0168783Y0114180D01*
X0167972Y0114478D02*
X0171788Y0114478D01*
X0171318Y0114777D02*
X0167495Y0114777D01*
X0167312Y0115075D02*
X0170339Y0115075D01*
X0170602Y0115672D02*
X0172060Y0115672D01*
X0172010Y0115971D02*
X0170515Y0115971D01*
X0170212Y0116270D02*
X0171907Y0116270D01*
X0171742Y0116568D02*
X0167437Y0116568D01*
X0167287Y0116270D02*
X0168882Y0116270D01*
X0168719Y0115971D02*
X0167211Y0115971D01*
X0167187Y0115672D02*
X0168792Y0115672D01*
X0169168Y0115374D02*
X0167213Y0115374D01*
X0167712Y0116867D02*
X0171490Y0116867D01*
X0170991Y0117165D02*
X0168152Y0117165D01*
X0172853Y0116867D02*
X0174310Y0116867D01*
X0174310Y0117165D02*
X0173718Y0117165D01*
X0172031Y0112687D02*
X0170259Y0112687D01*
X0171067Y0111792D02*
X0168261Y0111792D01*
X0167762Y0112090D02*
X0171566Y0112090D01*
X0171853Y0112389D02*
X0167471Y0112389D01*
X0167269Y0112687D02*
X0169031Y0112687D01*
X0168671Y0112986D02*
X0167150Y0112986D01*
X0167101Y0113284D02*
X0168522Y0113284D01*
X0204703Y0113284D02*
X0206239Y0113284D01*
X0206239Y0112986D02*
X0204703Y0112986D01*
X0204703Y0112687D02*
X0206239Y0112687D01*
X0206239Y0112389D02*
X0204703Y0112389D01*
X0204703Y0112090D02*
X0206239Y0112090D01*
X0206239Y0111792D02*
X0204703Y0111792D01*
X0204703Y0113583D02*
X0206239Y0113583D01*
X0206239Y0113881D02*
X0204703Y0113881D01*
X0204703Y0114180D02*
X0206239Y0114180D01*
X0206239Y0114478D02*
X0204703Y0114478D01*
X0204703Y0114777D02*
X0206239Y0114777D01*
X0206246Y0115075D02*
X0204703Y0115075D01*
X0204703Y0115374D02*
X0206283Y0115374D01*
X0206417Y0115672D02*
X0204703Y0115672D01*
X0206483Y0116867D02*
X0209420Y0116867D01*
X0209033Y0117165D02*
X0206876Y0117165D01*
D17*
X0176723Y0166646D02*
X0176725Y0166669D01*
X0176731Y0166690D01*
X0176740Y0166711D01*
X0176753Y0166730D01*
X0176769Y0166746D01*
X0176788Y0166759D01*
X0176809Y0166768D01*
X0176830Y0166774D01*
X0176853Y0166776D01*
X0176876Y0166774D01*
X0176897Y0166768D01*
X0176918Y0166759D01*
X0176937Y0166746D01*
X0176953Y0166730D01*
X0176966Y0166711D01*
X0176975Y0166690D01*
X0176981Y0166669D01*
X0176983Y0166646D01*
X0176981Y0166623D01*
X0176975Y0166602D01*
X0176966Y0166581D01*
X0176953Y0166562D01*
X0176937Y0166546D01*
X0176918Y0166533D01*
X0176897Y0166524D01*
X0176876Y0166518D01*
X0176853Y0166516D01*
X0176830Y0166518D01*
X0176809Y0166524D01*
X0176788Y0166533D01*
X0176769Y0166546D01*
X0176753Y0166562D01*
X0176740Y0166581D01*
X0176731Y0166602D01*
X0176725Y0166623D01*
X0176723Y0166646D01*
D18*
X0186458Y0076250D02*
X0190208Y0076250D01*
D19*
X0188176Y0063150D03*
X0188176Y0056850D03*
D20*
X0188176Y0057008D03*
X0188176Y0062992D03*
D21*
X0188176Y0062835D03*
X0188176Y0057165D03*
D22*
X0188176Y0057323D03*
X0188176Y0062677D03*
D23*
X0188176Y0062520D03*
X0188176Y0057480D03*
D24*
X0188176Y0057638D03*
X0188176Y0062362D03*
X0188278Y0102008D03*
X0188278Y0107992D03*
D25*
X0188176Y0062205D03*
X0188176Y0057795D03*
D26*
X0182585Y0062047D03*
X0186782Y0107047D03*
D27*
X0188097Y0062047D03*
D28*
X0193688Y0062047D03*
D29*
X0195892Y0058583D03*
X0195892Y0058425D03*
X0195577Y0057953D03*
X0180774Y0057953D03*
X0180617Y0058110D03*
X0180617Y0058268D03*
X0180617Y0061732D03*
X0180617Y0061890D03*
X0196782Y0103110D03*
X0196940Y0103425D03*
X0196940Y0103583D03*
X0200774Y0183110D03*
X0200617Y0183425D03*
X0200617Y0183583D03*
X0200617Y0186417D03*
X0200617Y0186575D03*
X0200774Y0186890D03*
X0211955Y0186575D03*
X0211955Y0186417D03*
X0211955Y0183583D03*
X0211955Y0183425D03*
X0211798Y0183268D03*
D30*
X0203845Y0184528D03*
X0203688Y0186890D03*
X0189459Y0103268D03*
X0189459Y0103110D03*
X0185837Y0102953D03*
X0184948Y0061890D03*
X0183688Y0060787D03*
X0183688Y0060630D03*
X0183688Y0060472D03*
X0183688Y0060315D03*
X0185420Y0059370D03*
X0186995Y0061575D03*
X0186995Y0061732D03*
X0189199Y0061732D03*
X0189199Y0061575D03*
X0190617Y0059213D03*
X0190617Y0059055D03*
X0192822Y0058268D03*
X0192822Y0058110D03*
X0192822Y0060472D03*
X0192822Y0060630D03*
X0188097Y0058425D03*
X0188097Y0058268D03*
D31*
X0190459Y0058268D03*
X0190459Y0058425D03*
X0190459Y0058110D03*
X0192822Y0057953D03*
X0189199Y0061890D03*
X0186995Y0061890D03*
X0189459Y0102953D03*
X0206365Y0184055D03*
X0204003Y0184685D03*
X0206995Y0186575D03*
X0209042Y0185787D03*
D32*
X0206837Y0185787D03*
X0206837Y0185945D03*
X0206680Y0184843D03*
X0206995Y0183740D03*
X0203530Y0184055D03*
X0203373Y0182953D03*
X0203530Y0186417D03*
X0203530Y0186575D03*
X0191349Y0107047D03*
X0191349Y0106417D03*
X0191349Y0105630D03*
X0192766Y0105157D03*
X0192766Y0105000D03*
X0192766Y0103740D03*
X0192766Y0103583D03*
X0191349Y0103110D03*
X0189774Y0104528D03*
X0189774Y0104685D03*
X0187570Y0103268D03*
X0185837Y0103583D03*
X0185365Y0104685D03*
X0185365Y0104843D03*
X0185365Y0105000D03*
X0186782Y0105315D03*
X0186782Y0105472D03*
X0190932Y0061890D03*
X0190932Y0061102D03*
X0190932Y0060945D03*
X0190932Y0060787D03*
X0189199Y0060787D03*
X0189199Y0060630D03*
X0189199Y0060472D03*
X0188097Y0059370D03*
X0188097Y0059213D03*
X0188097Y0059055D03*
X0186995Y0060630D03*
X0186995Y0060787D03*
X0185577Y0060157D03*
X0185577Y0060000D03*
X0185105Y0061575D03*
D33*
X0184790Y0057953D03*
X0195814Y0059370D03*
X0195814Y0059528D03*
X0195341Y0061890D03*
X0180168Y0103110D03*
X0196861Y0105787D03*
X0211247Y0187047D03*
D34*
X0209121Y0183898D03*
X0207073Y0183583D03*
X0206601Y0184528D03*
X0206601Y0184685D03*
X0206916Y0186102D03*
X0205026Y0185945D03*
X0203609Y0184213D03*
X0191270Y0105787D03*
X0189853Y0105787D03*
X0189696Y0104370D03*
X0189696Y0104213D03*
X0189696Y0104055D03*
X0188436Y0105472D03*
X0188436Y0105630D03*
X0186861Y0105630D03*
X0185286Y0105787D03*
X0185444Y0104528D03*
X0185444Y0104370D03*
X0185759Y0103740D03*
X0185916Y0103425D03*
X0187648Y0103110D03*
X0191270Y0102953D03*
X0192845Y0103425D03*
X0192845Y0105315D03*
X0183081Y0103898D03*
X0185026Y0061732D03*
X0185499Y0059843D03*
X0186916Y0060945D03*
X0190853Y0060630D03*
X0190853Y0060472D03*
X0190853Y0060315D03*
D35*
X0191010Y0061260D03*
X0191010Y0061417D03*
X0191010Y0061575D03*
X0191010Y0061732D03*
X0186916Y0060472D03*
X0185499Y0060472D03*
X0185499Y0060315D03*
X0185499Y0060630D03*
X0185341Y0061102D03*
X0185184Y0061417D03*
X0187648Y0103425D03*
X0187648Y0103583D03*
X0188436Y0105000D03*
X0188436Y0105157D03*
X0188436Y0105315D03*
X0189853Y0105157D03*
X0189853Y0105000D03*
X0189853Y0104843D03*
X0191270Y0104843D03*
X0191270Y0105000D03*
X0191270Y0105157D03*
X0191270Y0105315D03*
X0191270Y0105472D03*
X0191270Y0104685D03*
X0191270Y0104528D03*
X0191270Y0104370D03*
X0191270Y0104213D03*
X0191270Y0104055D03*
X0191270Y0103898D03*
X0191270Y0103740D03*
X0191270Y0103583D03*
X0191270Y0103425D03*
X0191270Y0103268D03*
X0192688Y0103898D03*
X0192688Y0104055D03*
X0192688Y0104213D03*
X0192688Y0104370D03*
X0192688Y0104528D03*
X0192688Y0104685D03*
X0192688Y0104843D03*
X0194420Y0104843D03*
X0194420Y0103898D03*
X0191270Y0106575D03*
X0191270Y0106732D03*
X0191270Y0106890D03*
X0186861Y0105157D03*
X0185286Y0105157D03*
X0185286Y0105315D03*
X0185286Y0105472D03*
X0185286Y0105630D03*
X0203294Y0183110D03*
X0203451Y0183740D03*
X0203451Y0183898D03*
X0203451Y0185157D03*
X0203451Y0186102D03*
X0203451Y0186260D03*
X0206759Y0185630D03*
X0206759Y0185472D03*
X0206759Y0185315D03*
X0206759Y0185157D03*
X0206759Y0185000D03*
D36*
X0207152Y0187047D03*
X0211877Y0184055D03*
X0197018Y0105630D03*
X0197018Y0104843D03*
X0180010Y0103268D03*
X0179853Y0103425D03*
X0179696Y0103740D03*
X0179538Y0105787D03*
X0179696Y0106102D03*
X0179696Y0106260D03*
X0179853Y0106417D03*
X0180381Y0060787D03*
X0180381Y0060630D03*
X0180381Y0060472D03*
X0180381Y0060315D03*
X0180381Y0060157D03*
X0180381Y0060000D03*
X0180381Y0059843D03*
X0180381Y0059685D03*
X0180381Y0059528D03*
X0180381Y0059370D03*
X0180381Y0059213D03*
X0184790Y0058425D03*
X0184790Y0058268D03*
X0184790Y0058110D03*
X0195814Y0059055D03*
X0195971Y0059843D03*
X0195971Y0060000D03*
X0195656Y0061575D03*
X0195499Y0061732D03*
D37*
X0184633Y0058898D03*
X0180538Y0058583D03*
X0180538Y0058425D03*
X0180538Y0061417D03*
X0180538Y0061575D03*
X0196546Y0102953D03*
X0197018Y0103740D03*
X0179381Y0104843D03*
X0179381Y0105000D03*
X0200538Y0183740D03*
X0200538Y0183898D03*
X0200538Y0184055D03*
X0200538Y0185945D03*
X0200538Y0186102D03*
X0200538Y0186260D03*
X0211719Y0186732D03*
X0212034Y0186260D03*
X0212034Y0186102D03*
X0212034Y0183740D03*
X0211719Y0183110D03*
D38*
X0209121Y0185945D03*
X0206916Y0186260D03*
X0206916Y0186417D03*
X0205026Y0185630D03*
X0205026Y0185472D03*
X0207231Y0183268D03*
X0193003Y0105630D03*
X0193003Y0103110D03*
X0189538Y0103425D03*
X0189538Y0103583D03*
X0187648Y0102953D03*
X0185916Y0103110D03*
X0185444Y0104055D03*
X0186861Y0105787D03*
X0188436Y0105787D03*
X0183081Y0105945D03*
X0186916Y0061417D03*
X0189121Y0061417D03*
X0190696Y0059685D03*
X0190696Y0059528D03*
X0190696Y0059370D03*
X0192743Y0058583D03*
X0192743Y0058425D03*
X0192743Y0060157D03*
X0192743Y0060315D03*
X0192743Y0060787D03*
X0185499Y0059528D03*
X0183609Y0060157D03*
D39*
X0184711Y0058740D03*
X0184711Y0058583D03*
X0180459Y0058740D03*
X0180459Y0058898D03*
X0180459Y0059055D03*
X0180459Y0060945D03*
X0180459Y0061102D03*
X0180459Y0061260D03*
X0195735Y0061417D03*
X0195892Y0061260D03*
X0195892Y0061102D03*
X0195892Y0060945D03*
X0196050Y0060787D03*
X0196050Y0060630D03*
X0196050Y0060472D03*
X0196050Y0060315D03*
X0196050Y0060157D03*
X0195892Y0058898D03*
X0195892Y0058740D03*
X0196940Y0103898D03*
X0197097Y0105000D03*
X0197097Y0105157D03*
X0197097Y0105315D03*
X0197097Y0105472D03*
X0179774Y0103583D03*
X0179617Y0103898D03*
X0179617Y0104055D03*
X0179459Y0104213D03*
X0179459Y0104370D03*
X0179459Y0104528D03*
X0179459Y0104685D03*
X0179459Y0105157D03*
X0179459Y0105315D03*
X0179459Y0105472D03*
X0179459Y0105630D03*
X0179617Y0105945D03*
X0200459Y0184213D03*
X0200459Y0184370D03*
X0200459Y0184528D03*
X0200459Y0184685D03*
X0200459Y0184843D03*
X0200459Y0185000D03*
X0200459Y0185157D03*
X0200459Y0185315D03*
X0200459Y0185472D03*
X0200459Y0185630D03*
X0200459Y0185787D03*
X0211640Y0186890D03*
X0211955Y0185945D03*
X0211955Y0183898D03*
X0211483Y0182953D03*
D40*
X0203373Y0183268D03*
X0203373Y0183425D03*
X0203373Y0183583D03*
X0203373Y0185315D03*
X0203373Y0185472D03*
X0203373Y0185630D03*
X0203373Y0185787D03*
X0203373Y0185945D03*
X0189932Y0105630D03*
X0189932Y0105472D03*
X0189932Y0105315D03*
X0187570Y0103740D03*
X0186782Y0104843D03*
X0186782Y0105000D03*
X0184262Y0103110D03*
X0185262Y0061260D03*
X0185420Y0060945D03*
X0185420Y0060787D03*
X0186995Y0060315D03*
X0186995Y0060157D03*
X0188097Y0059843D03*
X0188097Y0059685D03*
X0188097Y0059528D03*
X0189199Y0060000D03*
X0189199Y0060157D03*
X0189199Y0060315D03*
D41*
X0189199Y0060945D03*
X0189199Y0061102D03*
X0189199Y0061260D03*
X0190774Y0060157D03*
X0190774Y0060000D03*
X0190774Y0059843D03*
X0192664Y0058898D03*
X0192664Y0058740D03*
X0192664Y0060945D03*
X0188097Y0058898D03*
X0188097Y0058740D03*
X0188097Y0058583D03*
X0186995Y0061102D03*
X0186995Y0061260D03*
X0185577Y0059685D03*
X0183530Y0060945D03*
X0184262Y0102953D03*
X0185522Y0103898D03*
X0185522Y0104213D03*
X0185837Y0103268D03*
X0189617Y0103740D03*
X0189617Y0103898D03*
X0192924Y0103268D03*
X0194499Y0104685D03*
X0192924Y0105472D03*
X0191349Y0107205D03*
X0207152Y0183425D03*
X0206522Y0184370D03*
X0204948Y0185157D03*
X0204948Y0185315D03*
X0205105Y0185787D03*
X0203530Y0186732D03*
X0203688Y0184370D03*
D42*
X0188436Y0104843D03*
X0188436Y0104685D03*
X0187648Y0103898D03*
X0186916Y0060000D03*
D43*
X0195892Y0059685D03*
X0195892Y0059213D03*
X0196940Y0104685D03*
X0180089Y0106732D03*
X0179932Y0106575D03*
X0211955Y0185787D03*
D44*
X0204081Y0184843D03*
X0183081Y0105630D03*
X0183081Y0104370D03*
X0183081Y0104213D03*
X0185341Y0059213D03*
X0188018Y0057953D03*
D45*
X0185105Y0059055D03*
D46*
X0188018Y0058110D03*
X0190538Y0058583D03*
X0190538Y0058740D03*
X0190538Y0058898D03*
X0193160Y0102953D03*
X0193160Y0105787D03*
X0183081Y0105787D03*
X0183081Y0104055D03*
X0207388Y0183110D03*
X0206444Y0184213D03*
X0209121Y0184055D03*
D47*
X0200853Y0182953D03*
X0200696Y0183268D03*
X0200696Y0186732D03*
X0196861Y0103268D03*
X0195814Y0058268D03*
X0195814Y0058110D03*
D48*
X0190459Y0057953D03*
X0183003Y0105472D03*
X0207467Y0182953D03*
X0206995Y0186732D03*
D49*
X0188278Y0108150D03*
X0188278Y0101850D03*
D50*
X0188278Y0102165D03*
X0188278Y0107835D03*
D51*
X0188278Y0107677D03*
X0188278Y0102323D03*
D52*
X0188278Y0102480D03*
X0188278Y0107520D03*
D53*
X0188278Y0107362D03*
X0188278Y0102638D03*
D54*
X0184420Y0107205D03*
D55*
X0187255Y0106575D03*
X0195129Y0107205D03*
X0195286Y0107047D03*
X0210932Y0184370D03*
X0210932Y0185472D03*
X0210932Y0185630D03*
D56*
X0180562Y0107047D03*
D57*
X0180247Y0106890D03*
X0180404Y0102953D03*
D58*
X0187018Y0106890D03*
D59*
X0187176Y0106732D03*
X0195365Y0106732D03*
X0195365Y0106890D03*
X0210853Y0184528D03*
X0210853Y0184685D03*
X0210853Y0184843D03*
X0210853Y0185000D03*
X0210853Y0185157D03*
X0210853Y0185315D03*
D60*
X0195444Y0106575D03*
X0195444Y0106417D03*
D61*
X0187333Y0106417D03*
X0211010Y0184213D03*
D62*
X0191664Y0106260D03*
X0191664Y0106102D03*
D63*
X0191743Y0105945D03*
D64*
X0183081Y0105315D03*
X0183081Y0105157D03*
X0183081Y0105000D03*
X0183081Y0104843D03*
X0183081Y0104685D03*
X0183081Y0104528D03*
X0206286Y0183898D03*
X0204239Y0185000D03*
D65*
X0196310Y0104528D03*
X0196310Y0104370D03*
X0196310Y0104213D03*
D66*
X0196310Y0104055D03*
D67*
X0188278Y0102795D03*
D68*
X0206286Y0181850D03*
X0206286Y0188150D03*
D69*
X0206286Y0187992D03*
X0206286Y0182008D03*
D70*
X0206286Y0182165D03*
X0206286Y0187835D03*
D71*
X0206286Y0187677D03*
X0206286Y0182323D03*
D72*
X0206286Y0182480D03*
X0206286Y0187520D03*
D73*
X0206286Y0187362D03*
X0206286Y0182638D03*
D74*
X0206286Y0182795D03*
X0206286Y0187205D03*
D75*
X0202034Y0187047D03*
D76*
X0206995Y0186890D03*
M02*
