%
M48
M72
T01C0.0150
T02C0.0400
T03C0.1300
%
T01
X14333Y10000
X15833Y10100
X15833Y11900
X14333Y12000
X14333Y14000
X14833Y15900
X14333Y18000
X15783Y19200
X14483Y19850
X17133Y20000
X18333Y20500
X17333Y21500
X17333Y23000
X18333Y23000
X20333Y21500
X23183Y20400
X23333Y19500
X23833Y18500
X23183Y16500
X23183Y15500
X20333Y18000
X18333Y19000
X17833Y18300
X18833Y16000
X19333Y16000
X18833Y14500
X17833Y13000
X19833Y13000
X23183Y12450
X23183Y8400
X14833Y8000
X14583Y26000
X21833Y26000
T02
X16333Y23500
T03
X12833Y6000
X24833Y6000
X24833Y25500
X12833Y25500
M30
