G75*
%MOIN*%
%OFA0B0*%
%FSLAX25Y25*%
%IPPOS*%
%LPD*%
%AMOC8*
5,1,8,0,0,1.08239X$1,22.5*
%
%ADD10R,0.03937X0.04331*%
%ADD11C,0.03937*%
%ADD12R,0.07874X0.04724*%
%ADD13R,0.05315X0.02362*%
%ADD14R,0.03937X0.01181*%
%ADD15R,0.04331X0.03937*%
%ADD16R,0.05000X0.02500*%
%ADD17C,0.07400*%
%ADD18R,0.04724X0.07874*%
%ADD19R,0.02362X0.05315*%
%ADD20C,0.01181*%
%ADD21R,0.02500X0.05000*%
%ADD22C,0.01000*%
%ADD23C,0.02900*%
%ADD24C,0.01200*%
%ADD25C,0.00700*%
D10*
X0188333Y0081654D03*
X0188333Y0088346D03*
X0188334Y0171650D03*
X0188334Y0178343D03*
X0178334Y0178343D03*
X0178334Y0171650D03*
X0198334Y0171650D03*
X0198334Y0178343D03*
X0163834Y0191650D03*
X0163834Y0198343D03*
X0178334Y0206650D03*
X0178334Y0213343D03*
X0188334Y0213343D03*
X0188334Y0206650D03*
X0198334Y0206650D03*
X0198334Y0213343D03*
D11*
X0138333Y0260000D03*
X0238333Y0055000D03*
D12*
X0252799Y0078976D03*
X0252799Y0101023D03*
X0252799Y0118976D03*
X0252799Y0141023D03*
X0252799Y0158976D03*
X0252799Y0181023D03*
X0252799Y0198976D03*
X0252799Y0221023D03*
X0123865Y0221021D03*
X0123865Y0198973D03*
X0123865Y0181021D03*
X0123865Y0158973D03*
X0123865Y0141021D03*
X0123865Y0118973D03*
X0123865Y0101021D03*
X0123865Y0078973D03*
D13*
X0138334Y0084091D03*
X0138334Y0088028D03*
X0138334Y0091965D03*
X0138334Y0095902D03*
X0138334Y0124091D03*
X0138334Y0128028D03*
X0138334Y0131965D03*
X0138334Y0135902D03*
X0138334Y0164091D03*
X0138334Y0168028D03*
X0138334Y0171965D03*
X0138334Y0175902D03*
X0138334Y0204091D03*
X0138334Y0208028D03*
X0138334Y0211965D03*
X0138334Y0215902D03*
X0238330Y0215905D03*
X0238330Y0211968D03*
X0238330Y0208031D03*
X0238330Y0204094D03*
X0238330Y0175905D03*
X0238330Y0171968D03*
X0238330Y0168031D03*
X0238330Y0164094D03*
X0238330Y0135905D03*
X0238330Y0131968D03*
X0238330Y0128031D03*
X0238330Y0124094D03*
X0238330Y0095905D03*
X0238330Y0091968D03*
X0238330Y0088031D03*
X0238330Y0084094D03*
D14*
X0200145Y0135922D03*
X0200145Y0138481D03*
X0200145Y0141040D03*
X0200145Y0143599D03*
X0200145Y0146158D03*
X0200145Y0148717D03*
X0200145Y0151276D03*
X0200145Y0153836D03*
X0200145Y0156395D03*
X0200145Y0158954D03*
X0200145Y0161513D03*
X0200145Y0164072D03*
X0176523Y0164052D03*
X0176523Y0161513D03*
X0176523Y0158954D03*
X0176523Y0156395D03*
X0176523Y0153836D03*
X0176523Y0151276D03*
X0176523Y0148717D03*
X0176523Y0146158D03*
X0176523Y0143599D03*
X0176523Y0141040D03*
X0176523Y0138481D03*
X0176523Y0135922D03*
D15*
X0157680Y0135997D03*
X0150987Y0135997D03*
X0150987Y0129997D03*
X0157680Y0129997D03*
X0157680Y0123997D03*
X0150987Y0123997D03*
X0150987Y0095997D03*
X0157680Y0095997D03*
X0157680Y0089997D03*
X0150987Y0089997D03*
X0150987Y0083997D03*
X0157680Y0083997D03*
X0218987Y0084000D03*
X0218986Y0090003D03*
X0218986Y0096003D03*
X0225679Y0096003D03*
X0225679Y0090003D03*
X0225680Y0084000D03*
X0225680Y0124000D03*
X0225679Y0130003D03*
X0225679Y0136003D03*
X0218986Y0136003D03*
X0218986Y0130003D03*
X0218987Y0124000D03*
X0218987Y0164000D03*
X0218986Y0170003D03*
X0218986Y0176003D03*
X0225679Y0176003D03*
X0225679Y0170003D03*
X0225680Y0164000D03*
X0225680Y0204000D03*
X0225679Y0210003D03*
X0225679Y0216003D03*
X0218986Y0216003D03*
X0218986Y0210003D03*
X0218987Y0204000D03*
X0157680Y0203997D03*
X0150987Y0203997D03*
X0150987Y0209997D03*
X0157680Y0209997D03*
X0157680Y0215997D03*
X0150987Y0215997D03*
X0150987Y0175997D03*
X0157680Y0175997D03*
X0157680Y0169997D03*
X0157680Y0163997D03*
X0150987Y0163997D03*
X0150987Y0169997D03*
D16*
X0178334Y0195897D03*
X0178334Y0199097D03*
X0188334Y0199097D03*
X0188334Y0195897D03*
X0198334Y0195897D03*
X0198334Y0199097D03*
D17*
X0163334Y0234997D03*
D18*
X0177310Y0259469D03*
X0199357Y0259469D03*
D19*
X0194239Y0245000D03*
X0190302Y0245000D03*
X0186365Y0245000D03*
X0182428Y0245000D03*
D20*
X0186955Y0072075D02*
X0189711Y0072075D01*
X0186955Y0072075D02*
X0186955Y0074831D01*
X0189711Y0074831D01*
X0189711Y0072075D01*
X0189711Y0073255D02*
X0186955Y0073255D01*
X0186955Y0074435D02*
X0189711Y0074435D01*
X0189711Y0065169D02*
X0186955Y0065169D01*
X0186955Y0067925D01*
X0189711Y0067925D01*
X0189711Y0065169D01*
X0189711Y0066349D02*
X0186955Y0066349D01*
X0186955Y0067529D02*
X0189711Y0067529D01*
D21*
X0190133Y0185000D03*
X0193333Y0185000D03*
X0196533Y0185000D03*
D22*
X0120433Y0074911D02*
X0120433Y0065117D01*
X0121021Y0066135D01*
X0121021Y0066135D01*
X0121021Y0066135D01*
X0123561Y0068266D01*
X0123561Y0068266D01*
X0126676Y0069400D01*
X0129991Y0069400D01*
X0133106Y0068266D01*
X0133106Y0068266D01*
X0135645Y0066135D01*
X0135645Y0066135D01*
X0137303Y0063265D01*
X0137303Y0063265D01*
X0137878Y0060000D01*
X0137878Y0060000D01*
X0137303Y0056735D01*
X0137303Y0056735D01*
X0135645Y0053865D01*
X0135645Y0053865D01*
X0135645Y0053865D01*
X0133542Y0052100D01*
X0236045Y0052100D01*
X0235223Y0052922D01*
X0234665Y0054270D01*
X0234665Y0055730D01*
X0235223Y0057078D01*
X0236255Y0058110D01*
X0237604Y0058668D01*
X0239023Y0058668D01*
X0238788Y0060000D01*
X0238788Y0060000D01*
X0239260Y0062674D01*
X0235633Y0059047D01*
X0235633Y0059047D01*
X0234286Y0057700D01*
X0189381Y0057700D01*
X0188033Y0059047D01*
X0186033Y0061047D01*
X0186033Y0062879D01*
X0186007Y0062879D01*
X0184665Y0064221D01*
X0184665Y0068874D01*
X0185791Y0070000D01*
X0184665Y0071126D01*
X0184665Y0075779D01*
X0186007Y0077121D01*
X0186283Y0077121D01*
X0186283Y0077788D01*
X0185661Y0077788D01*
X0184665Y0078784D01*
X0184665Y0084523D01*
X0185283Y0085141D01*
X0185165Y0085260D01*
X0184967Y0085602D01*
X0184865Y0085984D01*
X0184865Y0087862D01*
X0187849Y0087862D01*
X0187849Y0088831D01*
X0187849Y0092012D01*
X0186167Y0092012D01*
X0185786Y0091910D01*
X0185444Y0091712D01*
X0185165Y0091433D01*
X0184967Y0091091D01*
X0184865Y0090709D01*
X0184865Y0088831D01*
X0187849Y0088831D01*
X0188818Y0088831D01*
X0191802Y0088831D01*
X0191802Y0090709D01*
X0191700Y0091091D01*
X0191502Y0091433D01*
X0191223Y0091712D01*
X0190881Y0091910D01*
X0190499Y0092012D01*
X0188818Y0092012D01*
X0188818Y0088831D01*
X0188818Y0087862D01*
X0191802Y0087862D01*
X0191802Y0085984D01*
X0191700Y0085602D01*
X0191502Y0085260D01*
X0191383Y0085141D01*
X0192002Y0084523D01*
X0192002Y0078784D01*
X0191006Y0077788D01*
X0190383Y0077788D01*
X0190383Y0077121D01*
X0190660Y0077121D01*
X0192002Y0075779D01*
X0192002Y0071126D01*
X0190876Y0070000D01*
X0192002Y0068874D01*
X0192002Y0064221D01*
X0190684Y0062902D01*
X0191286Y0062300D01*
X0232381Y0062300D01*
X0241033Y0070953D01*
X0241033Y0077950D01*
X0219484Y0077950D01*
X0218283Y0079151D01*
X0218138Y0079296D01*
X0217103Y0080331D01*
X0216117Y0080331D01*
X0215122Y0081327D01*
X0215122Y0086673D01*
X0215450Y0087001D01*
X0215121Y0087330D01*
X0215121Y0092676D01*
X0215448Y0093003D01*
X0215121Y0093330D01*
X0215121Y0098676D01*
X0216117Y0099672D01*
X0220283Y0099672D01*
X0220283Y0110151D01*
X0219484Y0110950D01*
X0215484Y0110950D01*
X0214283Y0112151D01*
X0209783Y0116651D01*
X0209783Y0132151D01*
X0208062Y0133872D01*
X0203058Y0133872D01*
X0202817Y0133632D01*
X0197472Y0133632D01*
X0196476Y0134627D01*
X0196476Y0155244D01*
X0196182Y0154950D01*
X0190484Y0154950D01*
X0188584Y0156850D01*
X0187707Y0156850D01*
X0186549Y0157330D01*
X0185663Y0158216D01*
X0185183Y0159373D01*
X0185183Y0160627D01*
X0185658Y0161772D01*
X0185309Y0161772D01*
X0182381Y0164700D01*
X0181033Y0166047D01*
X0181033Y0167812D01*
X0181006Y0167785D01*
X0175661Y0167785D01*
X0175384Y0168062D01*
X0175384Y0166343D01*
X0179195Y0166343D01*
X0180191Y0165347D01*
X0180191Y0137186D01*
X0179933Y0136928D01*
X0179991Y0136710D01*
X0179991Y0135922D01*
X0176523Y0135922D01*
X0176523Y0135922D01*
X0176523Y0133832D01*
X0178689Y0133832D01*
X0179070Y0133934D01*
X0179412Y0134131D01*
X0179692Y0134411D01*
X0179889Y0134753D01*
X0179991Y0135134D01*
X0179991Y0135922D01*
X0176523Y0135922D01*
X0176523Y0135922D01*
X0176523Y0133832D01*
X0174357Y0133832D01*
X0173975Y0133934D01*
X0173633Y0134131D01*
X0173354Y0134411D01*
X0173156Y0134753D01*
X0173054Y0135134D01*
X0173054Y0135922D01*
X0176523Y0135922D01*
X0176523Y0135922D01*
X0173054Y0135922D01*
X0173054Y0136431D01*
X0171384Y0136431D01*
X0171384Y0115148D01*
X0170183Y0113947D01*
X0170183Y0113947D01*
X0159968Y0103732D01*
X0160118Y0103670D01*
X0161004Y0102784D01*
X0161483Y0101627D01*
X0161483Y0100373D01*
X0161004Y0099216D01*
X0161002Y0099214D01*
X0161546Y0098670D01*
X0161546Y0093324D01*
X0161218Y0092997D01*
X0161546Y0092670D01*
X0161546Y0087324D01*
X0161218Y0086997D01*
X0161546Y0086670D01*
X0161546Y0081324D01*
X0160550Y0080328D01*
X0159980Y0080328D01*
X0159980Y0078394D01*
X0155633Y0074047D01*
X0154286Y0072700D01*
X0132381Y0072700D01*
X0129338Y0075743D01*
X0128506Y0074911D01*
X0120433Y0074911D01*
X0120433Y0073964D02*
X0131116Y0073964D01*
X0130118Y0074963D02*
X0128558Y0074963D01*
X0132115Y0072966D02*
X0120433Y0072966D01*
X0120433Y0071967D02*
X0184665Y0071967D01*
X0184665Y0072966D02*
X0154552Y0072966D01*
X0155550Y0073964D02*
X0184665Y0073964D01*
X0184665Y0074963D02*
X0156549Y0074963D01*
X0157547Y0075961D02*
X0184847Y0075961D01*
X0185845Y0076960D02*
X0158546Y0076960D01*
X0159544Y0077958D02*
X0185491Y0077958D01*
X0184665Y0078957D02*
X0159980Y0078957D01*
X0159980Y0079955D02*
X0184665Y0079955D01*
X0184665Y0080954D02*
X0161175Y0080954D01*
X0161546Y0081952D02*
X0184665Y0081952D01*
X0184665Y0082951D02*
X0161546Y0082951D01*
X0161546Y0083949D02*
X0184665Y0083949D01*
X0185090Y0084948D02*
X0161546Y0084948D01*
X0161546Y0085946D02*
X0184875Y0085946D01*
X0184865Y0086945D02*
X0161270Y0086945D01*
X0161546Y0087943D02*
X0187849Y0087943D01*
X0188818Y0087943D02*
X0215121Y0087943D01*
X0215121Y0088942D02*
X0191802Y0088942D01*
X0191802Y0089940D02*
X0215121Y0089940D01*
X0215121Y0090939D02*
X0191740Y0090939D01*
X0190777Y0091937D02*
X0215121Y0091937D01*
X0215381Y0092936D02*
X0161279Y0092936D01*
X0161546Y0093934D02*
X0215121Y0093934D01*
X0215121Y0094933D02*
X0161546Y0094933D01*
X0161546Y0095932D02*
X0215121Y0095932D01*
X0215121Y0096930D02*
X0161546Y0096930D01*
X0161546Y0097929D02*
X0215121Y0097929D01*
X0215372Y0098927D02*
X0161288Y0098927D01*
X0161298Y0099926D02*
X0220283Y0099926D01*
X0220283Y0100924D02*
X0161483Y0100924D01*
X0161361Y0101923D02*
X0220283Y0101923D01*
X0220283Y0102921D02*
X0160867Y0102921D01*
X0160156Y0103920D02*
X0220283Y0103920D01*
X0220283Y0104918D02*
X0161154Y0104918D01*
X0162153Y0105917D02*
X0220283Y0105917D01*
X0220283Y0106915D02*
X0163151Y0106915D01*
X0164150Y0107914D02*
X0220283Y0107914D01*
X0220283Y0108912D02*
X0165148Y0108912D01*
X0166147Y0109911D02*
X0220283Y0109911D01*
X0219525Y0110909D02*
X0167145Y0110909D01*
X0168144Y0111908D02*
X0214526Y0111908D01*
X0213528Y0112906D02*
X0169142Y0112906D01*
X0170141Y0113905D02*
X0212529Y0113905D01*
X0211531Y0114903D02*
X0171139Y0114903D01*
X0171384Y0115902D02*
X0210532Y0115902D01*
X0209783Y0116900D02*
X0171384Y0116900D01*
X0171384Y0117899D02*
X0209783Y0117899D01*
X0209783Y0118897D02*
X0171384Y0118897D01*
X0171384Y0119896D02*
X0209783Y0119896D01*
X0209783Y0120894D02*
X0171384Y0120894D01*
X0171384Y0121893D02*
X0209783Y0121893D01*
X0209783Y0122891D02*
X0171384Y0122891D01*
X0171384Y0123890D02*
X0209783Y0123890D01*
X0209783Y0124888D02*
X0171384Y0124888D01*
X0171384Y0125887D02*
X0209783Y0125887D01*
X0209783Y0126885D02*
X0171384Y0126885D01*
X0171384Y0127884D02*
X0209783Y0127884D01*
X0209783Y0128882D02*
X0171384Y0128882D01*
X0171384Y0129881D02*
X0209783Y0129881D01*
X0209783Y0130879D02*
X0171384Y0130879D01*
X0171384Y0131878D02*
X0209783Y0131878D01*
X0209058Y0132876D02*
X0171384Y0132876D01*
X0171384Y0133875D02*
X0174195Y0133875D01*
X0173124Y0134873D02*
X0171384Y0134873D01*
X0171384Y0135872D02*
X0173054Y0135872D01*
X0176523Y0135872D02*
X0176523Y0135872D01*
X0176523Y0134873D02*
X0176523Y0134873D01*
X0176523Y0133875D02*
X0176523Y0133875D01*
X0178851Y0133875D02*
X0197229Y0133875D01*
X0196476Y0134873D02*
X0179921Y0134873D01*
X0179991Y0135872D02*
X0196476Y0135872D01*
X0196476Y0136870D02*
X0179948Y0136870D01*
X0180191Y0137869D02*
X0196476Y0137869D01*
X0196476Y0138868D02*
X0180191Y0138868D01*
X0180191Y0139866D02*
X0196476Y0139866D01*
X0196476Y0140865D02*
X0180191Y0140865D01*
X0180191Y0141863D02*
X0196476Y0141863D01*
X0196476Y0142862D02*
X0180191Y0142862D01*
X0180191Y0143860D02*
X0196476Y0143860D01*
X0196476Y0144859D02*
X0180191Y0144859D01*
X0180191Y0145857D02*
X0196476Y0145857D01*
X0196476Y0146856D02*
X0180191Y0146856D01*
X0180191Y0147854D02*
X0196476Y0147854D01*
X0196476Y0148853D02*
X0180191Y0148853D01*
X0180191Y0149851D02*
X0196476Y0149851D01*
X0196476Y0150850D02*
X0180191Y0150850D01*
X0180191Y0151848D02*
X0196476Y0151848D01*
X0196476Y0152847D02*
X0180191Y0152847D01*
X0180191Y0153845D02*
X0196476Y0153845D01*
X0196476Y0154844D02*
X0180191Y0154844D01*
X0180191Y0155842D02*
X0189592Y0155842D01*
X0188593Y0156841D02*
X0180191Y0156841D01*
X0180191Y0157839D02*
X0186039Y0157839D01*
X0185405Y0158838D02*
X0180191Y0158838D01*
X0180191Y0159836D02*
X0185183Y0159836D01*
X0185270Y0160835D02*
X0180191Y0160835D01*
X0180191Y0161833D02*
X0185247Y0161833D01*
X0184249Y0162832D02*
X0180191Y0162832D01*
X0180191Y0163830D02*
X0183250Y0163830D01*
X0182252Y0164829D02*
X0180191Y0164829D01*
X0179711Y0165827D02*
X0181253Y0165827D01*
X0181033Y0166826D02*
X0175384Y0166826D01*
X0175384Y0167824D02*
X0175622Y0167824D01*
X0177850Y0178828D02*
X0177850Y0182009D01*
X0176168Y0182009D01*
X0175786Y0181906D01*
X0175444Y0181709D01*
X0175384Y0181649D01*
X0175384Y0192947D01*
X0181034Y0192947D01*
X0181034Y0192155D01*
X0180663Y0191784D01*
X0180184Y0190627D01*
X0180184Y0189373D01*
X0180663Y0188216D01*
X0181034Y0187845D01*
X0181034Y0181818D01*
X0180881Y0181906D01*
X0180500Y0182009D01*
X0178818Y0182009D01*
X0178818Y0178828D01*
X0177850Y0178828D01*
X0177850Y0179806D02*
X0178818Y0179806D01*
X0178818Y0180805D02*
X0177850Y0180805D01*
X0177850Y0181803D02*
X0178818Y0181803D01*
X0181034Y0182802D02*
X0175384Y0182802D01*
X0175384Y0181803D02*
X0175608Y0181803D01*
X0175384Y0183801D02*
X0181034Y0183801D01*
X0181034Y0184799D02*
X0175384Y0184799D01*
X0175384Y0185798D02*
X0181034Y0185798D01*
X0181034Y0186796D02*
X0175384Y0186796D01*
X0175384Y0187795D02*
X0181034Y0187795D01*
X0180424Y0188793D02*
X0175384Y0188793D01*
X0175384Y0189792D02*
X0180184Y0189792D01*
X0180252Y0190790D02*
X0175384Y0190790D01*
X0175384Y0191789D02*
X0180668Y0191789D01*
X0181034Y0192787D02*
X0175384Y0192787D01*
X0174256Y0201173D02*
X0174004Y0201781D01*
X0173118Y0202667D01*
X0171960Y0203147D01*
X0170707Y0203147D01*
X0169549Y0202667D01*
X0168663Y0201781D01*
X0168184Y0200623D01*
X0168184Y0200046D01*
X0167836Y0200393D01*
X0167502Y0200393D01*
X0167502Y0201213D01*
X0166506Y0202209D01*
X0165884Y0202209D01*
X0165884Y0230208D01*
X0166393Y0230419D01*
X0167912Y0231938D01*
X0168734Y0233923D01*
X0168734Y0236071D01*
X0167912Y0238056D01*
X0166393Y0239575D01*
X0164408Y0240397D01*
X0162260Y0240397D01*
X0160275Y0239575D01*
X0158756Y0238056D01*
X0157934Y0236071D01*
X0157934Y0233923D01*
X0158756Y0231938D01*
X0160275Y0230419D01*
X0161784Y0229794D01*
X0161784Y0202209D01*
X0161546Y0202209D01*
X0161546Y0206670D01*
X0161218Y0206997D01*
X0161546Y0207324D01*
X0161546Y0212670D01*
X0161218Y0212997D01*
X0161546Y0213324D01*
X0161546Y0218670D01*
X0160550Y0219665D01*
X0159421Y0219665D01*
X0158133Y0220953D01*
X0156786Y0222300D01*
X0147381Y0222300D01*
X0144381Y0219300D01*
X0143033Y0217953D01*
X0143033Y0215953D01*
X0142491Y0215411D01*
X0142491Y0215812D01*
X0138424Y0215812D01*
X0138424Y0215993D01*
X0138243Y0215993D01*
X0138243Y0215812D01*
X0134176Y0215812D01*
X0134176Y0214524D01*
X0134267Y0214186D01*
X0128533Y0208453D01*
X0128533Y0203009D01*
X0128506Y0203035D01*
X0120433Y0203035D01*
X0120433Y0216958D01*
X0128506Y0216958D01*
X0129502Y0217954D01*
X0129502Y0224087D01*
X0128506Y0225083D01*
X0120433Y0225083D01*
X0120433Y0249883D01*
X0121021Y0248865D01*
X0121021Y0248865D01*
X0123561Y0246734D01*
X0126676Y0245600D01*
X0129991Y0245600D01*
X0133106Y0246734D01*
X0135645Y0248865D01*
X0137303Y0251735D01*
X0137303Y0251735D01*
X0137878Y0255000D01*
X0137644Y0256331D01*
X0139063Y0256331D01*
X0140411Y0256890D01*
X0141443Y0257922D01*
X0142002Y0259270D01*
X0142002Y0260730D01*
X0141443Y0262078D01*
X0140621Y0262900D01*
X0173248Y0262900D01*
X0173248Y0254827D01*
X0174243Y0253831D01*
X0180376Y0253831D01*
X0181372Y0254827D01*
X0181372Y0262900D01*
X0195295Y0262900D01*
X0195295Y0254827D01*
X0196291Y0253831D01*
X0202423Y0253831D01*
X0203419Y0254827D01*
X0203419Y0262900D01*
X0243124Y0262900D01*
X0241021Y0261135D01*
X0239364Y0258265D01*
X0239364Y0258265D01*
X0238788Y0255000D01*
X0239364Y0251735D01*
X0241021Y0248865D01*
X0241021Y0248865D01*
X0243561Y0246734D01*
X0246676Y0245600D01*
X0249991Y0245600D01*
X0253106Y0246734D01*
X0255645Y0248865D01*
X0256233Y0249883D01*
X0256233Y0225085D01*
X0248158Y0225085D01*
X0247162Y0224090D01*
X0247162Y0217957D01*
X0248158Y0216961D01*
X0256233Y0216961D01*
X0256233Y0203038D01*
X0248158Y0203038D01*
X0247162Y0202042D01*
X0247162Y0195910D01*
X0248158Y0194914D01*
X0256233Y0194914D01*
X0256233Y0185085D01*
X0248158Y0185085D01*
X0247162Y0184090D01*
X0247162Y0177957D01*
X0248158Y0176961D01*
X0256233Y0176961D01*
X0256233Y0163038D01*
X0248158Y0163038D01*
X0247162Y0162042D01*
X0247162Y0155910D01*
X0248158Y0154914D01*
X0256233Y0154914D01*
X0256233Y0145085D01*
X0248158Y0145085D01*
X0247162Y0144090D01*
X0247162Y0137957D01*
X0248158Y0136961D01*
X0256233Y0136961D01*
X0256233Y0123038D01*
X0248158Y0123038D01*
X0247162Y0122042D01*
X0247162Y0115910D01*
X0248158Y0114914D01*
X0256233Y0114914D01*
X0256233Y0105085D01*
X0248158Y0105085D01*
X0247162Y0104090D01*
X0247162Y0097957D01*
X0248158Y0096961D01*
X0256233Y0096961D01*
X0256233Y0083038D01*
X0248158Y0083038D01*
X0247162Y0082042D01*
X0247162Y0075910D01*
X0248158Y0074914D01*
X0256233Y0074914D01*
X0256233Y0065117D01*
X0255645Y0066135D01*
X0255645Y0066135D01*
X0253106Y0068266D01*
X0253106Y0068266D01*
X0249991Y0069400D01*
X0246676Y0069400D01*
X0245591Y0069005D01*
X0245633Y0069047D01*
X0245633Y0220953D01*
X0244286Y0222300D01*
X0225786Y0240800D01*
X0194286Y0240800D01*
X0194148Y0240938D01*
X0194148Y0244909D01*
X0194329Y0244909D01*
X0194329Y0240843D01*
X0195617Y0240843D01*
X0195999Y0240945D01*
X0196341Y0241142D01*
X0196620Y0241421D01*
X0196818Y0241764D01*
X0196920Y0242145D01*
X0196920Y0244909D01*
X0194329Y0244909D01*
X0194329Y0245091D01*
X0194148Y0245091D01*
X0194148Y0249157D01*
X0192860Y0249157D01*
X0192487Y0249057D01*
X0192187Y0249357D01*
X0188417Y0249357D01*
X0188333Y0249274D01*
X0188250Y0249357D01*
X0184480Y0249357D01*
X0184396Y0249274D01*
X0184313Y0249357D01*
X0180543Y0249357D01*
X0179547Y0248362D01*
X0179547Y0242050D01*
X0173984Y0242050D01*
X0171283Y0239349D01*
X0171283Y0232405D01*
X0170663Y0231784D01*
X0170183Y0230627D01*
X0170183Y0229373D01*
X0170663Y0228216D01*
X0171549Y0227330D01*
X0172707Y0226850D01*
X0173960Y0226850D01*
X0175118Y0227330D01*
X0176004Y0228216D01*
X0176483Y0229373D01*
X0176483Y0230627D01*
X0176004Y0231784D01*
X0175383Y0232405D01*
X0175383Y0237651D01*
X0175682Y0237950D01*
X0181283Y0237950D01*
X0181283Y0232405D01*
X0180663Y0231784D01*
X0180183Y0230627D01*
X0180183Y0229373D01*
X0180663Y0228216D01*
X0181549Y0227330D01*
X0182707Y0226850D01*
X0183960Y0226850D01*
X0185118Y0227330D01*
X0186004Y0228216D01*
X0186483Y0229373D01*
X0186483Y0230627D01*
X0186004Y0231784D01*
X0185383Y0232405D01*
X0185383Y0238151D01*
X0187875Y0240643D01*
X0188002Y0240643D01*
X0188002Y0240579D01*
X0191033Y0237547D01*
X0192381Y0236200D01*
X0223881Y0236200D01*
X0241033Y0219047D01*
X0241033Y0218786D01*
X0235383Y0218786D01*
X0235383Y0220849D01*
X0230383Y0225849D01*
X0230383Y0225849D01*
X0229182Y0227050D01*
X0212484Y0227050D01*
X0211283Y0225849D01*
X0208484Y0223050D01*
X0207283Y0221849D01*
X0207283Y0198947D01*
X0205083Y0201147D01*
X0202438Y0201147D01*
X0201538Y0202047D01*
X0200384Y0202047D01*
X0200384Y0202785D01*
X0201006Y0202785D01*
X0202002Y0203781D01*
X0202002Y0209520D01*
X0201384Y0210138D01*
X0201503Y0210257D01*
X0201700Y0210599D01*
X0201802Y0210981D01*
X0201802Y0212859D01*
X0198818Y0212859D01*
X0198818Y0213828D01*
X0197850Y0213828D01*
X0197850Y0217009D01*
X0196168Y0217009D01*
X0195786Y0216906D01*
X0195444Y0216709D01*
X0195165Y0216430D01*
X0194968Y0216088D01*
X0194865Y0215706D01*
X0194865Y0213828D01*
X0197849Y0213828D01*
X0197849Y0212859D01*
X0194865Y0212859D01*
X0194865Y0210981D01*
X0194968Y0210599D01*
X0195165Y0210257D01*
X0195284Y0210138D01*
X0194665Y0209520D01*
X0194665Y0203781D01*
X0195661Y0202785D01*
X0196284Y0202785D01*
X0196284Y0202047D01*
X0195130Y0202047D01*
X0194134Y0201051D01*
X0194134Y0198197D01*
X0192534Y0198197D01*
X0192534Y0201051D01*
X0191538Y0202047D01*
X0190384Y0202047D01*
X0190384Y0202785D01*
X0191006Y0202785D01*
X0192002Y0203781D01*
X0192002Y0209520D01*
X0191384Y0210138D01*
X0191503Y0210257D01*
X0191700Y0210599D01*
X0191802Y0210981D01*
X0191802Y0212859D01*
X0188818Y0212859D01*
X0188818Y0213828D01*
X0187850Y0213828D01*
X0187850Y0217009D01*
X0186168Y0217009D01*
X0185786Y0216906D01*
X0185444Y0216709D01*
X0185165Y0216430D01*
X0184968Y0216088D01*
X0184865Y0215706D01*
X0184865Y0213828D01*
X0187849Y0213828D01*
X0187849Y0212859D01*
X0184865Y0212859D01*
X0184865Y0210981D01*
X0184968Y0210599D01*
X0185165Y0210257D01*
X0185284Y0210138D01*
X0184665Y0209520D01*
X0184665Y0208700D01*
X0184138Y0208700D01*
X0183585Y0208147D01*
X0182707Y0208147D01*
X0182002Y0207855D01*
X0182002Y0209520D01*
X0181384Y0210138D01*
X0181503Y0210257D01*
X0181700Y0210599D01*
X0181802Y0210981D01*
X0181802Y0212859D01*
X0178818Y0212859D01*
X0178818Y0213828D01*
X0177850Y0213828D01*
X0177850Y0217009D01*
X0176168Y0217009D01*
X0175786Y0216906D01*
X0175444Y0216709D01*
X0175165Y0216430D01*
X0174968Y0216088D01*
X0174865Y0215706D01*
X0174865Y0213828D01*
X0177849Y0213828D01*
X0177849Y0212859D01*
X0174865Y0212859D01*
X0174865Y0210981D01*
X0174968Y0210599D01*
X0175165Y0210257D01*
X0175284Y0210138D01*
X0174665Y0209520D01*
X0174665Y0203781D01*
X0175661Y0202785D01*
X0176284Y0202785D01*
X0176284Y0202047D01*
X0175130Y0202047D01*
X0174256Y0201173D01*
X0174007Y0201774D02*
X0174856Y0201774D01*
X0176284Y0202772D02*
X0172865Y0202772D01*
X0174675Y0203771D02*
X0165884Y0203771D01*
X0165884Y0204769D02*
X0174665Y0204769D01*
X0174665Y0205768D02*
X0165884Y0205768D01*
X0165884Y0206766D02*
X0174665Y0206766D01*
X0174665Y0207765D02*
X0165884Y0207765D01*
X0165884Y0208763D02*
X0174665Y0208763D01*
X0174907Y0209762D02*
X0165884Y0209762D01*
X0165884Y0210760D02*
X0174924Y0210760D01*
X0174865Y0211759D02*
X0165884Y0211759D01*
X0165884Y0212757D02*
X0174865Y0212757D01*
X0174865Y0214754D02*
X0165884Y0214754D01*
X0165884Y0213756D02*
X0177849Y0213756D01*
X0178818Y0213756D02*
X0187849Y0213756D01*
X0188818Y0213756D02*
X0197849Y0213756D01*
X0198818Y0213756D02*
X0207283Y0213756D01*
X0207283Y0214754D02*
X0201802Y0214754D01*
X0201802Y0213828D02*
X0201802Y0215706D01*
X0201700Y0216088D01*
X0201503Y0216430D01*
X0201223Y0216709D01*
X0200881Y0216906D01*
X0200500Y0217009D01*
X0198818Y0217009D01*
X0198818Y0213828D01*
X0201802Y0213828D01*
X0201802Y0212757D02*
X0207283Y0212757D01*
X0207283Y0211759D02*
X0201802Y0211759D01*
X0201743Y0210760D02*
X0207283Y0210760D01*
X0207283Y0209762D02*
X0201760Y0209762D01*
X0202002Y0208763D02*
X0207283Y0208763D01*
X0207283Y0207765D02*
X0202002Y0207765D01*
X0202002Y0206766D02*
X0207283Y0206766D01*
X0207283Y0205768D02*
X0202002Y0205768D01*
X0202002Y0204769D02*
X0207283Y0204769D01*
X0207283Y0203771D02*
X0201992Y0203771D01*
X0200384Y0202772D02*
X0207283Y0202772D01*
X0207283Y0201774D02*
X0201811Y0201774D01*
X0205455Y0200775D02*
X0207283Y0200775D01*
X0207283Y0199777D02*
X0206453Y0199777D01*
X0213383Y0199777D02*
X0217157Y0199777D01*
X0216936Y0199998D02*
X0217783Y0199151D01*
X0218984Y0197950D01*
X0241033Y0197950D01*
X0241033Y0187300D01*
X0240488Y0187300D01*
X0240118Y0187670D01*
X0238960Y0188150D01*
X0237707Y0188150D01*
X0236549Y0187670D01*
X0235663Y0186784D01*
X0235183Y0185627D01*
X0235183Y0184373D01*
X0235663Y0183216D01*
X0236549Y0182330D01*
X0237707Y0181850D01*
X0238960Y0181850D01*
X0240118Y0182330D01*
X0240488Y0182700D01*
X0241033Y0182700D01*
X0241033Y0178786D01*
X0235383Y0178786D01*
X0235383Y0179349D01*
X0227682Y0187050D01*
X0213484Y0187050D01*
X0213383Y0186949D01*
X0213383Y0214151D01*
X0215121Y0215889D01*
X0215121Y0213330D01*
X0215448Y0213003D01*
X0215121Y0212676D01*
X0215121Y0207330D01*
X0215450Y0207001D01*
X0215122Y0206673D01*
X0215122Y0201327D01*
X0216117Y0200331D01*
X0216936Y0200331D01*
X0216936Y0199998D01*
X0217783Y0199151D02*
X0217783Y0199151D01*
X0218156Y0198778D02*
X0213383Y0198778D01*
X0213383Y0197780D02*
X0241033Y0197780D01*
X0241033Y0196781D02*
X0213383Y0196781D01*
X0213383Y0195783D02*
X0241033Y0195783D01*
X0241033Y0194784D02*
X0213383Y0194784D01*
X0213383Y0193786D02*
X0241033Y0193786D01*
X0241033Y0192787D02*
X0213383Y0192787D01*
X0213383Y0191789D02*
X0241033Y0191789D01*
X0241033Y0190790D02*
X0213383Y0190790D01*
X0213383Y0189792D02*
X0241033Y0189792D01*
X0241033Y0188793D02*
X0213383Y0188793D01*
X0213383Y0187795D02*
X0236849Y0187795D01*
X0235675Y0186796D02*
X0227936Y0186796D01*
X0228935Y0185798D02*
X0235254Y0185798D01*
X0235183Y0184799D02*
X0229933Y0184799D01*
X0230932Y0183801D02*
X0235421Y0183801D01*
X0236077Y0182802D02*
X0231930Y0182802D01*
X0232929Y0181803D02*
X0241033Y0181803D01*
X0241033Y0180805D02*
X0233927Y0180805D01*
X0234926Y0179806D02*
X0241033Y0179806D01*
X0241033Y0178808D02*
X0235383Y0178808D01*
X0239818Y0187795D02*
X0241033Y0187795D01*
X0245633Y0187795D02*
X0256233Y0187795D01*
X0256233Y0188793D02*
X0245633Y0188793D01*
X0245633Y0189792D02*
X0256233Y0189792D01*
X0256233Y0190790D02*
X0245633Y0190790D01*
X0245633Y0191789D02*
X0256233Y0191789D01*
X0256233Y0192787D02*
X0245633Y0192787D01*
X0245633Y0193786D02*
X0256233Y0193786D01*
X0256233Y0194784D02*
X0245633Y0194784D01*
X0245633Y0195783D02*
X0247289Y0195783D01*
X0247162Y0196781D02*
X0245633Y0196781D01*
X0245633Y0197780D02*
X0247162Y0197780D01*
X0247162Y0198778D02*
X0245633Y0198778D01*
X0245633Y0199777D02*
X0247162Y0199777D01*
X0247162Y0200775D02*
X0245633Y0200775D01*
X0245633Y0201774D02*
X0247162Y0201774D01*
X0247892Y0202772D02*
X0245633Y0202772D01*
X0245633Y0203771D02*
X0256233Y0203771D01*
X0256233Y0204769D02*
X0245633Y0204769D01*
X0245633Y0205768D02*
X0256233Y0205768D01*
X0256233Y0206766D02*
X0245633Y0206766D01*
X0245633Y0207765D02*
X0256233Y0207765D01*
X0256233Y0208763D02*
X0245633Y0208763D01*
X0245633Y0209762D02*
X0256233Y0209762D01*
X0256233Y0210760D02*
X0245633Y0210760D01*
X0245633Y0211759D02*
X0256233Y0211759D01*
X0256233Y0212757D02*
X0245633Y0212757D01*
X0245633Y0213756D02*
X0256233Y0213756D01*
X0256233Y0214754D02*
X0245633Y0214754D01*
X0245633Y0215753D02*
X0256233Y0215753D01*
X0256233Y0216751D02*
X0245633Y0216751D01*
X0245633Y0217750D02*
X0247369Y0217750D01*
X0247162Y0218748D02*
X0245633Y0218748D01*
X0245633Y0219747D02*
X0247162Y0219747D01*
X0247162Y0220745D02*
X0245633Y0220745D01*
X0244842Y0221744D02*
X0247162Y0221744D01*
X0247162Y0222742D02*
X0243844Y0222742D01*
X0242845Y0223741D02*
X0247162Y0223741D01*
X0247812Y0224739D02*
X0241847Y0224739D01*
X0240848Y0225738D02*
X0256233Y0225738D01*
X0256233Y0226737D02*
X0239849Y0226737D01*
X0238851Y0227735D02*
X0256233Y0227735D01*
X0256233Y0228734D02*
X0237852Y0228734D01*
X0236854Y0229732D02*
X0256233Y0229732D01*
X0256233Y0230731D02*
X0235855Y0230731D01*
X0234857Y0231729D02*
X0256233Y0231729D01*
X0256233Y0232728D02*
X0233858Y0232728D01*
X0232860Y0233726D02*
X0256233Y0233726D01*
X0256233Y0234725D02*
X0231861Y0234725D01*
X0230863Y0235723D02*
X0256233Y0235723D01*
X0256233Y0236722D02*
X0229864Y0236722D01*
X0228866Y0237720D02*
X0256233Y0237720D01*
X0256233Y0238719D02*
X0227867Y0238719D01*
X0226869Y0239717D02*
X0256233Y0239717D01*
X0256233Y0240716D02*
X0225870Y0240716D01*
X0224358Y0235723D02*
X0185383Y0235723D01*
X0185383Y0234725D02*
X0225356Y0234725D01*
X0226355Y0233726D02*
X0185383Y0233726D01*
X0185383Y0232728D02*
X0227353Y0232728D01*
X0228352Y0231729D02*
X0186027Y0231729D01*
X0186440Y0230731D02*
X0229350Y0230731D01*
X0230349Y0229732D02*
X0186483Y0229732D01*
X0186218Y0228734D02*
X0231347Y0228734D01*
X0232346Y0227735D02*
X0185523Y0227735D01*
X0181144Y0227735D02*
X0175523Y0227735D01*
X0176218Y0228734D02*
X0180448Y0228734D01*
X0180183Y0229732D02*
X0176483Y0229732D01*
X0176440Y0230731D02*
X0180226Y0230731D01*
X0180640Y0231729D02*
X0176027Y0231729D01*
X0175383Y0232728D02*
X0181283Y0232728D01*
X0181283Y0233726D02*
X0175383Y0233726D01*
X0175383Y0234725D02*
X0181283Y0234725D01*
X0181283Y0235723D02*
X0175383Y0235723D01*
X0175383Y0236722D02*
X0181283Y0236722D01*
X0181283Y0237720D02*
X0175453Y0237720D01*
X0172650Y0240716D02*
X0120433Y0240716D01*
X0120433Y0241714D02*
X0173648Y0241714D01*
X0171651Y0239717D02*
X0166049Y0239717D01*
X0167249Y0238719D02*
X0171283Y0238719D01*
X0171283Y0237720D02*
X0168051Y0237720D01*
X0168464Y0236722D02*
X0171283Y0236722D01*
X0171283Y0235723D02*
X0168734Y0235723D01*
X0168734Y0234725D02*
X0171283Y0234725D01*
X0171283Y0233726D02*
X0168652Y0233726D01*
X0168239Y0232728D02*
X0171283Y0232728D01*
X0170640Y0231729D02*
X0167703Y0231729D01*
X0166704Y0230731D02*
X0170226Y0230731D01*
X0170183Y0229732D02*
X0165884Y0229732D01*
X0165884Y0228734D02*
X0170448Y0228734D01*
X0171144Y0227735D02*
X0165884Y0227735D01*
X0165884Y0226737D02*
X0212171Y0226737D01*
X0211283Y0225849D02*
X0211283Y0225849D01*
X0211172Y0225738D02*
X0165884Y0225738D01*
X0165884Y0224739D02*
X0210174Y0224739D01*
X0209175Y0223741D02*
X0165884Y0223741D01*
X0165884Y0222742D02*
X0208177Y0222742D01*
X0208484Y0223050D02*
X0208484Y0223050D01*
X0207283Y0221744D02*
X0165884Y0221744D01*
X0165884Y0220745D02*
X0207283Y0220745D01*
X0207283Y0219747D02*
X0165884Y0219747D01*
X0165884Y0218748D02*
X0207283Y0218748D01*
X0207283Y0217750D02*
X0165884Y0217750D01*
X0165884Y0216751D02*
X0175518Y0216751D01*
X0174878Y0215753D02*
X0165884Y0215753D01*
X0161784Y0215753D02*
X0161546Y0215753D01*
X0161546Y0216751D02*
X0161784Y0216751D01*
X0161784Y0217750D02*
X0161546Y0217750D01*
X0161467Y0218748D02*
X0161784Y0218748D01*
X0161784Y0219747D02*
X0159339Y0219747D01*
X0158341Y0220745D02*
X0161784Y0220745D01*
X0161784Y0221744D02*
X0157342Y0221744D01*
X0158133Y0220953D02*
X0158133Y0220953D01*
X0161784Y0222742D02*
X0129502Y0222742D01*
X0129502Y0221744D02*
X0146825Y0221744D01*
X0145826Y0220745D02*
X0129502Y0220745D01*
X0129502Y0219747D02*
X0144828Y0219747D01*
X0143829Y0218748D02*
X0129502Y0218748D01*
X0129298Y0217750D02*
X0134329Y0217750D01*
X0134279Y0217663D02*
X0134176Y0217281D01*
X0134176Y0215993D01*
X0138243Y0215993D01*
X0138243Y0218584D01*
X0135479Y0218584D01*
X0135097Y0218481D01*
X0134755Y0218284D01*
X0134476Y0218005D01*
X0134279Y0217663D01*
X0134176Y0216751D02*
X0120433Y0216751D01*
X0120433Y0215753D02*
X0134176Y0215753D01*
X0134176Y0214754D02*
X0120433Y0214754D01*
X0120433Y0213756D02*
X0133837Y0213756D01*
X0132838Y0212757D02*
X0120433Y0212757D01*
X0120433Y0211759D02*
X0131839Y0211759D01*
X0130841Y0210760D02*
X0120433Y0210760D01*
X0120433Y0209762D02*
X0129842Y0209762D01*
X0128844Y0208763D02*
X0120433Y0208763D01*
X0120433Y0207765D02*
X0128533Y0207765D01*
X0128533Y0206766D02*
X0120433Y0206766D01*
X0120433Y0205768D02*
X0128533Y0205768D01*
X0128533Y0204769D02*
X0120433Y0204769D01*
X0120433Y0203771D02*
X0128533Y0203771D01*
X0133133Y0203771D02*
X0133976Y0203771D01*
X0133976Y0204769D02*
X0133133Y0204769D01*
X0133133Y0205768D02*
X0133976Y0205768D01*
X0133976Y0205977D02*
X0133976Y0202206D01*
X0134972Y0201210D01*
X0139692Y0201210D01*
X0139692Y0195742D01*
X0140893Y0194541D01*
X0154384Y0181050D01*
X0146484Y0181050D01*
X0145283Y0179849D01*
X0142491Y0177057D01*
X0142491Y0177281D01*
X0142389Y0177663D01*
X0142192Y0178005D01*
X0141912Y0178284D01*
X0141570Y0178481D01*
X0141189Y0178584D01*
X0138424Y0178584D01*
X0138424Y0175993D01*
X0138243Y0175993D01*
X0138243Y0175812D01*
X0134176Y0175812D01*
X0134176Y0174524D01*
X0134246Y0174265D01*
X0133133Y0174265D01*
X0133133Y0206547D01*
X0133976Y0207390D01*
X0133976Y0206143D01*
X0134060Y0206060D01*
X0133976Y0205977D01*
X0133976Y0206766D02*
X0133352Y0206766D01*
X0133133Y0202772D02*
X0133976Y0202772D01*
X0134409Y0201774D02*
X0133133Y0201774D01*
X0133133Y0200775D02*
X0139692Y0200775D01*
X0139692Y0199777D02*
X0133133Y0199777D01*
X0133133Y0198778D02*
X0139692Y0198778D01*
X0139692Y0197780D02*
X0133133Y0197780D01*
X0133133Y0196781D02*
X0139692Y0196781D01*
X0139692Y0195783D02*
X0133133Y0195783D01*
X0133133Y0194784D02*
X0140650Y0194784D01*
X0141649Y0193786D02*
X0133133Y0193786D01*
X0133133Y0192787D02*
X0142647Y0192787D01*
X0143646Y0191789D02*
X0133133Y0191789D01*
X0133133Y0190790D02*
X0144644Y0190790D01*
X0145643Y0189792D02*
X0133133Y0189792D01*
X0133133Y0188793D02*
X0146641Y0188793D01*
X0147640Y0187795D02*
X0133133Y0187795D01*
X0133133Y0186796D02*
X0148638Y0186796D01*
X0149637Y0185798D02*
X0133133Y0185798D01*
X0133133Y0184799D02*
X0150635Y0184799D01*
X0151634Y0183801D02*
X0133133Y0183801D01*
X0133133Y0182802D02*
X0152632Y0182802D01*
X0153631Y0181803D02*
X0133133Y0181803D01*
X0133133Y0180805D02*
X0146239Y0180805D01*
X0145283Y0179849D02*
X0145283Y0179849D01*
X0145241Y0179806D02*
X0133133Y0179806D01*
X0133133Y0178808D02*
X0144242Y0178808D01*
X0143244Y0177809D02*
X0142304Y0177809D01*
X0138424Y0177809D02*
X0138243Y0177809D01*
X0138243Y0178584D02*
X0135479Y0178584D01*
X0135097Y0178481D01*
X0134755Y0178284D01*
X0134476Y0178005D01*
X0134279Y0177663D01*
X0134176Y0177281D01*
X0134176Y0175993D01*
X0138243Y0175993D01*
X0138243Y0178584D01*
X0138243Y0176811D02*
X0138424Y0176811D01*
X0138243Y0175812D02*
X0133133Y0175812D01*
X0133133Y0174814D02*
X0134176Y0174814D01*
X0134176Y0176811D02*
X0133133Y0176811D01*
X0133133Y0177809D02*
X0134363Y0177809D01*
X0133976Y0169665D02*
X0133133Y0169665D01*
X0133133Y0134265D01*
X0134246Y0134265D01*
X0134176Y0134524D01*
X0134176Y0135812D01*
X0138243Y0135812D01*
X0138243Y0135993D01*
X0134176Y0135993D01*
X0134176Y0137281D01*
X0134279Y0137663D01*
X0134476Y0138005D01*
X0134755Y0138284D01*
X0135097Y0138481D01*
X0135479Y0138584D01*
X0138243Y0138584D01*
X0138243Y0135993D01*
X0138424Y0135993D01*
X0138424Y0138584D01*
X0141189Y0138584D01*
X0141570Y0138481D01*
X0141912Y0138284D01*
X0142192Y0138005D01*
X0142389Y0137663D01*
X0142491Y0137281D01*
X0142491Y0135993D01*
X0138424Y0135993D01*
X0138424Y0135812D01*
X0142491Y0135812D01*
X0142491Y0134524D01*
X0142391Y0134151D01*
X0142691Y0133851D01*
X0142691Y0131757D01*
X0143283Y0132349D01*
X0143283Y0134349D01*
X0145780Y0136846D01*
X0145780Y0136846D01*
X0146981Y0138047D01*
X0147122Y0138047D01*
X0147122Y0138670D01*
X0148118Y0139665D01*
X0148937Y0139665D01*
X0148937Y0143503D01*
X0150138Y0144704D01*
X0152102Y0146667D01*
X0143767Y0146667D01*
X0141283Y0149151D01*
X0141283Y0161210D01*
X0134972Y0161210D01*
X0133976Y0162206D01*
X0133976Y0165977D01*
X0134060Y0166060D01*
X0133976Y0166143D01*
X0133976Y0169665D01*
X0133976Y0168823D02*
X0133133Y0168823D01*
X0133133Y0167824D02*
X0133976Y0167824D01*
X0133976Y0166826D02*
X0133133Y0166826D01*
X0133133Y0165827D02*
X0133976Y0165827D01*
X0133976Y0164829D02*
X0133133Y0164829D01*
X0133133Y0163830D02*
X0133976Y0163830D01*
X0133976Y0162832D02*
X0133133Y0162832D01*
X0133133Y0161833D02*
X0134349Y0161833D01*
X0133133Y0160835D02*
X0141283Y0160835D01*
X0141283Y0159836D02*
X0133133Y0159836D01*
X0133133Y0158838D02*
X0141283Y0158838D01*
X0141283Y0157839D02*
X0133133Y0157839D01*
X0133133Y0156841D02*
X0141283Y0156841D01*
X0141283Y0155842D02*
X0133133Y0155842D01*
X0133133Y0154844D02*
X0141283Y0154844D01*
X0141283Y0153845D02*
X0133133Y0153845D01*
X0133133Y0152847D02*
X0141283Y0152847D01*
X0141283Y0151848D02*
X0133133Y0151848D01*
X0133133Y0150850D02*
X0141283Y0150850D01*
X0141283Y0149851D02*
X0133133Y0149851D01*
X0133133Y0148853D02*
X0141582Y0148853D01*
X0142580Y0147854D02*
X0133133Y0147854D01*
X0133133Y0146856D02*
X0143579Y0146856D01*
X0145465Y0150767D02*
X0145383Y0150849D01*
X0145383Y0164941D01*
X0145383Y0166151D01*
X0147122Y0167890D01*
X0147122Y0167324D01*
X0147599Y0166847D01*
X0147424Y0166544D01*
X0147322Y0166163D01*
X0147322Y0164481D01*
X0150503Y0164481D01*
X0150503Y0163513D01*
X0147322Y0163513D01*
X0147322Y0161831D01*
X0147424Y0161449D01*
X0147622Y0161107D01*
X0147901Y0160828D01*
X0148243Y0160631D01*
X0148624Y0160528D01*
X0150503Y0160528D01*
X0150503Y0163513D01*
X0151472Y0163513D01*
X0151472Y0160528D01*
X0152283Y0160528D01*
X0152283Y0152151D01*
X0153667Y0150767D01*
X0145465Y0150767D01*
X0145383Y0150850D02*
X0153585Y0150850D01*
X0152586Y0151848D02*
X0145383Y0151848D01*
X0145383Y0152847D02*
X0152283Y0152847D01*
X0152283Y0153845D02*
X0145383Y0153845D01*
X0145383Y0154844D02*
X0152283Y0154844D01*
X0152283Y0155842D02*
X0145383Y0155842D01*
X0145383Y0156841D02*
X0152283Y0156841D01*
X0152283Y0157839D02*
X0145383Y0157839D01*
X0145383Y0158838D02*
X0152283Y0158838D01*
X0152283Y0159836D02*
X0145383Y0159836D01*
X0145383Y0160835D02*
X0147894Y0160835D01*
X0147322Y0161833D02*
X0145383Y0161833D01*
X0145383Y0162832D02*
X0147322Y0162832D01*
X0147322Y0164829D02*
X0145383Y0164829D01*
X0145383Y0165827D02*
X0147322Y0165827D01*
X0147587Y0166826D02*
X0146058Y0166826D01*
X0147057Y0167824D02*
X0147122Y0167824D01*
X0145383Y0163830D02*
X0150503Y0163830D01*
X0150503Y0162832D02*
X0151472Y0162832D01*
X0151472Y0161833D02*
X0150503Y0161833D01*
X0150503Y0160835D02*
X0151472Y0160835D01*
X0157680Y0169997D02*
X0157680Y0175997D01*
X0152283Y0188949D02*
X0143792Y0197441D01*
X0143792Y0204559D01*
X0147122Y0207890D01*
X0147122Y0207324D01*
X0147599Y0206847D01*
X0147424Y0206544D01*
X0147322Y0206163D01*
X0147322Y0204481D01*
X0150503Y0204481D01*
X0150503Y0203513D01*
X0147322Y0203513D01*
X0147322Y0201831D01*
X0147424Y0201449D01*
X0147622Y0201107D01*
X0147901Y0200828D01*
X0148243Y0200631D01*
X0148624Y0200528D01*
X0150503Y0200528D01*
X0150503Y0203513D01*
X0151472Y0203513D01*
X0151472Y0200528D01*
X0152283Y0200528D01*
X0152283Y0188949D01*
X0152283Y0189792D02*
X0151441Y0189792D01*
X0152283Y0190790D02*
X0150442Y0190790D01*
X0149444Y0191789D02*
X0152283Y0191789D01*
X0152283Y0192787D02*
X0148445Y0192787D01*
X0147447Y0193786D02*
X0152283Y0193786D01*
X0152283Y0194784D02*
X0146448Y0194784D01*
X0145450Y0195783D02*
X0152283Y0195783D01*
X0152283Y0196781D02*
X0144451Y0196781D01*
X0143792Y0197780D02*
X0152283Y0197780D01*
X0152283Y0198778D02*
X0143792Y0198778D01*
X0143792Y0199777D02*
X0152283Y0199777D01*
X0151472Y0200775D02*
X0150503Y0200775D01*
X0150503Y0201774D02*
X0151472Y0201774D01*
X0151472Y0202772D02*
X0150503Y0202772D01*
X0150503Y0203771D02*
X0143792Y0203771D01*
X0143792Y0202772D02*
X0147322Y0202772D01*
X0147337Y0201774D02*
X0143792Y0201774D01*
X0143792Y0200775D02*
X0147993Y0200775D01*
X0147322Y0204769D02*
X0144002Y0204769D01*
X0145000Y0205768D02*
X0147322Y0205768D01*
X0147552Y0206766D02*
X0145999Y0206766D01*
X0146997Y0207765D02*
X0147122Y0207765D01*
X0142834Y0215753D02*
X0142491Y0215753D01*
X0142491Y0215993D02*
X0142491Y0217281D01*
X0142389Y0217663D01*
X0142192Y0218005D01*
X0141912Y0218284D01*
X0141570Y0218481D01*
X0141189Y0218584D01*
X0138424Y0218584D01*
X0138424Y0215993D01*
X0142491Y0215993D01*
X0142491Y0216751D02*
X0143033Y0216751D01*
X0143033Y0217750D02*
X0142339Y0217750D01*
X0138424Y0217750D02*
X0138243Y0217750D01*
X0138243Y0216751D02*
X0138424Y0216751D01*
X0129502Y0223741D02*
X0161784Y0223741D01*
X0161784Y0224739D02*
X0128850Y0224739D01*
X0120433Y0225738D02*
X0161784Y0225738D01*
X0161784Y0226737D02*
X0120433Y0226737D01*
X0120433Y0227735D02*
X0161784Y0227735D01*
X0161784Y0228734D02*
X0120433Y0228734D01*
X0120433Y0229732D02*
X0161784Y0229732D01*
X0159963Y0230731D02*
X0120433Y0230731D01*
X0120433Y0231729D02*
X0158965Y0231729D01*
X0158429Y0232728D02*
X0120433Y0232728D01*
X0120433Y0233726D02*
X0158015Y0233726D01*
X0157934Y0234725D02*
X0120433Y0234725D01*
X0120433Y0235723D02*
X0157934Y0235723D01*
X0158203Y0236722D02*
X0120433Y0236722D01*
X0120433Y0237720D02*
X0158617Y0237720D01*
X0159419Y0238719D02*
X0120433Y0238719D01*
X0120433Y0239717D02*
X0160619Y0239717D01*
X0179547Y0242713D02*
X0120433Y0242713D01*
X0120433Y0243711D02*
X0179547Y0243711D01*
X0179547Y0244710D02*
X0120433Y0244710D01*
X0120433Y0245708D02*
X0126379Y0245708D01*
X0123635Y0246707D02*
X0120433Y0246707D01*
X0120433Y0247705D02*
X0122403Y0247705D01*
X0123561Y0246734D02*
X0123561Y0246734D01*
X0121213Y0248704D02*
X0120433Y0248704D01*
X0120433Y0249702D02*
X0120538Y0249702D01*
X0130288Y0245708D02*
X0179547Y0245708D01*
X0179547Y0246707D02*
X0133032Y0246707D01*
X0133106Y0246734D02*
X0133106Y0246734D01*
X0134264Y0247705D02*
X0179547Y0247705D01*
X0179889Y0248704D02*
X0135454Y0248704D01*
X0135645Y0248865D02*
X0135645Y0248865D01*
X0135645Y0248865D01*
X0136129Y0249702D02*
X0240538Y0249702D01*
X0239961Y0250701D02*
X0136705Y0250701D01*
X0137282Y0251699D02*
X0239385Y0251699D01*
X0239364Y0251735D02*
X0239364Y0251735D01*
X0239194Y0252698D02*
X0137472Y0252698D01*
X0137648Y0253696D02*
X0239018Y0253696D01*
X0238842Y0254695D02*
X0203287Y0254695D01*
X0203419Y0255693D02*
X0238911Y0255693D01*
X0238788Y0255000D02*
X0238788Y0255000D01*
X0239087Y0256692D02*
X0203419Y0256692D01*
X0203419Y0257690D02*
X0239263Y0257690D01*
X0239609Y0258689D02*
X0203419Y0258689D01*
X0203419Y0259687D02*
X0240185Y0259687D01*
X0240762Y0260686D02*
X0203419Y0260686D01*
X0203419Y0261684D02*
X0241676Y0261684D01*
X0241021Y0261135D02*
X0241021Y0261135D01*
X0241021Y0261135D01*
X0242866Y0262683D02*
X0203419Y0262683D01*
X0195295Y0262683D02*
X0181372Y0262683D01*
X0181372Y0261684D02*
X0195295Y0261684D01*
X0195295Y0260686D02*
X0181372Y0260686D01*
X0181372Y0259687D02*
X0195295Y0259687D01*
X0195295Y0258689D02*
X0181372Y0258689D01*
X0181372Y0257690D02*
X0195295Y0257690D01*
X0195295Y0256692D02*
X0181372Y0256692D01*
X0181372Y0255693D02*
X0195295Y0255693D01*
X0195427Y0254695D02*
X0181239Y0254695D01*
X0173380Y0254695D02*
X0137825Y0254695D01*
X0137878Y0255000D02*
X0137878Y0255000D01*
X0137756Y0255693D02*
X0173248Y0255693D01*
X0173248Y0256692D02*
X0139933Y0256692D01*
X0141212Y0257690D02*
X0173248Y0257690D01*
X0173248Y0258689D02*
X0141761Y0258689D01*
X0142002Y0259687D02*
X0173248Y0259687D01*
X0173248Y0260686D02*
X0142002Y0260686D01*
X0141606Y0261684D02*
X0173248Y0261684D01*
X0173248Y0262683D02*
X0140838Y0262683D01*
X0185383Y0237720D02*
X0190861Y0237720D01*
X0191859Y0236722D02*
X0185383Y0236722D01*
X0185951Y0238719D02*
X0189862Y0238719D01*
X0188863Y0239717D02*
X0186950Y0239717D01*
X0194148Y0241714D02*
X0194329Y0241714D01*
X0194329Y0242713D02*
X0194148Y0242713D01*
X0194148Y0243711D02*
X0194329Y0243711D01*
X0194329Y0244710D02*
X0194148Y0244710D01*
X0194329Y0245091D02*
X0196920Y0245091D01*
X0196920Y0247855D01*
X0196818Y0248236D01*
X0196620Y0248578D01*
X0196341Y0248858D01*
X0195999Y0249055D01*
X0195617Y0249157D01*
X0194329Y0249157D01*
X0194329Y0245091D01*
X0194329Y0245708D02*
X0194148Y0245708D01*
X0194148Y0246707D02*
X0194329Y0246707D01*
X0194329Y0247705D02*
X0194148Y0247705D01*
X0194148Y0248704D02*
X0194329Y0248704D01*
X0196495Y0248704D02*
X0241213Y0248704D01*
X0242403Y0247705D02*
X0196920Y0247705D01*
X0196920Y0246707D02*
X0243635Y0246707D01*
X0243561Y0246734D02*
X0243561Y0246734D01*
X0246379Y0245708D02*
X0196920Y0245708D01*
X0196920Y0244710D02*
X0256233Y0244710D01*
X0256233Y0245708D02*
X0250288Y0245708D01*
X0253032Y0246707D02*
X0256233Y0246707D01*
X0256233Y0247705D02*
X0254264Y0247705D01*
X0253106Y0246734D02*
X0253106Y0246734D01*
X0255454Y0248704D02*
X0256233Y0248704D01*
X0255645Y0248865D02*
X0255645Y0248865D01*
X0255645Y0248865D01*
X0256129Y0249702D02*
X0256233Y0249702D01*
X0256233Y0243711D02*
X0196920Y0243711D01*
X0196920Y0242713D02*
X0256233Y0242713D01*
X0256233Y0241714D02*
X0196789Y0241714D01*
X0197850Y0216751D02*
X0198818Y0216751D01*
X0198818Y0215753D02*
X0197850Y0215753D01*
X0197850Y0214754D02*
X0198818Y0214754D01*
X0201150Y0216751D02*
X0207283Y0216751D01*
X0207283Y0215753D02*
X0201790Y0215753D01*
X0195518Y0216751D02*
X0191150Y0216751D01*
X0191223Y0216709D02*
X0190881Y0216906D01*
X0190500Y0217009D01*
X0188818Y0217009D01*
X0188818Y0213828D01*
X0191802Y0213828D01*
X0191802Y0215706D01*
X0191700Y0216088D01*
X0191503Y0216430D01*
X0191223Y0216709D01*
X0191790Y0215753D02*
X0194878Y0215753D01*
X0194865Y0214754D02*
X0191802Y0214754D01*
X0191802Y0212757D02*
X0194865Y0212757D01*
X0194865Y0211759D02*
X0191802Y0211759D01*
X0191743Y0210760D02*
X0194924Y0210760D01*
X0194907Y0209762D02*
X0191760Y0209762D01*
X0192002Y0208763D02*
X0194665Y0208763D01*
X0194665Y0207765D02*
X0192002Y0207765D01*
X0192002Y0206766D02*
X0194665Y0206766D01*
X0194665Y0205768D02*
X0192002Y0205768D01*
X0192002Y0204769D02*
X0194665Y0204769D01*
X0194675Y0203771D02*
X0191992Y0203771D01*
X0190384Y0202772D02*
X0196284Y0202772D01*
X0194856Y0201774D02*
X0191811Y0201774D01*
X0192534Y0200775D02*
X0194134Y0200775D01*
X0194134Y0199777D02*
X0192534Y0199777D01*
X0192534Y0198778D02*
X0194134Y0198778D01*
X0184665Y0208763D02*
X0182002Y0208763D01*
X0181760Y0209762D02*
X0184907Y0209762D01*
X0184924Y0210760D02*
X0181743Y0210760D01*
X0181802Y0211759D02*
X0184865Y0211759D01*
X0184865Y0212757D02*
X0181802Y0212757D01*
X0181802Y0213828D02*
X0181802Y0215706D01*
X0181700Y0216088D01*
X0181503Y0216430D01*
X0181223Y0216709D01*
X0180881Y0216906D01*
X0180500Y0217009D01*
X0178818Y0217009D01*
X0178818Y0213828D01*
X0181802Y0213828D01*
X0181802Y0214754D02*
X0184865Y0214754D01*
X0184878Y0215753D02*
X0181790Y0215753D01*
X0181150Y0216751D02*
X0185518Y0216751D01*
X0187850Y0216751D02*
X0188818Y0216751D01*
X0188818Y0215753D02*
X0187850Y0215753D01*
X0187850Y0214754D02*
X0188818Y0214754D01*
X0178818Y0214754D02*
X0177850Y0214754D01*
X0177850Y0215753D02*
X0178818Y0215753D01*
X0178818Y0216751D02*
X0177850Y0216751D01*
X0169803Y0202772D02*
X0165884Y0202772D01*
X0166941Y0201774D02*
X0168660Y0201774D01*
X0168247Y0200775D02*
X0167502Y0200775D01*
X0161784Y0202772D02*
X0161546Y0202772D01*
X0161546Y0203771D02*
X0161784Y0203771D01*
X0161784Y0204769D02*
X0161546Y0204769D01*
X0161546Y0205768D02*
X0161784Y0205768D01*
X0161784Y0206766D02*
X0161449Y0206766D01*
X0161546Y0207765D02*
X0161784Y0207765D01*
X0161784Y0208763D02*
X0161546Y0208763D01*
X0161546Y0209762D02*
X0161784Y0209762D01*
X0161784Y0210760D02*
X0161546Y0210760D01*
X0161546Y0211759D02*
X0161784Y0211759D01*
X0161784Y0212757D02*
X0161458Y0212757D01*
X0161546Y0213756D02*
X0161784Y0213756D01*
X0161784Y0214754D02*
X0161546Y0214754D01*
X0213383Y0213756D02*
X0215121Y0213756D01*
X0215121Y0214754D02*
X0213987Y0214754D01*
X0214985Y0215753D02*
X0215121Y0215753D01*
X0215203Y0212757D02*
X0213383Y0212757D01*
X0213383Y0211759D02*
X0215121Y0211759D01*
X0215121Y0210760D02*
X0213383Y0210760D01*
X0213383Y0209762D02*
X0215121Y0209762D01*
X0215121Y0208763D02*
X0213383Y0208763D01*
X0213383Y0207765D02*
X0215121Y0207765D01*
X0215215Y0206766D02*
X0213383Y0206766D01*
X0213383Y0205768D02*
X0215122Y0205768D01*
X0215122Y0204769D02*
X0213383Y0204769D01*
X0213383Y0203771D02*
X0215122Y0203771D01*
X0215122Y0202772D02*
X0213383Y0202772D01*
X0213383Y0201774D02*
X0215122Y0201774D01*
X0215674Y0200775D02*
X0213383Y0200775D01*
X0226164Y0203516D02*
X0226164Y0204484D01*
X0229345Y0204484D01*
X0229345Y0206166D01*
X0229243Y0206547D01*
X0229067Y0206853D01*
X0229545Y0207330D01*
X0229545Y0207953D01*
X0232686Y0207953D01*
X0233886Y0209154D01*
X0233973Y0209240D01*
X0233973Y0206146D01*
X0234273Y0205846D01*
X0234173Y0205473D01*
X0234173Y0204185D01*
X0238240Y0204185D01*
X0238240Y0204003D01*
X0234173Y0204003D01*
X0234173Y0202715D01*
X0234275Y0202334D01*
X0234439Y0202050D01*
X0229345Y0202050D01*
X0229345Y0203516D01*
X0226164Y0203516D01*
X0226164Y0203771D02*
X0234173Y0203771D01*
X0234173Y0204769D02*
X0229345Y0204769D01*
X0229345Y0205768D02*
X0234252Y0205768D01*
X0233973Y0206766D02*
X0229117Y0206766D01*
X0229545Y0207765D02*
X0233973Y0207765D01*
X0233973Y0208763D02*
X0233496Y0208763D01*
X0233886Y0209154D02*
X0233886Y0209154D01*
X0234173Y0202772D02*
X0229345Y0202772D01*
X0235383Y0219747D02*
X0240334Y0219747D01*
X0239335Y0220745D02*
X0235383Y0220745D01*
X0234489Y0221744D02*
X0238337Y0221744D01*
X0237338Y0222742D02*
X0233490Y0222742D01*
X0232491Y0223741D02*
X0236340Y0223741D01*
X0235341Y0224739D02*
X0231493Y0224739D01*
X0230494Y0225738D02*
X0234343Y0225738D01*
X0233344Y0226737D02*
X0229496Y0226737D01*
X0245633Y0186796D02*
X0256233Y0186796D01*
X0256233Y0185798D02*
X0245633Y0185798D01*
X0245633Y0184799D02*
X0247871Y0184799D01*
X0247162Y0183801D02*
X0245633Y0183801D01*
X0245633Y0182802D02*
X0247162Y0182802D01*
X0247162Y0181803D02*
X0245633Y0181803D01*
X0245633Y0180805D02*
X0247162Y0180805D01*
X0247162Y0179806D02*
X0245633Y0179806D01*
X0245633Y0178808D02*
X0247162Y0178808D01*
X0247309Y0177809D02*
X0245633Y0177809D01*
X0245633Y0176811D02*
X0256233Y0176811D01*
X0256233Y0175812D02*
X0245633Y0175812D01*
X0245633Y0174814D02*
X0256233Y0174814D01*
X0256233Y0173815D02*
X0245633Y0173815D01*
X0245633Y0172817D02*
X0256233Y0172817D01*
X0256233Y0171818D02*
X0245633Y0171818D01*
X0245633Y0170820D02*
X0256233Y0170820D01*
X0256233Y0169821D02*
X0245633Y0169821D01*
X0245633Y0168823D02*
X0256233Y0168823D01*
X0256233Y0167824D02*
X0245633Y0167824D01*
X0245633Y0166826D02*
X0256233Y0166826D01*
X0256233Y0165827D02*
X0245633Y0165827D01*
X0245633Y0164829D02*
X0256233Y0164829D01*
X0256233Y0163830D02*
X0245633Y0163830D01*
X0245633Y0162832D02*
X0247951Y0162832D01*
X0247162Y0161833D02*
X0245633Y0161833D01*
X0245633Y0160835D02*
X0247162Y0160835D01*
X0247162Y0159836D02*
X0245633Y0159836D01*
X0245633Y0158838D02*
X0247162Y0158838D01*
X0247162Y0157839D02*
X0245633Y0157839D01*
X0245633Y0156841D02*
X0247162Y0156841D01*
X0247229Y0155842D02*
X0245633Y0155842D01*
X0245633Y0154844D02*
X0256233Y0154844D01*
X0256233Y0153845D02*
X0245633Y0153845D01*
X0245633Y0152847D02*
X0256233Y0152847D01*
X0256233Y0151848D02*
X0245633Y0151848D01*
X0245633Y0150850D02*
X0256233Y0150850D01*
X0256233Y0149851D02*
X0245633Y0149851D01*
X0245633Y0148853D02*
X0256233Y0148853D01*
X0256233Y0147854D02*
X0245633Y0147854D01*
X0245633Y0146856D02*
X0256233Y0146856D01*
X0256233Y0145857D02*
X0245633Y0145857D01*
X0245633Y0144859D02*
X0247931Y0144859D01*
X0247162Y0143860D02*
X0245633Y0143860D01*
X0245633Y0142862D02*
X0247162Y0142862D01*
X0247162Y0141863D02*
X0245633Y0141863D01*
X0245633Y0140865D02*
X0247162Y0140865D01*
X0247162Y0139866D02*
X0245633Y0139866D01*
X0245633Y0138868D02*
X0247162Y0138868D01*
X0247250Y0137869D02*
X0245633Y0137869D01*
X0245633Y0136870D02*
X0256233Y0136870D01*
X0256233Y0135872D02*
X0245633Y0135872D01*
X0245633Y0134873D02*
X0256233Y0134873D01*
X0256233Y0133875D02*
X0245633Y0133875D01*
X0245633Y0132876D02*
X0256233Y0132876D01*
X0256233Y0131878D02*
X0245633Y0131878D01*
X0245633Y0130879D02*
X0256233Y0130879D01*
X0256233Y0129881D02*
X0245633Y0129881D01*
X0245633Y0128882D02*
X0256233Y0128882D01*
X0256233Y0127884D02*
X0245633Y0127884D01*
X0245633Y0126885D02*
X0256233Y0126885D01*
X0256233Y0125887D02*
X0245633Y0125887D01*
X0245633Y0124888D02*
X0256233Y0124888D01*
X0256233Y0123890D02*
X0245633Y0123890D01*
X0245633Y0122891D02*
X0248011Y0122891D01*
X0247162Y0121893D02*
X0245633Y0121893D01*
X0245633Y0120894D02*
X0247162Y0120894D01*
X0247162Y0119896D02*
X0245633Y0119896D01*
X0245633Y0118897D02*
X0247162Y0118897D01*
X0247162Y0117899D02*
X0245633Y0117899D01*
X0245633Y0116900D02*
X0247162Y0116900D01*
X0247170Y0115902D02*
X0245633Y0115902D01*
X0245633Y0114903D02*
X0256233Y0114903D01*
X0256233Y0113905D02*
X0245633Y0113905D01*
X0245633Y0112906D02*
X0256233Y0112906D01*
X0256233Y0111908D02*
X0245633Y0111908D01*
X0245633Y0110909D02*
X0256233Y0110909D01*
X0256233Y0109911D02*
X0245633Y0109911D01*
X0245633Y0108912D02*
X0256233Y0108912D01*
X0256233Y0107914D02*
X0245633Y0107914D01*
X0245633Y0106915D02*
X0256233Y0106915D01*
X0256233Y0105917D02*
X0245633Y0105917D01*
X0245633Y0104918D02*
X0247990Y0104918D01*
X0247162Y0103920D02*
X0245633Y0103920D01*
X0245633Y0102921D02*
X0247162Y0102921D01*
X0247162Y0101923D02*
X0245633Y0101923D01*
X0245633Y0100924D02*
X0247162Y0100924D01*
X0247162Y0099926D02*
X0245633Y0099926D01*
X0245633Y0098927D02*
X0247162Y0098927D01*
X0247190Y0097929D02*
X0245633Y0097929D01*
X0245633Y0096930D02*
X0256233Y0096930D01*
X0256233Y0095932D02*
X0245633Y0095932D01*
X0245633Y0094933D02*
X0256233Y0094933D01*
X0256233Y0093934D02*
X0245633Y0093934D01*
X0245633Y0092936D02*
X0256233Y0092936D01*
X0256233Y0091937D02*
X0245633Y0091937D01*
X0245633Y0090939D02*
X0256233Y0090939D01*
X0256233Y0089940D02*
X0245633Y0089940D01*
X0245633Y0088942D02*
X0256233Y0088942D01*
X0256233Y0087943D02*
X0245633Y0087943D01*
X0245633Y0086945D02*
X0256233Y0086945D01*
X0256233Y0085946D02*
X0245633Y0085946D01*
X0245633Y0084948D02*
X0256233Y0084948D01*
X0256233Y0083949D02*
X0245633Y0083949D01*
X0245633Y0082951D02*
X0248070Y0082951D01*
X0247162Y0081952D02*
X0245633Y0081952D01*
X0245633Y0080954D02*
X0247162Y0080954D01*
X0247162Y0079955D02*
X0245633Y0079955D01*
X0245633Y0078957D02*
X0247162Y0078957D01*
X0247162Y0077958D02*
X0245633Y0077958D01*
X0245633Y0076960D02*
X0247162Y0076960D01*
X0247162Y0075961D02*
X0245633Y0075961D01*
X0245633Y0074963D02*
X0248109Y0074963D01*
X0245633Y0073964D02*
X0256233Y0073964D01*
X0256233Y0072966D02*
X0245633Y0072966D01*
X0245633Y0071967D02*
X0256233Y0071967D01*
X0256233Y0070969D02*
X0245633Y0070969D01*
X0245633Y0069970D02*
X0256233Y0069970D01*
X0256233Y0068972D02*
X0251167Y0068972D01*
X0253455Y0067973D02*
X0256233Y0067973D01*
X0256233Y0066975D02*
X0254645Y0066975D01*
X0255737Y0065976D02*
X0256233Y0065976D01*
X0241033Y0070969D02*
X0191845Y0070969D01*
X0192002Y0071967D02*
X0241033Y0071967D01*
X0241033Y0072966D02*
X0192002Y0072966D01*
X0192002Y0073964D02*
X0241033Y0073964D01*
X0241033Y0074963D02*
X0192002Y0074963D01*
X0191820Y0075961D02*
X0241033Y0075961D01*
X0241033Y0076960D02*
X0190821Y0076960D01*
X0191176Y0077958D02*
X0219476Y0077958D01*
X0218477Y0078957D02*
X0192002Y0078957D01*
X0192002Y0079955D02*
X0217479Y0079955D01*
X0215495Y0080954D02*
X0192002Y0080954D01*
X0192002Y0081952D02*
X0215122Y0081952D01*
X0215122Y0082951D02*
X0192002Y0082951D01*
X0192002Y0083949D02*
X0215122Y0083949D01*
X0215122Y0084948D02*
X0191577Y0084948D01*
X0191792Y0085946D02*
X0215122Y0085946D01*
X0215394Y0086945D02*
X0191802Y0086945D01*
X0188818Y0088942D02*
X0187849Y0088942D01*
X0187849Y0089940D02*
X0188818Y0089940D01*
X0188818Y0090939D02*
X0187849Y0090939D01*
X0187849Y0091937D02*
X0188818Y0091937D01*
X0185890Y0091937D02*
X0161546Y0091937D01*
X0161546Y0090939D02*
X0184926Y0090939D01*
X0184865Y0089940D02*
X0161546Y0089940D01*
X0161546Y0088942D02*
X0184865Y0088942D01*
X0184822Y0070969D02*
X0120433Y0070969D01*
X0120433Y0069970D02*
X0185761Y0069970D01*
X0184763Y0068972D02*
X0131167Y0068972D01*
X0133455Y0067973D02*
X0184665Y0067973D01*
X0184665Y0066975D02*
X0134645Y0066975D01*
X0135737Y0065976D02*
X0184665Y0065976D01*
X0184665Y0064978D02*
X0136314Y0064978D01*
X0136890Y0063979D02*
X0184906Y0063979D01*
X0185905Y0062981D02*
X0137353Y0062981D01*
X0137529Y0061982D02*
X0186033Y0061982D01*
X0186097Y0060984D02*
X0137705Y0060984D01*
X0137876Y0059985D02*
X0187096Y0059985D01*
X0188094Y0058987D02*
X0137700Y0058987D01*
X0137524Y0057988D02*
X0189093Y0057988D01*
X0190762Y0062981D02*
X0233061Y0062981D01*
X0234060Y0063979D02*
X0191760Y0063979D01*
X0192002Y0064978D02*
X0235058Y0064978D01*
X0236057Y0065976D02*
X0192002Y0065976D01*
X0192002Y0066975D02*
X0237055Y0066975D01*
X0238054Y0067973D02*
X0192002Y0067973D01*
X0191904Y0068972D02*
X0239052Y0068972D01*
X0240051Y0069970D02*
X0190906Y0069970D01*
X0155380Y0080300D02*
X0152381Y0077300D01*
X0134286Y0077300D01*
X0133133Y0078453D01*
X0133133Y0089700D01*
X0133976Y0089700D01*
X0133976Y0086143D01*
X0134060Y0086060D01*
X0133976Y0085977D01*
X0133976Y0082206D01*
X0134972Y0081210D01*
X0141695Y0081210D01*
X0142527Y0082041D01*
X0143274Y0082041D01*
X0144475Y0083242D01*
X0144475Y0083242D01*
X0145682Y0084450D01*
X0146883Y0085651D01*
X0146883Y0087651D01*
X0147122Y0087890D01*
X0147122Y0087324D01*
X0147599Y0086847D01*
X0147424Y0086544D01*
X0147322Y0086163D01*
X0147322Y0084481D01*
X0150503Y0084481D01*
X0150503Y0083513D01*
X0147322Y0083513D01*
X0147322Y0081831D01*
X0147424Y0081449D01*
X0147622Y0081107D01*
X0147901Y0080828D01*
X0148243Y0080631D01*
X0148624Y0080528D01*
X0150503Y0080528D01*
X0150503Y0083513D01*
X0151472Y0083513D01*
X0151472Y0080528D01*
X0153350Y0080528D01*
X0153732Y0080631D01*
X0154074Y0080828D01*
X0154192Y0080947D01*
X0154811Y0080328D01*
X0155380Y0080328D01*
X0155380Y0080300D01*
X0155036Y0079955D02*
X0133133Y0079955D01*
X0133133Y0078957D02*
X0154037Y0078957D01*
X0153039Y0077958D02*
X0133628Y0077958D01*
X0133133Y0080954D02*
X0147775Y0080954D01*
X0147322Y0081952D02*
X0142437Y0081952D01*
X0144183Y0082951D02*
X0147322Y0082951D01*
X0147322Y0084948D02*
X0146180Y0084948D01*
X0146883Y0085946D02*
X0147322Y0085946D01*
X0147501Y0086945D02*
X0146883Y0086945D01*
X0145182Y0083949D02*
X0150503Y0083949D01*
X0150503Y0082951D02*
X0151472Y0082951D01*
X0151472Y0081952D02*
X0150503Y0081952D01*
X0150503Y0080954D02*
X0151472Y0080954D01*
X0134230Y0081952D02*
X0133133Y0081952D01*
X0133133Y0082951D02*
X0133976Y0082951D01*
X0133976Y0083949D02*
X0133133Y0083949D01*
X0133133Y0084948D02*
X0133976Y0084948D01*
X0133976Y0085946D02*
X0133133Y0085946D01*
X0133133Y0086945D02*
X0133976Y0086945D01*
X0133976Y0087943D02*
X0133133Y0087943D01*
X0133133Y0088942D02*
X0133976Y0088942D01*
X0134236Y0094300D02*
X0133133Y0094300D01*
X0133133Y0112950D01*
X0156682Y0112950D01*
X0157883Y0114151D01*
X0160023Y0116290D01*
X0160118Y0116330D01*
X0161004Y0117216D01*
X0161483Y0118373D01*
X0161483Y0119627D01*
X0161004Y0120783D01*
X0161546Y0121324D01*
X0161546Y0126670D01*
X0161218Y0126997D01*
X0161546Y0127324D01*
X0161546Y0132670D01*
X0161218Y0132997D01*
X0161546Y0133324D01*
X0161546Y0138670D01*
X0160550Y0139665D01*
X0156383Y0139665D01*
X0156383Y0141549D01*
X0165987Y0141549D01*
X0165985Y0141547D01*
X0164784Y0140346D01*
X0164784Y0119350D01*
X0150138Y0104704D01*
X0148937Y0103503D01*
X0148937Y0099665D01*
X0148118Y0099665D01*
X0147122Y0098670D01*
X0147122Y0098047D01*
X0143481Y0098047D01*
X0142491Y0097057D01*
X0142491Y0097281D01*
X0142389Y0097663D01*
X0142192Y0098005D01*
X0141912Y0098284D01*
X0141570Y0098481D01*
X0141189Y0098584D01*
X0138424Y0098584D01*
X0138424Y0095993D01*
X0138243Y0095993D01*
X0138243Y0095812D01*
X0134176Y0095812D01*
X0134176Y0094524D01*
X0134236Y0094300D01*
X0134176Y0094933D02*
X0133133Y0094933D01*
X0133133Y0095932D02*
X0138243Y0095932D01*
X0138243Y0095993D02*
X0134176Y0095993D01*
X0134176Y0097281D01*
X0134279Y0097663D01*
X0134476Y0098005D01*
X0134755Y0098284D01*
X0135097Y0098481D01*
X0135479Y0098584D01*
X0138243Y0098584D01*
X0138243Y0095993D01*
X0138243Y0096930D02*
X0138424Y0096930D01*
X0138424Y0097929D02*
X0138243Y0097929D01*
X0134432Y0097929D02*
X0133133Y0097929D01*
X0133133Y0098927D02*
X0147379Y0098927D01*
X0148937Y0099926D02*
X0133133Y0099926D01*
X0133133Y0100924D02*
X0148937Y0100924D01*
X0148937Y0101923D02*
X0133133Y0101923D01*
X0133133Y0102921D02*
X0148937Y0102921D01*
X0149354Y0103920D02*
X0133133Y0103920D01*
X0133133Y0104918D02*
X0150352Y0104918D01*
X0151351Y0105917D02*
X0133133Y0105917D01*
X0133133Y0106915D02*
X0152349Y0106915D01*
X0153348Y0107914D02*
X0133133Y0107914D01*
X0133133Y0108912D02*
X0154346Y0108912D01*
X0155345Y0109911D02*
X0133133Y0109911D01*
X0133133Y0110909D02*
X0156343Y0110909D01*
X0157342Y0111908D02*
X0133133Y0111908D01*
X0133133Y0112906D02*
X0158340Y0112906D01*
X0157637Y0113905D02*
X0159339Y0113905D01*
X0158636Y0114903D02*
X0160337Y0114903D01*
X0159634Y0115902D02*
X0161336Y0115902D01*
X0160688Y0116900D02*
X0162334Y0116900D01*
X0163333Y0117899D02*
X0161287Y0117899D01*
X0161483Y0118897D02*
X0164331Y0118897D01*
X0164784Y0119896D02*
X0161372Y0119896D01*
X0161116Y0120894D02*
X0164784Y0120894D01*
X0164784Y0121893D02*
X0161546Y0121893D01*
X0161546Y0122891D02*
X0164784Y0122891D01*
X0164784Y0123890D02*
X0161546Y0123890D01*
X0161546Y0124888D02*
X0164784Y0124888D01*
X0164784Y0125887D02*
X0161546Y0125887D01*
X0161330Y0126885D02*
X0164784Y0126885D01*
X0164784Y0127884D02*
X0161546Y0127884D01*
X0161546Y0128882D02*
X0164784Y0128882D01*
X0164784Y0129881D02*
X0161546Y0129881D01*
X0161546Y0130879D02*
X0164784Y0130879D01*
X0164784Y0131878D02*
X0161546Y0131878D01*
X0161339Y0132876D02*
X0164784Y0132876D01*
X0164784Y0133875D02*
X0161546Y0133875D01*
X0161546Y0134873D02*
X0164784Y0134873D01*
X0164784Y0135872D02*
X0161546Y0135872D01*
X0161546Y0136870D02*
X0164784Y0136870D01*
X0164784Y0137869D02*
X0161546Y0137869D01*
X0161348Y0138868D02*
X0164784Y0138868D01*
X0164784Y0139866D02*
X0156383Y0139866D01*
X0156383Y0140865D02*
X0165302Y0140865D01*
X0151291Y0145857D02*
X0133133Y0145857D01*
X0133133Y0144859D02*
X0150293Y0144859D01*
X0149294Y0143860D02*
X0133133Y0143860D01*
X0133133Y0142862D02*
X0148937Y0142862D01*
X0148937Y0141863D02*
X0133133Y0141863D01*
X0133133Y0140865D02*
X0148937Y0140865D01*
X0148937Y0139866D02*
X0133133Y0139866D01*
X0133133Y0138868D02*
X0147320Y0138868D01*
X0146803Y0137869D02*
X0142270Y0137869D01*
X0142491Y0136870D02*
X0145805Y0136870D01*
X0144806Y0135872D02*
X0138424Y0135872D01*
X0138243Y0135872D02*
X0133133Y0135872D01*
X0133133Y0136870D02*
X0134176Y0136870D01*
X0134398Y0137869D02*
X0133133Y0137869D01*
X0133133Y0134873D02*
X0134176Y0134873D01*
X0138243Y0136870D02*
X0138424Y0136870D01*
X0138424Y0137869D02*
X0138243Y0137869D01*
X0142491Y0134873D02*
X0143808Y0134873D01*
X0143283Y0133875D02*
X0142667Y0133875D01*
X0142691Y0132876D02*
X0143283Y0132876D01*
X0142812Y0131878D02*
X0142691Y0131878D01*
X0146883Y0127651D02*
X0147122Y0127890D01*
X0147122Y0127324D01*
X0147599Y0126847D01*
X0147424Y0126544D01*
X0147322Y0126163D01*
X0147322Y0124481D01*
X0150503Y0124481D01*
X0150503Y0123513D01*
X0147322Y0123513D01*
X0147322Y0121831D01*
X0147424Y0121449D01*
X0147622Y0121107D01*
X0147901Y0120828D01*
X0148243Y0120631D01*
X0148624Y0120528D01*
X0150503Y0120528D01*
X0150503Y0123513D01*
X0151472Y0123513D01*
X0151472Y0120528D01*
X0153350Y0120528D01*
X0153732Y0120631D01*
X0154074Y0120828D01*
X0154192Y0120947D01*
X0154811Y0120328D01*
X0155474Y0120328D01*
X0155183Y0119627D01*
X0155183Y0118373D01*
X0155513Y0117578D01*
X0154984Y0117050D01*
X0133133Y0117050D01*
X0133133Y0129665D01*
X0133976Y0129665D01*
X0133976Y0126143D01*
X0134060Y0126060D01*
X0133976Y0125977D01*
X0133976Y0122206D01*
X0134972Y0121210D01*
X0141695Y0121210D01*
X0142527Y0122041D01*
X0143091Y0122041D01*
X0145682Y0124633D01*
X0146883Y0125834D01*
X0146883Y0127651D01*
X0147116Y0127884D02*
X0147122Y0127884D01*
X0146883Y0126885D02*
X0147561Y0126885D01*
X0147322Y0125887D02*
X0146883Y0125887D01*
X0147322Y0124888D02*
X0145938Y0124888D01*
X0144939Y0123890D02*
X0150503Y0123890D01*
X0150503Y0122891D02*
X0151472Y0122891D01*
X0151472Y0121893D02*
X0150503Y0121893D01*
X0150503Y0120894D02*
X0151472Y0120894D01*
X0154140Y0120894D02*
X0154245Y0120894D01*
X0155295Y0119896D02*
X0133133Y0119896D01*
X0133133Y0120894D02*
X0147835Y0120894D01*
X0147322Y0121893D02*
X0142378Y0121893D01*
X0143941Y0122891D02*
X0147322Y0122891D01*
X0155183Y0118897D02*
X0133133Y0118897D01*
X0133133Y0117899D02*
X0155380Y0117899D01*
X0134290Y0121893D02*
X0133133Y0121893D01*
X0133133Y0122891D02*
X0133976Y0122891D01*
X0133976Y0123890D02*
X0133133Y0123890D01*
X0133133Y0124888D02*
X0133976Y0124888D01*
X0133976Y0125887D02*
X0133133Y0125887D01*
X0133133Y0126885D02*
X0133976Y0126885D01*
X0133976Y0127884D02*
X0133133Y0127884D01*
X0133133Y0128882D02*
X0133976Y0128882D01*
X0142235Y0097929D02*
X0143363Y0097929D01*
X0134176Y0096930D02*
X0133133Y0096930D01*
X0125499Y0068972D02*
X0120433Y0068972D01*
X0120433Y0067973D02*
X0123212Y0067973D01*
X0122022Y0066975D02*
X0120433Y0066975D01*
X0120433Y0065976D02*
X0120930Y0065976D01*
X0137348Y0056990D02*
X0235187Y0056990D01*
X0234773Y0055991D02*
X0136873Y0055991D01*
X0136296Y0054993D02*
X0234665Y0054993D01*
X0234779Y0053994D02*
X0135720Y0053994D01*
X0134610Y0052996D02*
X0235193Y0052996D01*
X0234574Y0057988D02*
X0236133Y0057988D01*
X0235573Y0058987D02*
X0238967Y0058987D01*
X0238791Y0059985D02*
X0236571Y0059985D01*
X0237570Y0060984D02*
X0238962Y0060984D01*
X0239138Y0061982D02*
X0238568Y0061982D01*
X0234439Y0082050D02*
X0229345Y0082050D01*
X0229345Y0083516D01*
X0226164Y0083516D01*
X0226164Y0084484D01*
X0229345Y0084484D01*
X0229345Y0086166D01*
X0229243Y0086547D01*
X0229067Y0086853D01*
X0229545Y0087330D01*
X0229545Y0087950D01*
X0233973Y0087950D01*
X0233973Y0086146D01*
X0234273Y0085846D01*
X0234173Y0085473D01*
X0234173Y0084185D01*
X0238240Y0084185D01*
X0238240Y0084003D01*
X0234173Y0084003D01*
X0234173Y0082715D01*
X0234275Y0082334D01*
X0234439Y0082050D01*
X0234173Y0082951D02*
X0229345Y0082951D01*
X0229345Y0084948D02*
X0234173Y0084948D01*
X0234172Y0085946D02*
X0229345Y0085946D01*
X0229159Y0086945D02*
X0233973Y0086945D01*
X0233973Y0087943D02*
X0229545Y0087943D01*
X0226164Y0083949D02*
X0234173Y0083949D01*
X0234439Y0122050D02*
X0229345Y0122050D01*
X0229345Y0123516D01*
X0226164Y0123516D01*
X0226164Y0124484D01*
X0229345Y0124484D01*
X0229345Y0126166D01*
X0229243Y0126547D01*
X0229067Y0126853D01*
X0229545Y0127330D01*
X0229545Y0127950D01*
X0233973Y0127950D01*
X0233973Y0126146D01*
X0234273Y0125846D01*
X0234173Y0125473D01*
X0234173Y0124185D01*
X0238240Y0124185D01*
X0238240Y0124003D01*
X0234173Y0124003D01*
X0234173Y0122715D01*
X0234275Y0122334D01*
X0234439Y0122050D01*
X0234173Y0122891D02*
X0229345Y0122891D01*
X0229345Y0124888D02*
X0234173Y0124888D01*
X0234173Y0123890D02*
X0226164Y0123890D01*
X0229345Y0125887D02*
X0234232Y0125887D01*
X0233973Y0126885D02*
X0229100Y0126885D01*
X0229545Y0127884D02*
X0233973Y0127884D01*
X0235383Y0138786D02*
X0235383Y0139349D01*
X0229083Y0145649D01*
X0210382Y0145649D01*
X0217383Y0152651D01*
X0217383Y0160051D01*
X0218137Y0159297D01*
X0218283Y0159151D01*
X0219484Y0157950D01*
X0241033Y0157950D01*
X0241033Y0138786D01*
X0235383Y0138786D01*
X0235383Y0138868D02*
X0241033Y0138868D01*
X0241033Y0139866D02*
X0234866Y0139866D01*
X0233868Y0140865D02*
X0241033Y0140865D01*
X0241033Y0141863D02*
X0232869Y0141863D01*
X0231871Y0142862D02*
X0241033Y0142862D01*
X0241033Y0143860D02*
X0230872Y0143860D01*
X0229874Y0144859D02*
X0241033Y0144859D01*
X0241033Y0145857D02*
X0210590Y0145857D01*
X0211588Y0146856D02*
X0241033Y0146856D01*
X0241033Y0147854D02*
X0212587Y0147854D01*
X0213585Y0148853D02*
X0241033Y0148853D01*
X0241033Y0149851D02*
X0214584Y0149851D01*
X0215582Y0150850D02*
X0241033Y0150850D01*
X0241033Y0151848D02*
X0216581Y0151848D01*
X0217383Y0152847D02*
X0241033Y0152847D01*
X0241033Y0153845D02*
X0217383Y0153845D01*
X0217383Y0154844D02*
X0241033Y0154844D01*
X0241033Y0155842D02*
X0217383Y0155842D01*
X0217383Y0156841D02*
X0241033Y0156841D01*
X0241033Y0157839D02*
X0217383Y0157839D01*
X0217383Y0158838D02*
X0218596Y0158838D01*
X0218283Y0159151D02*
X0218283Y0159151D01*
X0217598Y0159836D02*
X0217383Y0159836D01*
X0226164Y0163516D02*
X0226164Y0164484D01*
X0229345Y0164484D01*
X0229345Y0166166D01*
X0229243Y0166547D01*
X0229067Y0166853D01*
X0229545Y0167330D01*
X0229545Y0167950D01*
X0233973Y0167950D01*
X0233973Y0166146D01*
X0234273Y0165846D01*
X0234173Y0165473D01*
X0234173Y0164185D01*
X0238240Y0164185D01*
X0238240Y0164003D01*
X0234173Y0164003D01*
X0234173Y0162715D01*
X0234275Y0162334D01*
X0234439Y0162050D01*
X0229345Y0162050D01*
X0229345Y0163516D01*
X0226164Y0163516D01*
X0226164Y0163830D02*
X0234173Y0163830D01*
X0234173Y0162832D02*
X0229345Y0162832D01*
X0229345Y0164829D02*
X0234173Y0164829D01*
X0234268Y0165827D02*
X0229345Y0165827D01*
X0229082Y0166826D02*
X0233973Y0166826D01*
X0233973Y0167824D02*
X0229545Y0167824D01*
D23*
X0231833Y0165000D03*
X0231833Y0155000D03*
X0203333Y0180000D03*
X0183334Y0190000D03*
X0178334Y0182997D03*
X0171334Y0199997D03*
X0183334Y0204997D03*
X0173333Y0215000D03*
X0173333Y0230000D03*
X0183333Y0230000D03*
X0203333Y0215000D03*
X0231833Y0204000D03*
X0233333Y0195000D03*
X0238333Y0185000D03*
X0193333Y0160000D03*
X0188333Y0160000D03*
X0188333Y0145000D03*
X0178334Y0129997D03*
X0198334Y0129997D03*
X0231834Y0124497D03*
X0231834Y0083997D03*
X0158333Y0101000D03*
X0143334Y0099997D03*
X0148334Y0079997D03*
X0158333Y0119000D03*
X0143334Y0119997D03*
X0143334Y0139997D03*
X0148334Y0158997D03*
X0143334Y0179997D03*
X0157833Y0192000D03*
X0144834Y0198497D03*
X0145833Y0260000D03*
X0218333Y0260000D03*
D24*
X0190302Y0245000D02*
X0190302Y0241531D01*
X0193333Y0238500D01*
X0224833Y0238500D01*
X0243333Y0220000D01*
X0243333Y0208000D01*
X0243333Y0205000D01*
X0243333Y0200000D01*
X0243333Y0185000D01*
X0238333Y0185000D01*
X0243333Y0185000D02*
X0243333Y0168000D01*
X0238361Y0168000D01*
X0243333Y0168000D02*
X0243333Y0160000D01*
X0243333Y0128031D01*
X0238330Y0128031D01*
X0243333Y0128031D02*
X0243333Y0120000D01*
X0243333Y0088031D01*
X0238330Y0088031D01*
X0243333Y0088031D02*
X0243333Y0080000D01*
X0243333Y0070000D01*
X0233333Y0060000D01*
X0190333Y0060000D01*
X0188333Y0062000D01*
X0188333Y0066547D01*
X0157680Y0079347D02*
X0153333Y0075000D01*
X0133333Y0075000D01*
X0130833Y0077500D01*
X0130833Y0092000D01*
X0138299Y0092000D01*
X0130833Y0092000D02*
X0130833Y0115000D01*
X0130833Y0131965D01*
X0138334Y0131965D01*
X0130833Y0131965D02*
X0130833Y0171965D01*
X0138334Y0171965D01*
X0130833Y0171965D02*
X0130833Y0207500D01*
X0135299Y0211965D01*
X0138334Y0211965D01*
X0142299Y0211965D01*
X0145333Y0215000D01*
X0145333Y0217000D01*
X0148333Y0220000D01*
X0155833Y0220000D01*
X0157680Y0218153D01*
X0157680Y0215997D01*
X0157680Y0209997D01*
X0157680Y0203997D01*
X0157680Y0192153D01*
X0178334Y0195897D02*
X0183334Y0195897D01*
X0183334Y0190000D01*
X0193333Y0190000D01*
X0198333Y0190000D01*
X0203333Y0185000D01*
X0203333Y0180000D01*
X0200145Y0164072D02*
X0186262Y0164072D01*
X0183333Y0167000D01*
X0183333Y0170000D01*
X0183333Y0171496D01*
X0183334Y0171497D02*
X0183334Y0178000D01*
X0183334Y0190000D01*
X0183334Y0195897D02*
X0188334Y0195897D01*
X0198334Y0195897D01*
X0183180Y0171650D02*
X0178334Y0171650D01*
X0238299Y0208000D02*
X0238330Y0208031D01*
X0238361Y0208000D02*
X0243333Y0208000D01*
X0157680Y0083997D02*
X0157680Y0079347D01*
D25*
X0157680Y0083997D02*
X0157680Y0089997D01*
X0157680Y0095997D01*
X0157680Y0100347D01*
X0158333Y0101000D01*
X0154333Y0100996D02*
X0169334Y0115997D01*
X0169334Y0137497D01*
X0170318Y0138481D01*
X0176523Y0138481D01*
X0176523Y0141040D02*
X0168377Y0141040D01*
X0166834Y0139497D01*
X0166834Y0118500D01*
X0150987Y0102654D01*
X0150987Y0095997D01*
X0144330Y0095997D01*
X0143333Y0095000D01*
X0143333Y0090000D01*
X0143336Y0090000D01*
X0143333Y0090000D02*
X0141362Y0088028D01*
X0138334Y0088028D01*
X0138334Y0084091D02*
X0142425Y0084091D01*
X0144833Y0086500D01*
X0144833Y0088500D01*
X0146333Y0090000D01*
X0150984Y0090000D01*
X0150987Y0089997D01*
X0153830Y0089997D01*
X0154333Y0090500D01*
X0154333Y0100996D01*
X0138334Y0091965D02*
X0138299Y0092000D01*
X0130833Y0115000D02*
X0155833Y0115000D01*
X0158333Y0117500D01*
X0158333Y0119000D01*
X0157680Y0119653D01*
X0157680Y0123997D01*
X0157680Y0129997D01*
X0157680Y0135997D01*
X0150987Y0135997D02*
X0147830Y0135997D01*
X0145333Y0133500D01*
X0145333Y0131500D01*
X0141862Y0128028D01*
X0138334Y0128028D01*
X0138334Y0124091D02*
X0142242Y0124091D01*
X0144833Y0126683D01*
X0144833Y0128500D01*
X0146333Y0130000D01*
X0150984Y0130000D01*
X0150987Y0129997D01*
X0153830Y0129997D01*
X0154333Y0130500D01*
X0154333Y0142500D01*
X0155433Y0143599D01*
X0176523Y0143599D01*
X0176523Y0146158D02*
X0154492Y0146158D01*
X0150987Y0142654D01*
X0150987Y0135997D01*
X0144616Y0148717D02*
X0143333Y0150000D01*
X0143333Y0164091D01*
X0143333Y0167000D01*
X0146333Y0170000D01*
X0150984Y0170000D01*
X0150987Y0169997D01*
X0157680Y0169997D02*
X0157680Y0163997D01*
X0165334Y0158497D02*
X0165334Y0180500D01*
X0163333Y0182500D01*
X0155833Y0182500D01*
X0141742Y0196591D01*
X0141742Y0204091D01*
X0141742Y0205409D01*
X0146330Y0209997D01*
X0150987Y0209997D01*
X0148336Y0214997D02*
X0149336Y0215997D01*
X0150987Y0215997D01*
X0153836Y0215997D01*
X0154333Y0215500D01*
X0154333Y0189000D01*
X0158333Y0185000D01*
X0163333Y0185000D01*
X0167334Y0181000D01*
X0167334Y0160497D01*
X0171436Y0156395D01*
X0176523Y0156395D01*
X0176523Y0158954D02*
X0172377Y0158954D01*
X0169334Y0161997D01*
X0169334Y0195997D01*
X0166987Y0198343D01*
X0163834Y0198343D01*
X0163834Y0234497D01*
X0163334Y0234997D01*
X0173333Y0238500D02*
X0173333Y0230000D01*
X0183333Y0230000D02*
X0183333Y0239000D01*
X0186365Y0242031D01*
X0186365Y0245000D01*
X0182428Y0245000D02*
X0182428Y0241094D01*
X0181333Y0240000D01*
X0174833Y0240000D01*
X0173333Y0238500D01*
X0152836Y0215997D02*
X0150987Y0215997D01*
X0148336Y0214997D02*
X0148333Y0215000D01*
X0141362Y0208028D01*
X0138334Y0208028D01*
X0138334Y0204091D02*
X0141742Y0204091D01*
X0157680Y0192153D02*
X0157833Y0192000D01*
X0158183Y0191650D01*
X0163834Y0191650D01*
X0173334Y0197497D02*
X0174934Y0199097D01*
X0178334Y0199097D01*
X0178334Y0206650D01*
X0183334Y0204997D02*
X0184987Y0206650D01*
X0188334Y0206650D01*
X0188334Y0199097D01*
X0198334Y0199097D02*
X0198334Y0206650D01*
X0198334Y0199097D02*
X0204234Y0199097D01*
X0207333Y0195997D01*
X0207333Y0159000D01*
X0204728Y0156395D01*
X0200145Y0156395D01*
X0200145Y0158954D02*
X0197287Y0158954D01*
X0195333Y0157000D01*
X0191333Y0157000D01*
X0188333Y0160000D01*
X0193333Y0160000D02*
X0194846Y0161513D01*
X0200145Y0161513D01*
X0203350Y0161513D01*
X0203834Y0161997D01*
X0203834Y0166997D01*
X0203334Y0167497D01*
X0189334Y0167497D01*
X0188334Y0168497D01*
X0188334Y0171650D01*
X0183334Y0171497D02*
X0183334Y0170000D01*
X0183333Y0170000D01*
X0183334Y0171497D02*
X0183180Y0171650D01*
X0183334Y0178000D02*
X0183677Y0178343D01*
X0188333Y0178344D02*
X0188333Y0180500D01*
X0190133Y0182300D01*
X0190133Y0185000D01*
X0193333Y0185000D02*
X0193333Y0190000D01*
X0196533Y0185000D02*
X0196533Y0182300D01*
X0198334Y0180500D01*
X0198334Y0178343D01*
X0198334Y0171650D02*
X0203680Y0171650D01*
X0205633Y0169697D01*
X0205633Y0160800D01*
X0205334Y0160500D01*
X0205334Y0160497D01*
X0203790Y0158954D01*
X0200145Y0158954D01*
X0200145Y0153836D02*
X0206169Y0153836D01*
X0209333Y0157000D01*
X0209333Y0221000D01*
X0213333Y0225000D01*
X0223333Y0225000D01*
X0225679Y0225000D01*
X0225679Y0216003D01*
X0222333Y0218500D02*
X0220833Y0220000D01*
X0216333Y0220000D01*
X0211333Y0215000D01*
X0211333Y0155500D01*
X0207110Y0151276D01*
X0200145Y0151276D01*
X0200145Y0148717D02*
X0207551Y0148717D01*
X0213333Y0154500D01*
X0213333Y0184000D01*
X0214333Y0185000D01*
X0223333Y0185000D01*
X0225679Y0185000D01*
X0225679Y0176003D01*
X0222333Y0178500D02*
X0222333Y0170500D01*
X0222833Y0170000D01*
X0225676Y0170000D01*
X0225679Y0170003D01*
X0225682Y0170000D01*
X0233333Y0170000D01*
X0235301Y0171968D01*
X0238330Y0171968D01*
X0238330Y0168031D02*
X0238299Y0168000D01*
X0238330Y0168031D02*
X0238361Y0168000D01*
X0238330Y0175905D02*
X0234928Y0175905D01*
X0233333Y0177500D01*
X0233333Y0178500D01*
X0226833Y0185000D01*
X0225679Y0185000D01*
X0221333Y0179500D02*
X0216333Y0179500D01*
X0215333Y0178500D01*
X0215333Y0153500D01*
X0207992Y0146158D01*
X0200145Y0146158D01*
X0200145Y0143599D02*
X0225333Y0143599D01*
X0225679Y0143599D01*
X0225679Y0136003D01*
X0222333Y0139500D02*
X0220793Y0141040D01*
X0200145Y0141040D01*
X0200145Y0138481D02*
X0210352Y0138481D01*
X0213833Y0135000D01*
X0213833Y0118000D01*
X0216833Y0115000D01*
X0223333Y0115000D01*
X0225679Y0112654D01*
X0225679Y0100000D01*
X0225679Y0096003D01*
X0225679Y0100000D02*
X0231833Y0100000D01*
X0233333Y0098500D01*
X0233333Y0097000D01*
X0234428Y0095905D01*
X0238330Y0095905D01*
X0238330Y0091968D02*
X0235301Y0091968D01*
X0233333Y0090000D01*
X0228333Y0090000D01*
X0228330Y0090003D01*
X0225679Y0090003D01*
X0223330Y0090003D01*
X0222333Y0091000D01*
X0222333Y0111000D01*
X0220333Y0113000D01*
X0216333Y0113000D01*
X0211833Y0117500D01*
X0211833Y0133000D01*
X0208911Y0135922D01*
X0200145Y0135922D01*
X0218986Y0136003D02*
X0218986Y0130003D01*
X0218987Y0130003D01*
X0218987Y0124000D01*
X0218987Y0121346D01*
X0220333Y0120000D01*
X0243333Y0120000D01*
X0238299Y0128000D02*
X0238330Y0128031D01*
X0238330Y0131968D02*
X0235301Y0131968D01*
X0233333Y0130000D01*
X0225682Y0130000D01*
X0225679Y0130003D01*
X0225676Y0130000D01*
X0223333Y0130000D01*
X0222333Y0131000D01*
X0222333Y0139500D01*
X0225679Y0143599D02*
X0228234Y0143599D01*
X0233333Y0138500D01*
X0233333Y0137000D01*
X0234428Y0135905D01*
X0238330Y0135905D01*
X0243333Y0160000D02*
X0220333Y0160000D01*
X0218986Y0161347D01*
X0218986Y0164000D01*
X0218987Y0164000D01*
X0218986Y0164000D02*
X0218986Y0170003D01*
X0218986Y0176003D01*
X0222333Y0178500D02*
X0221333Y0179500D01*
X0219833Y0200000D02*
X0218986Y0200847D01*
X0218986Y0204000D01*
X0218987Y0204000D01*
X0218986Y0204000D02*
X0218986Y0210003D01*
X0218986Y0216003D01*
X0222333Y0218500D02*
X0222333Y0211000D01*
X0223330Y0210003D01*
X0225679Y0210003D01*
X0231836Y0210003D01*
X0233801Y0211968D01*
X0238330Y0211968D01*
X0238330Y0215905D02*
X0234928Y0215905D01*
X0233333Y0217500D01*
X0233333Y0220000D01*
X0228333Y0225000D01*
X0225679Y0225000D01*
X0238330Y0208031D02*
X0238361Y0208000D01*
X0243333Y0206500D02*
X0243333Y0205000D01*
X0243333Y0200000D02*
X0219833Y0200000D01*
X0188334Y0178343D02*
X0188333Y0178344D01*
X0176523Y0164052D02*
X0174279Y0164052D01*
X0173334Y0164997D01*
X0173334Y0197497D01*
X0171334Y0199997D02*
X0171334Y0163497D01*
X0173318Y0161513D01*
X0176523Y0161513D01*
X0176523Y0153836D02*
X0169995Y0153836D01*
X0165334Y0158497D01*
X0156057Y0151276D02*
X0154333Y0153000D01*
X0154333Y0175500D01*
X0153836Y0175997D01*
X0150987Y0175997D01*
X0152836Y0175997D01*
X0150987Y0175997D02*
X0147830Y0175997D01*
X0145833Y0174000D01*
X0145833Y0172500D01*
X0141362Y0168028D01*
X0138334Y0168028D01*
X0138334Y0164091D02*
X0143333Y0164091D01*
X0142333Y0172000D02*
X0138368Y0172000D01*
X0138334Y0171965D01*
X0142333Y0172000D02*
X0144333Y0174000D01*
X0144333Y0176000D01*
X0147333Y0179000D01*
X0156333Y0179000D01*
X0157680Y0177653D01*
X0157680Y0175997D01*
X0156057Y0151276D02*
X0176523Y0151276D01*
X0176523Y0148717D02*
X0144616Y0148717D01*
X0218986Y0096003D02*
X0218986Y0090003D01*
X0218986Y0085000D01*
X0218987Y0085000D01*
X0218987Y0084000D01*
X0218987Y0081346D01*
X0220333Y0080000D01*
X0243333Y0080000D01*
X0188333Y0081654D02*
X0188333Y0073453D01*
M02*
