G75*
%MOIN*%
%OFA0B0*%
%FSLAX25Y25*%
%IPPOS*%
%LPD*%
%AMOC8*
5,1,8,0,0,1.08239X$1,22.5*
%
%ADD10C,0.01200*%
%ADD11C,0.01000*%
%ADD12C,0.00600*%
%ADD13C,0.00299*%
%ADD14C,0.00300*%
D10*
X0161879Y0087734D02*
X0163014Y0086600D01*
X0165282Y0086600D01*
X0166416Y0087734D01*
X0164148Y0090003D02*
X0163014Y0090003D01*
X0161879Y0088869D01*
X0161879Y0087734D01*
X0163014Y0090003D02*
X0161879Y0091137D01*
X0161879Y0092272D01*
X0163014Y0093406D01*
X0165282Y0093406D01*
X0166416Y0092272D01*
X0209879Y0090003D02*
X0214416Y0090003D01*
X0211014Y0093406D01*
X0211014Y0086600D01*
X0211014Y0126600D02*
X0209879Y0127734D01*
X0209879Y0130003D01*
X0211014Y0131137D01*
X0212148Y0131137D01*
X0214416Y0130003D01*
X0214416Y0133406D01*
X0209879Y0133406D01*
X0211014Y0126600D02*
X0213282Y0126600D01*
X0214416Y0127734D01*
X0166416Y0126600D02*
X0161879Y0131137D01*
X0161879Y0132272D01*
X0163014Y0133406D01*
X0165282Y0133406D01*
X0166416Y0132272D01*
X0166416Y0126600D02*
X0161879Y0126600D01*
X0161879Y0166600D02*
X0166416Y0166600D01*
X0164148Y0166600D02*
X0164148Y0173406D01*
X0166416Y0171137D01*
X0209879Y0168869D02*
X0211014Y0170003D01*
X0214416Y0170003D01*
X0214416Y0167734D01*
X0213282Y0166600D01*
X0211014Y0166600D01*
X0209879Y0167734D01*
X0209879Y0168869D01*
X0212148Y0172272D02*
X0209879Y0173406D01*
X0212148Y0172272D02*
X0214416Y0170003D01*
X0214416Y0206600D02*
X0214416Y0207734D01*
X0209879Y0212272D01*
X0209879Y0213406D01*
X0214416Y0213406D01*
X0166416Y0212272D02*
X0166416Y0207734D01*
X0161879Y0212272D01*
X0161879Y0207734D01*
X0163014Y0206600D01*
X0165282Y0206600D01*
X0166416Y0207734D01*
X0166416Y0212272D02*
X0165282Y0213406D01*
X0163014Y0213406D01*
X0161879Y0212272D01*
D11*
X0153333Y0070000D02*
X0118333Y0070000D01*
X0153333Y0070000D02*
X0163333Y0080000D01*
X0163333Y0085000D01*
X0163333Y0095000D02*
X0163333Y0100000D01*
X0153333Y0110000D01*
X0163333Y0120000D01*
X0163333Y0125000D01*
X0163333Y0135000D02*
X0163333Y0140000D01*
X0153333Y0150000D01*
X0163333Y0160000D01*
X0163333Y0165000D01*
X0163333Y0175000D02*
X0163333Y0180000D01*
X0153333Y0190000D01*
X0163333Y0200000D01*
X0163333Y0205000D01*
X0163333Y0215000D02*
X0163333Y0220000D01*
X0153333Y0230000D01*
X0118333Y0230000D01*
X0118333Y0190000D02*
X0153333Y0190000D01*
X0153333Y0150000D02*
X0118333Y0150000D01*
X0118333Y0110000D02*
X0153333Y0110000D01*
X0213333Y0100000D02*
X0213333Y0095000D01*
X0213333Y0100000D02*
X0223333Y0110000D01*
X0213333Y0120000D01*
X0213333Y0125000D01*
X0213333Y0135000D02*
X0213333Y0140000D01*
X0223333Y0150000D01*
X0213333Y0160000D01*
X0213333Y0165000D01*
X0213333Y0175000D02*
X0213333Y0180000D01*
X0223333Y0190000D01*
X0258333Y0190000D01*
X0223333Y0190000D02*
X0213333Y0200000D01*
X0213333Y0205000D01*
X0213333Y0215000D02*
X0213333Y0220000D01*
X0223333Y0230000D01*
X0258333Y0230000D01*
X0258333Y0150000D02*
X0223333Y0150000D01*
X0223333Y0110000D02*
X0258333Y0110000D01*
X0213333Y0085000D02*
X0213333Y0080000D01*
X0223333Y0070000D01*
X0258333Y0070000D01*
D12*
X0157558Y0233300D02*
X0157558Y0236703D01*
X0155857Y0236703D01*
X0155289Y0236136D01*
X0155289Y0235001D01*
X0155857Y0234434D01*
X0157558Y0234434D01*
X0156424Y0234434D02*
X0155289Y0233300D01*
X0153875Y0233867D02*
X0153308Y0233300D01*
X0152173Y0233300D01*
X0151606Y0233867D01*
X0151606Y0234434D01*
X0152173Y0235001D01*
X0153308Y0235001D01*
X0153875Y0235569D01*
X0153875Y0236136D01*
X0153308Y0236703D01*
X0152173Y0236703D01*
X0151606Y0236136D01*
X0150192Y0236703D02*
X0147923Y0236703D01*
X0149057Y0236703D02*
X0149057Y0233300D01*
X0146809Y0237900D02*
X0157858Y0237900D01*
D13*
X0144961Y0064360D02*
X0145197Y0062982D01*
X0145236Y0062982D01*
X0145315Y0062942D01*
X0145394Y0062942D01*
X0145433Y0062903D01*
X0145512Y0062903D01*
X0145591Y0062864D01*
X0145630Y0062864D01*
X0145709Y0062824D01*
X0145748Y0062785D01*
X0145827Y0062785D01*
X0145866Y0062746D01*
X0145945Y0062706D01*
X0145985Y0062667D01*
X0146063Y0062667D01*
X0146103Y0062627D01*
X0146181Y0062588D01*
X0147323Y0063375D01*
X0148189Y0062509D01*
X0147402Y0061368D01*
X0147441Y0061328D01*
X0147441Y0061249D01*
X0147481Y0061210D01*
X0147520Y0061131D01*
X0147559Y0061092D01*
X0147559Y0061013D01*
X0147599Y0060974D01*
X0147638Y0060895D01*
X0147638Y0060856D01*
X0147717Y0060698D01*
X0147717Y0060659D01*
X0147756Y0060580D01*
X0147756Y0060541D01*
X0147796Y0060462D01*
X0147796Y0060383D01*
X0149173Y0060147D01*
X0149173Y0058887D01*
X0147796Y0058651D01*
X0147796Y0058612D01*
X0147756Y0058533D01*
X0147756Y0058454D01*
X0147717Y0058415D01*
X0147717Y0058336D01*
X0147677Y0058297D01*
X0147638Y0058218D01*
X0147638Y0058139D01*
X0147599Y0058100D01*
X0147599Y0058021D01*
X0147559Y0057982D01*
X0147520Y0057903D01*
X0147481Y0057864D01*
X0147441Y0057785D01*
X0147441Y0057746D01*
X0147402Y0057667D01*
X0148189Y0056564D01*
X0147323Y0055659D01*
X0146181Y0056446D01*
X0146142Y0056446D01*
X0146103Y0056407D01*
X0146063Y0056407D01*
X0146024Y0056368D01*
X0145985Y0056368D01*
X0145945Y0056328D01*
X0145906Y0056328D01*
X0145866Y0056289D01*
X0145827Y0056289D01*
X0145788Y0056249D01*
X0145748Y0056249D01*
X0145709Y0056210D01*
X0145630Y0056210D01*
X0145591Y0056171D01*
X0144803Y0058297D01*
X0144922Y0058336D01*
X0147717Y0058336D01*
X0147796Y0058634D02*
X0145326Y0058634D01*
X0145315Y0058612D02*
X0145355Y0058690D01*
X0145433Y0058769D01*
X0145512Y0058927D01*
X0145551Y0059045D01*
X0145630Y0059202D01*
X0145630Y0059320D01*
X0145670Y0059438D01*
X0145670Y0059675D01*
X0145512Y0060147D01*
X0145355Y0060383D01*
X0145276Y0060462D01*
X0145158Y0060541D01*
X0145079Y0060620D01*
X0144961Y0060698D01*
X0144843Y0060738D01*
X0144725Y0060816D01*
X0144607Y0060816D01*
X0144449Y0060856D01*
X0144173Y0060856D01*
X0144055Y0060816D01*
X0143937Y0060816D01*
X0143819Y0060738D01*
X0143701Y0060698D01*
X0143465Y0060541D01*
X0143307Y0060383D01*
X0143150Y0060147D01*
X0143110Y0060029D01*
X0143032Y0059911D01*
X0143032Y0059793D01*
X0142992Y0059675D01*
X0142992Y0059320D01*
X0143032Y0059202D01*
X0143032Y0059123D01*
X0143071Y0059045D01*
X0143110Y0058927D01*
X0143150Y0058848D01*
X0143229Y0058769D01*
X0143268Y0058690D01*
X0143425Y0058533D01*
X0143504Y0058494D01*
X0143583Y0058415D01*
X0143819Y0058297D01*
X0143032Y0056171D01*
X0143032Y0056210D01*
X0142953Y0056210D01*
X0142914Y0056249D01*
X0142874Y0056249D01*
X0142835Y0056289D01*
X0142796Y0056289D01*
X0142756Y0056328D01*
X0142677Y0056328D01*
X0142638Y0056368D01*
X0142599Y0056368D01*
X0142520Y0056446D01*
X0142481Y0056446D01*
X0141339Y0055659D01*
X0140433Y0056564D01*
X0141260Y0057667D01*
X0141221Y0057746D01*
X0141181Y0057785D01*
X0141142Y0057864D01*
X0141142Y0057903D01*
X0141103Y0057982D01*
X0141063Y0058021D01*
X0141024Y0058100D01*
X0141024Y0058139D01*
X0140945Y0058297D01*
X0140945Y0058336D01*
X0140906Y0058415D01*
X0140906Y0058454D01*
X0140866Y0058533D01*
X0140866Y0058612D01*
X0140827Y0058651D01*
X0139449Y0058887D01*
X0139449Y0060147D01*
X0140866Y0060383D01*
X0140866Y0060541D01*
X0140906Y0060580D01*
X0140906Y0060659D01*
X0140945Y0060698D01*
X0140985Y0060777D01*
X0140985Y0060856D01*
X0141024Y0060895D01*
X0141024Y0060974D01*
X0141063Y0061013D01*
X0141103Y0061092D01*
X0141142Y0061131D01*
X0141142Y0061210D01*
X0141181Y0061249D01*
X0141221Y0061328D01*
X0141260Y0061368D01*
X0140433Y0062509D01*
X0141339Y0063375D01*
X0142481Y0062588D01*
X0142520Y0062627D01*
X0142599Y0062667D01*
X0142638Y0062667D01*
X0142717Y0062706D01*
X0142756Y0062746D01*
X0142835Y0062785D01*
X0142874Y0062785D01*
X0142953Y0062824D01*
X0142992Y0062864D01*
X0143071Y0062864D01*
X0143150Y0062903D01*
X0143189Y0062903D01*
X0143268Y0062942D01*
X0143307Y0062942D01*
X0143386Y0062982D01*
X0143465Y0062982D01*
X0143701Y0064360D01*
X0144961Y0064360D01*
X0144973Y0064291D02*
X0143689Y0064291D01*
X0143638Y0063993D02*
X0145024Y0063993D01*
X0145075Y0063695D02*
X0143587Y0063695D01*
X0143536Y0063398D02*
X0145126Y0063398D01*
X0145177Y0063100D02*
X0143485Y0063100D01*
X0142909Y0062802D02*
X0145731Y0062802D01*
X0146492Y0062802D02*
X0147896Y0062802D01*
X0148186Y0062504D02*
X0140437Y0062504D01*
X0140652Y0062207D02*
X0147981Y0062207D01*
X0147775Y0061909D02*
X0140868Y0061909D01*
X0141084Y0061611D02*
X0147570Y0061611D01*
X0147441Y0061314D02*
X0141213Y0061314D01*
X0141065Y0061016D02*
X0147559Y0061016D01*
X0147707Y0060718D02*
X0144902Y0060718D01*
X0145318Y0060420D02*
X0147796Y0060420D01*
X0149173Y0060123D02*
X0145520Y0060123D01*
X0145619Y0059825D02*
X0149173Y0059825D01*
X0149173Y0059527D02*
X0145670Y0059527D01*
X0145630Y0059229D02*
X0149173Y0059229D01*
X0149173Y0058932D02*
X0145514Y0058932D01*
X0145315Y0058612D02*
X0145236Y0058533D01*
X0145158Y0058494D01*
X0145079Y0058415D01*
X0144922Y0058336D01*
X0144899Y0058039D02*
X0147599Y0058039D01*
X0147439Y0057741D02*
X0145009Y0057741D01*
X0145120Y0057443D02*
X0147562Y0057443D01*
X0147774Y0057145D02*
X0145230Y0057145D01*
X0145340Y0056848D02*
X0147987Y0056848D01*
X0148175Y0056550D02*
X0145450Y0056550D01*
X0145561Y0056252D02*
X0145790Y0056252D01*
X0146463Y0056252D02*
X0147891Y0056252D01*
X0147606Y0055954D02*
X0146895Y0055954D01*
X0143393Y0057145D02*
X0140869Y0057145D01*
X0140646Y0056848D02*
X0143282Y0056848D01*
X0143172Y0056550D02*
X0140448Y0056550D01*
X0140746Y0056252D02*
X0142199Y0056252D01*
X0141767Y0055954D02*
X0141043Y0055954D01*
X0141092Y0057443D02*
X0143503Y0057443D01*
X0143613Y0057741D02*
X0141223Y0057741D01*
X0141055Y0058039D02*
X0143724Y0058039D01*
X0143740Y0058336D02*
X0140945Y0058336D01*
X0140844Y0058634D02*
X0143324Y0058634D01*
X0143109Y0058932D02*
X0139449Y0058932D01*
X0139449Y0059229D02*
X0143023Y0059229D01*
X0142992Y0059527D02*
X0139449Y0059527D01*
X0139449Y0059825D02*
X0143032Y0059825D01*
X0143142Y0060123D02*
X0139449Y0060123D01*
X0140866Y0060420D02*
X0143344Y0060420D01*
X0143760Y0060718D02*
X0140955Y0060718D01*
X0140739Y0062802D02*
X0142170Y0062802D01*
X0141738Y0063100D02*
X0141051Y0063100D01*
X0146923Y0063100D02*
X0147599Y0063100D01*
X0143062Y0056252D02*
X0142872Y0056252D01*
D14*
X0166396Y0062453D02*
X0167932Y0062453D01*
X0167932Y0065602D01*
X0167971Y0065917D01*
X0168010Y0066193D01*
X0168050Y0066429D01*
X0168168Y0066626D01*
X0168286Y0066783D01*
X0168483Y0066902D01*
X0168680Y0066941D01*
X0168916Y0066980D01*
X0169231Y0066941D01*
X0169467Y0066902D01*
X0169664Y0066783D01*
X0169822Y0066587D01*
X0169940Y0066390D01*
X0170058Y0066114D01*
X0170097Y0065760D01*
X0170097Y0062453D01*
X0171633Y0062453D01*
X0171633Y0067335D01*
X0171633Y0068043D01*
X0170176Y0068043D01*
X0170176Y0067256D01*
X0170136Y0067256D01*
X0169979Y0067492D01*
X0169822Y0067650D01*
X0169625Y0067807D01*
X0169388Y0067965D01*
X0169152Y0068043D01*
X0168916Y0068122D01*
X0168680Y0068161D01*
X0168444Y0068161D01*
X0167892Y0068122D01*
X0167459Y0068004D01*
X0167105Y0067807D01*
X0166829Y0067531D01*
X0166633Y0067217D01*
X0166514Y0066823D01*
X0166436Y0066390D01*
X0166396Y0065878D01*
X0166396Y0062453D01*
X0166396Y0062537D02*
X0167932Y0062537D01*
X0167932Y0062836D02*
X0166396Y0062836D01*
X0166396Y0063134D02*
X0167932Y0063134D01*
X0167932Y0063433D02*
X0166396Y0063433D01*
X0166396Y0063732D02*
X0167932Y0063732D01*
X0167932Y0064030D02*
X0166396Y0064030D01*
X0166396Y0064329D02*
X0167932Y0064329D01*
X0167932Y0064627D02*
X0166396Y0064627D01*
X0166396Y0064926D02*
X0167932Y0064926D01*
X0167932Y0065224D02*
X0166396Y0065224D01*
X0166396Y0065523D02*
X0167932Y0065523D01*
X0167959Y0065821D02*
X0166396Y0065821D01*
X0166415Y0066120D02*
X0168000Y0066120D01*
X0168048Y0066418D02*
X0166441Y0066418D01*
X0166495Y0066717D02*
X0168236Y0066717D01*
X0169717Y0066717D02*
X0171633Y0066717D01*
X0171633Y0067015D02*
X0166572Y0067015D01*
X0166693Y0067314D02*
X0170098Y0067314D01*
X0170176Y0067314D02*
X0171633Y0067314D01*
X0171633Y0067612D02*
X0170176Y0067612D01*
X0170176Y0067911D02*
X0171633Y0067911D01*
X0172459Y0067911D02*
X0173995Y0067911D01*
X0173995Y0068043D02*
X0172459Y0068043D01*
X0172459Y0063161D01*
X0172459Y0062453D01*
X0173916Y0062453D01*
X0173916Y0063240D01*
X0173955Y0063240D01*
X0174113Y0063004D01*
X0174270Y0062807D01*
X0174467Y0062650D01*
X0174703Y0062531D01*
X0174900Y0062453D01*
X0175136Y0062374D01*
X0175412Y0062335D01*
X0175648Y0062295D01*
X0176199Y0062335D01*
X0176633Y0062492D01*
X0176987Y0062689D01*
X0177262Y0062925D01*
X0177459Y0063280D01*
X0177577Y0063673D01*
X0177656Y0064106D01*
X0177656Y0068043D01*
X0176160Y0068043D01*
X0176160Y0064894D01*
X0176121Y0064579D01*
X0176081Y0064264D01*
X0176042Y0064028D01*
X0175924Y0063870D01*
X0175806Y0063713D01*
X0175609Y0063594D01*
X0175412Y0063555D01*
X0175176Y0063516D01*
X0174861Y0063555D01*
X0174625Y0063594D01*
X0174428Y0063713D01*
X0174270Y0063870D01*
X0174152Y0064106D01*
X0174034Y0064382D01*
X0173995Y0064697D01*
X0173995Y0068043D01*
X0173995Y0067612D02*
X0172459Y0067612D01*
X0172459Y0067314D02*
X0173995Y0067314D01*
X0173995Y0067015D02*
X0172459Y0067015D01*
X0172459Y0066717D02*
X0173995Y0066717D01*
X0173995Y0066418D02*
X0172459Y0066418D01*
X0172459Y0066120D02*
X0173995Y0066120D01*
X0173995Y0065821D02*
X0172459Y0065821D01*
X0172459Y0065523D02*
X0173995Y0065523D01*
X0173995Y0065224D02*
X0172459Y0065224D01*
X0172459Y0064926D02*
X0173995Y0064926D01*
X0174003Y0064627D02*
X0172459Y0064627D01*
X0172459Y0064329D02*
X0174057Y0064329D01*
X0174190Y0064030D02*
X0172459Y0064030D01*
X0172459Y0063732D02*
X0174409Y0063732D01*
X0174026Y0063134D02*
X0177379Y0063134D01*
X0177505Y0063433D02*
X0172459Y0063433D01*
X0172459Y0063134D02*
X0173916Y0063134D01*
X0173916Y0062836D02*
X0172459Y0062836D01*
X0172459Y0062537D02*
X0173916Y0062537D01*
X0174247Y0062836D02*
X0177158Y0062836D01*
X0176714Y0062537D02*
X0174691Y0062537D01*
X0175820Y0063732D02*
X0177588Y0063732D01*
X0177642Y0064030D02*
X0176042Y0064030D01*
X0176089Y0064329D02*
X0177656Y0064329D01*
X0177656Y0064627D02*
X0176127Y0064627D01*
X0176160Y0064926D02*
X0177656Y0064926D01*
X0177656Y0065224D02*
X0176160Y0065224D01*
X0176160Y0065523D02*
X0177656Y0065523D01*
X0177656Y0065821D02*
X0176160Y0065821D01*
X0176160Y0066120D02*
X0177656Y0066120D01*
X0177656Y0066418D02*
X0176160Y0066418D01*
X0176160Y0066717D02*
X0177656Y0066717D01*
X0177656Y0067015D02*
X0176160Y0067015D01*
X0176160Y0067314D02*
X0177656Y0067314D01*
X0177656Y0067612D02*
X0176160Y0067612D01*
X0176160Y0067911D02*
X0177656Y0067911D01*
X0178129Y0067911D02*
X0181260Y0067911D01*
X0181278Y0067886D02*
X0181160Y0068043D01*
X0180688Y0068043D01*
X0180688Y0068831D01*
X0180570Y0069146D01*
X0180451Y0069421D01*
X0180255Y0069657D01*
X0179979Y0069854D01*
X0179664Y0070012D01*
X0179270Y0070130D01*
X0178129Y0070130D01*
X0178050Y0070091D01*
X0178050Y0068988D01*
X0178719Y0068988D01*
X0178877Y0068949D01*
X0178955Y0068909D01*
X0179034Y0068870D01*
X0179113Y0068752D01*
X0179152Y0068673D01*
X0179152Y0068516D01*
X0179192Y0068358D01*
X0179192Y0068043D01*
X0178129Y0068043D01*
X0178129Y0067020D01*
X0179192Y0067020D01*
X0179192Y0062453D01*
X0180688Y0062453D01*
X0180688Y0066429D01*
X0180688Y0067020D01*
X0182223Y0067020D01*
X0182066Y0067138D01*
X0181948Y0067256D01*
X0181829Y0067374D01*
X0181672Y0067531D01*
X0181554Y0067650D01*
X0181436Y0067768D01*
X0181278Y0067886D01*
X0181591Y0067612D02*
X0178129Y0067612D01*
X0178129Y0067314D02*
X0181890Y0067314D01*
X0182308Y0067612D02*
X0184094Y0067612D01*
X0184381Y0067314D02*
X0182612Y0067314D01*
X0182917Y0067015D02*
X0184668Y0067015D01*
X0184954Y0066717D02*
X0183221Y0066717D01*
X0183525Y0066418D02*
X0185241Y0066418D01*
X0185609Y0066418D02*
X0187144Y0066418D01*
X0187144Y0066120D02*
X0185609Y0066120D01*
X0185528Y0066120D02*
X0183829Y0066120D01*
X0183955Y0065996D02*
X0181633Y0062453D01*
X0183483Y0062453D01*
X0185018Y0064933D01*
X0185609Y0064382D01*
X0185609Y0062453D01*
X0187144Y0062453D01*
X0187144Y0069303D01*
X0185609Y0070130D01*
X0185609Y0066035D01*
X0183680Y0068043D01*
X0181869Y0068043D01*
X0183955Y0065996D01*
X0183841Y0065821D02*
X0187144Y0065821D01*
X0187144Y0065523D02*
X0183645Y0065523D01*
X0183449Y0065224D02*
X0187144Y0065224D01*
X0187144Y0064926D02*
X0185026Y0064926D01*
X0185014Y0064926D02*
X0183254Y0064926D01*
X0183058Y0064627D02*
X0184829Y0064627D01*
X0184644Y0064329D02*
X0182862Y0064329D01*
X0182667Y0064030D02*
X0184459Y0064030D01*
X0184275Y0063732D02*
X0182471Y0063732D01*
X0182275Y0063433D02*
X0184090Y0063433D01*
X0183905Y0063134D02*
X0182079Y0063134D01*
X0181884Y0062836D02*
X0183720Y0062836D01*
X0183535Y0062537D02*
X0181688Y0062537D01*
X0180688Y0062537D02*
X0179192Y0062537D01*
X0179192Y0062836D02*
X0180688Y0062836D01*
X0180688Y0063134D02*
X0179192Y0063134D01*
X0179192Y0063433D02*
X0180688Y0063433D01*
X0180688Y0063732D02*
X0179192Y0063732D01*
X0179192Y0064030D02*
X0180688Y0064030D01*
X0180688Y0064329D02*
X0179192Y0064329D01*
X0179192Y0064627D02*
X0180688Y0064627D01*
X0180688Y0064926D02*
X0179192Y0064926D01*
X0179192Y0065224D02*
X0180688Y0065224D01*
X0180688Y0065523D02*
X0179192Y0065523D01*
X0179192Y0065821D02*
X0180688Y0065821D01*
X0180688Y0066120D02*
X0179192Y0066120D01*
X0179192Y0066418D02*
X0180688Y0066418D01*
X0180688Y0066717D02*
X0179192Y0066717D01*
X0179192Y0067015D02*
X0180688Y0067015D01*
X0180688Y0068209D02*
X0179192Y0068209D01*
X0179154Y0068508D02*
X0180688Y0068508D01*
X0180688Y0068806D02*
X0179077Y0068806D01*
X0178050Y0069105D02*
X0180585Y0069105D01*
X0180459Y0069403D02*
X0178050Y0069403D01*
X0178050Y0069702D02*
X0180193Y0069702D01*
X0179687Y0070000D02*
X0178050Y0070000D01*
X0179231Y0072098D02*
X0178837Y0072335D01*
X0178522Y0072610D01*
X0178207Y0072925D01*
X0177932Y0073280D01*
X0177538Y0073988D01*
X0177341Y0074697D01*
X0177302Y0075406D01*
X0177420Y0076035D01*
X0177617Y0076587D01*
X0177892Y0077059D01*
X0178207Y0077413D01*
X0178522Y0077571D01*
X0178522Y0077256D01*
X0178562Y0077138D01*
X0178601Y0077020D01*
X0178719Y0076941D01*
X0178837Y0076902D01*
X0179113Y0076902D01*
X0179270Y0076980D01*
X0179428Y0077059D01*
X0179546Y0077138D01*
X0179703Y0077256D01*
X0179822Y0077335D01*
X0179940Y0077453D01*
X0180018Y0077610D01*
X0180097Y0077728D01*
X0180136Y0077886D01*
X0180176Y0078004D01*
X0180136Y0078122D01*
X0180097Y0078201D01*
X0180058Y0078319D01*
X0179979Y0078437D01*
X0179822Y0078555D01*
X0179664Y0078634D01*
X0179467Y0078673D01*
X0179310Y0078713D01*
X0179192Y0078713D01*
X0179073Y0078673D01*
X0178955Y0078673D01*
X0178995Y0078713D01*
X0179152Y0078831D01*
X0179388Y0078949D01*
X0179703Y0079067D01*
X0180058Y0079185D01*
X0180451Y0079185D01*
X0180885Y0079106D01*
X0181318Y0078870D01*
X0181672Y0078555D01*
X0181869Y0078280D01*
X0181987Y0077925D01*
X0181987Y0077610D01*
X0181908Y0077256D01*
X0181711Y0076902D01*
X0181436Y0076587D01*
X0181121Y0076232D01*
X0180845Y0075917D01*
X0180727Y0075642D01*
X0180727Y0075366D01*
X0180806Y0075130D01*
X0180963Y0074933D01*
X0181199Y0074776D01*
X0181514Y0074697D01*
X0181829Y0074697D01*
X0182026Y0074736D01*
X0182223Y0074815D01*
X0182341Y0074894D01*
X0182459Y0075012D01*
X0182538Y0075169D01*
X0182577Y0075287D01*
X0182577Y0075406D01*
X0182538Y0075524D01*
X0182459Y0075642D01*
X0182381Y0075720D01*
X0182302Y0075799D01*
X0182184Y0075839D01*
X0182105Y0075878D01*
X0182026Y0075917D01*
X0181987Y0075957D01*
X0182066Y0075996D01*
X0182144Y0075996D01*
X0182302Y0076035D01*
X0182617Y0076035D01*
X0182853Y0075996D01*
X0183050Y0075917D01*
X0183247Y0075839D01*
X0183404Y0075720D01*
X0183601Y0075602D01*
X0183719Y0075406D01*
X0183837Y0075169D01*
X0183916Y0074933D01*
X0183955Y0074579D01*
X0183995Y0074224D01*
X0183995Y0069185D01*
X0183955Y0069185D01*
X0183877Y0069303D01*
X0183759Y0069421D01*
X0183640Y0069579D01*
X0183444Y0069776D01*
X0183247Y0070012D01*
X0183010Y0070248D01*
X0182814Y0070524D01*
X0182538Y0070799D01*
X0182302Y0071035D01*
X0182105Y0071272D01*
X0181908Y0071429D01*
X0181711Y0071587D01*
X0181514Y0071705D01*
X0181278Y0071744D01*
X0180530Y0071744D01*
X0180058Y0071823D01*
X0179625Y0071941D01*
X0179231Y0072098D01*
X0179252Y0072090D02*
X0183995Y0072090D01*
X0183995Y0072388D02*
X0178776Y0072388D01*
X0178446Y0072687D02*
X0183995Y0072687D01*
X0183995Y0072985D02*
X0178161Y0072985D01*
X0177929Y0073284D02*
X0183995Y0073284D01*
X0183995Y0073582D02*
X0177763Y0073582D01*
X0177598Y0073881D02*
X0183995Y0073881D01*
X0183995Y0074179D02*
X0177485Y0074179D01*
X0177402Y0074478D02*
X0183967Y0074478D01*
X0183933Y0074776D02*
X0182127Y0074776D01*
X0182491Y0075075D02*
X0183869Y0075075D01*
X0183735Y0075373D02*
X0182577Y0075373D01*
X0182429Y0075672D02*
X0183485Y0075672D01*
X0182917Y0075970D02*
X0182014Y0075970D01*
X0181419Y0076568D02*
X0177610Y0076568D01*
X0177503Y0076269D02*
X0181153Y0076269D01*
X0180892Y0075970D02*
X0177408Y0075970D01*
X0177352Y0075672D02*
X0180740Y0075672D01*
X0180727Y0075373D02*
X0177304Y0075373D01*
X0177320Y0075075D02*
X0180850Y0075075D01*
X0181198Y0074776D02*
X0177337Y0074776D01*
X0177780Y0076866D02*
X0181680Y0076866D01*
X0181857Y0077165D02*
X0179582Y0077165D01*
X0179945Y0077463D02*
X0181954Y0077463D01*
X0181987Y0077762D02*
X0180105Y0077762D01*
X0180157Y0078060D02*
X0181942Y0078060D01*
X0181812Y0078359D02*
X0180031Y0078359D01*
X0179548Y0078657D02*
X0181557Y0078657D01*
X0181161Y0078956D02*
X0179407Y0078956D01*
X0178522Y0077463D02*
X0178307Y0077463D01*
X0178553Y0077165D02*
X0177986Y0077165D01*
X0180247Y0071791D02*
X0183995Y0071791D01*
X0183995Y0071493D02*
X0181829Y0071493D01*
X0182169Y0071194D02*
X0183995Y0071194D01*
X0183995Y0070896D02*
X0182441Y0070896D01*
X0182740Y0070597D02*
X0183995Y0070597D01*
X0183995Y0070299D02*
X0182974Y0070299D01*
X0183256Y0070000D02*
X0183995Y0070000D01*
X0183995Y0069702D02*
X0183517Y0069702D01*
X0183777Y0069403D02*
X0183995Y0069403D01*
X0183807Y0067911D02*
X0182004Y0067911D01*
X0185609Y0067911D02*
X0187144Y0067911D01*
X0187144Y0068209D02*
X0185609Y0068209D01*
X0185609Y0068508D02*
X0187144Y0068508D01*
X0187144Y0068806D02*
X0185609Y0068806D01*
X0185609Y0069105D02*
X0187144Y0069105D01*
X0186958Y0069403D02*
X0185609Y0069403D01*
X0185609Y0069702D02*
X0186404Y0069702D01*
X0185850Y0070000D02*
X0185609Y0070000D01*
X0185609Y0067612D02*
X0187144Y0067612D01*
X0187144Y0067314D02*
X0185609Y0067314D01*
X0185609Y0067015D02*
X0187144Y0067015D01*
X0187144Y0066717D02*
X0185609Y0066717D01*
X0185346Y0064627D02*
X0187144Y0064627D01*
X0187144Y0064329D02*
X0185609Y0064329D01*
X0185609Y0064030D02*
X0187144Y0064030D01*
X0187144Y0063732D02*
X0185609Y0063732D01*
X0185609Y0063433D02*
X0187144Y0063433D01*
X0187144Y0063134D02*
X0185609Y0063134D01*
X0185609Y0062836D02*
X0187144Y0062836D01*
X0187144Y0062537D02*
X0185609Y0062537D01*
X0189782Y0062537D02*
X0191318Y0062537D01*
X0191318Y0062453D02*
X0191318Y0067098D01*
X0191318Y0067768D01*
X0191121Y0067807D01*
X0190963Y0067846D01*
X0190766Y0067846D01*
X0190570Y0067886D01*
X0190412Y0067925D01*
X0190215Y0067965D01*
X0190018Y0068004D01*
X0189861Y0068043D01*
X0189861Y0066980D01*
X0189703Y0067256D01*
X0189546Y0067453D01*
X0189349Y0067689D01*
X0189152Y0067846D01*
X0188877Y0068004D01*
X0188640Y0068083D01*
X0188365Y0068161D01*
X0187814Y0068161D01*
X0187774Y0068122D01*
X0187735Y0068122D01*
X0187735Y0066705D01*
X0187774Y0066705D01*
X0187853Y0066744D01*
X0188286Y0066744D01*
X0188680Y0066705D01*
X0188995Y0066626D01*
X0189270Y0066469D01*
X0189467Y0066232D01*
X0189625Y0065957D01*
X0189703Y0065681D01*
X0189782Y0065327D01*
X0189782Y0062453D01*
X0191318Y0062453D01*
X0191318Y0062836D02*
X0189782Y0062836D01*
X0189782Y0063134D02*
X0191318Y0063134D01*
X0191318Y0063433D02*
X0189782Y0063433D01*
X0189782Y0063732D02*
X0191318Y0063732D01*
X0191318Y0064030D02*
X0189782Y0064030D01*
X0189782Y0064329D02*
X0191318Y0064329D01*
X0191318Y0064627D02*
X0189782Y0064627D01*
X0189782Y0064926D02*
X0191318Y0064926D01*
X0191318Y0065224D02*
X0189782Y0065224D01*
X0189739Y0065523D02*
X0191318Y0065523D01*
X0191318Y0065821D02*
X0189663Y0065821D01*
X0189532Y0066120D02*
X0191318Y0066120D01*
X0191318Y0066418D02*
X0189312Y0066418D01*
X0189841Y0067015D02*
X0187735Y0067015D01*
X0187735Y0066717D02*
X0187798Y0066717D01*
X0187735Y0067314D02*
X0189657Y0067314D01*
X0189861Y0067314D02*
X0191318Y0067314D01*
X0191318Y0067612D02*
X0189861Y0067612D01*
X0189861Y0067911D02*
X0190470Y0067911D01*
X0189861Y0067015D02*
X0191318Y0067015D01*
X0191318Y0066717D02*
X0188561Y0066717D01*
X0187735Y0067612D02*
X0189413Y0067612D01*
X0189040Y0067911D02*
X0187735Y0067911D01*
X0192222Y0067015D02*
X0193986Y0067015D01*
X0193995Y0067020D02*
X0194073Y0067059D01*
X0194152Y0067098D01*
X0194231Y0067098D01*
X0194310Y0067138D01*
X0195018Y0067138D01*
X0195097Y0067098D01*
X0195176Y0067059D01*
X0195255Y0067020D01*
X0195333Y0066980D01*
X0195412Y0066941D01*
X0195451Y0066902D01*
X0195530Y0066823D01*
X0195570Y0066783D01*
X0195609Y0066705D01*
X0195648Y0066587D01*
X0195688Y0066508D01*
X0195688Y0066311D01*
X0197223Y0066311D01*
X0197184Y0066547D01*
X0197144Y0066783D01*
X0197066Y0067020D01*
X0196948Y0067177D01*
X0196829Y0067374D01*
X0196711Y0067531D01*
X0196554Y0067650D01*
X0196357Y0067768D01*
X0196160Y0067886D01*
X0195963Y0067965D01*
X0195766Y0068004D01*
X0195530Y0068083D01*
X0195294Y0068122D01*
X0195097Y0068161D01*
X0194192Y0068161D01*
X0193995Y0068122D01*
X0193759Y0068122D01*
X0193562Y0068083D01*
X0193365Y0068004D01*
X0193168Y0067965D01*
X0192971Y0067886D01*
X0192814Y0067768D01*
X0192656Y0067650D01*
X0192499Y0067531D01*
X0192381Y0067374D01*
X0192302Y0067217D01*
X0192223Y0067020D01*
X0192184Y0066823D01*
X0192184Y0063398D01*
X0192144Y0063319D01*
X0192144Y0062965D01*
X0192105Y0062886D01*
X0192105Y0062807D01*
X0192066Y0062728D01*
X0192066Y0062610D01*
X0192026Y0062531D01*
X0191987Y0062492D01*
X0191987Y0062453D01*
X0193522Y0062453D01*
X0193522Y0062492D01*
X0193562Y0062531D01*
X0193562Y0062571D01*
X0193601Y0062610D01*
X0193601Y0062728D01*
X0193640Y0062768D01*
X0193640Y0063004D01*
X0193719Y0062886D01*
X0193837Y0062807D01*
X0193916Y0062728D01*
X0194034Y0062650D01*
X0194152Y0062610D01*
X0194270Y0062531D01*
X0194388Y0062492D01*
X0194507Y0062453D01*
X0194625Y0062413D01*
X0194743Y0062374D01*
X0194861Y0062374D01*
X0194979Y0062335D01*
X0195136Y0062335D01*
X0195255Y0062295D01*
X0195688Y0062295D01*
X0195885Y0062335D01*
X0196081Y0062335D01*
X0196239Y0062374D01*
X0196436Y0062453D01*
X0196593Y0062531D01*
X0196711Y0062610D01*
X0196869Y0062689D01*
X0196987Y0062807D01*
X0197066Y0062925D01*
X0197184Y0063083D01*
X0197262Y0063201D01*
X0197302Y0063398D01*
X0197381Y0063555D01*
X0197381Y0063752D01*
X0197420Y0063949D01*
X0197341Y0064382D01*
X0197223Y0064736D01*
X0197066Y0065012D01*
X0196790Y0065248D01*
X0196514Y0065406D01*
X0196199Y0065524D01*
X0195885Y0065602D01*
X0195530Y0065642D01*
X0195215Y0064815D01*
X0195333Y0064776D01*
X0195412Y0064736D01*
X0195451Y0064697D01*
X0195530Y0064657D01*
X0195609Y0064618D01*
X0195648Y0064579D01*
X0195727Y0064539D01*
X0195766Y0064461D01*
X0195806Y0064382D01*
X0195845Y0064303D01*
X0195845Y0064224D01*
X0195885Y0064146D01*
X0195885Y0063949D01*
X0195845Y0063831D01*
X0195845Y0063752D01*
X0195806Y0063673D01*
X0195766Y0063634D01*
X0195727Y0063555D01*
X0195648Y0063516D01*
X0195609Y0063476D01*
X0195530Y0063437D01*
X0195451Y0063398D01*
X0195373Y0063398D01*
X0195294Y0063358D01*
X0195215Y0063358D01*
X0195136Y0063319D01*
X0194940Y0063319D01*
X0194743Y0063358D01*
X0194546Y0063358D01*
X0194388Y0063437D01*
X0194231Y0063476D01*
X0194113Y0063555D01*
X0194034Y0063634D01*
X0193955Y0063752D01*
X0193877Y0063831D01*
X0193837Y0063949D01*
X0193798Y0064067D01*
X0193759Y0064146D01*
X0193719Y0064264D01*
X0193719Y0065169D01*
X0193759Y0065130D01*
X0193798Y0065091D01*
X0193877Y0065091D01*
X0193955Y0065051D01*
X0194034Y0065012D01*
X0194113Y0065012D01*
X0194192Y0064972D01*
X0194349Y0064972D01*
X0194546Y0065760D01*
X0194270Y0065839D01*
X0194034Y0065917D01*
X0193837Y0066035D01*
X0193719Y0066193D01*
X0193719Y0066626D01*
X0193759Y0066705D01*
X0193798Y0066783D01*
X0193837Y0066862D01*
X0193877Y0066902D01*
X0193916Y0066980D01*
X0193995Y0067020D01*
X0193764Y0066717D02*
X0192184Y0066717D01*
X0192184Y0066418D02*
X0193719Y0066418D01*
X0193774Y0066120D02*
X0192184Y0066120D01*
X0192184Y0065821D02*
X0194332Y0065821D01*
X0194546Y0065760D02*
X0194349Y0064972D01*
X0194428Y0064933D01*
X0194507Y0064933D01*
X0194625Y0064894D01*
X0194782Y0064894D01*
X0194900Y0064854D01*
X0195058Y0064854D01*
X0195136Y0064815D01*
X0195215Y0064815D01*
X0195530Y0065642D01*
X0195176Y0065681D01*
X0194822Y0065720D01*
X0194546Y0065760D01*
X0194487Y0065523D02*
X0192184Y0065523D01*
X0192184Y0065224D02*
X0194412Y0065224D01*
X0195371Y0065224D01*
X0196818Y0065224D01*
X0197115Y0064926D02*
X0195257Y0064926D01*
X0194529Y0064926D01*
X0194487Y0065523D02*
X0195485Y0065523D01*
X0196202Y0065523D01*
X0195688Y0066418D02*
X0197205Y0066418D01*
X0197155Y0066717D02*
X0195603Y0066717D01*
X0195264Y0067015D02*
X0197067Y0067015D01*
X0196866Y0067314D02*
X0192350Y0067314D01*
X0192606Y0067612D02*
X0196604Y0067612D01*
X0196098Y0067911D02*
X0193033Y0067911D01*
X0193719Y0064926D02*
X0192184Y0064926D01*
X0192184Y0064627D02*
X0193719Y0064627D01*
X0193719Y0064329D02*
X0192184Y0064329D01*
X0192184Y0064030D02*
X0193810Y0064030D01*
X0193969Y0063732D02*
X0192184Y0063732D01*
X0192184Y0063433D02*
X0194396Y0063433D01*
X0193794Y0062836D02*
X0197006Y0062836D01*
X0197218Y0063134D02*
X0192144Y0063134D01*
X0192105Y0062836D02*
X0193640Y0062836D01*
X0193562Y0062537D02*
X0192029Y0062537D01*
X0194261Y0062537D02*
X0196602Y0062537D01*
X0197320Y0063433D02*
X0195522Y0063433D01*
X0195835Y0063732D02*
X0197381Y0063732D01*
X0197405Y0064030D02*
X0195885Y0064030D01*
X0195832Y0064329D02*
X0197351Y0064329D01*
X0197259Y0064627D02*
X0195591Y0064627D01*
X0197870Y0064926D02*
X0199388Y0064926D01*
X0199388Y0064894D02*
X0199388Y0065209D01*
X0199388Y0065563D01*
X0199428Y0065878D01*
X0199546Y0066193D01*
X0199664Y0066469D01*
X0199861Y0066705D01*
X0200097Y0066862D01*
X0200373Y0066980D01*
X0200727Y0067020D01*
X0201042Y0066980D01*
X0201357Y0066862D01*
X0201554Y0066705D01*
X0201751Y0066469D01*
X0201869Y0066193D01*
X0201987Y0065878D01*
X0202026Y0065563D01*
X0202026Y0064894D01*
X0201948Y0064579D01*
X0201869Y0064264D01*
X0201751Y0063988D01*
X0201554Y0063791D01*
X0201318Y0063594D01*
X0201042Y0063516D01*
X0200688Y0063476D01*
X0200373Y0063516D01*
X0200058Y0063594D01*
X0199822Y0063791D01*
X0199664Y0063988D01*
X0199546Y0064264D01*
X0198207Y0063634D01*
X0198444Y0063201D01*
X0198798Y0062846D01*
X0199231Y0062531D01*
X0199703Y0062374D01*
X0200294Y0062295D01*
X0200530Y0062335D01*
X0200766Y0062374D01*
X0201003Y0062413D01*
X0201239Y0062531D01*
X0201436Y0062650D01*
X0201633Y0062768D01*
X0201790Y0062965D01*
X0201948Y0063161D01*
X0201987Y0063161D01*
X0201987Y0059146D01*
X0202144Y0059303D01*
X0202341Y0059500D01*
X0202538Y0059657D01*
X0202735Y0059815D01*
X0202932Y0059972D01*
X0203129Y0060169D01*
X0203286Y0060327D01*
X0203483Y0060484D01*
X0203483Y0067768D01*
X0203325Y0067807D01*
X0203129Y0067846D01*
X0202932Y0067846D01*
X0202774Y0067886D01*
X0202577Y0067925D01*
X0202420Y0067965D01*
X0202223Y0068004D01*
X0202026Y0068043D01*
X0202026Y0067335D01*
X0201869Y0067531D01*
X0201711Y0067689D01*
X0201514Y0067846D01*
X0201318Y0067965D01*
X0201121Y0068083D01*
X0200885Y0068122D01*
X0200648Y0068161D01*
X0200373Y0068161D01*
X0199782Y0068122D01*
X0199231Y0067925D01*
X0198798Y0067650D01*
X0198444Y0067256D01*
X0198168Y0066823D01*
X0198010Y0066311D01*
X0197892Y0065760D01*
X0197853Y0065169D01*
X0199388Y0065209D01*
X0197853Y0065169D01*
X0197892Y0064618D01*
X0198010Y0064106D01*
X0198207Y0063634D01*
X0199546Y0064264D01*
X0199428Y0064579D01*
X0199388Y0064894D01*
X0199422Y0064627D02*
X0197892Y0064627D01*
X0197959Y0064329D02*
X0199522Y0064329D01*
X0199646Y0064030D02*
X0199049Y0064030D01*
X0198042Y0064030D01*
X0198167Y0063732D02*
X0198415Y0063732D01*
X0199893Y0063732D01*
X0199223Y0062537D02*
X0201249Y0062537D01*
X0201687Y0062836D02*
X0198812Y0062836D01*
X0198510Y0063134D02*
X0201926Y0063134D01*
X0201987Y0063134D02*
X0203483Y0063134D01*
X0203483Y0062836D02*
X0201987Y0062836D01*
X0201987Y0062537D02*
X0203483Y0062537D01*
X0203483Y0062239D02*
X0201987Y0062239D01*
X0201987Y0061940D02*
X0203483Y0061940D01*
X0203483Y0061642D02*
X0201987Y0061642D01*
X0201987Y0061343D02*
X0203483Y0061343D01*
X0203483Y0061045D02*
X0201987Y0061045D01*
X0201987Y0060746D02*
X0203483Y0060746D01*
X0203437Y0060448D02*
X0201987Y0060448D01*
X0201987Y0060149D02*
X0203109Y0060149D01*
X0202780Y0059851D02*
X0201987Y0059851D01*
X0201987Y0059552D02*
X0202407Y0059552D01*
X0202095Y0059254D02*
X0201987Y0059254D01*
X0204900Y0062728D02*
X0205294Y0062531D01*
X0205727Y0062413D01*
X0206199Y0062335D01*
X0206672Y0062295D01*
X0207144Y0062335D01*
X0207617Y0062413D01*
X0208050Y0062531D01*
X0208444Y0062728D01*
X0208759Y0063004D01*
X0209034Y0063358D01*
X0209192Y0063752D01*
X0209270Y0064264D01*
X0208010Y0064264D01*
X0207814Y0064264D01*
X0207814Y0064028D01*
X0207735Y0063831D01*
X0207617Y0063673D01*
X0207459Y0063555D01*
X0207302Y0063437D01*
X0207066Y0063398D01*
X0206869Y0063358D01*
X0206633Y0063319D01*
X0206475Y0063358D01*
X0206318Y0063358D01*
X0206160Y0063398D01*
X0206003Y0063476D01*
X0205845Y0063594D01*
X0205727Y0063713D01*
X0205688Y0063870D01*
X0205648Y0064028D01*
X0205688Y0064185D01*
X0205766Y0064343D01*
X0205924Y0064461D01*
X0206121Y0064579D01*
X0206357Y0064657D01*
X0206672Y0064736D01*
X0206987Y0064815D01*
X0207381Y0064894D01*
X0207735Y0064972D01*
X0208050Y0065091D01*
X0208325Y0065209D01*
X0208601Y0065366D01*
X0208837Y0065524D01*
X0208995Y0065760D01*
X0209113Y0066035D01*
X0209152Y0066390D01*
X0209113Y0066862D01*
X0208955Y0067256D01*
X0208680Y0067571D01*
X0208404Y0067807D01*
X0208010Y0068004D01*
X0207617Y0068083D01*
X0207184Y0068161D01*
X0206278Y0068161D01*
X0205845Y0068083D01*
X0205451Y0067965D01*
X0205097Y0067807D01*
X0204782Y0067571D01*
X0204546Y0067256D01*
X0204349Y0066862D01*
X0204270Y0066390D01*
X0205727Y0066390D01*
X0205766Y0066587D01*
X0205845Y0066783D01*
X0205924Y0066902D01*
X0206042Y0066980D01*
X0206199Y0067059D01*
X0206396Y0067138D01*
X0207066Y0067138D01*
X0207184Y0067098D01*
X0207341Y0067059D01*
X0207459Y0067020D01*
X0207538Y0066902D01*
X0207617Y0066783D01*
X0207617Y0066626D01*
X0207577Y0066469D01*
X0207459Y0066311D01*
X0207302Y0066193D01*
X0207066Y0066075D01*
X0206829Y0065996D01*
X0206514Y0065957D01*
X0206199Y0065878D01*
X0205885Y0065799D01*
X0205570Y0065720D01*
X0205215Y0065642D01*
X0204940Y0065484D01*
X0204664Y0065327D01*
X0204428Y0065130D01*
X0204270Y0064894D01*
X0204152Y0064618D01*
X0204113Y0064264D01*
X0204192Y0063752D01*
X0204349Y0063319D01*
X0204585Y0063004D01*
X0204900Y0062728D01*
X0204777Y0062836D02*
X0208567Y0062836D01*
X0208860Y0063134D02*
X0204487Y0063134D01*
X0204308Y0063433D02*
X0206089Y0063433D01*
X0205722Y0063732D02*
X0204199Y0063732D01*
X0204149Y0064030D02*
X0205649Y0064030D01*
X0205759Y0064329D02*
X0204120Y0064329D01*
X0204156Y0064627D02*
X0206266Y0064627D01*
X0205972Y0065821D02*
X0209021Y0065821D01*
X0209122Y0066120D02*
X0207155Y0066120D01*
X0207540Y0066418D02*
X0209150Y0066418D01*
X0209125Y0066717D02*
X0207617Y0066717D01*
X0207462Y0067015D02*
X0209052Y0067015D01*
X0208905Y0067314D02*
X0204589Y0067314D01*
X0204426Y0067015D02*
X0206112Y0067015D01*
X0205818Y0066717D02*
X0204325Y0066717D01*
X0204275Y0066418D02*
X0205733Y0066418D01*
X0205007Y0065523D02*
X0208836Y0065523D01*
X0208352Y0065224D02*
X0204541Y0065224D01*
X0204292Y0064926D02*
X0207524Y0064926D01*
X0207814Y0064030D02*
X0209234Y0064030D01*
X0209183Y0063732D02*
X0207661Y0063732D01*
X0207278Y0063433D02*
X0209064Y0063433D01*
X0208062Y0062537D02*
X0205282Y0062537D01*
X0203483Y0063433D02*
X0198317Y0063433D01*
X0197857Y0065224D02*
X0199388Y0065224D01*
X0199388Y0065523D02*
X0197877Y0065523D01*
X0197906Y0065821D02*
X0199421Y0065821D01*
X0199518Y0066120D02*
X0197969Y0066120D01*
X0198043Y0066418D02*
X0199642Y0066418D01*
X0199879Y0066717D02*
X0198135Y0066717D01*
X0198290Y0067015D02*
X0200686Y0067015D01*
X0200763Y0067015D02*
X0203483Y0067015D01*
X0203483Y0066717D02*
X0201539Y0066717D01*
X0201772Y0066418D02*
X0203483Y0066418D01*
X0203483Y0066120D02*
X0201896Y0066120D01*
X0201994Y0065821D02*
X0203483Y0065821D01*
X0203483Y0065523D02*
X0202026Y0065523D01*
X0202026Y0065224D02*
X0203483Y0065224D01*
X0203483Y0064926D02*
X0202026Y0064926D01*
X0201960Y0064627D02*
X0203483Y0064627D01*
X0203483Y0064329D02*
X0201885Y0064329D01*
X0201769Y0064030D02*
X0203483Y0064030D01*
X0203483Y0063732D02*
X0201482Y0063732D01*
X0201788Y0067612D02*
X0198764Y0067612D01*
X0198496Y0067314D02*
X0203483Y0067314D01*
X0203483Y0067612D02*
X0202026Y0067612D01*
X0202026Y0067911D02*
X0202650Y0067911D01*
X0201407Y0067911D02*
X0199208Y0067911D01*
X0204837Y0067612D02*
X0208632Y0067612D01*
X0208197Y0067911D02*
X0205330Y0067911D01*
X0171633Y0066418D02*
X0169923Y0066418D01*
X0170055Y0066120D02*
X0171633Y0066120D01*
X0171633Y0065821D02*
X0170090Y0065821D01*
X0170097Y0065523D02*
X0171633Y0065523D01*
X0171633Y0065224D02*
X0170097Y0065224D01*
X0170097Y0064926D02*
X0171633Y0064926D01*
X0171633Y0064627D02*
X0170097Y0064627D01*
X0170097Y0064329D02*
X0171633Y0064329D01*
X0171633Y0064030D02*
X0170097Y0064030D01*
X0170097Y0063732D02*
X0171633Y0063732D01*
X0171633Y0063433D02*
X0170097Y0063433D01*
X0170097Y0063134D02*
X0171633Y0063134D01*
X0171633Y0062836D02*
X0170097Y0062836D01*
X0170097Y0062537D02*
X0171633Y0062537D01*
X0169859Y0067612D02*
X0166910Y0067612D01*
X0167291Y0067911D02*
X0169469Y0067911D01*
M02*
