G75*
%MOIN*%
%OFA0B0*%
%FSLAX25Y25*%
%IPPOS*%
%LPD*%
%AMOC8*
5,1,8,0,0,1.08239X$1,22.5*
%
%ADD10C,0.01200*%
%ADD11C,0.07400*%
%ADD12C,0.03937*%
%ADD13C,0.01000*%
%ADD14C,0.02900*%
%ADD15C,0.00700*%
D10*
X0214013Y0052100D02*
X0218550Y0052100D01*
X0216282Y0052100D02*
X0216282Y0058906D01*
X0218550Y0056637D01*
X0221379Y0057772D02*
X0221379Y0053234D01*
X0222514Y0052100D01*
X0224782Y0052100D01*
X0225916Y0053234D01*
X0221379Y0057772D01*
X0222514Y0058906D01*
X0224782Y0058906D01*
X0225916Y0057772D01*
X0225916Y0053234D01*
X0228746Y0056637D02*
X0231014Y0052100D01*
X0233283Y0056637D01*
X0233333Y0180000D02*
X0203333Y0180000D01*
X0183334Y0190000D02*
X0181334Y0192000D01*
X0157833Y0192000D01*
X0233333Y0180000D02*
X0238333Y0185000D01*
D11*
X0163334Y0234997D03*
D12*
X0138333Y0260000D03*
X0238333Y0055000D03*
D13*
X0120433Y0065117D02*
X0120433Y0249883D01*
X0121021Y0248865D01*
X0121021Y0248865D01*
X0123561Y0246734D01*
X0126676Y0245600D01*
X0129203Y0245600D01*
X0129991Y0245600D01*
X0133106Y0246734D01*
X0135645Y0248865D01*
X0137303Y0251735D01*
X0137303Y0251735D01*
X0137878Y0255000D01*
X0137644Y0256331D01*
X0139063Y0256331D01*
X0140411Y0256890D01*
X0141443Y0257922D01*
X0142002Y0259270D01*
X0142002Y0260730D01*
X0141443Y0262078D01*
X0140621Y0262900D01*
X0243124Y0262900D01*
X0241021Y0261135D01*
X0239364Y0258265D01*
X0239364Y0258265D01*
X0238788Y0255000D01*
X0239364Y0251735D01*
X0241021Y0248865D01*
X0241021Y0248865D01*
X0243561Y0246734D01*
X0246676Y0245600D01*
X0249991Y0245600D01*
X0253106Y0246734D01*
X0255645Y0248865D01*
X0256233Y0249883D01*
X0256233Y0065117D01*
X0255645Y0066135D01*
X0255645Y0066135D01*
X0253106Y0068266D01*
X0253106Y0068266D01*
X0249991Y0069400D01*
X0246676Y0069400D01*
X0243561Y0068266D01*
X0241021Y0066135D01*
X0239364Y0063265D01*
X0238788Y0060000D01*
X0239023Y0058668D01*
X0237604Y0058668D01*
X0236255Y0058110D01*
X0235476Y0057331D01*
X0235163Y0058268D01*
X0233459Y0059120D01*
X0231652Y0058518D01*
X0231014Y0057243D01*
X0230377Y0058518D01*
X0228569Y0059120D01*
X0228070Y0058871D01*
X0227082Y0059858D01*
X0225735Y0061206D01*
X0221561Y0061206D01*
X0220427Y0060071D01*
X0220427Y0060071D01*
X0219398Y0059042D01*
X0218582Y0059858D01*
X0217234Y0061206D01*
X0215329Y0061206D01*
X0213982Y0059858D01*
X0213982Y0054400D01*
X0213060Y0054400D01*
X0211713Y0053053D01*
X0211713Y0052100D01*
X0133542Y0052100D01*
X0135645Y0053865D01*
X0137303Y0056735D01*
X0137303Y0056735D01*
X0137878Y0060000D01*
X0137303Y0063265D01*
X0135645Y0066135D01*
X0135645Y0066135D01*
X0133106Y0068266D01*
X0133106Y0068266D01*
X0129991Y0069400D01*
X0126676Y0069400D01*
X0123561Y0068266D01*
X0123561Y0068266D01*
X0121021Y0066135D01*
X0120433Y0065117D01*
X0120433Y0065976D02*
X0120930Y0065976D01*
X0121021Y0066135D02*
X0121021Y0066135D01*
X0121021Y0066135D01*
X0120433Y0066975D02*
X0122022Y0066975D01*
X0123212Y0067973D02*
X0120433Y0067973D01*
X0120433Y0068972D02*
X0125499Y0068972D01*
X0120433Y0069970D02*
X0256233Y0069970D01*
X0256233Y0068972D02*
X0251167Y0068972D01*
X0253455Y0067973D02*
X0256233Y0067973D01*
X0256233Y0066975D02*
X0254645Y0066975D01*
X0255737Y0065976D02*
X0256233Y0065976D01*
X0256233Y0070969D02*
X0120433Y0070969D01*
X0120433Y0071967D02*
X0256233Y0071967D01*
X0256233Y0072966D02*
X0120433Y0072966D01*
X0120433Y0073964D02*
X0256233Y0073964D01*
X0256233Y0074963D02*
X0120433Y0074963D01*
X0120433Y0075961D02*
X0256233Y0075961D01*
X0256233Y0076960D02*
X0120433Y0076960D01*
X0120433Y0077958D02*
X0256233Y0077958D01*
X0256233Y0078957D02*
X0120433Y0078957D01*
X0120433Y0079955D02*
X0256233Y0079955D01*
X0256233Y0080954D02*
X0120433Y0080954D01*
X0120433Y0081952D02*
X0256233Y0081952D01*
X0256233Y0082951D02*
X0120433Y0082951D01*
X0120433Y0083949D02*
X0256233Y0083949D01*
X0256233Y0084948D02*
X0120433Y0084948D01*
X0120433Y0085946D02*
X0256233Y0085946D01*
X0256233Y0086945D02*
X0120433Y0086945D01*
X0120433Y0087943D02*
X0256233Y0087943D01*
X0256233Y0088942D02*
X0120433Y0088942D01*
X0120433Y0089940D02*
X0256233Y0089940D01*
X0256233Y0090939D02*
X0120433Y0090939D01*
X0120433Y0091937D02*
X0256233Y0091937D01*
X0256233Y0092936D02*
X0120433Y0092936D01*
X0120433Y0093934D02*
X0256233Y0093934D01*
X0256233Y0094933D02*
X0120433Y0094933D01*
X0120433Y0095932D02*
X0256233Y0095932D01*
X0256233Y0096930D02*
X0120433Y0096930D01*
X0120433Y0097929D02*
X0157517Y0097929D01*
X0157707Y0097850D02*
X0158960Y0097850D01*
X0160118Y0098330D01*
X0161004Y0099216D01*
X0161483Y0100373D01*
X0161483Y0101627D01*
X0161004Y0102784D01*
X0160383Y0103405D01*
X0160383Y0116595D01*
X0161004Y0117216D01*
X0161483Y0118373D01*
X0161483Y0119627D01*
X0161004Y0120784D01*
X0160118Y0121670D01*
X0158960Y0122150D01*
X0157707Y0122150D01*
X0156549Y0121670D01*
X0155663Y0120784D01*
X0155183Y0119627D01*
X0155183Y0118373D01*
X0155663Y0117216D01*
X0156283Y0116595D01*
X0156283Y0103405D01*
X0155663Y0102784D01*
X0155183Y0101627D01*
X0155183Y0100373D01*
X0155663Y0099216D01*
X0156549Y0098330D01*
X0157707Y0097850D01*
X0159150Y0097929D02*
X0256233Y0097929D01*
X0256233Y0098927D02*
X0160715Y0098927D01*
X0161298Y0099926D02*
X0256233Y0099926D01*
X0256233Y0100924D02*
X0161483Y0100924D01*
X0161361Y0101923D02*
X0256233Y0101923D01*
X0256233Y0102921D02*
X0160867Y0102921D01*
X0160383Y0103920D02*
X0256233Y0103920D01*
X0256233Y0104918D02*
X0160383Y0104918D01*
X0160383Y0105917D02*
X0256233Y0105917D01*
X0256233Y0106915D02*
X0160383Y0106915D01*
X0160383Y0107914D02*
X0256233Y0107914D01*
X0256233Y0108912D02*
X0160383Y0108912D01*
X0160383Y0109911D02*
X0256233Y0109911D01*
X0256233Y0110909D02*
X0160383Y0110909D01*
X0160383Y0111908D02*
X0256233Y0111908D01*
X0256233Y0112906D02*
X0160383Y0112906D01*
X0160383Y0113905D02*
X0256233Y0113905D01*
X0256233Y0114903D02*
X0160383Y0114903D01*
X0160383Y0115902D02*
X0256233Y0115902D01*
X0256233Y0116900D02*
X0160688Y0116900D01*
X0161287Y0117899D02*
X0256233Y0117899D01*
X0256233Y0118897D02*
X0161483Y0118897D01*
X0161372Y0119896D02*
X0256233Y0119896D01*
X0256233Y0120894D02*
X0160894Y0120894D01*
X0159581Y0121893D02*
X0256233Y0121893D01*
X0256233Y0122891D02*
X0120433Y0122891D01*
X0120433Y0121893D02*
X0157086Y0121893D01*
X0155773Y0120894D02*
X0120433Y0120894D01*
X0120433Y0119896D02*
X0155295Y0119896D01*
X0155183Y0118897D02*
X0120433Y0118897D01*
X0120433Y0117899D02*
X0155380Y0117899D01*
X0155978Y0116900D02*
X0120433Y0116900D01*
X0120433Y0115902D02*
X0156283Y0115902D01*
X0156283Y0114903D02*
X0120433Y0114903D01*
X0120433Y0113905D02*
X0156283Y0113905D01*
X0156283Y0112906D02*
X0120433Y0112906D01*
X0120433Y0111908D02*
X0156283Y0111908D01*
X0156283Y0110909D02*
X0120433Y0110909D01*
X0120433Y0109911D02*
X0156283Y0109911D01*
X0156283Y0108912D02*
X0120433Y0108912D01*
X0120433Y0107914D02*
X0156283Y0107914D01*
X0156283Y0106915D02*
X0120433Y0106915D01*
X0120433Y0105917D02*
X0156283Y0105917D01*
X0156283Y0104918D02*
X0120433Y0104918D01*
X0120433Y0103920D02*
X0156283Y0103920D01*
X0155800Y0102921D02*
X0120433Y0102921D01*
X0120433Y0101923D02*
X0155306Y0101923D01*
X0155183Y0100924D02*
X0120433Y0100924D01*
X0120433Y0099926D02*
X0155369Y0099926D01*
X0155951Y0098927D02*
X0120433Y0098927D01*
X0120433Y0123890D02*
X0256233Y0123890D01*
X0256233Y0124888D02*
X0120433Y0124888D01*
X0120433Y0125887D02*
X0256233Y0125887D01*
X0256233Y0126885D02*
X0120433Y0126885D01*
X0120433Y0127884D02*
X0256233Y0127884D01*
X0256233Y0128882D02*
X0120433Y0128882D01*
X0120433Y0129881D02*
X0256233Y0129881D01*
X0256233Y0130879D02*
X0120433Y0130879D01*
X0120433Y0131878D02*
X0256233Y0131878D01*
X0256233Y0132876D02*
X0120433Y0132876D01*
X0120433Y0133875D02*
X0256233Y0133875D01*
X0256233Y0134873D02*
X0120433Y0134873D01*
X0120433Y0135872D02*
X0256233Y0135872D01*
X0256233Y0136870D02*
X0120433Y0136870D01*
X0120433Y0137869D02*
X0256233Y0137869D01*
X0256233Y0138868D02*
X0120433Y0138868D01*
X0120433Y0139866D02*
X0256233Y0139866D01*
X0256233Y0140865D02*
X0120433Y0140865D01*
X0120433Y0141863D02*
X0256233Y0141863D01*
X0256233Y0142862D02*
X0120433Y0142862D01*
X0120433Y0143860D02*
X0256233Y0143860D01*
X0256233Y0144859D02*
X0120433Y0144859D01*
X0120433Y0145857D02*
X0256233Y0145857D01*
X0256233Y0146856D02*
X0120433Y0146856D01*
X0120433Y0147854D02*
X0256233Y0147854D01*
X0256233Y0148853D02*
X0120433Y0148853D01*
X0120433Y0149851D02*
X0256233Y0149851D01*
X0256233Y0150850D02*
X0120433Y0150850D01*
X0120433Y0151848D02*
X0256233Y0151848D01*
X0256233Y0152847D02*
X0120433Y0152847D01*
X0120433Y0153845D02*
X0256233Y0153845D01*
X0256233Y0154844D02*
X0120433Y0154844D01*
X0120433Y0155842D02*
X0256233Y0155842D01*
X0256233Y0156841D02*
X0120433Y0156841D01*
X0120433Y0157839D02*
X0186039Y0157839D01*
X0185663Y0158216D02*
X0186549Y0157330D01*
X0187707Y0156850D01*
X0188960Y0156850D01*
X0190118Y0157330D01*
X0190833Y0158045D01*
X0191549Y0157330D01*
X0192707Y0156850D01*
X0193960Y0156850D01*
X0195118Y0157330D01*
X0196004Y0158216D01*
X0196483Y0159373D01*
X0196483Y0160627D01*
X0196004Y0161784D01*
X0195383Y0162405D01*
X0195383Y0220849D01*
X0194182Y0222050D01*
X0186483Y0229749D01*
X0186483Y0230627D01*
X0186004Y0231784D01*
X0185118Y0232670D01*
X0183960Y0233150D01*
X0182707Y0233150D01*
X0181549Y0232670D01*
X0180663Y0231784D01*
X0180183Y0230627D01*
X0180183Y0229373D01*
X0180663Y0228216D01*
X0181549Y0227330D01*
X0182707Y0226850D01*
X0183584Y0226850D01*
X0191283Y0219151D01*
X0191283Y0162405D01*
X0190833Y0161955D01*
X0190383Y0162405D01*
X0190383Y0215849D01*
X0176483Y0229749D01*
X0176483Y0230627D01*
X0176004Y0231784D01*
X0175118Y0232670D01*
X0173960Y0233150D01*
X0172707Y0233150D01*
X0171549Y0232670D01*
X0170663Y0231784D01*
X0170183Y0230627D01*
X0170183Y0229373D01*
X0170663Y0228216D01*
X0171549Y0227330D01*
X0172707Y0226850D01*
X0173584Y0226850D01*
X0186283Y0214151D01*
X0186283Y0206107D01*
X0186004Y0206781D01*
X0185118Y0207667D01*
X0183960Y0208147D01*
X0182707Y0208147D01*
X0181549Y0207667D01*
X0180929Y0207047D01*
X0172985Y0207047D01*
X0170485Y0204547D01*
X0169284Y0203346D01*
X0169284Y0202402D01*
X0168663Y0201781D01*
X0168184Y0200623D01*
X0168184Y0199370D01*
X0168663Y0198213D01*
X0169549Y0197326D01*
X0170707Y0196847D01*
X0171960Y0196847D01*
X0173118Y0197326D01*
X0174004Y0198213D01*
X0174484Y0199370D01*
X0174484Y0200623D01*
X0174004Y0201781D01*
X0173761Y0202025D01*
X0174683Y0202947D01*
X0180929Y0202947D01*
X0181549Y0202326D01*
X0182707Y0201847D01*
X0183960Y0201847D01*
X0185118Y0202326D01*
X0186004Y0203213D01*
X0186283Y0203886D01*
X0186283Y0191110D01*
X0186004Y0191784D01*
X0185118Y0192670D01*
X0183960Y0193150D01*
X0183436Y0193150D01*
X0182286Y0194300D01*
X0159988Y0194300D01*
X0159618Y0194670D01*
X0158460Y0195150D01*
X0157207Y0195150D01*
X0156049Y0194670D01*
X0155163Y0193784D01*
X0154683Y0192627D01*
X0154683Y0191373D01*
X0155163Y0190216D01*
X0156049Y0189330D01*
X0157207Y0188850D01*
X0158460Y0188850D01*
X0159618Y0189330D01*
X0159988Y0189700D01*
X0180184Y0189700D01*
X0180184Y0189373D01*
X0180663Y0188216D01*
X0181549Y0187330D01*
X0182707Y0186850D01*
X0183960Y0186850D01*
X0185118Y0187330D01*
X0186004Y0188216D01*
X0186283Y0188889D01*
X0186283Y0162405D01*
X0185663Y0161784D01*
X0185183Y0160627D01*
X0185183Y0159373D01*
X0185663Y0158216D01*
X0185405Y0158838D02*
X0120433Y0158838D01*
X0120433Y0159836D02*
X0185183Y0159836D01*
X0185270Y0160835D02*
X0120433Y0160835D01*
X0120433Y0161833D02*
X0185712Y0161833D01*
X0186283Y0162832D02*
X0120433Y0162832D01*
X0120433Y0163830D02*
X0186283Y0163830D01*
X0186283Y0164829D02*
X0120433Y0164829D01*
X0120433Y0165827D02*
X0186283Y0165827D01*
X0186283Y0166826D02*
X0120433Y0166826D01*
X0120433Y0167824D02*
X0186283Y0167824D01*
X0186283Y0168823D02*
X0120433Y0168823D01*
X0120433Y0169821D02*
X0186283Y0169821D01*
X0186283Y0170820D02*
X0120433Y0170820D01*
X0120433Y0171818D02*
X0186283Y0171818D01*
X0186283Y0172817D02*
X0120433Y0172817D01*
X0120433Y0173815D02*
X0186283Y0173815D01*
X0186283Y0174814D02*
X0120433Y0174814D01*
X0120433Y0175812D02*
X0186283Y0175812D01*
X0186283Y0176811D02*
X0120433Y0176811D01*
X0120433Y0177809D02*
X0186283Y0177809D01*
X0186283Y0178808D02*
X0120433Y0178808D01*
X0120433Y0179806D02*
X0186283Y0179806D01*
X0186283Y0180805D02*
X0120433Y0180805D01*
X0120433Y0181803D02*
X0186283Y0181803D01*
X0186283Y0182802D02*
X0120433Y0182802D01*
X0120433Y0183801D02*
X0186283Y0183801D01*
X0186283Y0184799D02*
X0120433Y0184799D01*
X0120433Y0185798D02*
X0186283Y0185798D01*
X0186283Y0186796D02*
X0120433Y0186796D01*
X0120433Y0187795D02*
X0181084Y0187795D01*
X0180424Y0188793D02*
X0120433Y0188793D01*
X0120433Y0189792D02*
X0155587Y0189792D01*
X0154925Y0190790D02*
X0120433Y0190790D01*
X0120433Y0191789D02*
X0154683Y0191789D01*
X0154750Y0192787D02*
X0120433Y0192787D01*
X0120433Y0193786D02*
X0155164Y0193786D01*
X0156324Y0194784D02*
X0120433Y0194784D01*
X0120433Y0195783D02*
X0186283Y0195783D01*
X0186283Y0196781D02*
X0120433Y0196781D01*
X0120433Y0197780D02*
X0169096Y0197780D01*
X0168429Y0198778D02*
X0120433Y0198778D01*
X0120433Y0199777D02*
X0168184Y0199777D01*
X0168247Y0200775D02*
X0120433Y0200775D01*
X0120433Y0201774D02*
X0168660Y0201774D01*
X0169284Y0202772D02*
X0120433Y0202772D01*
X0120433Y0203771D02*
X0169708Y0203771D01*
X0170707Y0204769D02*
X0120433Y0204769D01*
X0120433Y0205768D02*
X0171705Y0205768D01*
X0172704Y0206766D02*
X0120433Y0206766D01*
X0120433Y0207765D02*
X0181785Y0207765D01*
X0184883Y0207765D02*
X0186283Y0207765D01*
X0186283Y0208763D02*
X0120433Y0208763D01*
X0120433Y0209762D02*
X0186283Y0209762D01*
X0186283Y0210760D02*
X0120433Y0210760D01*
X0120433Y0211759D02*
X0186283Y0211759D01*
X0186283Y0212757D02*
X0120433Y0212757D01*
X0120433Y0213756D02*
X0186283Y0213756D01*
X0185680Y0214754D02*
X0120433Y0214754D01*
X0120433Y0215753D02*
X0184681Y0215753D01*
X0183683Y0216751D02*
X0120433Y0216751D01*
X0120433Y0217750D02*
X0182684Y0217750D01*
X0181686Y0218748D02*
X0120433Y0218748D01*
X0120433Y0219747D02*
X0180687Y0219747D01*
X0179689Y0220745D02*
X0120433Y0220745D01*
X0120433Y0221744D02*
X0178690Y0221744D01*
X0177692Y0222742D02*
X0120433Y0222742D01*
X0120433Y0223741D02*
X0176693Y0223741D01*
X0175695Y0224739D02*
X0120433Y0224739D01*
X0120433Y0225738D02*
X0174696Y0225738D01*
X0173698Y0226737D02*
X0120433Y0226737D01*
X0120433Y0227735D02*
X0171144Y0227735D01*
X0170448Y0228734D02*
X0120433Y0228734D01*
X0120433Y0229732D02*
X0161933Y0229732D01*
X0162260Y0229597D02*
X0164408Y0229597D01*
X0166393Y0230419D01*
X0167912Y0231938D01*
X0168734Y0233923D01*
X0168734Y0236071D01*
X0167912Y0238056D01*
X0166393Y0239575D01*
X0164408Y0240397D01*
X0162260Y0240397D01*
X0160275Y0239575D01*
X0158756Y0238056D01*
X0157934Y0236071D01*
X0157934Y0233923D01*
X0158756Y0231938D01*
X0160275Y0230419D01*
X0162260Y0229597D01*
X0164734Y0229732D02*
X0170183Y0229732D01*
X0170226Y0230731D02*
X0166704Y0230731D01*
X0167703Y0231729D02*
X0170640Y0231729D01*
X0171687Y0232728D02*
X0168239Y0232728D01*
X0168652Y0233726D02*
X0256233Y0233726D01*
X0256233Y0232728D02*
X0184980Y0232728D01*
X0186027Y0231729D02*
X0256233Y0231729D01*
X0256233Y0230731D02*
X0186440Y0230731D01*
X0186500Y0229732D02*
X0256233Y0229732D01*
X0256233Y0228734D02*
X0187499Y0228734D01*
X0188497Y0227735D02*
X0256233Y0227735D01*
X0256233Y0226737D02*
X0189496Y0226737D01*
X0190494Y0225738D02*
X0256233Y0225738D01*
X0256233Y0224739D02*
X0191493Y0224739D01*
X0192491Y0223741D02*
X0256233Y0223741D01*
X0256233Y0222742D02*
X0193490Y0222742D01*
X0194489Y0221744D02*
X0256233Y0221744D01*
X0256233Y0220745D02*
X0195383Y0220745D01*
X0195383Y0219747D02*
X0256233Y0219747D01*
X0256233Y0218748D02*
X0195383Y0218748D01*
X0195383Y0217750D02*
X0256233Y0217750D01*
X0256233Y0216751D02*
X0195383Y0216751D01*
X0195383Y0215753D02*
X0256233Y0215753D01*
X0256233Y0214754D02*
X0195383Y0214754D01*
X0195383Y0213756D02*
X0256233Y0213756D01*
X0256233Y0212757D02*
X0195383Y0212757D01*
X0195383Y0211759D02*
X0256233Y0211759D01*
X0256233Y0210760D02*
X0195383Y0210760D01*
X0195383Y0209762D02*
X0256233Y0209762D01*
X0256233Y0208763D02*
X0195383Y0208763D01*
X0195383Y0207765D02*
X0256233Y0207765D01*
X0256233Y0206766D02*
X0195383Y0206766D01*
X0195383Y0205768D02*
X0256233Y0205768D01*
X0256233Y0204769D02*
X0195383Y0204769D01*
X0195383Y0203771D02*
X0256233Y0203771D01*
X0256233Y0202772D02*
X0195383Y0202772D01*
X0195383Y0201774D02*
X0256233Y0201774D01*
X0256233Y0200775D02*
X0195383Y0200775D01*
X0195383Y0199777D02*
X0256233Y0199777D01*
X0256233Y0198778D02*
X0195383Y0198778D01*
X0195383Y0197780D02*
X0256233Y0197780D01*
X0256233Y0196781D02*
X0195383Y0196781D01*
X0195383Y0195783D02*
X0256233Y0195783D01*
X0256233Y0194784D02*
X0195383Y0194784D01*
X0195383Y0193786D02*
X0256233Y0193786D01*
X0256233Y0192787D02*
X0195383Y0192787D01*
X0195383Y0191789D02*
X0256233Y0191789D01*
X0256233Y0190790D02*
X0195383Y0190790D01*
X0195383Y0189792D02*
X0256233Y0189792D01*
X0256233Y0188793D02*
X0195383Y0188793D01*
X0195383Y0187795D02*
X0236849Y0187795D01*
X0236549Y0187670D02*
X0235663Y0186784D01*
X0235183Y0185627D01*
X0235183Y0185103D01*
X0232381Y0182300D01*
X0205488Y0182300D01*
X0205118Y0182670D01*
X0203960Y0183150D01*
X0202707Y0183150D01*
X0201549Y0182670D01*
X0200663Y0181784D01*
X0200183Y0180627D01*
X0200183Y0179373D01*
X0200663Y0178216D01*
X0201549Y0177330D01*
X0202707Y0176850D01*
X0203960Y0176850D01*
X0205118Y0177330D01*
X0205488Y0177700D01*
X0234286Y0177700D01*
X0238436Y0181850D01*
X0238960Y0181850D01*
X0240118Y0182330D01*
X0241004Y0183216D01*
X0241483Y0184373D01*
X0241483Y0185627D01*
X0241004Y0186784D01*
X0240118Y0187670D01*
X0238960Y0188150D01*
X0237707Y0188150D01*
X0236549Y0187670D01*
X0235675Y0186796D02*
X0195383Y0186796D01*
X0195383Y0185798D02*
X0235254Y0185798D01*
X0234880Y0184799D02*
X0195383Y0184799D01*
X0195383Y0183801D02*
X0233881Y0183801D01*
X0232883Y0182802D02*
X0204800Y0182802D01*
X0201867Y0182802D02*
X0195383Y0182802D01*
X0195383Y0181803D02*
X0200682Y0181803D01*
X0200257Y0180805D02*
X0195383Y0180805D01*
X0195383Y0179806D02*
X0200183Y0179806D01*
X0200418Y0178808D02*
X0195383Y0178808D01*
X0195383Y0177809D02*
X0201069Y0177809D01*
X0195383Y0176811D02*
X0256233Y0176811D01*
X0256233Y0177809D02*
X0234395Y0177809D01*
X0235394Y0178808D02*
X0256233Y0178808D01*
X0256233Y0179806D02*
X0236392Y0179806D01*
X0237391Y0180805D02*
X0256233Y0180805D01*
X0256233Y0181803D02*
X0238390Y0181803D01*
X0240590Y0182802D02*
X0256233Y0182802D01*
X0256233Y0183801D02*
X0241246Y0183801D01*
X0241483Y0184799D02*
X0256233Y0184799D01*
X0256233Y0185798D02*
X0241413Y0185798D01*
X0240992Y0186796D02*
X0256233Y0186796D01*
X0256233Y0187795D02*
X0239818Y0187795D01*
X0256233Y0175812D02*
X0195383Y0175812D01*
X0195383Y0174814D02*
X0256233Y0174814D01*
X0256233Y0173815D02*
X0195383Y0173815D01*
X0195383Y0172817D02*
X0256233Y0172817D01*
X0256233Y0171818D02*
X0195383Y0171818D01*
X0195383Y0170820D02*
X0256233Y0170820D01*
X0256233Y0169821D02*
X0195383Y0169821D01*
X0195383Y0168823D02*
X0256233Y0168823D01*
X0256233Y0167824D02*
X0195383Y0167824D01*
X0195383Y0166826D02*
X0256233Y0166826D01*
X0256233Y0165827D02*
X0195383Y0165827D01*
X0195383Y0164829D02*
X0256233Y0164829D01*
X0256233Y0163830D02*
X0195383Y0163830D01*
X0195383Y0162832D02*
X0256233Y0162832D01*
X0256233Y0161833D02*
X0195955Y0161833D01*
X0196397Y0160835D02*
X0256233Y0160835D01*
X0256233Y0159836D02*
X0196483Y0159836D01*
X0196261Y0158838D02*
X0256233Y0158838D01*
X0256233Y0157839D02*
X0195627Y0157839D01*
X0191039Y0157839D02*
X0190627Y0157839D01*
X0190383Y0162832D02*
X0191283Y0162832D01*
X0191283Y0163830D02*
X0190383Y0163830D01*
X0190383Y0164829D02*
X0191283Y0164829D01*
X0191283Y0165827D02*
X0190383Y0165827D01*
X0190383Y0166826D02*
X0191283Y0166826D01*
X0191283Y0167824D02*
X0190383Y0167824D01*
X0190383Y0168823D02*
X0191283Y0168823D01*
X0191283Y0169821D02*
X0190383Y0169821D01*
X0190383Y0170820D02*
X0191283Y0170820D01*
X0191283Y0171818D02*
X0190383Y0171818D01*
X0190383Y0172817D02*
X0191283Y0172817D01*
X0191283Y0173815D02*
X0190383Y0173815D01*
X0190383Y0174814D02*
X0191283Y0174814D01*
X0191283Y0175812D02*
X0190383Y0175812D01*
X0190383Y0176811D02*
X0191283Y0176811D01*
X0191283Y0177809D02*
X0190383Y0177809D01*
X0190383Y0178808D02*
X0191283Y0178808D01*
X0191283Y0179806D02*
X0190383Y0179806D01*
X0190383Y0180805D02*
X0191283Y0180805D01*
X0191283Y0181803D02*
X0190383Y0181803D01*
X0190383Y0182802D02*
X0191283Y0182802D01*
X0191283Y0183801D02*
X0190383Y0183801D01*
X0190383Y0184799D02*
X0191283Y0184799D01*
X0191283Y0185798D02*
X0190383Y0185798D01*
X0190383Y0186796D02*
X0191283Y0186796D01*
X0191283Y0187795D02*
X0190383Y0187795D01*
X0190383Y0188793D02*
X0191283Y0188793D01*
X0191283Y0189792D02*
X0190383Y0189792D01*
X0190383Y0190790D02*
X0191283Y0190790D01*
X0191283Y0191789D02*
X0190383Y0191789D01*
X0190383Y0192787D02*
X0191283Y0192787D01*
X0191283Y0193786D02*
X0190383Y0193786D01*
X0190383Y0194784D02*
X0191283Y0194784D01*
X0191283Y0195783D02*
X0190383Y0195783D01*
X0190383Y0196781D02*
X0191283Y0196781D01*
X0191283Y0197780D02*
X0190383Y0197780D01*
X0190383Y0198778D02*
X0191283Y0198778D01*
X0191283Y0199777D02*
X0190383Y0199777D01*
X0190383Y0200775D02*
X0191283Y0200775D01*
X0191283Y0201774D02*
X0190383Y0201774D01*
X0190383Y0202772D02*
X0191283Y0202772D01*
X0191283Y0203771D02*
X0190383Y0203771D01*
X0190383Y0204769D02*
X0191283Y0204769D01*
X0191283Y0205768D02*
X0190383Y0205768D01*
X0190383Y0206766D02*
X0191283Y0206766D01*
X0191283Y0207765D02*
X0190383Y0207765D01*
X0190383Y0208763D02*
X0191283Y0208763D01*
X0191283Y0209762D02*
X0190383Y0209762D01*
X0190383Y0210760D02*
X0191283Y0210760D01*
X0191283Y0211759D02*
X0190383Y0211759D01*
X0190383Y0212757D02*
X0191283Y0212757D01*
X0191283Y0213756D02*
X0190383Y0213756D01*
X0190383Y0214754D02*
X0191283Y0214754D01*
X0191283Y0215753D02*
X0190383Y0215753D01*
X0191283Y0216751D02*
X0189481Y0216751D01*
X0188483Y0217750D02*
X0191283Y0217750D01*
X0191283Y0218748D02*
X0187484Y0218748D01*
X0186486Y0219747D02*
X0190687Y0219747D01*
X0189689Y0220745D02*
X0185487Y0220745D01*
X0184489Y0221744D02*
X0188690Y0221744D01*
X0187692Y0222742D02*
X0183490Y0222742D01*
X0182491Y0223741D02*
X0186693Y0223741D01*
X0185695Y0224739D02*
X0181493Y0224739D01*
X0180494Y0225738D02*
X0184696Y0225738D01*
X0183698Y0226737D02*
X0179496Y0226737D01*
X0178497Y0227735D02*
X0181144Y0227735D01*
X0180448Y0228734D02*
X0177499Y0228734D01*
X0176500Y0229732D02*
X0180183Y0229732D01*
X0180226Y0230731D02*
X0176440Y0230731D01*
X0176027Y0231729D02*
X0180640Y0231729D01*
X0181687Y0232728D02*
X0174980Y0232728D01*
X0168734Y0234725D02*
X0256233Y0234725D01*
X0256233Y0235723D02*
X0168734Y0235723D01*
X0168464Y0236722D02*
X0256233Y0236722D01*
X0256233Y0237720D02*
X0168051Y0237720D01*
X0167249Y0238719D02*
X0256233Y0238719D01*
X0256233Y0239717D02*
X0166049Y0239717D01*
X0160619Y0239717D02*
X0120433Y0239717D01*
X0120433Y0238719D02*
X0159419Y0238719D01*
X0158617Y0237720D02*
X0120433Y0237720D01*
X0120433Y0236722D02*
X0158203Y0236722D01*
X0157934Y0235723D02*
X0120433Y0235723D01*
X0120433Y0234725D02*
X0157934Y0234725D01*
X0158015Y0233726D02*
X0120433Y0233726D01*
X0120433Y0232728D02*
X0158429Y0232728D01*
X0158965Y0231729D02*
X0120433Y0231729D01*
X0120433Y0230731D02*
X0159963Y0230731D01*
X0135645Y0248865D02*
X0135645Y0248865D01*
X0135645Y0248865D01*
X0135454Y0248704D02*
X0241213Y0248704D01*
X0240538Y0249702D02*
X0136129Y0249702D01*
X0136705Y0250701D02*
X0239961Y0250701D01*
X0239385Y0251699D02*
X0137282Y0251699D01*
X0137472Y0252698D02*
X0239194Y0252698D01*
X0239364Y0251735D02*
X0239364Y0251735D01*
X0239018Y0253696D02*
X0137648Y0253696D01*
X0137825Y0254695D02*
X0238842Y0254695D01*
X0238788Y0255000D02*
X0238788Y0255000D01*
X0238911Y0255693D02*
X0137756Y0255693D01*
X0137878Y0255000D02*
X0137878Y0255000D01*
X0139933Y0256692D02*
X0239087Y0256692D01*
X0239263Y0257690D02*
X0141212Y0257690D01*
X0141761Y0258689D02*
X0239609Y0258689D01*
X0240185Y0259687D02*
X0142002Y0259687D01*
X0142002Y0260686D02*
X0240762Y0260686D01*
X0241021Y0261135D02*
X0241021Y0261135D01*
X0241021Y0261135D01*
X0241676Y0261684D02*
X0141606Y0261684D01*
X0140838Y0262683D02*
X0242866Y0262683D01*
X0256129Y0249702D02*
X0256233Y0249702D01*
X0256233Y0248704D02*
X0255454Y0248704D01*
X0256233Y0247705D02*
X0254264Y0247705D01*
X0253106Y0246734D02*
X0253106Y0246734D01*
X0253032Y0246707D02*
X0256233Y0246707D01*
X0256233Y0245708D02*
X0250288Y0245708D01*
X0246379Y0245708D02*
X0130288Y0245708D01*
X0129991Y0245600D02*
X0129991Y0245600D01*
X0133032Y0246707D02*
X0243635Y0246707D01*
X0243561Y0246734D02*
X0243561Y0246734D01*
X0242403Y0247705D02*
X0134264Y0247705D01*
X0133106Y0246734D02*
X0133106Y0246734D01*
X0126379Y0245708D02*
X0120433Y0245708D01*
X0120433Y0244710D02*
X0256233Y0244710D01*
X0256233Y0243711D02*
X0120433Y0243711D01*
X0120433Y0242713D02*
X0256233Y0242713D01*
X0256233Y0241714D02*
X0120433Y0241714D01*
X0120433Y0240716D02*
X0256233Y0240716D01*
X0186283Y0206766D02*
X0186010Y0206766D01*
X0186235Y0203771D02*
X0186283Y0203771D01*
X0186283Y0202772D02*
X0185564Y0202772D01*
X0186283Y0201774D02*
X0174007Y0201774D01*
X0174421Y0200775D02*
X0186283Y0200775D01*
X0186283Y0199777D02*
X0174484Y0199777D01*
X0174239Y0198778D02*
X0186283Y0198778D01*
X0186283Y0197780D02*
X0173571Y0197780D01*
X0174508Y0202772D02*
X0181104Y0202772D01*
X0182801Y0193786D02*
X0186283Y0193786D01*
X0186283Y0194784D02*
X0159343Y0194784D01*
X0184836Y0192787D02*
X0186283Y0192787D01*
X0186283Y0191789D02*
X0186000Y0191789D01*
X0186243Y0188793D02*
X0186283Y0188793D01*
X0186283Y0187795D02*
X0185583Y0187795D01*
X0123635Y0246707D02*
X0120433Y0246707D01*
X0120433Y0247705D02*
X0122403Y0247705D01*
X0123561Y0246734D02*
X0123561Y0246734D01*
X0121213Y0248704D02*
X0120433Y0248704D01*
X0120433Y0249702D02*
X0120538Y0249702D01*
X0131167Y0068972D02*
X0245499Y0068972D01*
X0243561Y0068266D02*
X0243561Y0068266D01*
X0243212Y0067973D02*
X0133455Y0067973D01*
X0134645Y0066975D02*
X0242022Y0066975D01*
X0241021Y0066135D02*
X0241021Y0066135D01*
X0240929Y0065976D02*
X0135737Y0065976D01*
X0136314Y0064978D02*
X0240353Y0064978D01*
X0239777Y0063979D02*
X0136890Y0063979D01*
X0137303Y0063265D02*
X0137303Y0063265D01*
X0137353Y0062981D02*
X0239314Y0062981D01*
X0239138Y0061982D02*
X0137529Y0061982D01*
X0137705Y0060984D02*
X0215107Y0060984D01*
X0214108Y0059985D02*
X0137876Y0059985D01*
X0137878Y0060000D02*
X0137878Y0060000D01*
X0137700Y0058987D02*
X0213982Y0058987D01*
X0213982Y0057988D02*
X0137524Y0057988D01*
X0137348Y0056990D02*
X0213982Y0056990D01*
X0213982Y0055991D02*
X0136873Y0055991D01*
X0136296Y0054993D02*
X0213982Y0054993D01*
X0212654Y0053994D02*
X0135720Y0053994D01*
X0135645Y0053865D02*
X0135645Y0053865D01*
X0135645Y0053865D01*
X0134610Y0052996D02*
X0211713Y0052996D01*
X0218455Y0059985D02*
X0220340Y0059985D01*
X0221339Y0060984D02*
X0217456Y0060984D01*
X0225957Y0060984D02*
X0238962Y0060984D01*
X0238788Y0060000D02*
X0238788Y0060000D01*
X0238791Y0059985D02*
X0226956Y0059985D01*
X0227954Y0058987D02*
X0228301Y0058987D01*
X0228971Y0058987D02*
X0233058Y0058987D01*
X0233727Y0058987D02*
X0238967Y0058987D01*
X0236133Y0057988D02*
X0235257Y0057988D01*
X0231387Y0057988D02*
X0230642Y0057988D01*
D14*
X0231834Y0083997D03*
X0231834Y0124497D03*
X0198334Y0129997D03*
X0188333Y0145000D03*
X0178334Y0129997D03*
X0158333Y0119000D03*
X0143334Y0119997D03*
X0143334Y0139997D03*
X0148334Y0158997D03*
X0143334Y0179997D03*
X0157833Y0192000D03*
X0144834Y0198497D03*
X0171334Y0199997D03*
X0183334Y0204997D03*
X0173333Y0215000D03*
X0173333Y0230000D03*
X0183333Y0230000D03*
X0203333Y0215000D03*
X0231833Y0204000D03*
X0233333Y0195000D03*
X0238333Y0185000D03*
X0231833Y0165000D03*
X0231833Y0155000D03*
X0203333Y0180000D03*
X0183334Y0190000D03*
X0178334Y0182997D03*
X0188333Y0160000D03*
X0193333Y0160000D03*
X0158333Y0101000D03*
X0143334Y0099997D03*
X0148334Y0079997D03*
X0145833Y0260000D03*
X0218333Y0260000D03*
D15*
X0183333Y0230000D02*
X0193333Y0220000D01*
X0193333Y0160000D01*
X0188333Y0160000D02*
X0188333Y0215000D01*
X0173333Y0230000D01*
X0173834Y0204997D02*
X0171334Y0202497D01*
X0171334Y0199997D01*
X0173834Y0204997D02*
X0183334Y0204997D01*
X0158333Y0119000D02*
X0158333Y0101000D01*
M02*
