G75*
%MOIN*%
%OFA0B0*%
%FSLAX25Y25*%
%IPPOS*%
%LPD*%
%AMOC8*
5,1,8,0,0,1.08239X$1,22.5*
%
%ADD10C,0.00800*%
%ADD11C,0.01000*%
%ADD12C,0.01100*%
%ADD13C,0.00000*%
D10*
X0063333Y0023333D02*
X0223333Y0023333D01*
X0223333Y0238333D01*
X0063333Y0238333D01*
X0063333Y0023333D01*
X0225333Y0023333D02*
X0385333Y0023333D01*
X0385333Y0238333D01*
X0225333Y0238333D01*
X0225333Y0023333D01*
X0225333Y0240333D02*
X0385333Y0240333D01*
X0385333Y0455333D01*
X0225333Y0455333D01*
X0225333Y0240333D01*
X0223333Y0240333D02*
X0063333Y0240333D01*
X0063333Y0455333D01*
X0223333Y0455333D01*
X0223333Y0240333D01*
D11*
X0050333Y0239333D02*
X0413333Y0239333D01*
X0224333Y0012333D02*
X0224333Y0470333D01*
D12*
X0044435Y0242820D02*
X0045419Y0241836D01*
X0045419Y0240852D01*
X0041482Y0240852D01*
X0041482Y0241836D02*
X0042466Y0242820D01*
X0044435Y0242820D01*
X0041482Y0241836D02*
X0041482Y0239867D01*
X0042466Y0238883D01*
X0044435Y0238883D01*
X0039063Y0242820D02*
X0038079Y0242820D01*
X0036111Y0240852D01*
X0036111Y0242820D02*
X0036111Y0238883D01*
X0033602Y0239867D02*
X0033602Y0241836D01*
X0032618Y0242820D01*
X0030649Y0242820D01*
X0029665Y0241836D01*
X0029665Y0239867D01*
X0030649Y0238883D01*
X0032618Y0238883D01*
X0033602Y0239867D01*
X0027157Y0238883D02*
X0024204Y0238883D01*
X0023220Y0239867D01*
X0023220Y0241836D01*
X0024204Y0242820D01*
X0027157Y0242820D01*
X0020711Y0242820D02*
X0017758Y0242820D01*
X0016774Y0241836D01*
X0017758Y0240852D01*
X0019727Y0240852D01*
X0020711Y0239867D01*
X0019727Y0238883D01*
X0016774Y0238883D01*
X0014266Y0241836D02*
X0010329Y0241836D01*
X0007820Y0240852D02*
X0005852Y0238883D01*
X0003883Y0240852D01*
X0003883Y0244788D01*
X0007820Y0244788D02*
X0007820Y0240852D01*
X0208883Y0009788D02*
X0208883Y0005852D01*
X0210852Y0003883D01*
X0212820Y0005852D01*
X0212820Y0009788D01*
X0215329Y0006836D02*
X0219266Y0006836D01*
X0221774Y0006836D02*
X0222758Y0007820D01*
X0225711Y0007820D01*
X0224727Y0005852D02*
X0222758Y0005852D01*
X0221774Y0006836D01*
X0221774Y0003883D02*
X0224727Y0003883D01*
X0225711Y0004867D01*
X0224727Y0005852D01*
X0228220Y0006836D02*
X0228220Y0004867D01*
X0229204Y0003883D01*
X0232157Y0003883D01*
X0234665Y0004867D02*
X0235649Y0003883D01*
X0237618Y0003883D01*
X0238602Y0004867D01*
X0238602Y0006836D01*
X0237618Y0007820D01*
X0235649Y0007820D01*
X0234665Y0006836D01*
X0234665Y0004867D01*
X0232157Y0007820D02*
X0229204Y0007820D01*
X0228220Y0006836D01*
X0241111Y0007820D02*
X0241111Y0003883D01*
X0241111Y0005852D02*
X0243079Y0007820D01*
X0244063Y0007820D01*
X0246482Y0006836D02*
X0247466Y0007820D01*
X0249435Y0007820D01*
X0250419Y0006836D01*
X0250419Y0005852D01*
X0246482Y0005852D01*
X0246482Y0006836D02*
X0246482Y0004867D01*
X0247466Y0003883D01*
X0249435Y0003883D01*
D13*
X0228833Y0033333D02*
X0228835Y0033494D01*
X0228841Y0033654D01*
X0228851Y0033815D01*
X0228865Y0033975D01*
X0228883Y0034135D01*
X0228904Y0034294D01*
X0228930Y0034453D01*
X0228960Y0034611D01*
X0228993Y0034768D01*
X0229031Y0034925D01*
X0229072Y0035080D01*
X0229117Y0035234D01*
X0229166Y0035387D01*
X0229219Y0035539D01*
X0229275Y0035690D01*
X0229336Y0035839D01*
X0229399Y0035987D01*
X0229467Y0036133D01*
X0229538Y0036277D01*
X0229612Y0036419D01*
X0229690Y0036560D01*
X0229772Y0036698D01*
X0229857Y0036835D01*
X0229945Y0036969D01*
X0230037Y0037101D01*
X0230132Y0037231D01*
X0230230Y0037359D01*
X0230331Y0037484D01*
X0230435Y0037606D01*
X0230542Y0037726D01*
X0230652Y0037843D01*
X0230765Y0037958D01*
X0230881Y0038069D01*
X0231000Y0038178D01*
X0231121Y0038283D01*
X0231245Y0038386D01*
X0231371Y0038486D01*
X0231499Y0038582D01*
X0231630Y0038675D01*
X0231764Y0038765D01*
X0231899Y0038852D01*
X0232037Y0038935D01*
X0232176Y0039015D01*
X0232318Y0039091D01*
X0232461Y0039164D01*
X0232606Y0039233D01*
X0232753Y0039299D01*
X0232901Y0039361D01*
X0233051Y0039419D01*
X0233202Y0039474D01*
X0233355Y0039525D01*
X0233509Y0039572D01*
X0233664Y0039615D01*
X0233820Y0039654D01*
X0233976Y0039690D01*
X0234134Y0039721D01*
X0234292Y0039749D01*
X0234451Y0039773D01*
X0234611Y0039793D01*
X0234771Y0039809D01*
X0234931Y0039821D01*
X0235092Y0039829D01*
X0235253Y0039833D01*
X0235413Y0039833D01*
X0235574Y0039829D01*
X0235735Y0039821D01*
X0235895Y0039809D01*
X0236055Y0039793D01*
X0236215Y0039773D01*
X0236374Y0039749D01*
X0236532Y0039721D01*
X0236690Y0039690D01*
X0236846Y0039654D01*
X0237002Y0039615D01*
X0237157Y0039572D01*
X0237311Y0039525D01*
X0237464Y0039474D01*
X0237615Y0039419D01*
X0237765Y0039361D01*
X0237913Y0039299D01*
X0238060Y0039233D01*
X0238205Y0039164D01*
X0238348Y0039091D01*
X0238490Y0039015D01*
X0238629Y0038935D01*
X0238767Y0038852D01*
X0238902Y0038765D01*
X0239036Y0038675D01*
X0239167Y0038582D01*
X0239295Y0038486D01*
X0239421Y0038386D01*
X0239545Y0038283D01*
X0239666Y0038178D01*
X0239785Y0038069D01*
X0239901Y0037958D01*
X0240014Y0037843D01*
X0240124Y0037726D01*
X0240231Y0037606D01*
X0240335Y0037484D01*
X0240436Y0037359D01*
X0240534Y0037231D01*
X0240629Y0037101D01*
X0240721Y0036969D01*
X0240809Y0036835D01*
X0240894Y0036698D01*
X0240976Y0036560D01*
X0241054Y0036419D01*
X0241128Y0036277D01*
X0241199Y0036133D01*
X0241267Y0035987D01*
X0241330Y0035839D01*
X0241391Y0035690D01*
X0241447Y0035539D01*
X0241500Y0035387D01*
X0241549Y0035234D01*
X0241594Y0035080D01*
X0241635Y0034925D01*
X0241673Y0034768D01*
X0241706Y0034611D01*
X0241736Y0034453D01*
X0241762Y0034294D01*
X0241783Y0034135D01*
X0241801Y0033975D01*
X0241815Y0033815D01*
X0241825Y0033654D01*
X0241831Y0033494D01*
X0241833Y0033333D01*
X0241831Y0033172D01*
X0241825Y0033012D01*
X0241815Y0032851D01*
X0241801Y0032691D01*
X0241783Y0032531D01*
X0241762Y0032372D01*
X0241736Y0032213D01*
X0241706Y0032055D01*
X0241673Y0031898D01*
X0241635Y0031741D01*
X0241594Y0031586D01*
X0241549Y0031432D01*
X0241500Y0031279D01*
X0241447Y0031127D01*
X0241391Y0030976D01*
X0241330Y0030827D01*
X0241267Y0030679D01*
X0241199Y0030533D01*
X0241128Y0030389D01*
X0241054Y0030247D01*
X0240976Y0030106D01*
X0240894Y0029968D01*
X0240809Y0029831D01*
X0240721Y0029697D01*
X0240629Y0029565D01*
X0240534Y0029435D01*
X0240436Y0029307D01*
X0240335Y0029182D01*
X0240231Y0029060D01*
X0240124Y0028940D01*
X0240014Y0028823D01*
X0239901Y0028708D01*
X0239785Y0028597D01*
X0239666Y0028488D01*
X0239545Y0028383D01*
X0239421Y0028280D01*
X0239295Y0028180D01*
X0239167Y0028084D01*
X0239036Y0027991D01*
X0238902Y0027901D01*
X0238767Y0027814D01*
X0238629Y0027731D01*
X0238490Y0027651D01*
X0238348Y0027575D01*
X0238205Y0027502D01*
X0238060Y0027433D01*
X0237913Y0027367D01*
X0237765Y0027305D01*
X0237615Y0027247D01*
X0237464Y0027192D01*
X0237311Y0027141D01*
X0237157Y0027094D01*
X0237002Y0027051D01*
X0236846Y0027012D01*
X0236690Y0026976D01*
X0236532Y0026945D01*
X0236374Y0026917D01*
X0236215Y0026893D01*
X0236055Y0026873D01*
X0235895Y0026857D01*
X0235735Y0026845D01*
X0235574Y0026837D01*
X0235413Y0026833D01*
X0235253Y0026833D01*
X0235092Y0026837D01*
X0234931Y0026845D01*
X0234771Y0026857D01*
X0234611Y0026873D01*
X0234451Y0026893D01*
X0234292Y0026917D01*
X0234134Y0026945D01*
X0233976Y0026976D01*
X0233820Y0027012D01*
X0233664Y0027051D01*
X0233509Y0027094D01*
X0233355Y0027141D01*
X0233202Y0027192D01*
X0233051Y0027247D01*
X0232901Y0027305D01*
X0232753Y0027367D01*
X0232606Y0027433D01*
X0232461Y0027502D01*
X0232318Y0027575D01*
X0232176Y0027651D01*
X0232037Y0027731D01*
X0231899Y0027814D01*
X0231764Y0027901D01*
X0231630Y0027991D01*
X0231499Y0028084D01*
X0231371Y0028180D01*
X0231245Y0028280D01*
X0231121Y0028383D01*
X0231000Y0028488D01*
X0230881Y0028597D01*
X0230765Y0028708D01*
X0230652Y0028823D01*
X0230542Y0028940D01*
X0230435Y0029060D01*
X0230331Y0029182D01*
X0230230Y0029307D01*
X0230132Y0029435D01*
X0230037Y0029565D01*
X0229945Y0029697D01*
X0229857Y0029831D01*
X0229772Y0029968D01*
X0229690Y0030106D01*
X0229612Y0030247D01*
X0229538Y0030389D01*
X0229467Y0030533D01*
X0229399Y0030679D01*
X0229336Y0030827D01*
X0229275Y0030976D01*
X0229219Y0031127D01*
X0229166Y0031279D01*
X0229117Y0031432D01*
X0229072Y0031586D01*
X0229031Y0031741D01*
X0228993Y0031898D01*
X0228960Y0032055D01*
X0228930Y0032213D01*
X0228904Y0032372D01*
X0228883Y0032531D01*
X0228865Y0032691D01*
X0228851Y0032851D01*
X0228841Y0033012D01*
X0228835Y0033172D01*
X0228833Y0033333D01*
X0206833Y0033333D02*
X0206835Y0033494D01*
X0206841Y0033654D01*
X0206851Y0033815D01*
X0206865Y0033975D01*
X0206883Y0034135D01*
X0206904Y0034294D01*
X0206930Y0034453D01*
X0206960Y0034611D01*
X0206993Y0034768D01*
X0207031Y0034925D01*
X0207072Y0035080D01*
X0207117Y0035234D01*
X0207166Y0035387D01*
X0207219Y0035539D01*
X0207275Y0035690D01*
X0207336Y0035839D01*
X0207399Y0035987D01*
X0207467Y0036133D01*
X0207538Y0036277D01*
X0207612Y0036419D01*
X0207690Y0036560D01*
X0207772Y0036698D01*
X0207857Y0036835D01*
X0207945Y0036969D01*
X0208037Y0037101D01*
X0208132Y0037231D01*
X0208230Y0037359D01*
X0208331Y0037484D01*
X0208435Y0037606D01*
X0208542Y0037726D01*
X0208652Y0037843D01*
X0208765Y0037958D01*
X0208881Y0038069D01*
X0209000Y0038178D01*
X0209121Y0038283D01*
X0209245Y0038386D01*
X0209371Y0038486D01*
X0209499Y0038582D01*
X0209630Y0038675D01*
X0209764Y0038765D01*
X0209899Y0038852D01*
X0210037Y0038935D01*
X0210176Y0039015D01*
X0210318Y0039091D01*
X0210461Y0039164D01*
X0210606Y0039233D01*
X0210753Y0039299D01*
X0210901Y0039361D01*
X0211051Y0039419D01*
X0211202Y0039474D01*
X0211355Y0039525D01*
X0211509Y0039572D01*
X0211664Y0039615D01*
X0211820Y0039654D01*
X0211976Y0039690D01*
X0212134Y0039721D01*
X0212292Y0039749D01*
X0212451Y0039773D01*
X0212611Y0039793D01*
X0212771Y0039809D01*
X0212931Y0039821D01*
X0213092Y0039829D01*
X0213253Y0039833D01*
X0213413Y0039833D01*
X0213574Y0039829D01*
X0213735Y0039821D01*
X0213895Y0039809D01*
X0214055Y0039793D01*
X0214215Y0039773D01*
X0214374Y0039749D01*
X0214532Y0039721D01*
X0214690Y0039690D01*
X0214846Y0039654D01*
X0215002Y0039615D01*
X0215157Y0039572D01*
X0215311Y0039525D01*
X0215464Y0039474D01*
X0215615Y0039419D01*
X0215765Y0039361D01*
X0215913Y0039299D01*
X0216060Y0039233D01*
X0216205Y0039164D01*
X0216348Y0039091D01*
X0216490Y0039015D01*
X0216629Y0038935D01*
X0216767Y0038852D01*
X0216902Y0038765D01*
X0217036Y0038675D01*
X0217167Y0038582D01*
X0217295Y0038486D01*
X0217421Y0038386D01*
X0217545Y0038283D01*
X0217666Y0038178D01*
X0217785Y0038069D01*
X0217901Y0037958D01*
X0218014Y0037843D01*
X0218124Y0037726D01*
X0218231Y0037606D01*
X0218335Y0037484D01*
X0218436Y0037359D01*
X0218534Y0037231D01*
X0218629Y0037101D01*
X0218721Y0036969D01*
X0218809Y0036835D01*
X0218894Y0036698D01*
X0218976Y0036560D01*
X0219054Y0036419D01*
X0219128Y0036277D01*
X0219199Y0036133D01*
X0219267Y0035987D01*
X0219330Y0035839D01*
X0219391Y0035690D01*
X0219447Y0035539D01*
X0219500Y0035387D01*
X0219549Y0035234D01*
X0219594Y0035080D01*
X0219635Y0034925D01*
X0219673Y0034768D01*
X0219706Y0034611D01*
X0219736Y0034453D01*
X0219762Y0034294D01*
X0219783Y0034135D01*
X0219801Y0033975D01*
X0219815Y0033815D01*
X0219825Y0033654D01*
X0219831Y0033494D01*
X0219833Y0033333D01*
X0219831Y0033172D01*
X0219825Y0033012D01*
X0219815Y0032851D01*
X0219801Y0032691D01*
X0219783Y0032531D01*
X0219762Y0032372D01*
X0219736Y0032213D01*
X0219706Y0032055D01*
X0219673Y0031898D01*
X0219635Y0031741D01*
X0219594Y0031586D01*
X0219549Y0031432D01*
X0219500Y0031279D01*
X0219447Y0031127D01*
X0219391Y0030976D01*
X0219330Y0030827D01*
X0219267Y0030679D01*
X0219199Y0030533D01*
X0219128Y0030389D01*
X0219054Y0030247D01*
X0218976Y0030106D01*
X0218894Y0029968D01*
X0218809Y0029831D01*
X0218721Y0029697D01*
X0218629Y0029565D01*
X0218534Y0029435D01*
X0218436Y0029307D01*
X0218335Y0029182D01*
X0218231Y0029060D01*
X0218124Y0028940D01*
X0218014Y0028823D01*
X0217901Y0028708D01*
X0217785Y0028597D01*
X0217666Y0028488D01*
X0217545Y0028383D01*
X0217421Y0028280D01*
X0217295Y0028180D01*
X0217167Y0028084D01*
X0217036Y0027991D01*
X0216902Y0027901D01*
X0216767Y0027814D01*
X0216629Y0027731D01*
X0216490Y0027651D01*
X0216348Y0027575D01*
X0216205Y0027502D01*
X0216060Y0027433D01*
X0215913Y0027367D01*
X0215765Y0027305D01*
X0215615Y0027247D01*
X0215464Y0027192D01*
X0215311Y0027141D01*
X0215157Y0027094D01*
X0215002Y0027051D01*
X0214846Y0027012D01*
X0214690Y0026976D01*
X0214532Y0026945D01*
X0214374Y0026917D01*
X0214215Y0026893D01*
X0214055Y0026873D01*
X0213895Y0026857D01*
X0213735Y0026845D01*
X0213574Y0026837D01*
X0213413Y0026833D01*
X0213253Y0026833D01*
X0213092Y0026837D01*
X0212931Y0026845D01*
X0212771Y0026857D01*
X0212611Y0026873D01*
X0212451Y0026893D01*
X0212292Y0026917D01*
X0212134Y0026945D01*
X0211976Y0026976D01*
X0211820Y0027012D01*
X0211664Y0027051D01*
X0211509Y0027094D01*
X0211355Y0027141D01*
X0211202Y0027192D01*
X0211051Y0027247D01*
X0210901Y0027305D01*
X0210753Y0027367D01*
X0210606Y0027433D01*
X0210461Y0027502D01*
X0210318Y0027575D01*
X0210176Y0027651D01*
X0210037Y0027731D01*
X0209899Y0027814D01*
X0209764Y0027901D01*
X0209630Y0027991D01*
X0209499Y0028084D01*
X0209371Y0028180D01*
X0209245Y0028280D01*
X0209121Y0028383D01*
X0209000Y0028488D01*
X0208881Y0028597D01*
X0208765Y0028708D01*
X0208652Y0028823D01*
X0208542Y0028940D01*
X0208435Y0029060D01*
X0208331Y0029182D01*
X0208230Y0029307D01*
X0208132Y0029435D01*
X0208037Y0029565D01*
X0207945Y0029697D01*
X0207857Y0029831D01*
X0207772Y0029968D01*
X0207690Y0030106D01*
X0207612Y0030247D01*
X0207538Y0030389D01*
X0207467Y0030533D01*
X0207399Y0030679D01*
X0207336Y0030827D01*
X0207275Y0030976D01*
X0207219Y0031127D01*
X0207166Y0031279D01*
X0207117Y0031432D01*
X0207072Y0031586D01*
X0207031Y0031741D01*
X0206993Y0031898D01*
X0206960Y0032055D01*
X0206930Y0032213D01*
X0206904Y0032372D01*
X0206883Y0032531D01*
X0206865Y0032691D01*
X0206851Y0032851D01*
X0206841Y0033012D01*
X0206835Y0033172D01*
X0206833Y0033333D01*
X0066833Y0033333D02*
X0066835Y0033494D01*
X0066841Y0033654D01*
X0066851Y0033815D01*
X0066865Y0033975D01*
X0066883Y0034135D01*
X0066904Y0034294D01*
X0066930Y0034453D01*
X0066960Y0034611D01*
X0066993Y0034768D01*
X0067031Y0034925D01*
X0067072Y0035080D01*
X0067117Y0035234D01*
X0067166Y0035387D01*
X0067219Y0035539D01*
X0067275Y0035690D01*
X0067336Y0035839D01*
X0067399Y0035987D01*
X0067467Y0036133D01*
X0067538Y0036277D01*
X0067612Y0036419D01*
X0067690Y0036560D01*
X0067772Y0036698D01*
X0067857Y0036835D01*
X0067945Y0036969D01*
X0068037Y0037101D01*
X0068132Y0037231D01*
X0068230Y0037359D01*
X0068331Y0037484D01*
X0068435Y0037606D01*
X0068542Y0037726D01*
X0068652Y0037843D01*
X0068765Y0037958D01*
X0068881Y0038069D01*
X0069000Y0038178D01*
X0069121Y0038283D01*
X0069245Y0038386D01*
X0069371Y0038486D01*
X0069499Y0038582D01*
X0069630Y0038675D01*
X0069764Y0038765D01*
X0069899Y0038852D01*
X0070037Y0038935D01*
X0070176Y0039015D01*
X0070318Y0039091D01*
X0070461Y0039164D01*
X0070606Y0039233D01*
X0070753Y0039299D01*
X0070901Y0039361D01*
X0071051Y0039419D01*
X0071202Y0039474D01*
X0071355Y0039525D01*
X0071509Y0039572D01*
X0071664Y0039615D01*
X0071820Y0039654D01*
X0071976Y0039690D01*
X0072134Y0039721D01*
X0072292Y0039749D01*
X0072451Y0039773D01*
X0072611Y0039793D01*
X0072771Y0039809D01*
X0072931Y0039821D01*
X0073092Y0039829D01*
X0073253Y0039833D01*
X0073413Y0039833D01*
X0073574Y0039829D01*
X0073735Y0039821D01*
X0073895Y0039809D01*
X0074055Y0039793D01*
X0074215Y0039773D01*
X0074374Y0039749D01*
X0074532Y0039721D01*
X0074690Y0039690D01*
X0074846Y0039654D01*
X0075002Y0039615D01*
X0075157Y0039572D01*
X0075311Y0039525D01*
X0075464Y0039474D01*
X0075615Y0039419D01*
X0075765Y0039361D01*
X0075913Y0039299D01*
X0076060Y0039233D01*
X0076205Y0039164D01*
X0076348Y0039091D01*
X0076490Y0039015D01*
X0076629Y0038935D01*
X0076767Y0038852D01*
X0076902Y0038765D01*
X0077036Y0038675D01*
X0077167Y0038582D01*
X0077295Y0038486D01*
X0077421Y0038386D01*
X0077545Y0038283D01*
X0077666Y0038178D01*
X0077785Y0038069D01*
X0077901Y0037958D01*
X0078014Y0037843D01*
X0078124Y0037726D01*
X0078231Y0037606D01*
X0078335Y0037484D01*
X0078436Y0037359D01*
X0078534Y0037231D01*
X0078629Y0037101D01*
X0078721Y0036969D01*
X0078809Y0036835D01*
X0078894Y0036698D01*
X0078976Y0036560D01*
X0079054Y0036419D01*
X0079128Y0036277D01*
X0079199Y0036133D01*
X0079267Y0035987D01*
X0079330Y0035839D01*
X0079391Y0035690D01*
X0079447Y0035539D01*
X0079500Y0035387D01*
X0079549Y0035234D01*
X0079594Y0035080D01*
X0079635Y0034925D01*
X0079673Y0034768D01*
X0079706Y0034611D01*
X0079736Y0034453D01*
X0079762Y0034294D01*
X0079783Y0034135D01*
X0079801Y0033975D01*
X0079815Y0033815D01*
X0079825Y0033654D01*
X0079831Y0033494D01*
X0079833Y0033333D01*
X0079831Y0033172D01*
X0079825Y0033012D01*
X0079815Y0032851D01*
X0079801Y0032691D01*
X0079783Y0032531D01*
X0079762Y0032372D01*
X0079736Y0032213D01*
X0079706Y0032055D01*
X0079673Y0031898D01*
X0079635Y0031741D01*
X0079594Y0031586D01*
X0079549Y0031432D01*
X0079500Y0031279D01*
X0079447Y0031127D01*
X0079391Y0030976D01*
X0079330Y0030827D01*
X0079267Y0030679D01*
X0079199Y0030533D01*
X0079128Y0030389D01*
X0079054Y0030247D01*
X0078976Y0030106D01*
X0078894Y0029968D01*
X0078809Y0029831D01*
X0078721Y0029697D01*
X0078629Y0029565D01*
X0078534Y0029435D01*
X0078436Y0029307D01*
X0078335Y0029182D01*
X0078231Y0029060D01*
X0078124Y0028940D01*
X0078014Y0028823D01*
X0077901Y0028708D01*
X0077785Y0028597D01*
X0077666Y0028488D01*
X0077545Y0028383D01*
X0077421Y0028280D01*
X0077295Y0028180D01*
X0077167Y0028084D01*
X0077036Y0027991D01*
X0076902Y0027901D01*
X0076767Y0027814D01*
X0076629Y0027731D01*
X0076490Y0027651D01*
X0076348Y0027575D01*
X0076205Y0027502D01*
X0076060Y0027433D01*
X0075913Y0027367D01*
X0075765Y0027305D01*
X0075615Y0027247D01*
X0075464Y0027192D01*
X0075311Y0027141D01*
X0075157Y0027094D01*
X0075002Y0027051D01*
X0074846Y0027012D01*
X0074690Y0026976D01*
X0074532Y0026945D01*
X0074374Y0026917D01*
X0074215Y0026893D01*
X0074055Y0026873D01*
X0073895Y0026857D01*
X0073735Y0026845D01*
X0073574Y0026837D01*
X0073413Y0026833D01*
X0073253Y0026833D01*
X0073092Y0026837D01*
X0072931Y0026845D01*
X0072771Y0026857D01*
X0072611Y0026873D01*
X0072451Y0026893D01*
X0072292Y0026917D01*
X0072134Y0026945D01*
X0071976Y0026976D01*
X0071820Y0027012D01*
X0071664Y0027051D01*
X0071509Y0027094D01*
X0071355Y0027141D01*
X0071202Y0027192D01*
X0071051Y0027247D01*
X0070901Y0027305D01*
X0070753Y0027367D01*
X0070606Y0027433D01*
X0070461Y0027502D01*
X0070318Y0027575D01*
X0070176Y0027651D01*
X0070037Y0027731D01*
X0069899Y0027814D01*
X0069764Y0027901D01*
X0069630Y0027991D01*
X0069499Y0028084D01*
X0069371Y0028180D01*
X0069245Y0028280D01*
X0069121Y0028383D01*
X0069000Y0028488D01*
X0068881Y0028597D01*
X0068765Y0028708D01*
X0068652Y0028823D01*
X0068542Y0028940D01*
X0068435Y0029060D01*
X0068331Y0029182D01*
X0068230Y0029307D01*
X0068132Y0029435D01*
X0068037Y0029565D01*
X0067945Y0029697D01*
X0067857Y0029831D01*
X0067772Y0029968D01*
X0067690Y0030106D01*
X0067612Y0030247D01*
X0067538Y0030389D01*
X0067467Y0030533D01*
X0067399Y0030679D01*
X0067336Y0030827D01*
X0067275Y0030976D01*
X0067219Y0031127D01*
X0067166Y0031279D01*
X0067117Y0031432D01*
X0067072Y0031586D01*
X0067031Y0031741D01*
X0066993Y0031898D01*
X0066960Y0032055D01*
X0066930Y0032213D01*
X0066904Y0032372D01*
X0066883Y0032531D01*
X0066865Y0032691D01*
X0066851Y0032851D01*
X0066841Y0033012D01*
X0066835Y0033172D01*
X0066833Y0033333D01*
X0066833Y0228333D02*
X0066835Y0228494D01*
X0066841Y0228654D01*
X0066851Y0228815D01*
X0066865Y0228975D01*
X0066883Y0229135D01*
X0066904Y0229294D01*
X0066930Y0229453D01*
X0066960Y0229611D01*
X0066993Y0229768D01*
X0067031Y0229925D01*
X0067072Y0230080D01*
X0067117Y0230234D01*
X0067166Y0230387D01*
X0067219Y0230539D01*
X0067275Y0230690D01*
X0067336Y0230839D01*
X0067399Y0230987D01*
X0067467Y0231133D01*
X0067538Y0231277D01*
X0067612Y0231419D01*
X0067690Y0231560D01*
X0067772Y0231698D01*
X0067857Y0231835D01*
X0067945Y0231969D01*
X0068037Y0232101D01*
X0068132Y0232231D01*
X0068230Y0232359D01*
X0068331Y0232484D01*
X0068435Y0232606D01*
X0068542Y0232726D01*
X0068652Y0232843D01*
X0068765Y0232958D01*
X0068881Y0233069D01*
X0069000Y0233178D01*
X0069121Y0233283D01*
X0069245Y0233386D01*
X0069371Y0233486D01*
X0069499Y0233582D01*
X0069630Y0233675D01*
X0069764Y0233765D01*
X0069899Y0233852D01*
X0070037Y0233935D01*
X0070176Y0234015D01*
X0070318Y0234091D01*
X0070461Y0234164D01*
X0070606Y0234233D01*
X0070753Y0234299D01*
X0070901Y0234361D01*
X0071051Y0234419D01*
X0071202Y0234474D01*
X0071355Y0234525D01*
X0071509Y0234572D01*
X0071664Y0234615D01*
X0071820Y0234654D01*
X0071976Y0234690D01*
X0072134Y0234721D01*
X0072292Y0234749D01*
X0072451Y0234773D01*
X0072611Y0234793D01*
X0072771Y0234809D01*
X0072931Y0234821D01*
X0073092Y0234829D01*
X0073253Y0234833D01*
X0073413Y0234833D01*
X0073574Y0234829D01*
X0073735Y0234821D01*
X0073895Y0234809D01*
X0074055Y0234793D01*
X0074215Y0234773D01*
X0074374Y0234749D01*
X0074532Y0234721D01*
X0074690Y0234690D01*
X0074846Y0234654D01*
X0075002Y0234615D01*
X0075157Y0234572D01*
X0075311Y0234525D01*
X0075464Y0234474D01*
X0075615Y0234419D01*
X0075765Y0234361D01*
X0075913Y0234299D01*
X0076060Y0234233D01*
X0076205Y0234164D01*
X0076348Y0234091D01*
X0076490Y0234015D01*
X0076629Y0233935D01*
X0076767Y0233852D01*
X0076902Y0233765D01*
X0077036Y0233675D01*
X0077167Y0233582D01*
X0077295Y0233486D01*
X0077421Y0233386D01*
X0077545Y0233283D01*
X0077666Y0233178D01*
X0077785Y0233069D01*
X0077901Y0232958D01*
X0078014Y0232843D01*
X0078124Y0232726D01*
X0078231Y0232606D01*
X0078335Y0232484D01*
X0078436Y0232359D01*
X0078534Y0232231D01*
X0078629Y0232101D01*
X0078721Y0231969D01*
X0078809Y0231835D01*
X0078894Y0231698D01*
X0078976Y0231560D01*
X0079054Y0231419D01*
X0079128Y0231277D01*
X0079199Y0231133D01*
X0079267Y0230987D01*
X0079330Y0230839D01*
X0079391Y0230690D01*
X0079447Y0230539D01*
X0079500Y0230387D01*
X0079549Y0230234D01*
X0079594Y0230080D01*
X0079635Y0229925D01*
X0079673Y0229768D01*
X0079706Y0229611D01*
X0079736Y0229453D01*
X0079762Y0229294D01*
X0079783Y0229135D01*
X0079801Y0228975D01*
X0079815Y0228815D01*
X0079825Y0228654D01*
X0079831Y0228494D01*
X0079833Y0228333D01*
X0079831Y0228172D01*
X0079825Y0228012D01*
X0079815Y0227851D01*
X0079801Y0227691D01*
X0079783Y0227531D01*
X0079762Y0227372D01*
X0079736Y0227213D01*
X0079706Y0227055D01*
X0079673Y0226898D01*
X0079635Y0226741D01*
X0079594Y0226586D01*
X0079549Y0226432D01*
X0079500Y0226279D01*
X0079447Y0226127D01*
X0079391Y0225976D01*
X0079330Y0225827D01*
X0079267Y0225679D01*
X0079199Y0225533D01*
X0079128Y0225389D01*
X0079054Y0225247D01*
X0078976Y0225106D01*
X0078894Y0224968D01*
X0078809Y0224831D01*
X0078721Y0224697D01*
X0078629Y0224565D01*
X0078534Y0224435D01*
X0078436Y0224307D01*
X0078335Y0224182D01*
X0078231Y0224060D01*
X0078124Y0223940D01*
X0078014Y0223823D01*
X0077901Y0223708D01*
X0077785Y0223597D01*
X0077666Y0223488D01*
X0077545Y0223383D01*
X0077421Y0223280D01*
X0077295Y0223180D01*
X0077167Y0223084D01*
X0077036Y0222991D01*
X0076902Y0222901D01*
X0076767Y0222814D01*
X0076629Y0222731D01*
X0076490Y0222651D01*
X0076348Y0222575D01*
X0076205Y0222502D01*
X0076060Y0222433D01*
X0075913Y0222367D01*
X0075765Y0222305D01*
X0075615Y0222247D01*
X0075464Y0222192D01*
X0075311Y0222141D01*
X0075157Y0222094D01*
X0075002Y0222051D01*
X0074846Y0222012D01*
X0074690Y0221976D01*
X0074532Y0221945D01*
X0074374Y0221917D01*
X0074215Y0221893D01*
X0074055Y0221873D01*
X0073895Y0221857D01*
X0073735Y0221845D01*
X0073574Y0221837D01*
X0073413Y0221833D01*
X0073253Y0221833D01*
X0073092Y0221837D01*
X0072931Y0221845D01*
X0072771Y0221857D01*
X0072611Y0221873D01*
X0072451Y0221893D01*
X0072292Y0221917D01*
X0072134Y0221945D01*
X0071976Y0221976D01*
X0071820Y0222012D01*
X0071664Y0222051D01*
X0071509Y0222094D01*
X0071355Y0222141D01*
X0071202Y0222192D01*
X0071051Y0222247D01*
X0070901Y0222305D01*
X0070753Y0222367D01*
X0070606Y0222433D01*
X0070461Y0222502D01*
X0070318Y0222575D01*
X0070176Y0222651D01*
X0070037Y0222731D01*
X0069899Y0222814D01*
X0069764Y0222901D01*
X0069630Y0222991D01*
X0069499Y0223084D01*
X0069371Y0223180D01*
X0069245Y0223280D01*
X0069121Y0223383D01*
X0069000Y0223488D01*
X0068881Y0223597D01*
X0068765Y0223708D01*
X0068652Y0223823D01*
X0068542Y0223940D01*
X0068435Y0224060D01*
X0068331Y0224182D01*
X0068230Y0224307D01*
X0068132Y0224435D01*
X0068037Y0224565D01*
X0067945Y0224697D01*
X0067857Y0224831D01*
X0067772Y0224968D01*
X0067690Y0225106D01*
X0067612Y0225247D01*
X0067538Y0225389D01*
X0067467Y0225533D01*
X0067399Y0225679D01*
X0067336Y0225827D01*
X0067275Y0225976D01*
X0067219Y0226127D01*
X0067166Y0226279D01*
X0067117Y0226432D01*
X0067072Y0226586D01*
X0067031Y0226741D01*
X0066993Y0226898D01*
X0066960Y0227055D01*
X0066930Y0227213D01*
X0066904Y0227372D01*
X0066883Y0227531D01*
X0066865Y0227691D01*
X0066851Y0227851D01*
X0066841Y0228012D01*
X0066835Y0228172D01*
X0066833Y0228333D01*
X0066833Y0250333D02*
X0066835Y0250494D01*
X0066841Y0250654D01*
X0066851Y0250815D01*
X0066865Y0250975D01*
X0066883Y0251135D01*
X0066904Y0251294D01*
X0066930Y0251453D01*
X0066960Y0251611D01*
X0066993Y0251768D01*
X0067031Y0251925D01*
X0067072Y0252080D01*
X0067117Y0252234D01*
X0067166Y0252387D01*
X0067219Y0252539D01*
X0067275Y0252690D01*
X0067336Y0252839D01*
X0067399Y0252987D01*
X0067467Y0253133D01*
X0067538Y0253277D01*
X0067612Y0253419D01*
X0067690Y0253560D01*
X0067772Y0253698D01*
X0067857Y0253835D01*
X0067945Y0253969D01*
X0068037Y0254101D01*
X0068132Y0254231D01*
X0068230Y0254359D01*
X0068331Y0254484D01*
X0068435Y0254606D01*
X0068542Y0254726D01*
X0068652Y0254843D01*
X0068765Y0254958D01*
X0068881Y0255069D01*
X0069000Y0255178D01*
X0069121Y0255283D01*
X0069245Y0255386D01*
X0069371Y0255486D01*
X0069499Y0255582D01*
X0069630Y0255675D01*
X0069764Y0255765D01*
X0069899Y0255852D01*
X0070037Y0255935D01*
X0070176Y0256015D01*
X0070318Y0256091D01*
X0070461Y0256164D01*
X0070606Y0256233D01*
X0070753Y0256299D01*
X0070901Y0256361D01*
X0071051Y0256419D01*
X0071202Y0256474D01*
X0071355Y0256525D01*
X0071509Y0256572D01*
X0071664Y0256615D01*
X0071820Y0256654D01*
X0071976Y0256690D01*
X0072134Y0256721D01*
X0072292Y0256749D01*
X0072451Y0256773D01*
X0072611Y0256793D01*
X0072771Y0256809D01*
X0072931Y0256821D01*
X0073092Y0256829D01*
X0073253Y0256833D01*
X0073413Y0256833D01*
X0073574Y0256829D01*
X0073735Y0256821D01*
X0073895Y0256809D01*
X0074055Y0256793D01*
X0074215Y0256773D01*
X0074374Y0256749D01*
X0074532Y0256721D01*
X0074690Y0256690D01*
X0074846Y0256654D01*
X0075002Y0256615D01*
X0075157Y0256572D01*
X0075311Y0256525D01*
X0075464Y0256474D01*
X0075615Y0256419D01*
X0075765Y0256361D01*
X0075913Y0256299D01*
X0076060Y0256233D01*
X0076205Y0256164D01*
X0076348Y0256091D01*
X0076490Y0256015D01*
X0076629Y0255935D01*
X0076767Y0255852D01*
X0076902Y0255765D01*
X0077036Y0255675D01*
X0077167Y0255582D01*
X0077295Y0255486D01*
X0077421Y0255386D01*
X0077545Y0255283D01*
X0077666Y0255178D01*
X0077785Y0255069D01*
X0077901Y0254958D01*
X0078014Y0254843D01*
X0078124Y0254726D01*
X0078231Y0254606D01*
X0078335Y0254484D01*
X0078436Y0254359D01*
X0078534Y0254231D01*
X0078629Y0254101D01*
X0078721Y0253969D01*
X0078809Y0253835D01*
X0078894Y0253698D01*
X0078976Y0253560D01*
X0079054Y0253419D01*
X0079128Y0253277D01*
X0079199Y0253133D01*
X0079267Y0252987D01*
X0079330Y0252839D01*
X0079391Y0252690D01*
X0079447Y0252539D01*
X0079500Y0252387D01*
X0079549Y0252234D01*
X0079594Y0252080D01*
X0079635Y0251925D01*
X0079673Y0251768D01*
X0079706Y0251611D01*
X0079736Y0251453D01*
X0079762Y0251294D01*
X0079783Y0251135D01*
X0079801Y0250975D01*
X0079815Y0250815D01*
X0079825Y0250654D01*
X0079831Y0250494D01*
X0079833Y0250333D01*
X0079831Y0250172D01*
X0079825Y0250012D01*
X0079815Y0249851D01*
X0079801Y0249691D01*
X0079783Y0249531D01*
X0079762Y0249372D01*
X0079736Y0249213D01*
X0079706Y0249055D01*
X0079673Y0248898D01*
X0079635Y0248741D01*
X0079594Y0248586D01*
X0079549Y0248432D01*
X0079500Y0248279D01*
X0079447Y0248127D01*
X0079391Y0247976D01*
X0079330Y0247827D01*
X0079267Y0247679D01*
X0079199Y0247533D01*
X0079128Y0247389D01*
X0079054Y0247247D01*
X0078976Y0247106D01*
X0078894Y0246968D01*
X0078809Y0246831D01*
X0078721Y0246697D01*
X0078629Y0246565D01*
X0078534Y0246435D01*
X0078436Y0246307D01*
X0078335Y0246182D01*
X0078231Y0246060D01*
X0078124Y0245940D01*
X0078014Y0245823D01*
X0077901Y0245708D01*
X0077785Y0245597D01*
X0077666Y0245488D01*
X0077545Y0245383D01*
X0077421Y0245280D01*
X0077295Y0245180D01*
X0077167Y0245084D01*
X0077036Y0244991D01*
X0076902Y0244901D01*
X0076767Y0244814D01*
X0076629Y0244731D01*
X0076490Y0244651D01*
X0076348Y0244575D01*
X0076205Y0244502D01*
X0076060Y0244433D01*
X0075913Y0244367D01*
X0075765Y0244305D01*
X0075615Y0244247D01*
X0075464Y0244192D01*
X0075311Y0244141D01*
X0075157Y0244094D01*
X0075002Y0244051D01*
X0074846Y0244012D01*
X0074690Y0243976D01*
X0074532Y0243945D01*
X0074374Y0243917D01*
X0074215Y0243893D01*
X0074055Y0243873D01*
X0073895Y0243857D01*
X0073735Y0243845D01*
X0073574Y0243837D01*
X0073413Y0243833D01*
X0073253Y0243833D01*
X0073092Y0243837D01*
X0072931Y0243845D01*
X0072771Y0243857D01*
X0072611Y0243873D01*
X0072451Y0243893D01*
X0072292Y0243917D01*
X0072134Y0243945D01*
X0071976Y0243976D01*
X0071820Y0244012D01*
X0071664Y0244051D01*
X0071509Y0244094D01*
X0071355Y0244141D01*
X0071202Y0244192D01*
X0071051Y0244247D01*
X0070901Y0244305D01*
X0070753Y0244367D01*
X0070606Y0244433D01*
X0070461Y0244502D01*
X0070318Y0244575D01*
X0070176Y0244651D01*
X0070037Y0244731D01*
X0069899Y0244814D01*
X0069764Y0244901D01*
X0069630Y0244991D01*
X0069499Y0245084D01*
X0069371Y0245180D01*
X0069245Y0245280D01*
X0069121Y0245383D01*
X0069000Y0245488D01*
X0068881Y0245597D01*
X0068765Y0245708D01*
X0068652Y0245823D01*
X0068542Y0245940D01*
X0068435Y0246060D01*
X0068331Y0246182D01*
X0068230Y0246307D01*
X0068132Y0246435D01*
X0068037Y0246565D01*
X0067945Y0246697D01*
X0067857Y0246831D01*
X0067772Y0246968D01*
X0067690Y0247106D01*
X0067612Y0247247D01*
X0067538Y0247389D01*
X0067467Y0247533D01*
X0067399Y0247679D01*
X0067336Y0247827D01*
X0067275Y0247976D01*
X0067219Y0248127D01*
X0067166Y0248279D01*
X0067117Y0248432D01*
X0067072Y0248586D01*
X0067031Y0248741D01*
X0066993Y0248898D01*
X0066960Y0249055D01*
X0066930Y0249213D01*
X0066904Y0249372D01*
X0066883Y0249531D01*
X0066865Y0249691D01*
X0066851Y0249851D01*
X0066841Y0250012D01*
X0066835Y0250172D01*
X0066833Y0250333D01*
X0206833Y0250333D02*
X0206835Y0250494D01*
X0206841Y0250654D01*
X0206851Y0250815D01*
X0206865Y0250975D01*
X0206883Y0251135D01*
X0206904Y0251294D01*
X0206930Y0251453D01*
X0206960Y0251611D01*
X0206993Y0251768D01*
X0207031Y0251925D01*
X0207072Y0252080D01*
X0207117Y0252234D01*
X0207166Y0252387D01*
X0207219Y0252539D01*
X0207275Y0252690D01*
X0207336Y0252839D01*
X0207399Y0252987D01*
X0207467Y0253133D01*
X0207538Y0253277D01*
X0207612Y0253419D01*
X0207690Y0253560D01*
X0207772Y0253698D01*
X0207857Y0253835D01*
X0207945Y0253969D01*
X0208037Y0254101D01*
X0208132Y0254231D01*
X0208230Y0254359D01*
X0208331Y0254484D01*
X0208435Y0254606D01*
X0208542Y0254726D01*
X0208652Y0254843D01*
X0208765Y0254958D01*
X0208881Y0255069D01*
X0209000Y0255178D01*
X0209121Y0255283D01*
X0209245Y0255386D01*
X0209371Y0255486D01*
X0209499Y0255582D01*
X0209630Y0255675D01*
X0209764Y0255765D01*
X0209899Y0255852D01*
X0210037Y0255935D01*
X0210176Y0256015D01*
X0210318Y0256091D01*
X0210461Y0256164D01*
X0210606Y0256233D01*
X0210753Y0256299D01*
X0210901Y0256361D01*
X0211051Y0256419D01*
X0211202Y0256474D01*
X0211355Y0256525D01*
X0211509Y0256572D01*
X0211664Y0256615D01*
X0211820Y0256654D01*
X0211976Y0256690D01*
X0212134Y0256721D01*
X0212292Y0256749D01*
X0212451Y0256773D01*
X0212611Y0256793D01*
X0212771Y0256809D01*
X0212931Y0256821D01*
X0213092Y0256829D01*
X0213253Y0256833D01*
X0213413Y0256833D01*
X0213574Y0256829D01*
X0213735Y0256821D01*
X0213895Y0256809D01*
X0214055Y0256793D01*
X0214215Y0256773D01*
X0214374Y0256749D01*
X0214532Y0256721D01*
X0214690Y0256690D01*
X0214846Y0256654D01*
X0215002Y0256615D01*
X0215157Y0256572D01*
X0215311Y0256525D01*
X0215464Y0256474D01*
X0215615Y0256419D01*
X0215765Y0256361D01*
X0215913Y0256299D01*
X0216060Y0256233D01*
X0216205Y0256164D01*
X0216348Y0256091D01*
X0216490Y0256015D01*
X0216629Y0255935D01*
X0216767Y0255852D01*
X0216902Y0255765D01*
X0217036Y0255675D01*
X0217167Y0255582D01*
X0217295Y0255486D01*
X0217421Y0255386D01*
X0217545Y0255283D01*
X0217666Y0255178D01*
X0217785Y0255069D01*
X0217901Y0254958D01*
X0218014Y0254843D01*
X0218124Y0254726D01*
X0218231Y0254606D01*
X0218335Y0254484D01*
X0218436Y0254359D01*
X0218534Y0254231D01*
X0218629Y0254101D01*
X0218721Y0253969D01*
X0218809Y0253835D01*
X0218894Y0253698D01*
X0218976Y0253560D01*
X0219054Y0253419D01*
X0219128Y0253277D01*
X0219199Y0253133D01*
X0219267Y0252987D01*
X0219330Y0252839D01*
X0219391Y0252690D01*
X0219447Y0252539D01*
X0219500Y0252387D01*
X0219549Y0252234D01*
X0219594Y0252080D01*
X0219635Y0251925D01*
X0219673Y0251768D01*
X0219706Y0251611D01*
X0219736Y0251453D01*
X0219762Y0251294D01*
X0219783Y0251135D01*
X0219801Y0250975D01*
X0219815Y0250815D01*
X0219825Y0250654D01*
X0219831Y0250494D01*
X0219833Y0250333D01*
X0219831Y0250172D01*
X0219825Y0250012D01*
X0219815Y0249851D01*
X0219801Y0249691D01*
X0219783Y0249531D01*
X0219762Y0249372D01*
X0219736Y0249213D01*
X0219706Y0249055D01*
X0219673Y0248898D01*
X0219635Y0248741D01*
X0219594Y0248586D01*
X0219549Y0248432D01*
X0219500Y0248279D01*
X0219447Y0248127D01*
X0219391Y0247976D01*
X0219330Y0247827D01*
X0219267Y0247679D01*
X0219199Y0247533D01*
X0219128Y0247389D01*
X0219054Y0247247D01*
X0218976Y0247106D01*
X0218894Y0246968D01*
X0218809Y0246831D01*
X0218721Y0246697D01*
X0218629Y0246565D01*
X0218534Y0246435D01*
X0218436Y0246307D01*
X0218335Y0246182D01*
X0218231Y0246060D01*
X0218124Y0245940D01*
X0218014Y0245823D01*
X0217901Y0245708D01*
X0217785Y0245597D01*
X0217666Y0245488D01*
X0217545Y0245383D01*
X0217421Y0245280D01*
X0217295Y0245180D01*
X0217167Y0245084D01*
X0217036Y0244991D01*
X0216902Y0244901D01*
X0216767Y0244814D01*
X0216629Y0244731D01*
X0216490Y0244651D01*
X0216348Y0244575D01*
X0216205Y0244502D01*
X0216060Y0244433D01*
X0215913Y0244367D01*
X0215765Y0244305D01*
X0215615Y0244247D01*
X0215464Y0244192D01*
X0215311Y0244141D01*
X0215157Y0244094D01*
X0215002Y0244051D01*
X0214846Y0244012D01*
X0214690Y0243976D01*
X0214532Y0243945D01*
X0214374Y0243917D01*
X0214215Y0243893D01*
X0214055Y0243873D01*
X0213895Y0243857D01*
X0213735Y0243845D01*
X0213574Y0243837D01*
X0213413Y0243833D01*
X0213253Y0243833D01*
X0213092Y0243837D01*
X0212931Y0243845D01*
X0212771Y0243857D01*
X0212611Y0243873D01*
X0212451Y0243893D01*
X0212292Y0243917D01*
X0212134Y0243945D01*
X0211976Y0243976D01*
X0211820Y0244012D01*
X0211664Y0244051D01*
X0211509Y0244094D01*
X0211355Y0244141D01*
X0211202Y0244192D01*
X0211051Y0244247D01*
X0210901Y0244305D01*
X0210753Y0244367D01*
X0210606Y0244433D01*
X0210461Y0244502D01*
X0210318Y0244575D01*
X0210176Y0244651D01*
X0210037Y0244731D01*
X0209899Y0244814D01*
X0209764Y0244901D01*
X0209630Y0244991D01*
X0209499Y0245084D01*
X0209371Y0245180D01*
X0209245Y0245280D01*
X0209121Y0245383D01*
X0209000Y0245488D01*
X0208881Y0245597D01*
X0208765Y0245708D01*
X0208652Y0245823D01*
X0208542Y0245940D01*
X0208435Y0246060D01*
X0208331Y0246182D01*
X0208230Y0246307D01*
X0208132Y0246435D01*
X0208037Y0246565D01*
X0207945Y0246697D01*
X0207857Y0246831D01*
X0207772Y0246968D01*
X0207690Y0247106D01*
X0207612Y0247247D01*
X0207538Y0247389D01*
X0207467Y0247533D01*
X0207399Y0247679D01*
X0207336Y0247827D01*
X0207275Y0247976D01*
X0207219Y0248127D01*
X0207166Y0248279D01*
X0207117Y0248432D01*
X0207072Y0248586D01*
X0207031Y0248741D01*
X0206993Y0248898D01*
X0206960Y0249055D01*
X0206930Y0249213D01*
X0206904Y0249372D01*
X0206883Y0249531D01*
X0206865Y0249691D01*
X0206851Y0249851D01*
X0206841Y0250012D01*
X0206835Y0250172D01*
X0206833Y0250333D01*
X0206833Y0228333D02*
X0206835Y0228494D01*
X0206841Y0228654D01*
X0206851Y0228815D01*
X0206865Y0228975D01*
X0206883Y0229135D01*
X0206904Y0229294D01*
X0206930Y0229453D01*
X0206960Y0229611D01*
X0206993Y0229768D01*
X0207031Y0229925D01*
X0207072Y0230080D01*
X0207117Y0230234D01*
X0207166Y0230387D01*
X0207219Y0230539D01*
X0207275Y0230690D01*
X0207336Y0230839D01*
X0207399Y0230987D01*
X0207467Y0231133D01*
X0207538Y0231277D01*
X0207612Y0231419D01*
X0207690Y0231560D01*
X0207772Y0231698D01*
X0207857Y0231835D01*
X0207945Y0231969D01*
X0208037Y0232101D01*
X0208132Y0232231D01*
X0208230Y0232359D01*
X0208331Y0232484D01*
X0208435Y0232606D01*
X0208542Y0232726D01*
X0208652Y0232843D01*
X0208765Y0232958D01*
X0208881Y0233069D01*
X0209000Y0233178D01*
X0209121Y0233283D01*
X0209245Y0233386D01*
X0209371Y0233486D01*
X0209499Y0233582D01*
X0209630Y0233675D01*
X0209764Y0233765D01*
X0209899Y0233852D01*
X0210037Y0233935D01*
X0210176Y0234015D01*
X0210318Y0234091D01*
X0210461Y0234164D01*
X0210606Y0234233D01*
X0210753Y0234299D01*
X0210901Y0234361D01*
X0211051Y0234419D01*
X0211202Y0234474D01*
X0211355Y0234525D01*
X0211509Y0234572D01*
X0211664Y0234615D01*
X0211820Y0234654D01*
X0211976Y0234690D01*
X0212134Y0234721D01*
X0212292Y0234749D01*
X0212451Y0234773D01*
X0212611Y0234793D01*
X0212771Y0234809D01*
X0212931Y0234821D01*
X0213092Y0234829D01*
X0213253Y0234833D01*
X0213413Y0234833D01*
X0213574Y0234829D01*
X0213735Y0234821D01*
X0213895Y0234809D01*
X0214055Y0234793D01*
X0214215Y0234773D01*
X0214374Y0234749D01*
X0214532Y0234721D01*
X0214690Y0234690D01*
X0214846Y0234654D01*
X0215002Y0234615D01*
X0215157Y0234572D01*
X0215311Y0234525D01*
X0215464Y0234474D01*
X0215615Y0234419D01*
X0215765Y0234361D01*
X0215913Y0234299D01*
X0216060Y0234233D01*
X0216205Y0234164D01*
X0216348Y0234091D01*
X0216490Y0234015D01*
X0216629Y0233935D01*
X0216767Y0233852D01*
X0216902Y0233765D01*
X0217036Y0233675D01*
X0217167Y0233582D01*
X0217295Y0233486D01*
X0217421Y0233386D01*
X0217545Y0233283D01*
X0217666Y0233178D01*
X0217785Y0233069D01*
X0217901Y0232958D01*
X0218014Y0232843D01*
X0218124Y0232726D01*
X0218231Y0232606D01*
X0218335Y0232484D01*
X0218436Y0232359D01*
X0218534Y0232231D01*
X0218629Y0232101D01*
X0218721Y0231969D01*
X0218809Y0231835D01*
X0218894Y0231698D01*
X0218976Y0231560D01*
X0219054Y0231419D01*
X0219128Y0231277D01*
X0219199Y0231133D01*
X0219267Y0230987D01*
X0219330Y0230839D01*
X0219391Y0230690D01*
X0219447Y0230539D01*
X0219500Y0230387D01*
X0219549Y0230234D01*
X0219594Y0230080D01*
X0219635Y0229925D01*
X0219673Y0229768D01*
X0219706Y0229611D01*
X0219736Y0229453D01*
X0219762Y0229294D01*
X0219783Y0229135D01*
X0219801Y0228975D01*
X0219815Y0228815D01*
X0219825Y0228654D01*
X0219831Y0228494D01*
X0219833Y0228333D01*
X0219831Y0228172D01*
X0219825Y0228012D01*
X0219815Y0227851D01*
X0219801Y0227691D01*
X0219783Y0227531D01*
X0219762Y0227372D01*
X0219736Y0227213D01*
X0219706Y0227055D01*
X0219673Y0226898D01*
X0219635Y0226741D01*
X0219594Y0226586D01*
X0219549Y0226432D01*
X0219500Y0226279D01*
X0219447Y0226127D01*
X0219391Y0225976D01*
X0219330Y0225827D01*
X0219267Y0225679D01*
X0219199Y0225533D01*
X0219128Y0225389D01*
X0219054Y0225247D01*
X0218976Y0225106D01*
X0218894Y0224968D01*
X0218809Y0224831D01*
X0218721Y0224697D01*
X0218629Y0224565D01*
X0218534Y0224435D01*
X0218436Y0224307D01*
X0218335Y0224182D01*
X0218231Y0224060D01*
X0218124Y0223940D01*
X0218014Y0223823D01*
X0217901Y0223708D01*
X0217785Y0223597D01*
X0217666Y0223488D01*
X0217545Y0223383D01*
X0217421Y0223280D01*
X0217295Y0223180D01*
X0217167Y0223084D01*
X0217036Y0222991D01*
X0216902Y0222901D01*
X0216767Y0222814D01*
X0216629Y0222731D01*
X0216490Y0222651D01*
X0216348Y0222575D01*
X0216205Y0222502D01*
X0216060Y0222433D01*
X0215913Y0222367D01*
X0215765Y0222305D01*
X0215615Y0222247D01*
X0215464Y0222192D01*
X0215311Y0222141D01*
X0215157Y0222094D01*
X0215002Y0222051D01*
X0214846Y0222012D01*
X0214690Y0221976D01*
X0214532Y0221945D01*
X0214374Y0221917D01*
X0214215Y0221893D01*
X0214055Y0221873D01*
X0213895Y0221857D01*
X0213735Y0221845D01*
X0213574Y0221837D01*
X0213413Y0221833D01*
X0213253Y0221833D01*
X0213092Y0221837D01*
X0212931Y0221845D01*
X0212771Y0221857D01*
X0212611Y0221873D01*
X0212451Y0221893D01*
X0212292Y0221917D01*
X0212134Y0221945D01*
X0211976Y0221976D01*
X0211820Y0222012D01*
X0211664Y0222051D01*
X0211509Y0222094D01*
X0211355Y0222141D01*
X0211202Y0222192D01*
X0211051Y0222247D01*
X0210901Y0222305D01*
X0210753Y0222367D01*
X0210606Y0222433D01*
X0210461Y0222502D01*
X0210318Y0222575D01*
X0210176Y0222651D01*
X0210037Y0222731D01*
X0209899Y0222814D01*
X0209764Y0222901D01*
X0209630Y0222991D01*
X0209499Y0223084D01*
X0209371Y0223180D01*
X0209245Y0223280D01*
X0209121Y0223383D01*
X0209000Y0223488D01*
X0208881Y0223597D01*
X0208765Y0223708D01*
X0208652Y0223823D01*
X0208542Y0223940D01*
X0208435Y0224060D01*
X0208331Y0224182D01*
X0208230Y0224307D01*
X0208132Y0224435D01*
X0208037Y0224565D01*
X0207945Y0224697D01*
X0207857Y0224831D01*
X0207772Y0224968D01*
X0207690Y0225106D01*
X0207612Y0225247D01*
X0207538Y0225389D01*
X0207467Y0225533D01*
X0207399Y0225679D01*
X0207336Y0225827D01*
X0207275Y0225976D01*
X0207219Y0226127D01*
X0207166Y0226279D01*
X0207117Y0226432D01*
X0207072Y0226586D01*
X0207031Y0226741D01*
X0206993Y0226898D01*
X0206960Y0227055D01*
X0206930Y0227213D01*
X0206904Y0227372D01*
X0206883Y0227531D01*
X0206865Y0227691D01*
X0206851Y0227851D01*
X0206841Y0228012D01*
X0206835Y0228172D01*
X0206833Y0228333D01*
X0228833Y0228333D02*
X0228835Y0228494D01*
X0228841Y0228654D01*
X0228851Y0228815D01*
X0228865Y0228975D01*
X0228883Y0229135D01*
X0228904Y0229294D01*
X0228930Y0229453D01*
X0228960Y0229611D01*
X0228993Y0229768D01*
X0229031Y0229925D01*
X0229072Y0230080D01*
X0229117Y0230234D01*
X0229166Y0230387D01*
X0229219Y0230539D01*
X0229275Y0230690D01*
X0229336Y0230839D01*
X0229399Y0230987D01*
X0229467Y0231133D01*
X0229538Y0231277D01*
X0229612Y0231419D01*
X0229690Y0231560D01*
X0229772Y0231698D01*
X0229857Y0231835D01*
X0229945Y0231969D01*
X0230037Y0232101D01*
X0230132Y0232231D01*
X0230230Y0232359D01*
X0230331Y0232484D01*
X0230435Y0232606D01*
X0230542Y0232726D01*
X0230652Y0232843D01*
X0230765Y0232958D01*
X0230881Y0233069D01*
X0231000Y0233178D01*
X0231121Y0233283D01*
X0231245Y0233386D01*
X0231371Y0233486D01*
X0231499Y0233582D01*
X0231630Y0233675D01*
X0231764Y0233765D01*
X0231899Y0233852D01*
X0232037Y0233935D01*
X0232176Y0234015D01*
X0232318Y0234091D01*
X0232461Y0234164D01*
X0232606Y0234233D01*
X0232753Y0234299D01*
X0232901Y0234361D01*
X0233051Y0234419D01*
X0233202Y0234474D01*
X0233355Y0234525D01*
X0233509Y0234572D01*
X0233664Y0234615D01*
X0233820Y0234654D01*
X0233976Y0234690D01*
X0234134Y0234721D01*
X0234292Y0234749D01*
X0234451Y0234773D01*
X0234611Y0234793D01*
X0234771Y0234809D01*
X0234931Y0234821D01*
X0235092Y0234829D01*
X0235253Y0234833D01*
X0235413Y0234833D01*
X0235574Y0234829D01*
X0235735Y0234821D01*
X0235895Y0234809D01*
X0236055Y0234793D01*
X0236215Y0234773D01*
X0236374Y0234749D01*
X0236532Y0234721D01*
X0236690Y0234690D01*
X0236846Y0234654D01*
X0237002Y0234615D01*
X0237157Y0234572D01*
X0237311Y0234525D01*
X0237464Y0234474D01*
X0237615Y0234419D01*
X0237765Y0234361D01*
X0237913Y0234299D01*
X0238060Y0234233D01*
X0238205Y0234164D01*
X0238348Y0234091D01*
X0238490Y0234015D01*
X0238629Y0233935D01*
X0238767Y0233852D01*
X0238902Y0233765D01*
X0239036Y0233675D01*
X0239167Y0233582D01*
X0239295Y0233486D01*
X0239421Y0233386D01*
X0239545Y0233283D01*
X0239666Y0233178D01*
X0239785Y0233069D01*
X0239901Y0232958D01*
X0240014Y0232843D01*
X0240124Y0232726D01*
X0240231Y0232606D01*
X0240335Y0232484D01*
X0240436Y0232359D01*
X0240534Y0232231D01*
X0240629Y0232101D01*
X0240721Y0231969D01*
X0240809Y0231835D01*
X0240894Y0231698D01*
X0240976Y0231560D01*
X0241054Y0231419D01*
X0241128Y0231277D01*
X0241199Y0231133D01*
X0241267Y0230987D01*
X0241330Y0230839D01*
X0241391Y0230690D01*
X0241447Y0230539D01*
X0241500Y0230387D01*
X0241549Y0230234D01*
X0241594Y0230080D01*
X0241635Y0229925D01*
X0241673Y0229768D01*
X0241706Y0229611D01*
X0241736Y0229453D01*
X0241762Y0229294D01*
X0241783Y0229135D01*
X0241801Y0228975D01*
X0241815Y0228815D01*
X0241825Y0228654D01*
X0241831Y0228494D01*
X0241833Y0228333D01*
X0241831Y0228172D01*
X0241825Y0228012D01*
X0241815Y0227851D01*
X0241801Y0227691D01*
X0241783Y0227531D01*
X0241762Y0227372D01*
X0241736Y0227213D01*
X0241706Y0227055D01*
X0241673Y0226898D01*
X0241635Y0226741D01*
X0241594Y0226586D01*
X0241549Y0226432D01*
X0241500Y0226279D01*
X0241447Y0226127D01*
X0241391Y0225976D01*
X0241330Y0225827D01*
X0241267Y0225679D01*
X0241199Y0225533D01*
X0241128Y0225389D01*
X0241054Y0225247D01*
X0240976Y0225106D01*
X0240894Y0224968D01*
X0240809Y0224831D01*
X0240721Y0224697D01*
X0240629Y0224565D01*
X0240534Y0224435D01*
X0240436Y0224307D01*
X0240335Y0224182D01*
X0240231Y0224060D01*
X0240124Y0223940D01*
X0240014Y0223823D01*
X0239901Y0223708D01*
X0239785Y0223597D01*
X0239666Y0223488D01*
X0239545Y0223383D01*
X0239421Y0223280D01*
X0239295Y0223180D01*
X0239167Y0223084D01*
X0239036Y0222991D01*
X0238902Y0222901D01*
X0238767Y0222814D01*
X0238629Y0222731D01*
X0238490Y0222651D01*
X0238348Y0222575D01*
X0238205Y0222502D01*
X0238060Y0222433D01*
X0237913Y0222367D01*
X0237765Y0222305D01*
X0237615Y0222247D01*
X0237464Y0222192D01*
X0237311Y0222141D01*
X0237157Y0222094D01*
X0237002Y0222051D01*
X0236846Y0222012D01*
X0236690Y0221976D01*
X0236532Y0221945D01*
X0236374Y0221917D01*
X0236215Y0221893D01*
X0236055Y0221873D01*
X0235895Y0221857D01*
X0235735Y0221845D01*
X0235574Y0221837D01*
X0235413Y0221833D01*
X0235253Y0221833D01*
X0235092Y0221837D01*
X0234931Y0221845D01*
X0234771Y0221857D01*
X0234611Y0221873D01*
X0234451Y0221893D01*
X0234292Y0221917D01*
X0234134Y0221945D01*
X0233976Y0221976D01*
X0233820Y0222012D01*
X0233664Y0222051D01*
X0233509Y0222094D01*
X0233355Y0222141D01*
X0233202Y0222192D01*
X0233051Y0222247D01*
X0232901Y0222305D01*
X0232753Y0222367D01*
X0232606Y0222433D01*
X0232461Y0222502D01*
X0232318Y0222575D01*
X0232176Y0222651D01*
X0232037Y0222731D01*
X0231899Y0222814D01*
X0231764Y0222901D01*
X0231630Y0222991D01*
X0231499Y0223084D01*
X0231371Y0223180D01*
X0231245Y0223280D01*
X0231121Y0223383D01*
X0231000Y0223488D01*
X0230881Y0223597D01*
X0230765Y0223708D01*
X0230652Y0223823D01*
X0230542Y0223940D01*
X0230435Y0224060D01*
X0230331Y0224182D01*
X0230230Y0224307D01*
X0230132Y0224435D01*
X0230037Y0224565D01*
X0229945Y0224697D01*
X0229857Y0224831D01*
X0229772Y0224968D01*
X0229690Y0225106D01*
X0229612Y0225247D01*
X0229538Y0225389D01*
X0229467Y0225533D01*
X0229399Y0225679D01*
X0229336Y0225827D01*
X0229275Y0225976D01*
X0229219Y0226127D01*
X0229166Y0226279D01*
X0229117Y0226432D01*
X0229072Y0226586D01*
X0229031Y0226741D01*
X0228993Y0226898D01*
X0228960Y0227055D01*
X0228930Y0227213D01*
X0228904Y0227372D01*
X0228883Y0227531D01*
X0228865Y0227691D01*
X0228851Y0227851D01*
X0228841Y0228012D01*
X0228835Y0228172D01*
X0228833Y0228333D01*
X0228833Y0250333D02*
X0228835Y0250494D01*
X0228841Y0250654D01*
X0228851Y0250815D01*
X0228865Y0250975D01*
X0228883Y0251135D01*
X0228904Y0251294D01*
X0228930Y0251453D01*
X0228960Y0251611D01*
X0228993Y0251768D01*
X0229031Y0251925D01*
X0229072Y0252080D01*
X0229117Y0252234D01*
X0229166Y0252387D01*
X0229219Y0252539D01*
X0229275Y0252690D01*
X0229336Y0252839D01*
X0229399Y0252987D01*
X0229467Y0253133D01*
X0229538Y0253277D01*
X0229612Y0253419D01*
X0229690Y0253560D01*
X0229772Y0253698D01*
X0229857Y0253835D01*
X0229945Y0253969D01*
X0230037Y0254101D01*
X0230132Y0254231D01*
X0230230Y0254359D01*
X0230331Y0254484D01*
X0230435Y0254606D01*
X0230542Y0254726D01*
X0230652Y0254843D01*
X0230765Y0254958D01*
X0230881Y0255069D01*
X0231000Y0255178D01*
X0231121Y0255283D01*
X0231245Y0255386D01*
X0231371Y0255486D01*
X0231499Y0255582D01*
X0231630Y0255675D01*
X0231764Y0255765D01*
X0231899Y0255852D01*
X0232037Y0255935D01*
X0232176Y0256015D01*
X0232318Y0256091D01*
X0232461Y0256164D01*
X0232606Y0256233D01*
X0232753Y0256299D01*
X0232901Y0256361D01*
X0233051Y0256419D01*
X0233202Y0256474D01*
X0233355Y0256525D01*
X0233509Y0256572D01*
X0233664Y0256615D01*
X0233820Y0256654D01*
X0233976Y0256690D01*
X0234134Y0256721D01*
X0234292Y0256749D01*
X0234451Y0256773D01*
X0234611Y0256793D01*
X0234771Y0256809D01*
X0234931Y0256821D01*
X0235092Y0256829D01*
X0235253Y0256833D01*
X0235413Y0256833D01*
X0235574Y0256829D01*
X0235735Y0256821D01*
X0235895Y0256809D01*
X0236055Y0256793D01*
X0236215Y0256773D01*
X0236374Y0256749D01*
X0236532Y0256721D01*
X0236690Y0256690D01*
X0236846Y0256654D01*
X0237002Y0256615D01*
X0237157Y0256572D01*
X0237311Y0256525D01*
X0237464Y0256474D01*
X0237615Y0256419D01*
X0237765Y0256361D01*
X0237913Y0256299D01*
X0238060Y0256233D01*
X0238205Y0256164D01*
X0238348Y0256091D01*
X0238490Y0256015D01*
X0238629Y0255935D01*
X0238767Y0255852D01*
X0238902Y0255765D01*
X0239036Y0255675D01*
X0239167Y0255582D01*
X0239295Y0255486D01*
X0239421Y0255386D01*
X0239545Y0255283D01*
X0239666Y0255178D01*
X0239785Y0255069D01*
X0239901Y0254958D01*
X0240014Y0254843D01*
X0240124Y0254726D01*
X0240231Y0254606D01*
X0240335Y0254484D01*
X0240436Y0254359D01*
X0240534Y0254231D01*
X0240629Y0254101D01*
X0240721Y0253969D01*
X0240809Y0253835D01*
X0240894Y0253698D01*
X0240976Y0253560D01*
X0241054Y0253419D01*
X0241128Y0253277D01*
X0241199Y0253133D01*
X0241267Y0252987D01*
X0241330Y0252839D01*
X0241391Y0252690D01*
X0241447Y0252539D01*
X0241500Y0252387D01*
X0241549Y0252234D01*
X0241594Y0252080D01*
X0241635Y0251925D01*
X0241673Y0251768D01*
X0241706Y0251611D01*
X0241736Y0251453D01*
X0241762Y0251294D01*
X0241783Y0251135D01*
X0241801Y0250975D01*
X0241815Y0250815D01*
X0241825Y0250654D01*
X0241831Y0250494D01*
X0241833Y0250333D01*
X0241831Y0250172D01*
X0241825Y0250012D01*
X0241815Y0249851D01*
X0241801Y0249691D01*
X0241783Y0249531D01*
X0241762Y0249372D01*
X0241736Y0249213D01*
X0241706Y0249055D01*
X0241673Y0248898D01*
X0241635Y0248741D01*
X0241594Y0248586D01*
X0241549Y0248432D01*
X0241500Y0248279D01*
X0241447Y0248127D01*
X0241391Y0247976D01*
X0241330Y0247827D01*
X0241267Y0247679D01*
X0241199Y0247533D01*
X0241128Y0247389D01*
X0241054Y0247247D01*
X0240976Y0247106D01*
X0240894Y0246968D01*
X0240809Y0246831D01*
X0240721Y0246697D01*
X0240629Y0246565D01*
X0240534Y0246435D01*
X0240436Y0246307D01*
X0240335Y0246182D01*
X0240231Y0246060D01*
X0240124Y0245940D01*
X0240014Y0245823D01*
X0239901Y0245708D01*
X0239785Y0245597D01*
X0239666Y0245488D01*
X0239545Y0245383D01*
X0239421Y0245280D01*
X0239295Y0245180D01*
X0239167Y0245084D01*
X0239036Y0244991D01*
X0238902Y0244901D01*
X0238767Y0244814D01*
X0238629Y0244731D01*
X0238490Y0244651D01*
X0238348Y0244575D01*
X0238205Y0244502D01*
X0238060Y0244433D01*
X0237913Y0244367D01*
X0237765Y0244305D01*
X0237615Y0244247D01*
X0237464Y0244192D01*
X0237311Y0244141D01*
X0237157Y0244094D01*
X0237002Y0244051D01*
X0236846Y0244012D01*
X0236690Y0243976D01*
X0236532Y0243945D01*
X0236374Y0243917D01*
X0236215Y0243893D01*
X0236055Y0243873D01*
X0235895Y0243857D01*
X0235735Y0243845D01*
X0235574Y0243837D01*
X0235413Y0243833D01*
X0235253Y0243833D01*
X0235092Y0243837D01*
X0234931Y0243845D01*
X0234771Y0243857D01*
X0234611Y0243873D01*
X0234451Y0243893D01*
X0234292Y0243917D01*
X0234134Y0243945D01*
X0233976Y0243976D01*
X0233820Y0244012D01*
X0233664Y0244051D01*
X0233509Y0244094D01*
X0233355Y0244141D01*
X0233202Y0244192D01*
X0233051Y0244247D01*
X0232901Y0244305D01*
X0232753Y0244367D01*
X0232606Y0244433D01*
X0232461Y0244502D01*
X0232318Y0244575D01*
X0232176Y0244651D01*
X0232037Y0244731D01*
X0231899Y0244814D01*
X0231764Y0244901D01*
X0231630Y0244991D01*
X0231499Y0245084D01*
X0231371Y0245180D01*
X0231245Y0245280D01*
X0231121Y0245383D01*
X0231000Y0245488D01*
X0230881Y0245597D01*
X0230765Y0245708D01*
X0230652Y0245823D01*
X0230542Y0245940D01*
X0230435Y0246060D01*
X0230331Y0246182D01*
X0230230Y0246307D01*
X0230132Y0246435D01*
X0230037Y0246565D01*
X0229945Y0246697D01*
X0229857Y0246831D01*
X0229772Y0246968D01*
X0229690Y0247106D01*
X0229612Y0247247D01*
X0229538Y0247389D01*
X0229467Y0247533D01*
X0229399Y0247679D01*
X0229336Y0247827D01*
X0229275Y0247976D01*
X0229219Y0248127D01*
X0229166Y0248279D01*
X0229117Y0248432D01*
X0229072Y0248586D01*
X0229031Y0248741D01*
X0228993Y0248898D01*
X0228960Y0249055D01*
X0228930Y0249213D01*
X0228904Y0249372D01*
X0228883Y0249531D01*
X0228865Y0249691D01*
X0228851Y0249851D01*
X0228841Y0250012D01*
X0228835Y0250172D01*
X0228833Y0250333D01*
X0368833Y0250333D02*
X0368835Y0250494D01*
X0368841Y0250654D01*
X0368851Y0250815D01*
X0368865Y0250975D01*
X0368883Y0251135D01*
X0368904Y0251294D01*
X0368930Y0251453D01*
X0368960Y0251611D01*
X0368993Y0251768D01*
X0369031Y0251925D01*
X0369072Y0252080D01*
X0369117Y0252234D01*
X0369166Y0252387D01*
X0369219Y0252539D01*
X0369275Y0252690D01*
X0369336Y0252839D01*
X0369399Y0252987D01*
X0369467Y0253133D01*
X0369538Y0253277D01*
X0369612Y0253419D01*
X0369690Y0253560D01*
X0369772Y0253698D01*
X0369857Y0253835D01*
X0369945Y0253969D01*
X0370037Y0254101D01*
X0370132Y0254231D01*
X0370230Y0254359D01*
X0370331Y0254484D01*
X0370435Y0254606D01*
X0370542Y0254726D01*
X0370652Y0254843D01*
X0370765Y0254958D01*
X0370881Y0255069D01*
X0371000Y0255178D01*
X0371121Y0255283D01*
X0371245Y0255386D01*
X0371371Y0255486D01*
X0371499Y0255582D01*
X0371630Y0255675D01*
X0371764Y0255765D01*
X0371899Y0255852D01*
X0372037Y0255935D01*
X0372176Y0256015D01*
X0372318Y0256091D01*
X0372461Y0256164D01*
X0372606Y0256233D01*
X0372753Y0256299D01*
X0372901Y0256361D01*
X0373051Y0256419D01*
X0373202Y0256474D01*
X0373355Y0256525D01*
X0373509Y0256572D01*
X0373664Y0256615D01*
X0373820Y0256654D01*
X0373976Y0256690D01*
X0374134Y0256721D01*
X0374292Y0256749D01*
X0374451Y0256773D01*
X0374611Y0256793D01*
X0374771Y0256809D01*
X0374931Y0256821D01*
X0375092Y0256829D01*
X0375253Y0256833D01*
X0375413Y0256833D01*
X0375574Y0256829D01*
X0375735Y0256821D01*
X0375895Y0256809D01*
X0376055Y0256793D01*
X0376215Y0256773D01*
X0376374Y0256749D01*
X0376532Y0256721D01*
X0376690Y0256690D01*
X0376846Y0256654D01*
X0377002Y0256615D01*
X0377157Y0256572D01*
X0377311Y0256525D01*
X0377464Y0256474D01*
X0377615Y0256419D01*
X0377765Y0256361D01*
X0377913Y0256299D01*
X0378060Y0256233D01*
X0378205Y0256164D01*
X0378348Y0256091D01*
X0378490Y0256015D01*
X0378629Y0255935D01*
X0378767Y0255852D01*
X0378902Y0255765D01*
X0379036Y0255675D01*
X0379167Y0255582D01*
X0379295Y0255486D01*
X0379421Y0255386D01*
X0379545Y0255283D01*
X0379666Y0255178D01*
X0379785Y0255069D01*
X0379901Y0254958D01*
X0380014Y0254843D01*
X0380124Y0254726D01*
X0380231Y0254606D01*
X0380335Y0254484D01*
X0380436Y0254359D01*
X0380534Y0254231D01*
X0380629Y0254101D01*
X0380721Y0253969D01*
X0380809Y0253835D01*
X0380894Y0253698D01*
X0380976Y0253560D01*
X0381054Y0253419D01*
X0381128Y0253277D01*
X0381199Y0253133D01*
X0381267Y0252987D01*
X0381330Y0252839D01*
X0381391Y0252690D01*
X0381447Y0252539D01*
X0381500Y0252387D01*
X0381549Y0252234D01*
X0381594Y0252080D01*
X0381635Y0251925D01*
X0381673Y0251768D01*
X0381706Y0251611D01*
X0381736Y0251453D01*
X0381762Y0251294D01*
X0381783Y0251135D01*
X0381801Y0250975D01*
X0381815Y0250815D01*
X0381825Y0250654D01*
X0381831Y0250494D01*
X0381833Y0250333D01*
X0381831Y0250172D01*
X0381825Y0250012D01*
X0381815Y0249851D01*
X0381801Y0249691D01*
X0381783Y0249531D01*
X0381762Y0249372D01*
X0381736Y0249213D01*
X0381706Y0249055D01*
X0381673Y0248898D01*
X0381635Y0248741D01*
X0381594Y0248586D01*
X0381549Y0248432D01*
X0381500Y0248279D01*
X0381447Y0248127D01*
X0381391Y0247976D01*
X0381330Y0247827D01*
X0381267Y0247679D01*
X0381199Y0247533D01*
X0381128Y0247389D01*
X0381054Y0247247D01*
X0380976Y0247106D01*
X0380894Y0246968D01*
X0380809Y0246831D01*
X0380721Y0246697D01*
X0380629Y0246565D01*
X0380534Y0246435D01*
X0380436Y0246307D01*
X0380335Y0246182D01*
X0380231Y0246060D01*
X0380124Y0245940D01*
X0380014Y0245823D01*
X0379901Y0245708D01*
X0379785Y0245597D01*
X0379666Y0245488D01*
X0379545Y0245383D01*
X0379421Y0245280D01*
X0379295Y0245180D01*
X0379167Y0245084D01*
X0379036Y0244991D01*
X0378902Y0244901D01*
X0378767Y0244814D01*
X0378629Y0244731D01*
X0378490Y0244651D01*
X0378348Y0244575D01*
X0378205Y0244502D01*
X0378060Y0244433D01*
X0377913Y0244367D01*
X0377765Y0244305D01*
X0377615Y0244247D01*
X0377464Y0244192D01*
X0377311Y0244141D01*
X0377157Y0244094D01*
X0377002Y0244051D01*
X0376846Y0244012D01*
X0376690Y0243976D01*
X0376532Y0243945D01*
X0376374Y0243917D01*
X0376215Y0243893D01*
X0376055Y0243873D01*
X0375895Y0243857D01*
X0375735Y0243845D01*
X0375574Y0243837D01*
X0375413Y0243833D01*
X0375253Y0243833D01*
X0375092Y0243837D01*
X0374931Y0243845D01*
X0374771Y0243857D01*
X0374611Y0243873D01*
X0374451Y0243893D01*
X0374292Y0243917D01*
X0374134Y0243945D01*
X0373976Y0243976D01*
X0373820Y0244012D01*
X0373664Y0244051D01*
X0373509Y0244094D01*
X0373355Y0244141D01*
X0373202Y0244192D01*
X0373051Y0244247D01*
X0372901Y0244305D01*
X0372753Y0244367D01*
X0372606Y0244433D01*
X0372461Y0244502D01*
X0372318Y0244575D01*
X0372176Y0244651D01*
X0372037Y0244731D01*
X0371899Y0244814D01*
X0371764Y0244901D01*
X0371630Y0244991D01*
X0371499Y0245084D01*
X0371371Y0245180D01*
X0371245Y0245280D01*
X0371121Y0245383D01*
X0371000Y0245488D01*
X0370881Y0245597D01*
X0370765Y0245708D01*
X0370652Y0245823D01*
X0370542Y0245940D01*
X0370435Y0246060D01*
X0370331Y0246182D01*
X0370230Y0246307D01*
X0370132Y0246435D01*
X0370037Y0246565D01*
X0369945Y0246697D01*
X0369857Y0246831D01*
X0369772Y0246968D01*
X0369690Y0247106D01*
X0369612Y0247247D01*
X0369538Y0247389D01*
X0369467Y0247533D01*
X0369399Y0247679D01*
X0369336Y0247827D01*
X0369275Y0247976D01*
X0369219Y0248127D01*
X0369166Y0248279D01*
X0369117Y0248432D01*
X0369072Y0248586D01*
X0369031Y0248741D01*
X0368993Y0248898D01*
X0368960Y0249055D01*
X0368930Y0249213D01*
X0368904Y0249372D01*
X0368883Y0249531D01*
X0368865Y0249691D01*
X0368851Y0249851D01*
X0368841Y0250012D01*
X0368835Y0250172D01*
X0368833Y0250333D01*
X0368833Y0228333D02*
X0368835Y0228494D01*
X0368841Y0228654D01*
X0368851Y0228815D01*
X0368865Y0228975D01*
X0368883Y0229135D01*
X0368904Y0229294D01*
X0368930Y0229453D01*
X0368960Y0229611D01*
X0368993Y0229768D01*
X0369031Y0229925D01*
X0369072Y0230080D01*
X0369117Y0230234D01*
X0369166Y0230387D01*
X0369219Y0230539D01*
X0369275Y0230690D01*
X0369336Y0230839D01*
X0369399Y0230987D01*
X0369467Y0231133D01*
X0369538Y0231277D01*
X0369612Y0231419D01*
X0369690Y0231560D01*
X0369772Y0231698D01*
X0369857Y0231835D01*
X0369945Y0231969D01*
X0370037Y0232101D01*
X0370132Y0232231D01*
X0370230Y0232359D01*
X0370331Y0232484D01*
X0370435Y0232606D01*
X0370542Y0232726D01*
X0370652Y0232843D01*
X0370765Y0232958D01*
X0370881Y0233069D01*
X0371000Y0233178D01*
X0371121Y0233283D01*
X0371245Y0233386D01*
X0371371Y0233486D01*
X0371499Y0233582D01*
X0371630Y0233675D01*
X0371764Y0233765D01*
X0371899Y0233852D01*
X0372037Y0233935D01*
X0372176Y0234015D01*
X0372318Y0234091D01*
X0372461Y0234164D01*
X0372606Y0234233D01*
X0372753Y0234299D01*
X0372901Y0234361D01*
X0373051Y0234419D01*
X0373202Y0234474D01*
X0373355Y0234525D01*
X0373509Y0234572D01*
X0373664Y0234615D01*
X0373820Y0234654D01*
X0373976Y0234690D01*
X0374134Y0234721D01*
X0374292Y0234749D01*
X0374451Y0234773D01*
X0374611Y0234793D01*
X0374771Y0234809D01*
X0374931Y0234821D01*
X0375092Y0234829D01*
X0375253Y0234833D01*
X0375413Y0234833D01*
X0375574Y0234829D01*
X0375735Y0234821D01*
X0375895Y0234809D01*
X0376055Y0234793D01*
X0376215Y0234773D01*
X0376374Y0234749D01*
X0376532Y0234721D01*
X0376690Y0234690D01*
X0376846Y0234654D01*
X0377002Y0234615D01*
X0377157Y0234572D01*
X0377311Y0234525D01*
X0377464Y0234474D01*
X0377615Y0234419D01*
X0377765Y0234361D01*
X0377913Y0234299D01*
X0378060Y0234233D01*
X0378205Y0234164D01*
X0378348Y0234091D01*
X0378490Y0234015D01*
X0378629Y0233935D01*
X0378767Y0233852D01*
X0378902Y0233765D01*
X0379036Y0233675D01*
X0379167Y0233582D01*
X0379295Y0233486D01*
X0379421Y0233386D01*
X0379545Y0233283D01*
X0379666Y0233178D01*
X0379785Y0233069D01*
X0379901Y0232958D01*
X0380014Y0232843D01*
X0380124Y0232726D01*
X0380231Y0232606D01*
X0380335Y0232484D01*
X0380436Y0232359D01*
X0380534Y0232231D01*
X0380629Y0232101D01*
X0380721Y0231969D01*
X0380809Y0231835D01*
X0380894Y0231698D01*
X0380976Y0231560D01*
X0381054Y0231419D01*
X0381128Y0231277D01*
X0381199Y0231133D01*
X0381267Y0230987D01*
X0381330Y0230839D01*
X0381391Y0230690D01*
X0381447Y0230539D01*
X0381500Y0230387D01*
X0381549Y0230234D01*
X0381594Y0230080D01*
X0381635Y0229925D01*
X0381673Y0229768D01*
X0381706Y0229611D01*
X0381736Y0229453D01*
X0381762Y0229294D01*
X0381783Y0229135D01*
X0381801Y0228975D01*
X0381815Y0228815D01*
X0381825Y0228654D01*
X0381831Y0228494D01*
X0381833Y0228333D01*
X0381831Y0228172D01*
X0381825Y0228012D01*
X0381815Y0227851D01*
X0381801Y0227691D01*
X0381783Y0227531D01*
X0381762Y0227372D01*
X0381736Y0227213D01*
X0381706Y0227055D01*
X0381673Y0226898D01*
X0381635Y0226741D01*
X0381594Y0226586D01*
X0381549Y0226432D01*
X0381500Y0226279D01*
X0381447Y0226127D01*
X0381391Y0225976D01*
X0381330Y0225827D01*
X0381267Y0225679D01*
X0381199Y0225533D01*
X0381128Y0225389D01*
X0381054Y0225247D01*
X0380976Y0225106D01*
X0380894Y0224968D01*
X0380809Y0224831D01*
X0380721Y0224697D01*
X0380629Y0224565D01*
X0380534Y0224435D01*
X0380436Y0224307D01*
X0380335Y0224182D01*
X0380231Y0224060D01*
X0380124Y0223940D01*
X0380014Y0223823D01*
X0379901Y0223708D01*
X0379785Y0223597D01*
X0379666Y0223488D01*
X0379545Y0223383D01*
X0379421Y0223280D01*
X0379295Y0223180D01*
X0379167Y0223084D01*
X0379036Y0222991D01*
X0378902Y0222901D01*
X0378767Y0222814D01*
X0378629Y0222731D01*
X0378490Y0222651D01*
X0378348Y0222575D01*
X0378205Y0222502D01*
X0378060Y0222433D01*
X0377913Y0222367D01*
X0377765Y0222305D01*
X0377615Y0222247D01*
X0377464Y0222192D01*
X0377311Y0222141D01*
X0377157Y0222094D01*
X0377002Y0222051D01*
X0376846Y0222012D01*
X0376690Y0221976D01*
X0376532Y0221945D01*
X0376374Y0221917D01*
X0376215Y0221893D01*
X0376055Y0221873D01*
X0375895Y0221857D01*
X0375735Y0221845D01*
X0375574Y0221837D01*
X0375413Y0221833D01*
X0375253Y0221833D01*
X0375092Y0221837D01*
X0374931Y0221845D01*
X0374771Y0221857D01*
X0374611Y0221873D01*
X0374451Y0221893D01*
X0374292Y0221917D01*
X0374134Y0221945D01*
X0373976Y0221976D01*
X0373820Y0222012D01*
X0373664Y0222051D01*
X0373509Y0222094D01*
X0373355Y0222141D01*
X0373202Y0222192D01*
X0373051Y0222247D01*
X0372901Y0222305D01*
X0372753Y0222367D01*
X0372606Y0222433D01*
X0372461Y0222502D01*
X0372318Y0222575D01*
X0372176Y0222651D01*
X0372037Y0222731D01*
X0371899Y0222814D01*
X0371764Y0222901D01*
X0371630Y0222991D01*
X0371499Y0223084D01*
X0371371Y0223180D01*
X0371245Y0223280D01*
X0371121Y0223383D01*
X0371000Y0223488D01*
X0370881Y0223597D01*
X0370765Y0223708D01*
X0370652Y0223823D01*
X0370542Y0223940D01*
X0370435Y0224060D01*
X0370331Y0224182D01*
X0370230Y0224307D01*
X0370132Y0224435D01*
X0370037Y0224565D01*
X0369945Y0224697D01*
X0369857Y0224831D01*
X0369772Y0224968D01*
X0369690Y0225106D01*
X0369612Y0225247D01*
X0369538Y0225389D01*
X0369467Y0225533D01*
X0369399Y0225679D01*
X0369336Y0225827D01*
X0369275Y0225976D01*
X0369219Y0226127D01*
X0369166Y0226279D01*
X0369117Y0226432D01*
X0369072Y0226586D01*
X0369031Y0226741D01*
X0368993Y0226898D01*
X0368960Y0227055D01*
X0368930Y0227213D01*
X0368904Y0227372D01*
X0368883Y0227531D01*
X0368865Y0227691D01*
X0368851Y0227851D01*
X0368841Y0228012D01*
X0368835Y0228172D01*
X0368833Y0228333D01*
X0368833Y0033333D02*
X0368835Y0033494D01*
X0368841Y0033654D01*
X0368851Y0033815D01*
X0368865Y0033975D01*
X0368883Y0034135D01*
X0368904Y0034294D01*
X0368930Y0034453D01*
X0368960Y0034611D01*
X0368993Y0034768D01*
X0369031Y0034925D01*
X0369072Y0035080D01*
X0369117Y0035234D01*
X0369166Y0035387D01*
X0369219Y0035539D01*
X0369275Y0035690D01*
X0369336Y0035839D01*
X0369399Y0035987D01*
X0369467Y0036133D01*
X0369538Y0036277D01*
X0369612Y0036419D01*
X0369690Y0036560D01*
X0369772Y0036698D01*
X0369857Y0036835D01*
X0369945Y0036969D01*
X0370037Y0037101D01*
X0370132Y0037231D01*
X0370230Y0037359D01*
X0370331Y0037484D01*
X0370435Y0037606D01*
X0370542Y0037726D01*
X0370652Y0037843D01*
X0370765Y0037958D01*
X0370881Y0038069D01*
X0371000Y0038178D01*
X0371121Y0038283D01*
X0371245Y0038386D01*
X0371371Y0038486D01*
X0371499Y0038582D01*
X0371630Y0038675D01*
X0371764Y0038765D01*
X0371899Y0038852D01*
X0372037Y0038935D01*
X0372176Y0039015D01*
X0372318Y0039091D01*
X0372461Y0039164D01*
X0372606Y0039233D01*
X0372753Y0039299D01*
X0372901Y0039361D01*
X0373051Y0039419D01*
X0373202Y0039474D01*
X0373355Y0039525D01*
X0373509Y0039572D01*
X0373664Y0039615D01*
X0373820Y0039654D01*
X0373976Y0039690D01*
X0374134Y0039721D01*
X0374292Y0039749D01*
X0374451Y0039773D01*
X0374611Y0039793D01*
X0374771Y0039809D01*
X0374931Y0039821D01*
X0375092Y0039829D01*
X0375253Y0039833D01*
X0375413Y0039833D01*
X0375574Y0039829D01*
X0375735Y0039821D01*
X0375895Y0039809D01*
X0376055Y0039793D01*
X0376215Y0039773D01*
X0376374Y0039749D01*
X0376532Y0039721D01*
X0376690Y0039690D01*
X0376846Y0039654D01*
X0377002Y0039615D01*
X0377157Y0039572D01*
X0377311Y0039525D01*
X0377464Y0039474D01*
X0377615Y0039419D01*
X0377765Y0039361D01*
X0377913Y0039299D01*
X0378060Y0039233D01*
X0378205Y0039164D01*
X0378348Y0039091D01*
X0378490Y0039015D01*
X0378629Y0038935D01*
X0378767Y0038852D01*
X0378902Y0038765D01*
X0379036Y0038675D01*
X0379167Y0038582D01*
X0379295Y0038486D01*
X0379421Y0038386D01*
X0379545Y0038283D01*
X0379666Y0038178D01*
X0379785Y0038069D01*
X0379901Y0037958D01*
X0380014Y0037843D01*
X0380124Y0037726D01*
X0380231Y0037606D01*
X0380335Y0037484D01*
X0380436Y0037359D01*
X0380534Y0037231D01*
X0380629Y0037101D01*
X0380721Y0036969D01*
X0380809Y0036835D01*
X0380894Y0036698D01*
X0380976Y0036560D01*
X0381054Y0036419D01*
X0381128Y0036277D01*
X0381199Y0036133D01*
X0381267Y0035987D01*
X0381330Y0035839D01*
X0381391Y0035690D01*
X0381447Y0035539D01*
X0381500Y0035387D01*
X0381549Y0035234D01*
X0381594Y0035080D01*
X0381635Y0034925D01*
X0381673Y0034768D01*
X0381706Y0034611D01*
X0381736Y0034453D01*
X0381762Y0034294D01*
X0381783Y0034135D01*
X0381801Y0033975D01*
X0381815Y0033815D01*
X0381825Y0033654D01*
X0381831Y0033494D01*
X0381833Y0033333D01*
X0381831Y0033172D01*
X0381825Y0033012D01*
X0381815Y0032851D01*
X0381801Y0032691D01*
X0381783Y0032531D01*
X0381762Y0032372D01*
X0381736Y0032213D01*
X0381706Y0032055D01*
X0381673Y0031898D01*
X0381635Y0031741D01*
X0381594Y0031586D01*
X0381549Y0031432D01*
X0381500Y0031279D01*
X0381447Y0031127D01*
X0381391Y0030976D01*
X0381330Y0030827D01*
X0381267Y0030679D01*
X0381199Y0030533D01*
X0381128Y0030389D01*
X0381054Y0030247D01*
X0380976Y0030106D01*
X0380894Y0029968D01*
X0380809Y0029831D01*
X0380721Y0029697D01*
X0380629Y0029565D01*
X0380534Y0029435D01*
X0380436Y0029307D01*
X0380335Y0029182D01*
X0380231Y0029060D01*
X0380124Y0028940D01*
X0380014Y0028823D01*
X0379901Y0028708D01*
X0379785Y0028597D01*
X0379666Y0028488D01*
X0379545Y0028383D01*
X0379421Y0028280D01*
X0379295Y0028180D01*
X0379167Y0028084D01*
X0379036Y0027991D01*
X0378902Y0027901D01*
X0378767Y0027814D01*
X0378629Y0027731D01*
X0378490Y0027651D01*
X0378348Y0027575D01*
X0378205Y0027502D01*
X0378060Y0027433D01*
X0377913Y0027367D01*
X0377765Y0027305D01*
X0377615Y0027247D01*
X0377464Y0027192D01*
X0377311Y0027141D01*
X0377157Y0027094D01*
X0377002Y0027051D01*
X0376846Y0027012D01*
X0376690Y0026976D01*
X0376532Y0026945D01*
X0376374Y0026917D01*
X0376215Y0026893D01*
X0376055Y0026873D01*
X0375895Y0026857D01*
X0375735Y0026845D01*
X0375574Y0026837D01*
X0375413Y0026833D01*
X0375253Y0026833D01*
X0375092Y0026837D01*
X0374931Y0026845D01*
X0374771Y0026857D01*
X0374611Y0026873D01*
X0374451Y0026893D01*
X0374292Y0026917D01*
X0374134Y0026945D01*
X0373976Y0026976D01*
X0373820Y0027012D01*
X0373664Y0027051D01*
X0373509Y0027094D01*
X0373355Y0027141D01*
X0373202Y0027192D01*
X0373051Y0027247D01*
X0372901Y0027305D01*
X0372753Y0027367D01*
X0372606Y0027433D01*
X0372461Y0027502D01*
X0372318Y0027575D01*
X0372176Y0027651D01*
X0372037Y0027731D01*
X0371899Y0027814D01*
X0371764Y0027901D01*
X0371630Y0027991D01*
X0371499Y0028084D01*
X0371371Y0028180D01*
X0371245Y0028280D01*
X0371121Y0028383D01*
X0371000Y0028488D01*
X0370881Y0028597D01*
X0370765Y0028708D01*
X0370652Y0028823D01*
X0370542Y0028940D01*
X0370435Y0029060D01*
X0370331Y0029182D01*
X0370230Y0029307D01*
X0370132Y0029435D01*
X0370037Y0029565D01*
X0369945Y0029697D01*
X0369857Y0029831D01*
X0369772Y0029968D01*
X0369690Y0030106D01*
X0369612Y0030247D01*
X0369538Y0030389D01*
X0369467Y0030533D01*
X0369399Y0030679D01*
X0369336Y0030827D01*
X0369275Y0030976D01*
X0369219Y0031127D01*
X0369166Y0031279D01*
X0369117Y0031432D01*
X0369072Y0031586D01*
X0369031Y0031741D01*
X0368993Y0031898D01*
X0368960Y0032055D01*
X0368930Y0032213D01*
X0368904Y0032372D01*
X0368883Y0032531D01*
X0368865Y0032691D01*
X0368851Y0032851D01*
X0368841Y0033012D01*
X0368835Y0033172D01*
X0368833Y0033333D01*
X0368833Y0445333D02*
X0368835Y0445494D01*
X0368841Y0445654D01*
X0368851Y0445815D01*
X0368865Y0445975D01*
X0368883Y0446135D01*
X0368904Y0446294D01*
X0368930Y0446453D01*
X0368960Y0446611D01*
X0368993Y0446768D01*
X0369031Y0446925D01*
X0369072Y0447080D01*
X0369117Y0447234D01*
X0369166Y0447387D01*
X0369219Y0447539D01*
X0369275Y0447690D01*
X0369336Y0447839D01*
X0369399Y0447987D01*
X0369467Y0448133D01*
X0369538Y0448277D01*
X0369612Y0448419D01*
X0369690Y0448560D01*
X0369772Y0448698D01*
X0369857Y0448835D01*
X0369945Y0448969D01*
X0370037Y0449101D01*
X0370132Y0449231D01*
X0370230Y0449359D01*
X0370331Y0449484D01*
X0370435Y0449606D01*
X0370542Y0449726D01*
X0370652Y0449843D01*
X0370765Y0449958D01*
X0370881Y0450069D01*
X0371000Y0450178D01*
X0371121Y0450283D01*
X0371245Y0450386D01*
X0371371Y0450486D01*
X0371499Y0450582D01*
X0371630Y0450675D01*
X0371764Y0450765D01*
X0371899Y0450852D01*
X0372037Y0450935D01*
X0372176Y0451015D01*
X0372318Y0451091D01*
X0372461Y0451164D01*
X0372606Y0451233D01*
X0372753Y0451299D01*
X0372901Y0451361D01*
X0373051Y0451419D01*
X0373202Y0451474D01*
X0373355Y0451525D01*
X0373509Y0451572D01*
X0373664Y0451615D01*
X0373820Y0451654D01*
X0373976Y0451690D01*
X0374134Y0451721D01*
X0374292Y0451749D01*
X0374451Y0451773D01*
X0374611Y0451793D01*
X0374771Y0451809D01*
X0374931Y0451821D01*
X0375092Y0451829D01*
X0375253Y0451833D01*
X0375413Y0451833D01*
X0375574Y0451829D01*
X0375735Y0451821D01*
X0375895Y0451809D01*
X0376055Y0451793D01*
X0376215Y0451773D01*
X0376374Y0451749D01*
X0376532Y0451721D01*
X0376690Y0451690D01*
X0376846Y0451654D01*
X0377002Y0451615D01*
X0377157Y0451572D01*
X0377311Y0451525D01*
X0377464Y0451474D01*
X0377615Y0451419D01*
X0377765Y0451361D01*
X0377913Y0451299D01*
X0378060Y0451233D01*
X0378205Y0451164D01*
X0378348Y0451091D01*
X0378490Y0451015D01*
X0378629Y0450935D01*
X0378767Y0450852D01*
X0378902Y0450765D01*
X0379036Y0450675D01*
X0379167Y0450582D01*
X0379295Y0450486D01*
X0379421Y0450386D01*
X0379545Y0450283D01*
X0379666Y0450178D01*
X0379785Y0450069D01*
X0379901Y0449958D01*
X0380014Y0449843D01*
X0380124Y0449726D01*
X0380231Y0449606D01*
X0380335Y0449484D01*
X0380436Y0449359D01*
X0380534Y0449231D01*
X0380629Y0449101D01*
X0380721Y0448969D01*
X0380809Y0448835D01*
X0380894Y0448698D01*
X0380976Y0448560D01*
X0381054Y0448419D01*
X0381128Y0448277D01*
X0381199Y0448133D01*
X0381267Y0447987D01*
X0381330Y0447839D01*
X0381391Y0447690D01*
X0381447Y0447539D01*
X0381500Y0447387D01*
X0381549Y0447234D01*
X0381594Y0447080D01*
X0381635Y0446925D01*
X0381673Y0446768D01*
X0381706Y0446611D01*
X0381736Y0446453D01*
X0381762Y0446294D01*
X0381783Y0446135D01*
X0381801Y0445975D01*
X0381815Y0445815D01*
X0381825Y0445654D01*
X0381831Y0445494D01*
X0381833Y0445333D01*
X0381831Y0445172D01*
X0381825Y0445012D01*
X0381815Y0444851D01*
X0381801Y0444691D01*
X0381783Y0444531D01*
X0381762Y0444372D01*
X0381736Y0444213D01*
X0381706Y0444055D01*
X0381673Y0443898D01*
X0381635Y0443741D01*
X0381594Y0443586D01*
X0381549Y0443432D01*
X0381500Y0443279D01*
X0381447Y0443127D01*
X0381391Y0442976D01*
X0381330Y0442827D01*
X0381267Y0442679D01*
X0381199Y0442533D01*
X0381128Y0442389D01*
X0381054Y0442247D01*
X0380976Y0442106D01*
X0380894Y0441968D01*
X0380809Y0441831D01*
X0380721Y0441697D01*
X0380629Y0441565D01*
X0380534Y0441435D01*
X0380436Y0441307D01*
X0380335Y0441182D01*
X0380231Y0441060D01*
X0380124Y0440940D01*
X0380014Y0440823D01*
X0379901Y0440708D01*
X0379785Y0440597D01*
X0379666Y0440488D01*
X0379545Y0440383D01*
X0379421Y0440280D01*
X0379295Y0440180D01*
X0379167Y0440084D01*
X0379036Y0439991D01*
X0378902Y0439901D01*
X0378767Y0439814D01*
X0378629Y0439731D01*
X0378490Y0439651D01*
X0378348Y0439575D01*
X0378205Y0439502D01*
X0378060Y0439433D01*
X0377913Y0439367D01*
X0377765Y0439305D01*
X0377615Y0439247D01*
X0377464Y0439192D01*
X0377311Y0439141D01*
X0377157Y0439094D01*
X0377002Y0439051D01*
X0376846Y0439012D01*
X0376690Y0438976D01*
X0376532Y0438945D01*
X0376374Y0438917D01*
X0376215Y0438893D01*
X0376055Y0438873D01*
X0375895Y0438857D01*
X0375735Y0438845D01*
X0375574Y0438837D01*
X0375413Y0438833D01*
X0375253Y0438833D01*
X0375092Y0438837D01*
X0374931Y0438845D01*
X0374771Y0438857D01*
X0374611Y0438873D01*
X0374451Y0438893D01*
X0374292Y0438917D01*
X0374134Y0438945D01*
X0373976Y0438976D01*
X0373820Y0439012D01*
X0373664Y0439051D01*
X0373509Y0439094D01*
X0373355Y0439141D01*
X0373202Y0439192D01*
X0373051Y0439247D01*
X0372901Y0439305D01*
X0372753Y0439367D01*
X0372606Y0439433D01*
X0372461Y0439502D01*
X0372318Y0439575D01*
X0372176Y0439651D01*
X0372037Y0439731D01*
X0371899Y0439814D01*
X0371764Y0439901D01*
X0371630Y0439991D01*
X0371499Y0440084D01*
X0371371Y0440180D01*
X0371245Y0440280D01*
X0371121Y0440383D01*
X0371000Y0440488D01*
X0370881Y0440597D01*
X0370765Y0440708D01*
X0370652Y0440823D01*
X0370542Y0440940D01*
X0370435Y0441060D01*
X0370331Y0441182D01*
X0370230Y0441307D01*
X0370132Y0441435D01*
X0370037Y0441565D01*
X0369945Y0441697D01*
X0369857Y0441831D01*
X0369772Y0441968D01*
X0369690Y0442106D01*
X0369612Y0442247D01*
X0369538Y0442389D01*
X0369467Y0442533D01*
X0369399Y0442679D01*
X0369336Y0442827D01*
X0369275Y0442976D01*
X0369219Y0443127D01*
X0369166Y0443279D01*
X0369117Y0443432D01*
X0369072Y0443586D01*
X0369031Y0443741D01*
X0368993Y0443898D01*
X0368960Y0444055D01*
X0368930Y0444213D01*
X0368904Y0444372D01*
X0368883Y0444531D01*
X0368865Y0444691D01*
X0368851Y0444851D01*
X0368841Y0445012D01*
X0368835Y0445172D01*
X0368833Y0445333D01*
X0228833Y0445333D02*
X0228835Y0445494D01*
X0228841Y0445654D01*
X0228851Y0445815D01*
X0228865Y0445975D01*
X0228883Y0446135D01*
X0228904Y0446294D01*
X0228930Y0446453D01*
X0228960Y0446611D01*
X0228993Y0446768D01*
X0229031Y0446925D01*
X0229072Y0447080D01*
X0229117Y0447234D01*
X0229166Y0447387D01*
X0229219Y0447539D01*
X0229275Y0447690D01*
X0229336Y0447839D01*
X0229399Y0447987D01*
X0229467Y0448133D01*
X0229538Y0448277D01*
X0229612Y0448419D01*
X0229690Y0448560D01*
X0229772Y0448698D01*
X0229857Y0448835D01*
X0229945Y0448969D01*
X0230037Y0449101D01*
X0230132Y0449231D01*
X0230230Y0449359D01*
X0230331Y0449484D01*
X0230435Y0449606D01*
X0230542Y0449726D01*
X0230652Y0449843D01*
X0230765Y0449958D01*
X0230881Y0450069D01*
X0231000Y0450178D01*
X0231121Y0450283D01*
X0231245Y0450386D01*
X0231371Y0450486D01*
X0231499Y0450582D01*
X0231630Y0450675D01*
X0231764Y0450765D01*
X0231899Y0450852D01*
X0232037Y0450935D01*
X0232176Y0451015D01*
X0232318Y0451091D01*
X0232461Y0451164D01*
X0232606Y0451233D01*
X0232753Y0451299D01*
X0232901Y0451361D01*
X0233051Y0451419D01*
X0233202Y0451474D01*
X0233355Y0451525D01*
X0233509Y0451572D01*
X0233664Y0451615D01*
X0233820Y0451654D01*
X0233976Y0451690D01*
X0234134Y0451721D01*
X0234292Y0451749D01*
X0234451Y0451773D01*
X0234611Y0451793D01*
X0234771Y0451809D01*
X0234931Y0451821D01*
X0235092Y0451829D01*
X0235253Y0451833D01*
X0235413Y0451833D01*
X0235574Y0451829D01*
X0235735Y0451821D01*
X0235895Y0451809D01*
X0236055Y0451793D01*
X0236215Y0451773D01*
X0236374Y0451749D01*
X0236532Y0451721D01*
X0236690Y0451690D01*
X0236846Y0451654D01*
X0237002Y0451615D01*
X0237157Y0451572D01*
X0237311Y0451525D01*
X0237464Y0451474D01*
X0237615Y0451419D01*
X0237765Y0451361D01*
X0237913Y0451299D01*
X0238060Y0451233D01*
X0238205Y0451164D01*
X0238348Y0451091D01*
X0238490Y0451015D01*
X0238629Y0450935D01*
X0238767Y0450852D01*
X0238902Y0450765D01*
X0239036Y0450675D01*
X0239167Y0450582D01*
X0239295Y0450486D01*
X0239421Y0450386D01*
X0239545Y0450283D01*
X0239666Y0450178D01*
X0239785Y0450069D01*
X0239901Y0449958D01*
X0240014Y0449843D01*
X0240124Y0449726D01*
X0240231Y0449606D01*
X0240335Y0449484D01*
X0240436Y0449359D01*
X0240534Y0449231D01*
X0240629Y0449101D01*
X0240721Y0448969D01*
X0240809Y0448835D01*
X0240894Y0448698D01*
X0240976Y0448560D01*
X0241054Y0448419D01*
X0241128Y0448277D01*
X0241199Y0448133D01*
X0241267Y0447987D01*
X0241330Y0447839D01*
X0241391Y0447690D01*
X0241447Y0447539D01*
X0241500Y0447387D01*
X0241549Y0447234D01*
X0241594Y0447080D01*
X0241635Y0446925D01*
X0241673Y0446768D01*
X0241706Y0446611D01*
X0241736Y0446453D01*
X0241762Y0446294D01*
X0241783Y0446135D01*
X0241801Y0445975D01*
X0241815Y0445815D01*
X0241825Y0445654D01*
X0241831Y0445494D01*
X0241833Y0445333D01*
X0241831Y0445172D01*
X0241825Y0445012D01*
X0241815Y0444851D01*
X0241801Y0444691D01*
X0241783Y0444531D01*
X0241762Y0444372D01*
X0241736Y0444213D01*
X0241706Y0444055D01*
X0241673Y0443898D01*
X0241635Y0443741D01*
X0241594Y0443586D01*
X0241549Y0443432D01*
X0241500Y0443279D01*
X0241447Y0443127D01*
X0241391Y0442976D01*
X0241330Y0442827D01*
X0241267Y0442679D01*
X0241199Y0442533D01*
X0241128Y0442389D01*
X0241054Y0442247D01*
X0240976Y0442106D01*
X0240894Y0441968D01*
X0240809Y0441831D01*
X0240721Y0441697D01*
X0240629Y0441565D01*
X0240534Y0441435D01*
X0240436Y0441307D01*
X0240335Y0441182D01*
X0240231Y0441060D01*
X0240124Y0440940D01*
X0240014Y0440823D01*
X0239901Y0440708D01*
X0239785Y0440597D01*
X0239666Y0440488D01*
X0239545Y0440383D01*
X0239421Y0440280D01*
X0239295Y0440180D01*
X0239167Y0440084D01*
X0239036Y0439991D01*
X0238902Y0439901D01*
X0238767Y0439814D01*
X0238629Y0439731D01*
X0238490Y0439651D01*
X0238348Y0439575D01*
X0238205Y0439502D01*
X0238060Y0439433D01*
X0237913Y0439367D01*
X0237765Y0439305D01*
X0237615Y0439247D01*
X0237464Y0439192D01*
X0237311Y0439141D01*
X0237157Y0439094D01*
X0237002Y0439051D01*
X0236846Y0439012D01*
X0236690Y0438976D01*
X0236532Y0438945D01*
X0236374Y0438917D01*
X0236215Y0438893D01*
X0236055Y0438873D01*
X0235895Y0438857D01*
X0235735Y0438845D01*
X0235574Y0438837D01*
X0235413Y0438833D01*
X0235253Y0438833D01*
X0235092Y0438837D01*
X0234931Y0438845D01*
X0234771Y0438857D01*
X0234611Y0438873D01*
X0234451Y0438893D01*
X0234292Y0438917D01*
X0234134Y0438945D01*
X0233976Y0438976D01*
X0233820Y0439012D01*
X0233664Y0439051D01*
X0233509Y0439094D01*
X0233355Y0439141D01*
X0233202Y0439192D01*
X0233051Y0439247D01*
X0232901Y0439305D01*
X0232753Y0439367D01*
X0232606Y0439433D01*
X0232461Y0439502D01*
X0232318Y0439575D01*
X0232176Y0439651D01*
X0232037Y0439731D01*
X0231899Y0439814D01*
X0231764Y0439901D01*
X0231630Y0439991D01*
X0231499Y0440084D01*
X0231371Y0440180D01*
X0231245Y0440280D01*
X0231121Y0440383D01*
X0231000Y0440488D01*
X0230881Y0440597D01*
X0230765Y0440708D01*
X0230652Y0440823D01*
X0230542Y0440940D01*
X0230435Y0441060D01*
X0230331Y0441182D01*
X0230230Y0441307D01*
X0230132Y0441435D01*
X0230037Y0441565D01*
X0229945Y0441697D01*
X0229857Y0441831D01*
X0229772Y0441968D01*
X0229690Y0442106D01*
X0229612Y0442247D01*
X0229538Y0442389D01*
X0229467Y0442533D01*
X0229399Y0442679D01*
X0229336Y0442827D01*
X0229275Y0442976D01*
X0229219Y0443127D01*
X0229166Y0443279D01*
X0229117Y0443432D01*
X0229072Y0443586D01*
X0229031Y0443741D01*
X0228993Y0443898D01*
X0228960Y0444055D01*
X0228930Y0444213D01*
X0228904Y0444372D01*
X0228883Y0444531D01*
X0228865Y0444691D01*
X0228851Y0444851D01*
X0228841Y0445012D01*
X0228835Y0445172D01*
X0228833Y0445333D01*
X0206833Y0445333D02*
X0206835Y0445494D01*
X0206841Y0445654D01*
X0206851Y0445815D01*
X0206865Y0445975D01*
X0206883Y0446135D01*
X0206904Y0446294D01*
X0206930Y0446453D01*
X0206960Y0446611D01*
X0206993Y0446768D01*
X0207031Y0446925D01*
X0207072Y0447080D01*
X0207117Y0447234D01*
X0207166Y0447387D01*
X0207219Y0447539D01*
X0207275Y0447690D01*
X0207336Y0447839D01*
X0207399Y0447987D01*
X0207467Y0448133D01*
X0207538Y0448277D01*
X0207612Y0448419D01*
X0207690Y0448560D01*
X0207772Y0448698D01*
X0207857Y0448835D01*
X0207945Y0448969D01*
X0208037Y0449101D01*
X0208132Y0449231D01*
X0208230Y0449359D01*
X0208331Y0449484D01*
X0208435Y0449606D01*
X0208542Y0449726D01*
X0208652Y0449843D01*
X0208765Y0449958D01*
X0208881Y0450069D01*
X0209000Y0450178D01*
X0209121Y0450283D01*
X0209245Y0450386D01*
X0209371Y0450486D01*
X0209499Y0450582D01*
X0209630Y0450675D01*
X0209764Y0450765D01*
X0209899Y0450852D01*
X0210037Y0450935D01*
X0210176Y0451015D01*
X0210318Y0451091D01*
X0210461Y0451164D01*
X0210606Y0451233D01*
X0210753Y0451299D01*
X0210901Y0451361D01*
X0211051Y0451419D01*
X0211202Y0451474D01*
X0211355Y0451525D01*
X0211509Y0451572D01*
X0211664Y0451615D01*
X0211820Y0451654D01*
X0211976Y0451690D01*
X0212134Y0451721D01*
X0212292Y0451749D01*
X0212451Y0451773D01*
X0212611Y0451793D01*
X0212771Y0451809D01*
X0212931Y0451821D01*
X0213092Y0451829D01*
X0213253Y0451833D01*
X0213413Y0451833D01*
X0213574Y0451829D01*
X0213735Y0451821D01*
X0213895Y0451809D01*
X0214055Y0451793D01*
X0214215Y0451773D01*
X0214374Y0451749D01*
X0214532Y0451721D01*
X0214690Y0451690D01*
X0214846Y0451654D01*
X0215002Y0451615D01*
X0215157Y0451572D01*
X0215311Y0451525D01*
X0215464Y0451474D01*
X0215615Y0451419D01*
X0215765Y0451361D01*
X0215913Y0451299D01*
X0216060Y0451233D01*
X0216205Y0451164D01*
X0216348Y0451091D01*
X0216490Y0451015D01*
X0216629Y0450935D01*
X0216767Y0450852D01*
X0216902Y0450765D01*
X0217036Y0450675D01*
X0217167Y0450582D01*
X0217295Y0450486D01*
X0217421Y0450386D01*
X0217545Y0450283D01*
X0217666Y0450178D01*
X0217785Y0450069D01*
X0217901Y0449958D01*
X0218014Y0449843D01*
X0218124Y0449726D01*
X0218231Y0449606D01*
X0218335Y0449484D01*
X0218436Y0449359D01*
X0218534Y0449231D01*
X0218629Y0449101D01*
X0218721Y0448969D01*
X0218809Y0448835D01*
X0218894Y0448698D01*
X0218976Y0448560D01*
X0219054Y0448419D01*
X0219128Y0448277D01*
X0219199Y0448133D01*
X0219267Y0447987D01*
X0219330Y0447839D01*
X0219391Y0447690D01*
X0219447Y0447539D01*
X0219500Y0447387D01*
X0219549Y0447234D01*
X0219594Y0447080D01*
X0219635Y0446925D01*
X0219673Y0446768D01*
X0219706Y0446611D01*
X0219736Y0446453D01*
X0219762Y0446294D01*
X0219783Y0446135D01*
X0219801Y0445975D01*
X0219815Y0445815D01*
X0219825Y0445654D01*
X0219831Y0445494D01*
X0219833Y0445333D01*
X0219831Y0445172D01*
X0219825Y0445012D01*
X0219815Y0444851D01*
X0219801Y0444691D01*
X0219783Y0444531D01*
X0219762Y0444372D01*
X0219736Y0444213D01*
X0219706Y0444055D01*
X0219673Y0443898D01*
X0219635Y0443741D01*
X0219594Y0443586D01*
X0219549Y0443432D01*
X0219500Y0443279D01*
X0219447Y0443127D01*
X0219391Y0442976D01*
X0219330Y0442827D01*
X0219267Y0442679D01*
X0219199Y0442533D01*
X0219128Y0442389D01*
X0219054Y0442247D01*
X0218976Y0442106D01*
X0218894Y0441968D01*
X0218809Y0441831D01*
X0218721Y0441697D01*
X0218629Y0441565D01*
X0218534Y0441435D01*
X0218436Y0441307D01*
X0218335Y0441182D01*
X0218231Y0441060D01*
X0218124Y0440940D01*
X0218014Y0440823D01*
X0217901Y0440708D01*
X0217785Y0440597D01*
X0217666Y0440488D01*
X0217545Y0440383D01*
X0217421Y0440280D01*
X0217295Y0440180D01*
X0217167Y0440084D01*
X0217036Y0439991D01*
X0216902Y0439901D01*
X0216767Y0439814D01*
X0216629Y0439731D01*
X0216490Y0439651D01*
X0216348Y0439575D01*
X0216205Y0439502D01*
X0216060Y0439433D01*
X0215913Y0439367D01*
X0215765Y0439305D01*
X0215615Y0439247D01*
X0215464Y0439192D01*
X0215311Y0439141D01*
X0215157Y0439094D01*
X0215002Y0439051D01*
X0214846Y0439012D01*
X0214690Y0438976D01*
X0214532Y0438945D01*
X0214374Y0438917D01*
X0214215Y0438893D01*
X0214055Y0438873D01*
X0213895Y0438857D01*
X0213735Y0438845D01*
X0213574Y0438837D01*
X0213413Y0438833D01*
X0213253Y0438833D01*
X0213092Y0438837D01*
X0212931Y0438845D01*
X0212771Y0438857D01*
X0212611Y0438873D01*
X0212451Y0438893D01*
X0212292Y0438917D01*
X0212134Y0438945D01*
X0211976Y0438976D01*
X0211820Y0439012D01*
X0211664Y0439051D01*
X0211509Y0439094D01*
X0211355Y0439141D01*
X0211202Y0439192D01*
X0211051Y0439247D01*
X0210901Y0439305D01*
X0210753Y0439367D01*
X0210606Y0439433D01*
X0210461Y0439502D01*
X0210318Y0439575D01*
X0210176Y0439651D01*
X0210037Y0439731D01*
X0209899Y0439814D01*
X0209764Y0439901D01*
X0209630Y0439991D01*
X0209499Y0440084D01*
X0209371Y0440180D01*
X0209245Y0440280D01*
X0209121Y0440383D01*
X0209000Y0440488D01*
X0208881Y0440597D01*
X0208765Y0440708D01*
X0208652Y0440823D01*
X0208542Y0440940D01*
X0208435Y0441060D01*
X0208331Y0441182D01*
X0208230Y0441307D01*
X0208132Y0441435D01*
X0208037Y0441565D01*
X0207945Y0441697D01*
X0207857Y0441831D01*
X0207772Y0441968D01*
X0207690Y0442106D01*
X0207612Y0442247D01*
X0207538Y0442389D01*
X0207467Y0442533D01*
X0207399Y0442679D01*
X0207336Y0442827D01*
X0207275Y0442976D01*
X0207219Y0443127D01*
X0207166Y0443279D01*
X0207117Y0443432D01*
X0207072Y0443586D01*
X0207031Y0443741D01*
X0206993Y0443898D01*
X0206960Y0444055D01*
X0206930Y0444213D01*
X0206904Y0444372D01*
X0206883Y0444531D01*
X0206865Y0444691D01*
X0206851Y0444851D01*
X0206841Y0445012D01*
X0206835Y0445172D01*
X0206833Y0445333D01*
X0066833Y0445333D02*
X0066835Y0445494D01*
X0066841Y0445654D01*
X0066851Y0445815D01*
X0066865Y0445975D01*
X0066883Y0446135D01*
X0066904Y0446294D01*
X0066930Y0446453D01*
X0066960Y0446611D01*
X0066993Y0446768D01*
X0067031Y0446925D01*
X0067072Y0447080D01*
X0067117Y0447234D01*
X0067166Y0447387D01*
X0067219Y0447539D01*
X0067275Y0447690D01*
X0067336Y0447839D01*
X0067399Y0447987D01*
X0067467Y0448133D01*
X0067538Y0448277D01*
X0067612Y0448419D01*
X0067690Y0448560D01*
X0067772Y0448698D01*
X0067857Y0448835D01*
X0067945Y0448969D01*
X0068037Y0449101D01*
X0068132Y0449231D01*
X0068230Y0449359D01*
X0068331Y0449484D01*
X0068435Y0449606D01*
X0068542Y0449726D01*
X0068652Y0449843D01*
X0068765Y0449958D01*
X0068881Y0450069D01*
X0069000Y0450178D01*
X0069121Y0450283D01*
X0069245Y0450386D01*
X0069371Y0450486D01*
X0069499Y0450582D01*
X0069630Y0450675D01*
X0069764Y0450765D01*
X0069899Y0450852D01*
X0070037Y0450935D01*
X0070176Y0451015D01*
X0070318Y0451091D01*
X0070461Y0451164D01*
X0070606Y0451233D01*
X0070753Y0451299D01*
X0070901Y0451361D01*
X0071051Y0451419D01*
X0071202Y0451474D01*
X0071355Y0451525D01*
X0071509Y0451572D01*
X0071664Y0451615D01*
X0071820Y0451654D01*
X0071976Y0451690D01*
X0072134Y0451721D01*
X0072292Y0451749D01*
X0072451Y0451773D01*
X0072611Y0451793D01*
X0072771Y0451809D01*
X0072931Y0451821D01*
X0073092Y0451829D01*
X0073253Y0451833D01*
X0073413Y0451833D01*
X0073574Y0451829D01*
X0073735Y0451821D01*
X0073895Y0451809D01*
X0074055Y0451793D01*
X0074215Y0451773D01*
X0074374Y0451749D01*
X0074532Y0451721D01*
X0074690Y0451690D01*
X0074846Y0451654D01*
X0075002Y0451615D01*
X0075157Y0451572D01*
X0075311Y0451525D01*
X0075464Y0451474D01*
X0075615Y0451419D01*
X0075765Y0451361D01*
X0075913Y0451299D01*
X0076060Y0451233D01*
X0076205Y0451164D01*
X0076348Y0451091D01*
X0076490Y0451015D01*
X0076629Y0450935D01*
X0076767Y0450852D01*
X0076902Y0450765D01*
X0077036Y0450675D01*
X0077167Y0450582D01*
X0077295Y0450486D01*
X0077421Y0450386D01*
X0077545Y0450283D01*
X0077666Y0450178D01*
X0077785Y0450069D01*
X0077901Y0449958D01*
X0078014Y0449843D01*
X0078124Y0449726D01*
X0078231Y0449606D01*
X0078335Y0449484D01*
X0078436Y0449359D01*
X0078534Y0449231D01*
X0078629Y0449101D01*
X0078721Y0448969D01*
X0078809Y0448835D01*
X0078894Y0448698D01*
X0078976Y0448560D01*
X0079054Y0448419D01*
X0079128Y0448277D01*
X0079199Y0448133D01*
X0079267Y0447987D01*
X0079330Y0447839D01*
X0079391Y0447690D01*
X0079447Y0447539D01*
X0079500Y0447387D01*
X0079549Y0447234D01*
X0079594Y0447080D01*
X0079635Y0446925D01*
X0079673Y0446768D01*
X0079706Y0446611D01*
X0079736Y0446453D01*
X0079762Y0446294D01*
X0079783Y0446135D01*
X0079801Y0445975D01*
X0079815Y0445815D01*
X0079825Y0445654D01*
X0079831Y0445494D01*
X0079833Y0445333D01*
X0079831Y0445172D01*
X0079825Y0445012D01*
X0079815Y0444851D01*
X0079801Y0444691D01*
X0079783Y0444531D01*
X0079762Y0444372D01*
X0079736Y0444213D01*
X0079706Y0444055D01*
X0079673Y0443898D01*
X0079635Y0443741D01*
X0079594Y0443586D01*
X0079549Y0443432D01*
X0079500Y0443279D01*
X0079447Y0443127D01*
X0079391Y0442976D01*
X0079330Y0442827D01*
X0079267Y0442679D01*
X0079199Y0442533D01*
X0079128Y0442389D01*
X0079054Y0442247D01*
X0078976Y0442106D01*
X0078894Y0441968D01*
X0078809Y0441831D01*
X0078721Y0441697D01*
X0078629Y0441565D01*
X0078534Y0441435D01*
X0078436Y0441307D01*
X0078335Y0441182D01*
X0078231Y0441060D01*
X0078124Y0440940D01*
X0078014Y0440823D01*
X0077901Y0440708D01*
X0077785Y0440597D01*
X0077666Y0440488D01*
X0077545Y0440383D01*
X0077421Y0440280D01*
X0077295Y0440180D01*
X0077167Y0440084D01*
X0077036Y0439991D01*
X0076902Y0439901D01*
X0076767Y0439814D01*
X0076629Y0439731D01*
X0076490Y0439651D01*
X0076348Y0439575D01*
X0076205Y0439502D01*
X0076060Y0439433D01*
X0075913Y0439367D01*
X0075765Y0439305D01*
X0075615Y0439247D01*
X0075464Y0439192D01*
X0075311Y0439141D01*
X0075157Y0439094D01*
X0075002Y0439051D01*
X0074846Y0439012D01*
X0074690Y0438976D01*
X0074532Y0438945D01*
X0074374Y0438917D01*
X0074215Y0438893D01*
X0074055Y0438873D01*
X0073895Y0438857D01*
X0073735Y0438845D01*
X0073574Y0438837D01*
X0073413Y0438833D01*
X0073253Y0438833D01*
X0073092Y0438837D01*
X0072931Y0438845D01*
X0072771Y0438857D01*
X0072611Y0438873D01*
X0072451Y0438893D01*
X0072292Y0438917D01*
X0072134Y0438945D01*
X0071976Y0438976D01*
X0071820Y0439012D01*
X0071664Y0439051D01*
X0071509Y0439094D01*
X0071355Y0439141D01*
X0071202Y0439192D01*
X0071051Y0439247D01*
X0070901Y0439305D01*
X0070753Y0439367D01*
X0070606Y0439433D01*
X0070461Y0439502D01*
X0070318Y0439575D01*
X0070176Y0439651D01*
X0070037Y0439731D01*
X0069899Y0439814D01*
X0069764Y0439901D01*
X0069630Y0439991D01*
X0069499Y0440084D01*
X0069371Y0440180D01*
X0069245Y0440280D01*
X0069121Y0440383D01*
X0069000Y0440488D01*
X0068881Y0440597D01*
X0068765Y0440708D01*
X0068652Y0440823D01*
X0068542Y0440940D01*
X0068435Y0441060D01*
X0068331Y0441182D01*
X0068230Y0441307D01*
X0068132Y0441435D01*
X0068037Y0441565D01*
X0067945Y0441697D01*
X0067857Y0441831D01*
X0067772Y0441968D01*
X0067690Y0442106D01*
X0067612Y0442247D01*
X0067538Y0442389D01*
X0067467Y0442533D01*
X0067399Y0442679D01*
X0067336Y0442827D01*
X0067275Y0442976D01*
X0067219Y0443127D01*
X0067166Y0443279D01*
X0067117Y0443432D01*
X0067072Y0443586D01*
X0067031Y0443741D01*
X0066993Y0443898D01*
X0066960Y0444055D01*
X0066930Y0444213D01*
X0066904Y0444372D01*
X0066883Y0444531D01*
X0066865Y0444691D01*
X0066851Y0444851D01*
X0066841Y0445012D01*
X0066835Y0445172D01*
X0066833Y0445333D01*
M02*
