%
M48
M72
T01C0.0150
T02C0.0400
T03C0.1300
%
T01
X10333Y5333
X11333Y7333
X10333Y9333
X11333Y11333
X10333Y13333
X11283Y16533
X9983Y17183
X12633Y17333
X13833Y17833
X12833Y18833
X13833Y16333
X13333Y15633
X14333Y13333
X14833Y13333
X14333Y11833
X13333Y10333
X15333Y10333
X16833Y8333
X18633Y9833
X18633Y5833
X18633Y13833
X18633Y17833
X15833Y18833
X15833Y22333
X17333Y23333
X20333Y21333
X25033Y21333
X25533Y23333
X27033Y21333
X28033Y23333
X26533Y27033
X27533Y29033
X26533Y31033
X27533Y33033
X26533Y35033
X27483Y38233
X26183Y38883
X28833Y39033
X30033Y39533
X29033Y40533
X30033Y38033
X29533Y37333
X30533Y35033
X31033Y35033
X30533Y33533
X29533Y32033
X31533Y32033
X33033Y30033
X34833Y31533
X34833Y27533
X33533Y23333
X32033Y22333
X32033Y18833
X30033Y17833
X28833Y17333
X29033Y18833
X27483Y16533
X26183Y17183
X29533Y15633
X30033Y16333
X30533Y13333
X31033Y13333
X30533Y11833
X29533Y10333
X31533Y10333
X33033Y8333
X34833Y9833
X34833Y5833
X27533Y7333
X26533Y5333
X26533Y9333
X27533Y11333
X26533Y13333
X34833Y13833
X34833Y17833
X36533Y21333
X34833Y35533
X34833Y39533
X32033Y40533
X32033Y44033
X33533Y45033
X36533Y43033
X28033Y45033
X27033Y43033
X25533Y45033
X25033Y43033
X20333Y43033
X17333Y45033
X15833Y44033
X15833Y40533
X13833Y39533
X12633Y39033
X12833Y40533
X11283Y38233
X9983Y38883
X13333Y37333
X13833Y38033
X14333Y35033
X14833Y35033
X14333Y33533
X13333Y32033
X15333Y32033
X16833Y30033
X18633Y31533
X18633Y27533
X11833Y23333
X10833Y21333
X9333Y23333
X8833Y21333
X10333Y27033
X11333Y29033
X10333Y31033
X11333Y33033
X10333Y35033
X10833Y43033
X11833Y45033
X9333Y45033
X8833Y43033
X18633Y39533
X18633Y35533
T02
X19333Y35533
X19333Y34533
X19333Y33533
X19333Y32533
X19333Y31533
X19333Y30533
X19333Y29533
X19333Y28533
X19333Y27533
X19333Y26533
X15833Y20833
X14833Y20833
X13833Y20833
X12833Y20833
X11833Y20833
X9333Y19833
X9333Y18833
X9333Y17833
X9333Y16833
X9333Y15833
X9333Y14833
X9333Y13833
X9333Y12833
X9333Y11833
X9333Y10833
X9333Y9833
X9333Y8833
X9333Y7833
X9333Y6833
X9333Y5833
X9333Y4833
X19333Y4833
X19333Y5833
X19333Y6833
X19333Y7833
X19333Y8833
X19333Y9833
X19333Y10833
X19333Y11833
X19333Y12833
X19333Y13833
X19333Y14833
X19333Y15833
X19333Y16833
X19333Y17833
X19333Y18833
X19333Y19833
X25533Y19833
X25533Y18833
X25533Y17833
X25533Y16833
X25533Y15833
X25533Y14833
X25533Y13833
X25533Y12833
X25533Y11833
X25533Y10833
X25533Y9833
X25533Y8833
X25533Y7833
X25533Y6833
X25533Y5833
X25533Y4833
X35533Y4833
X35533Y5833
X35533Y6833
X35533Y7833
X35533Y8833
X35533Y9833
X35533Y10833
X35533Y11833
X35533Y12833
X35533Y13833
X35533Y14833
X35533Y15833
X35533Y16833
X35533Y17833
X35533Y18833
X35533Y19833
X32033Y20833
X31033Y20833
X30033Y20833
X29033Y20833
X28033Y20833
X25533Y26533
X25533Y27533
X25533Y28533
X25533Y29533
X25533Y30533
X25533Y31533
X25533Y32533
X25533Y33533
X25533Y34533
X25533Y35533
X25533Y36533
X25533Y37533
X25533Y38533
X25533Y39533
X25533Y40533
X25533Y41533
X28033Y42533
X29033Y42533
X30033Y42533
X31033Y42533
X32033Y42533
X35533Y41533
X35533Y40533
X35533Y39533
X35533Y38533
X35533Y37533
X35533Y36533
X35533Y35533
X35533Y34533
X35533Y33533
X35533Y32533
X35533Y31533
X35533Y30533
X35533Y29533
X35533Y28533
X35533Y27533
X35533Y26533
X19333Y36533
X19333Y37533
X19333Y38533
X19333Y39533
X19333Y40533
X19333Y41533
X15833Y42533
X14833Y42533
X13833Y42533
X12833Y42533
X11833Y42533
X9333Y41533
X9333Y40533
X9333Y39533
X9333Y38533
X9333Y37533
X9333Y36533
X9333Y35533
X9333Y34533
X9333Y33533
X9333Y32533
X9333Y31533
X9333Y30533
X9333Y29533
X9333Y28533
X9333Y27533
X9333Y26533
T03
X7333Y3333
X21333Y3333
X23533Y3333
X37533Y3333
X37533Y22833
X37533Y25033
X23533Y25033
X23533Y22833
X21333Y22833
X21333Y25033
X7333Y25033
X7333Y22833
X7333Y44533
X21333Y44533
X23533Y44533
X37533Y44533
M30
