G75*
%MOIN*%
%OFA0B0*%
%FSLAX25Y25*%
%IPPOS*%
%LPD*%
%AMOC8*
5,1,8,0,0,1.08239X$1,22.5*
%
%ADD10R,0.04737X0.05131*%
%ADD11C,0.04737*%
%ADD12R,0.08674X0.05524*%
%ADD13R,0.06115X0.03162*%
%ADD14R,0.04737X0.01981*%
%ADD15R,0.05131X0.04737*%
%ADD16R,0.05800X0.03300*%
%ADD17C,0.08200*%
%ADD18R,0.05524X0.08674*%
%ADD19R,0.03162X0.06115*%
%ADD20R,0.05524X0.02965*%
%ADD21C,0.13800*%
%ADD22C,0.01421*%
%ADD23C,0.03900*%
D10*
X0128333Y0054987D03*
X0128333Y0061680D03*
X0143333Y0061680D03*
X0143333Y0054987D03*
X0158333Y0054987D03*
X0158333Y0061680D03*
X0153334Y0144984D03*
X0153334Y0151677D03*
X0143334Y0151677D03*
X0143334Y0144984D03*
X0133334Y0144984D03*
X0133334Y0151677D03*
X0118334Y0164984D03*
X0118334Y0171677D03*
X0133334Y0179984D03*
X0133334Y0186677D03*
X0143334Y0186677D03*
X0143334Y0179984D03*
X0153334Y0179984D03*
X0153334Y0186677D03*
X0168333Y0219987D03*
X0168333Y0226680D03*
X0198333Y0226680D03*
X0198333Y0219987D03*
X0158333Y0271987D03*
X0158333Y0278680D03*
X0143333Y0278680D03*
X0143333Y0271987D03*
X0128333Y0271987D03*
X0128333Y0278680D03*
X0118333Y0226680D03*
X0118333Y0219987D03*
X0088333Y0219987D03*
X0088333Y0226680D03*
X0133334Y0361984D03*
X0133334Y0368677D03*
X0143334Y0368677D03*
X0143334Y0361984D03*
X0153334Y0361984D03*
X0153334Y0368677D03*
X0153334Y0396984D03*
X0153334Y0403677D03*
X0143334Y0403677D03*
X0143334Y0396984D03*
X0133334Y0396984D03*
X0133334Y0403677D03*
X0118334Y0388677D03*
X0118334Y0381984D03*
X0118333Y0436987D03*
X0118333Y0443680D03*
X0088333Y0443680D03*
X0088333Y0436987D03*
X0168333Y0436987D03*
X0168333Y0443680D03*
X0198333Y0443680D03*
X0198333Y0436987D03*
X0250333Y0436987D03*
X0250333Y0443680D03*
X0280333Y0443680D03*
X0280333Y0436987D03*
X0295334Y0403677D03*
X0295334Y0396984D03*
X0305334Y0396984D03*
X0305334Y0403677D03*
X0315334Y0403677D03*
X0315334Y0396984D03*
X0315334Y0368677D03*
X0315334Y0361984D03*
X0305334Y0361984D03*
X0305334Y0368677D03*
X0295334Y0368677D03*
X0295334Y0361984D03*
X0280334Y0381984D03*
X0280334Y0388677D03*
X0330333Y0436987D03*
X0330333Y0443680D03*
X0360333Y0443680D03*
X0360333Y0436987D03*
X0320333Y0278680D03*
X0320333Y0271987D03*
X0305333Y0271987D03*
X0305333Y0278680D03*
X0290333Y0278680D03*
X0290333Y0271987D03*
X0280333Y0226680D03*
X0280333Y0219987D03*
X0250333Y0219987D03*
X0250333Y0226680D03*
X0295334Y0186677D03*
X0295334Y0179984D03*
X0305334Y0179984D03*
X0305334Y0186677D03*
X0315334Y0186677D03*
X0315334Y0179984D03*
X0315334Y0151677D03*
X0315334Y0144984D03*
X0305334Y0144984D03*
X0305334Y0151677D03*
X0295334Y0151677D03*
X0295334Y0144984D03*
X0280334Y0164984D03*
X0280334Y0171677D03*
X0330333Y0219987D03*
X0330333Y0226680D03*
X0360333Y0226680D03*
X0360333Y0219987D03*
X0320333Y0061680D03*
X0320333Y0054987D03*
X0305333Y0054987D03*
X0305333Y0061680D03*
X0290333Y0061680D03*
X0290333Y0054987D03*
D11*
X0365333Y0028333D03*
X0203333Y0028333D03*
X0245333Y0233333D03*
X0203333Y0245333D03*
X0083333Y0233333D03*
X0083333Y0450333D03*
X0245333Y0450333D03*
X0365333Y0245333D03*
D12*
X0068865Y0052307D03*
X0068865Y0074354D03*
X0068865Y0092307D03*
X0068865Y0114354D03*
X0068865Y0132307D03*
X0068865Y0154354D03*
X0068865Y0172307D03*
X0068865Y0194354D03*
X0068865Y0269307D03*
X0068865Y0291354D03*
X0068865Y0309307D03*
X0068865Y0331354D03*
X0068865Y0349307D03*
X0068865Y0371354D03*
X0068865Y0389307D03*
X0068865Y0411354D03*
X0217799Y0411356D03*
X0230865Y0411354D03*
X0230865Y0389307D03*
X0217799Y0389309D03*
X0217799Y0371356D03*
X0230865Y0371354D03*
X0230865Y0349307D03*
X0217799Y0349309D03*
X0217799Y0331356D03*
X0230865Y0331354D03*
X0230865Y0309307D03*
X0217799Y0309309D03*
X0217799Y0291356D03*
X0230865Y0291354D03*
X0230865Y0269307D03*
X0217799Y0269309D03*
X0217799Y0194356D03*
X0230865Y0194354D03*
X0230865Y0172307D03*
X0217799Y0172309D03*
X0217799Y0154356D03*
X0230865Y0154354D03*
X0230865Y0132307D03*
X0217799Y0132309D03*
X0217799Y0114356D03*
X0230865Y0114354D03*
X0230865Y0092307D03*
X0217799Y0092309D03*
X0217799Y0074356D03*
X0230865Y0074354D03*
X0230865Y0052307D03*
X0217799Y0052309D03*
X0379799Y0052309D03*
X0379799Y0074356D03*
X0379799Y0092309D03*
X0379799Y0114356D03*
X0379799Y0132309D03*
X0379799Y0154356D03*
X0379799Y0172309D03*
X0379799Y0194356D03*
X0379799Y0269309D03*
X0379799Y0291356D03*
X0379799Y0309309D03*
X0379799Y0331356D03*
X0379799Y0349309D03*
X0379799Y0371356D03*
X0379799Y0389309D03*
X0379799Y0411356D03*
D13*
X0365330Y0406238D03*
X0365330Y0402301D03*
X0365330Y0398364D03*
X0365330Y0394427D03*
X0365330Y0366238D03*
X0365330Y0362301D03*
X0365330Y0358364D03*
X0365330Y0354427D03*
X0365330Y0326238D03*
X0365330Y0322301D03*
X0365330Y0318364D03*
X0365330Y0314427D03*
X0365330Y0286238D03*
X0365330Y0282301D03*
X0365330Y0278364D03*
X0365330Y0274427D03*
X0365330Y0189238D03*
X0365330Y0185301D03*
X0365330Y0181364D03*
X0365330Y0177427D03*
X0365330Y0149238D03*
X0365330Y0145301D03*
X0365330Y0141364D03*
X0365330Y0137427D03*
X0365330Y0109238D03*
X0365330Y0105301D03*
X0365330Y0101364D03*
X0365330Y0097427D03*
X0365330Y0069238D03*
X0365330Y0065301D03*
X0365330Y0061364D03*
X0365330Y0057427D03*
X0245334Y0057425D03*
X0245334Y0061362D03*
X0245334Y0065299D03*
X0245334Y0069236D03*
X0245334Y0097425D03*
X0245334Y0101362D03*
X0245334Y0105299D03*
X0245334Y0109236D03*
X0245334Y0137425D03*
X0245334Y0141362D03*
X0245334Y0145299D03*
X0245334Y0149236D03*
X0245334Y0177425D03*
X0245334Y0181362D03*
X0245334Y0185299D03*
X0245334Y0189236D03*
X0203330Y0189238D03*
X0203330Y0185301D03*
X0203330Y0181364D03*
X0203330Y0177427D03*
X0203330Y0149238D03*
X0203330Y0145301D03*
X0203330Y0141364D03*
X0203330Y0137427D03*
X0203330Y0109238D03*
X0203330Y0105301D03*
X0203330Y0101364D03*
X0203330Y0097427D03*
X0203330Y0069238D03*
X0203330Y0065301D03*
X0203330Y0061364D03*
X0203330Y0057427D03*
X0083334Y0057425D03*
X0083334Y0061362D03*
X0083334Y0065299D03*
X0083334Y0069236D03*
X0083334Y0097425D03*
X0083334Y0101362D03*
X0083334Y0105299D03*
X0083334Y0109236D03*
X0083334Y0137425D03*
X0083334Y0141362D03*
X0083334Y0145299D03*
X0083334Y0149236D03*
X0083334Y0177425D03*
X0083334Y0181362D03*
X0083334Y0185299D03*
X0083334Y0189236D03*
X0083334Y0274425D03*
X0083334Y0278362D03*
X0083334Y0282299D03*
X0083334Y0286236D03*
X0083334Y0314425D03*
X0083334Y0318362D03*
X0083334Y0322299D03*
X0083334Y0326236D03*
X0083334Y0354425D03*
X0083334Y0358362D03*
X0083334Y0362299D03*
X0083334Y0366236D03*
X0083334Y0394425D03*
X0083334Y0398362D03*
X0083334Y0402299D03*
X0083334Y0406236D03*
X0203330Y0406238D03*
X0203330Y0402301D03*
X0203330Y0398364D03*
X0203330Y0394427D03*
X0203330Y0366238D03*
X0203330Y0362301D03*
X0203330Y0358364D03*
X0203330Y0354427D03*
X0203330Y0326238D03*
X0203330Y0322301D03*
X0203330Y0318364D03*
X0203330Y0314427D03*
X0203330Y0286238D03*
X0203330Y0282301D03*
X0203330Y0278364D03*
X0203330Y0274427D03*
X0245334Y0274425D03*
X0245334Y0278362D03*
X0245334Y0282299D03*
X0245334Y0286236D03*
X0245334Y0314425D03*
X0245334Y0318362D03*
X0245334Y0322299D03*
X0245334Y0326236D03*
X0245334Y0354425D03*
X0245334Y0358362D03*
X0245334Y0362299D03*
X0245334Y0366236D03*
X0245334Y0394425D03*
X0245334Y0398362D03*
X0245334Y0402299D03*
X0245334Y0406236D03*
D14*
X0293523Y0354385D03*
X0293523Y0351846D03*
X0293523Y0349287D03*
X0293523Y0346728D03*
X0293523Y0344169D03*
X0293523Y0341610D03*
X0293523Y0339051D03*
X0293523Y0336492D03*
X0293523Y0333933D03*
X0293523Y0331374D03*
X0293523Y0328815D03*
X0293523Y0326255D03*
X0317145Y0326255D03*
X0317145Y0328815D03*
X0317145Y0331374D03*
X0317145Y0333933D03*
X0317145Y0336492D03*
X0317145Y0339051D03*
X0317145Y0341610D03*
X0317145Y0344169D03*
X0317145Y0346728D03*
X0317145Y0349287D03*
X0317145Y0351846D03*
X0317145Y0354405D03*
X0155145Y0354405D03*
X0155145Y0351846D03*
X0155145Y0349287D03*
X0155145Y0346728D03*
X0155145Y0344169D03*
X0155145Y0341610D03*
X0155145Y0339051D03*
X0155145Y0336492D03*
X0155145Y0333933D03*
X0155145Y0331374D03*
X0155145Y0328815D03*
X0155145Y0326255D03*
X0131523Y0326255D03*
X0131523Y0328815D03*
X0131523Y0331374D03*
X0131523Y0333933D03*
X0131523Y0336492D03*
X0131523Y0339051D03*
X0131523Y0341610D03*
X0131523Y0344169D03*
X0131523Y0346728D03*
X0131523Y0349287D03*
X0131523Y0351846D03*
X0131523Y0354385D03*
X0131523Y0137385D03*
X0131523Y0134846D03*
X0131523Y0132287D03*
X0131523Y0129728D03*
X0131523Y0127169D03*
X0131523Y0124610D03*
X0131523Y0122051D03*
X0131523Y0119492D03*
X0131523Y0116933D03*
X0131523Y0114374D03*
X0131523Y0111815D03*
X0131523Y0109255D03*
X0155145Y0109255D03*
X0155145Y0111815D03*
X0155145Y0114374D03*
X0155145Y0116933D03*
X0155145Y0119492D03*
X0155145Y0122051D03*
X0155145Y0124610D03*
X0155145Y0127169D03*
X0155145Y0129728D03*
X0155145Y0132287D03*
X0155145Y0134846D03*
X0155145Y0137405D03*
X0293523Y0137385D03*
X0293523Y0134846D03*
X0293523Y0132287D03*
X0293523Y0129728D03*
X0293523Y0127169D03*
X0293523Y0124610D03*
X0293523Y0122051D03*
X0293523Y0119492D03*
X0293523Y0116933D03*
X0293523Y0114374D03*
X0293523Y0111815D03*
X0293523Y0109255D03*
X0317145Y0109255D03*
X0317145Y0111815D03*
X0317145Y0114374D03*
X0317145Y0116933D03*
X0317145Y0119492D03*
X0317145Y0122051D03*
X0317145Y0124610D03*
X0317145Y0127169D03*
X0317145Y0129728D03*
X0317145Y0132287D03*
X0317145Y0134846D03*
X0317145Y0137405D03*
D15*
X0335987Y0138333D03*
X0335986Y0143336D03*
X0335986Y0148336D03*
X0342679Y0148336D03*
X0342679Y0143336D03*
X0342680Y0138333D03*
X0342679Y0108336D03*
X0342679Y0103336D03*
X0342680Y0098333D03*
X0335987Y0098333D03*
X0335986Y0103336D03*
X0335986Y0108336D03*
X0335986Y0068336D03*
X0335986Y0063336D03*
X0335987Y0058333D03*
X0342680Y0058333D03*
X0342679Y0063336D03*
X0342679Y0068336D03*
X0274680Y0068330D03*
X0274680Y0063330D03*
X0274680Y0058330D03*
X0267987Y0058330D03*
X0267987Y0063330D03*
X0267987Y0068330D03*
X0267987Y0098330D03*
X0267987Y0103330D03*
X0267987Y0108330D03*
X0274680Y0108330D03*
X0274680Y0103330D03*
X0274680Y0098330D03*
X0274680Y0138330D03*
X0274680Y0143330D03*
X0274680Y0148330D03*
X0267987Y0148330D03*
X0267987Y0143330D03*
X0267987Y0138330D03*
X0267987Y0178330D03*
X0267987Y0183330D03*
X0267987Y0188330D03*
X0274680Y0188330D03*
X0274680Y0183330D03*
X0274680Y0178330D03*
X0335987Y0178333D03*
X0335986Y0183336D03*
X0335986Y0188336D03*
X0342679Y0188336D03*
X0342679Y0183336D03*
X0342680Y0178333D03*
X0342680Y0275333D03*
X0342679Y0280336D03*
X0342679Y0285336D03*
X0335986Y0285336D03*
X0335986Y0280336D03*
X0335987Y0275333D03*
X0335987Y0315333D03*
X0335986Y0320336D03*
X0335986Y0325336D03*
X0342679Y0325336D03*
X0342679Y0320336D03*
X0342680Y0315333D03*
X0342680Y0355333D03*
X0342679Y0360336D03*
X0342679Y0365336D03*
X0335986Y0365336D03*
X0335986Y0360336D03*
X0335987Y0355333D03*
X0335987Y0395333D03*
X0335986Y0400336D03*
X0335986Y0405336D03*
X0342679Y0405336D03*
X0342679Y0400336D03*
X0342680Y0395333D03*
X0274680Y0395330D03*
X0274680Y0400330D03*
X0274680Y0405330D03*
X0267987Y0405330D03*
X0267987Y0400330D03*
X0267987Y0395330D03*
X0267987Y0365330D03*
X0267987Y0360330D03*
X0267987Y0355330D03*
X0274680Y0355330D03*
X0274680Y0360330D03*
X0274680Y0365330D03*
X0274680Y0325330D03*
X0274680Y0320330D03*
X0274680Y0315330D03*
X0267987Y0315330D03*
X0267987Y0320330D03*
X0267987Y0325330D03*
X0267987Y0285330D03*
X0267987Y0280330D03*
X0267987Y0275330D03*
X0274680Y0275330D03*
X0274680Y0280330D03*
X0274680Y0285330D03*
X0180679Y0285336D03*
X0180679Y0280336D03*
X0180680Y0275333D03*
X0173987Y0275333D03*
X0173986Y0280336D03*
X0173986Y0285336D03*
X0173987Y0315333D03*
X0173986Y0320336D03*
X0173986Y0325336D03*
X0180679Y0325336D03*
X0180679Y0320336D03*
X0180680Y0315333D03*
X0180680Y0355333D03*
X0180679Y0360336D03*
X0180679Y0365336D03*
X0173986Y0365336D03*
X0173986Y0360336D03*
X0173987Y0355333D03*
X0173987Y0395333D03*
X0173986Y0400336D03*
X0173986Y0405336D03*
X0180679Y0405336D03*
X0180679Y0400336D03*
X0180680Y0395333D03*
X0112680Y0395330D03*
X0112680Y0400330D03*
X0112680Y0405330D03*
X0105987Y0405330D03*
X0105987Y0400330D03*
X0105987Y0395330D03*
X0105987Y0365330D03*
X0105987Y0360330D03*
X0105987Y0355330D03*
X0112680Y0355330D03*
X0112680Y0360330D03*
X0112680Y0365330D03*
X0112680Y0325330D03*
X0112680Y0320330D03*
X0112680Y0315330D03*
X0105987Y0315330D03*
X0105987Y0320330D03*
X0105987Y0325330D03*
X0105987Y0285330D03*
X0105987Y0280330D03*
X0105987Y0275330D03*
X0112680Y0275330D03*
X0112680Y0280330D03*
X0112680Y0285330D03*
X0112680Y0188330D03*
X0112680Y0183330D03*
X0112680Y0178330D03*
X0105987Y0178330D03*
X0105987Y0183330D03*
X0105987Y0188330D03*
X0105987Y0148330D03*
X0105987Y0143330D03*
X0105987Y0138330D03*
X0112680Y0138330D03*
X0112680Y0143330D03*
X0112680Y0148330D03*
X0112680Y0108330D03*
X0112680Y0103330D03*
X0112680Y0098330D03*
X0105987Y0098330D03*
X0105987Y0103330D03*
X0105987Y0108330D03*
X0105987Y0068330D03*
X0105987Y0063330D03*
X0105987Y0058330D03*
X0112680Y0058330D03*
X0112680Y0063330D03*
X0112680Y0068330D03*
X0173986Y0068336D03*
X0173986Y0063336D03*
X0173987Y0058333D03*
X0180680Y0058333D03*
X0180679Y0063336D03*
X0180679Y0068336D03*
X0180680Y0098333D03*
X0180679Y0103336D03*
X0180679Y0108336D03*
X0173986Y0108336D03*
X0173986Y0103336D03*
X0173987Y0098333D03*
X0173987Y0138333D03*
X0173986Y0143336D03*
X0173986Y0148336D03*
X0180679Y0148336D03*
X0180679Y0143336D03*
X0180680Y0138333D03*
X0180680Y0178333D03*
X0180679Y0183336D03*
X0180679Y0188336D03*
X0173986Y0188336D03*
X0173986Y0183336D03*
X0173987Y0178333D03*
D16*
X0153334Y0169930D03*
X0153334Y0166730D03*
X0143334Y0166730D03*
X0143334Y0169930D03*
X0133334Y0169930D03*
X0133334Y0166730D03*
X0295334Y0166730D03*
X0295334Y0169930D03*
X0305334Y0169930D03*
X0305334Y0166730D03*
X0315334Y0166730D03*
X0315334Y0169930D03*
X0315334Y0383730D03*
X0315334Y0386930D03*
X0305334Y0386930D03*
X0305334Y0383730D03*
X0295334Y0383730D03*
X0295334Y0386930D03*
X0153334Y0386930D03*
X0153334Y0383730D03*
X0143334Y0383730D03*
X0143334Y0386930D03*
X0133334Y0386930D03*
X0133334Y0383730D03*
D17*
X0138333Y0425333D03*
X0148333Y0425333D03*
X0158333Y0425333D03*
X0128333Y0425333D03*
X0118334Y0425330D03*
X0093333Y0415333D03*
X0093333Y0405333D03*
X0093333Y0395333D03*
X0093333Y0385333D03*
X0093333Y0375333D03*
X0093333Y0365333D03*
X0093333Y0355333D03*
X0093333Y0345333D03*
X0093333Y0335333D03*
X0093333Y0325333D03*
X0093333Y0315333D03*
X0093333Y0305333D03*
X0093333Y0295333D03*
X0093333Y0285333D03*
X0093333Y0275333D03*
X0093333Y0265333D03*
X0118334Y0208330D03*
X0128333Y0208333D03*
X0138333Y0208333D03*
X0148333Y0208333D03*
X0158333Y0208333D03*
X0193333Y0198333D03*
X0193333Y0188333D03*
X0193333Y0178333D03*
X0193333Y0168333D03*
X0193333Y0158333D03*
X0193333Y0148333D03*
X0193333Y0138333D03*
X0193333Y0128333D03*
X0193333Y0118333D03*
X0193333Y0108333D03*
X0193333Y0098333D03*
X0193333Y0088333D03*
X0193333Y0078333D03*
X0193333Y0068333D03*
X0193333Y0058333D03*
X0193333Y0048333D03*
X0255333Y0048333D03*
X0255333Y0058333D03*
X0255333Y0068333D03*
X0255333Y0078333D03*
X0255333Y0088333D03*
X0255333Y0098333D03*
X0255333Y0108333D03*
X0255333Y0118333D03*
X0255333Y0128333D03*
X0255333Y0138333D03*
X0255333Y0148333D03*
X0255333Y0158333D03*
X0255333Y0168333D03*
X0255333Y0178333D03*
X0255333Y0188333D03*
X0255333Y0198333D03*
X0280334Y0208330D03*
X0290333Y0208333D03*
X0300333Y0208333D03*
X0310333Y0208333D03*
X0320333Y0208333D03*
X0355333Y0198333D03*
X0355333Y0188333D03*
X0355333Y0178333D03*
X0355333Y0168333D03*
X0355333Y0158333D03*
X0355333Y0148333D03*
X0355333Y0138333D03*
X0355333Y0128333D03*
X0355333Y0118333D03*
X0355333Y0108333D03*
X0355333Y0098333D03*
X0355333Y0088333D03*
X0355333Y0078333D03*
X0355333Y0068333D03*
X0355333Y0058333D03*
X0355333Y0048333D03*
X0355333Y0265333D03*
X0355333Y0275333D03*
X0355333Y0285333D03*
X0355333Y0295333D03*
X0355333Y0305333D03*
X0355333Y0315333D03*
X0355333Y0325333D03*
X0355333Y0335333D03*
X0355333Y0345333D03*
X0355333Y0355333D03*
X0355333Y0365333D03*
X0355333Y0375333D03*
X0355333Y0385333D03*
X0355333Y0395333D03*
X0355333Y0405333D03*
X0355333Y0415333D03*
X0320333Y0425333D03*
X0310333Y0425333D03*
X0300333Y0425333D03*
X0290333Y0425333D03*
X0280334Y0425330D03*
X0255333Y0415333D03*
X0255333Y0405333D03*
X0255333Y0395333D03*
X0255333Y0385333D03*
X0255333Y0375333D03*
X0255333Y0365333D03*
X0255333Y0355333D03*
X0255333Y0345333D03*
X0255333Y0335333D03*
X0255333Y0325333D03*
X0255333Y0315333D03*
X0255333Y0305333D03*
X0255333Y0295333D03*
X0255333Y0285333D03*
X0255333Y0275333D03*
X0255333Y0265333D03*
X0193333Y0265333D03*
X0193333Y0275333D03*
X0193333Y0285333D03*
X0193333Y0295333D03*
X0193333Y0305333D03*
X0193333Y0315333D03*
X0193333Y0325333D03*
X0193333Y0335333D03*
X0193333Y0345333D03*
X0193333Y0355333D03*
X0193333Y0365333D03*
X0193333Y0375333D03*
X0193333Y0385333D03*
X0193333Y0395333D03*
X0193333Y0405333D03*
X0193333Y0415333D03*
X0093333Y0198333D03*
X0093333Y0188333D03*
X0093333Y0178333D03*
X0093333Y0168333D03*
X0093333Y0158333D03*
X0093333Y0148333D03*
X0093333Y0138333D03*
X0093333Y0128333D03*
X0093333Y0118333D03*
X0093333Y0108333D03*
X0093333Y0098333D03*
X0093333Y0088333D03*
X0093333Y0078333D03*
X0093333Y0068333D03*
X0093333Y0058333D03*
X0093333Y0048333D03*
D18*
X0132310Y0232802D03*
X0154357Y0232802D03*
X0294310Y0232802D03*
X0316357Y0232802D03*
X0316357Y0449802D03*
X0294310Y0449802D03*
X0154357Y0449802D03*
X0132310Y0449802D03*
D19*
X0137428Y0435333D03*
X0141365Y0435333D03*
X0145302Y0435333D03*
X0149239Y0435333D03*
X0299428Y0435333D03*
X0303365Y0435333D03*
X0307302Y0435333D03*
X0311239Y0435333D03*
X0311239Y0218333D03*
X0307302Y0218333D03*
X0303365Y0218333D03*
X0299428Y0218333D03*
X0149239Y0218333D03*
X0145302Y0218333D03*
X0141365Y0218333D03*
X0137428Y0218333D03*
D20*
X0108452Y0219593D03*
X0108452Y0227073D03*
X0098215Y0227073D03*
X0098215Y0223333D03*
X0098215Y0219593D03*
X0178215Y0219593D03*
X0178215Y0223333D03*
X0178215Y0227073D03*
X0188452Y0227073D03*
X0188452Y0219593D03*
X0260215Y0219593D03*
X0260215Y0223333D03*
X0260215Y0227073D03*
X0270452Y0227073D03*
X0270452Y0219593D03*
X0340215Y0219593D03*
X0340215Y0223333D03*
X0340215Y0227073D03*
X0350452Y0227073D03*
X0350452Y0219593D03*
X0350452Y0436593D03*
X0350452Y0444073D03*
X0340215Y0444073D03*
X0340215Y0440333D03*
X0340215Y0436593D03*
X0270452Y0436593D03*
X0270452Y0444073D03*
X0260215Y0444073D03*
X0260215Y0440333D03*
X0260215Y0436593D03*
X0188452Y0436593D03*
X0188452Y0444073D03*
X0178215Y0444073D03*
X0178215Y0440333D03*
X0178215Y0436593D03*
X0108452Y0436593D03*
X0108452Y0444073D03*
X0098215Y0444073D03*
X0098215Y0440333D03*
X0098215Y0436593D03*
D21*
X0073333Y0445333D03*
X0213333Y0445333D03*
X0235333Y0445333D03*
X0375333Y0445333D03*
X0375333Y0250333D03*
X0375333Y0228333D03*
X0235333Y0228333D03*
X0213333Y0228333D03*
X0213333Y0250333D03*
X0235333Y0250333D03*
X0073333Y0250333D03*
X0073333Y0228333D03*
X0073333Y0033333D03*
X0213333Y0033333D03*
X0235333Y0033333D03*
X0375333Y0033333D03*
D22*
X0321991Y0038223D02*
X0318675Y0038223D01*
X0318675Y0041539D01*
X0321991Y0041539D01*
X0321991Y0038223D01*
X0321991Y0039643D02*
X0318675Y0039643D01*
X0318675Y0041063D02*
X0321991Y0041063D01*
X0321991Y0045128D02*
X0318675Y0045128D01*
X0318675Y0048444D01*
X0321991Y0048444D01*
X0321991Y0045128D01*
X0321991Y0046548D02*
X0318675Y0046548D01*
X0318675Y0047968D02*
X0321991Y0047968D01*
X0306991Y0045128D02*
X0303675Y0045128D01*
X0303675Y0048444D01*
X0306991Y0048444D01*
X0306991Y0045128D01*
X0306991Y0046548D02*
X0303675Y0046548D01*
X0303675Y0047968D02*
X0306991Y0047968D01*
X0306991Y0038223D02*
X0303675Y0038223D01*
X0303675Y0041539D01*
X0306991Y0041539D01*
X0306991Y0038223D01*
X0306991Y0039643D02*
X0303675Y0039643D01*
X0303675Y0041063D02*
X0306991Y0041063D01*
X0291991Y0038223D02*
X0288675Y0038223D01*
X0288675Y0041539D01*
X0291991Y0041539D01*
X0291991Y0038223D01*
X0291991Y0039643D02*
X0288675Y0039643D01*
X0288675Y0041063D02*
X0291991Y0041063D01*
X0291991Y0045128D02*
X0288675Y0045128D01*
X0288675Y0048444D01*
X0291991Y0048444D01*
X0291991Y0045128D01*
X0291991Y0046548D02*
X0288675Y0046548D01*
X0288675Y0047968D02*
X0291991Y0047968D01*
X0159991Y0045128D02*
X0156675Y0045128D01*
X0156675Y0048444D01*
X0159991Y0048444D01*
X0159991Y0045128D01*
X0159991Y0046548D02*
X0156675Y0046548D01*
X0156675Y0047968D02*
X0159991Y0047968D01*
X0159991Y0038223D02*
X0156675Y0038223D01*
X0156675Y0041539D01*
X0159991Y0041539D01*
X0159991Y0038223D01*
X0159991Y0039643D02*
X0156675Y0039643D01*
X0156675Y0041063D02*
X0159991Y0041063D01*
X0144991Y0038223D02*
X0141675Y0038223D01*
X0141675Y0041539D01*
X0144991Y0041539D01*
X0144991Y0038223D01*
X0144991Y0039643D02*
X0141675Y0039643D01*
X0141675Y0041063D02*
X0144991Y0041063D01*
X0144991Y0045128D02*
X0141675Y0045128D01*
X0141675Y0048444D01*
X0144991Y0048444D01*
X0144991Y0045128D01*
X0144991Y0046548D02*
X0141675Y0046548D01*
X0141675Y0047968D02*
X0144991Y0047968D01*
X0129991Y0045128D02*
X0126675Y0045128D01*
X0126675Y0048444D01*
X0129991Y0048444D01*
X0129991Y0045128D01*
X0129991Y0046548D02*
X0126675Y0046548D01*
X0126675Y0047968D02*
X0129991Y0047968D01*
X0129991Y0038223D02*
X0126675Y0038223D01*
X0126675Y0041539D01*
X0129991Y0041539D01*
X0129991Y0038223D01*
X0129991Y0039643D02*
X0126675Y0039643D01*
X0126675Y0041063D02*
X0129991Y0041063D01*
X0129991Y0255223D02*
X0126675Y0255223D01*
X0126675Y0258539D01*
X0129991Y0258539D01*
X0129991Y0255223D01*
X0129991Y0256643D02*
X0126675Y0256643D01*
X0126675Y0258063D02*
X0129991Y0258063D01*
X0129991Y0262128D02*
X0126675Y0262128D01*
X0126675Y0265444D01*
X0129991Y0265444D01*
X0129991Y0262128D01*
X0129991Y0263548D02*
X0126675Y0263548D01*
X0126675Y0264968D02*
X0129991Y0264968D01*
X0141675Y0262128D02*
X0144991Y0262128D01*
X0141675Y0262128D02*
X0141675Y0265444D01*
X0144991Y0265444D01*
X0144991Y0262128D01*
X0144991Y0263548D02*
X0141675Y0263548D01*
X0141675Y0264968D02*
X0144991Y0264968D01*
X0144991Y0255223D02*
X0141675Y0255223D01*
X0141675Y0258539D01*
X0144991Y0258539D01*
X0144991Y0255223D01*
X0144991Y0256643D02*
X0141675Y0256643D01*
X0141675Y0258063D02*
X0144991Y0258063D01*
X0156675Y0255223D02*
X0159991Y0255223D01*
X0156675Y0255223D02*
X0156675Y0258539D01*
X0159991Y0258539D01*
X0159991Y0255223D01*
X0159991Y0256643D02*
X0156675Y0256643D01*
X0156675Y0258063D02*
X0159991Y0258063D01*
X0159991Y0262128D02*
X0156675Y0262128D01*
X0156675Y0265444D01*
X0159991Y0265444D01*
X0159991Y0262128D01*
X0159991Y0263548D02*
X0156675Y0263548D01*
X0156675Y0264968D02*
X0159991Y0264968D01*
X0288675Y0262128D02*
X0291991Y0262128D01*
X0288675Y0262128D02*
X0288675Y0265444D01*
X0291991Y0265444D01*
X0291991Y0262128D01*
X0291991Y0263548D02*
X0288675Y0263548D01*
X0288675Y0264968D02*
X0291991Y0264968D01*
X0291991Y0255223D02*
X0288675Y0255223D01*
X0288675Y0258539D01*
X0291991Y0258539D01*
X0291991Y0255223D01*
X0291991Y0256643D02*
X0288675Y0256643D01*
X0288675Y0258063D02*
X0291991Y0258063D01*
X0303675Y0255223D02*
X0306991Y0255223D01*
X0303675Y0255223D02*
X0303675Y0258539D01*
X0306991Y0258539D01*
X0306991Y0255223D01*
X0306991Y0256643D02*
X0303675Y0256643D01*
X0303675Y0258063D02*
X0306991Y0258063D01*
X0306991Y0262128D02*
X0303675Y0262128D01*
X0303675Y0265444D01*
X0306991Y0265444D01*
X0306991Y0262128D01*
X0306991Y0263548D02*
X0303675Y0263548D01*
X0303675Y0264968D02*
X0306991Y0264968D01*
X0318675Y0262128D02*
X0321991Y0262128D01*
X0318675Y0262128D02*
X0318675Y0265444D01*
X0321991Y0265444D01*
X0321991Y0262128D01*
X0321991Y0263548D02*
X0318675Y0263548D01*
X0318675Y0264968D02*
X0321991Y0264968D01*
X0321991Y0255223D02*
X0318675Y0255223D01*
X0318675Y0258539D01*
X0321991Y0258539D01*
X0321991Y0255223D01*
X0321991Y0256643D02*
X0318675Y0256643D01*
X0318675Y0258063D02*
X0321991Y0258063D01*
D23*
X0335333Y0233333D03*
X0320333Y0223333D03*
X0320333Y0188333D03*
X0300334Y0178330D03*
X0288334Y0173330D03*
X0290333Y0188333D03*
X0274833Y0165333D03*
X0261834Y0171830D03*
X0295334Y0156330D03*
X0300334Y0163333D03*
X0305333Y0133333D03*
X0310333Y0133333D03*
X0305333Y0118333D03*
X0295334Y0103330D03*
X0315334Y0103330D03*
X0330333Y0083333D03*
X0348334Y0098330D03*
X0348334Y0058330D03*
X0275333Y0073333D03*
X0265334Y0093330D03*
X0275333Y0113333D03*
X0265334Y0133330D03*
X0265334Y0053330D03*
X0186334Y0058330D03*
X0168333Y0083333D03*
X0186334Y0098330D03*
X0153334Y0103330D03*
X0143333Y0118333D03*
X0143333Y0133333D03*
X0148333Y0133333D03*
X0133334Y0156330D03*
X0138334Y0163333D03*
X0138334Y0178330D03*
X0126334Y0173330D03*
X0128333Y0188333D03*
X0112833Y0165333D03*
X0099834Y0171830D03*
X0103334Y0133330D03*
X0113333Y0113333D03*
X0133334Y0103330D03*
X0113333Y0073333D03*
X0103334Y0093330D03*
X0103334Y0053330D03*
X0186334Y0138330D03*
X0186334Y0178330D03*
X0158333Y0188333D03*
X0158333Y0223333D03*
X0173333Y0233333D03*
X0203333Y0213333D03*
X0250333Y0213333D03*
X0255333Y0233333D03*
X0270333Y0213333D03*
X0280333Y0233333D03*
X0265334Y0270330D03*
X0275333Y0290333D03*
X0265334Y0310330D03*
X0275333Y0330333D03*
X0265334Y0350330D03*
X0274833Y0382333D03*
X0261834Y0388830D03*
X0288334Y0390330D03*
X0300334Y0395330D03*
X0290333Y0405333D03*
X0300334Y0380333D03*
X0295334Y0373330D03*
X0305333Y0350333D03*
X0310333Y0350333D03*
X0305333Y0335333D03*
X0295334Y0320330D03*
X0315334Y0320330D03*
X0330333Y0300333D03*
X0348334Y0315330D03*
X0348334Y0275330D03*
X0365333Y0213333D03*
X0348334Y0178330D03*
X0348334Y0138330D03*
X0186334Y0275330D03*
X0168333Y0300333D03*
X0186334Y0315330D03*
X0153334Y0320330D03*
X0143333Y0335333D03*
X0143333Y0350333D03*
X0148333Y0350333D03*
X0133334Y0373330D03*
X0138334Y0380333D03*
X0138334Y0395330D03*
X0126334Y0390330D03*
X0128333Y0405333D03*
X0112833Y0382333D03*
X0099834Y0388830D03*
X0103334Y0350330D03*
X0113333Y0330333D03*
X0133334Y0320330D03*
X0113333Y0290333D03*
X0103334Y0310330D03*
X0103334Y0270330D03*
X0093333Y0233333D03*
X0088333Y0213333D03*
X0108333Y0213333D03*
X0118333Y0233333D03*
X0186334Y0355330D03*
X0186334Y0395330D03*
X0158333Y0405333D03*
X0158333Y0440333D03*
X0173333Y0450333D03*
X0203333Y0430333D03*
X0250333Y0430333D03*
X0255333Y0450333D03*
X0270333Y0430333D03*
X0280333Y0450333D03*
X0320333Y0440333D03*
X0335333Y0450333D03*
X0365333Y0430333D03*
X0348334Y0395330D03*
X0320333Y0405333D03*
X0348334Y0355330D03*
X0118333Y0450333D03*
X0108333Y0430333D03*
X0093333Y0450333D03*
X0088333Y0430333D03*
M02*
