G75*
%MOIN*%
%OFA0B0*%
%FSLAX25Y25*%
%IPPOS*%
%LPD*%
%AMOC8*
5,1,8,0,0,1.08239X$1,22.5*
%
%ADD10R,0.03937X0.04331*%
%ADD11R,0.07874X0.04724*%
%ADD12R,0.05315X0.02362*%
%ADD13R,0.03937X0.01181*%
%ADD14R,0.04331X0.03937*%
%ADD15R,0.04724X0.07874*%
%ADD16R,0.02362X0.05315*%
%ADD17R,0.04724X0.02165*%
%ADD18C,0.01181*%
D10*
X0128333Y0054987D03*
X0128333Y0061680D03*
X0143333Y0061680D03*
X0143333Y0054987D03*
X0158333Y0054987D03*
X0158333Y0061680D03*
X0153334Y0144984D03*
X0153334Y0151677D03*
X0143334Y0151677D03*
X0143334Y0144984D03*
X0133334Y0144984D03*
X0133334Y0151677D03*
X0118334Y0164984D03*
X0118334Y0171677D03*
X0133334Y0179984D03*
X0133334Y0186677D03*
X0143334Y0186677D03*
X0143334Y0179984D03*
X0153334Y0179984D03*
X0153334Y0186677D03*
X0168333Y0219987D03*
X0168333Y0226680D03*
X0198333Y0226680D03*
X0198333Y0219987D03*
X0158333Y0271987D03*
X0158333Y0278680D03*
X0143333Y0278680D03*
X0143333Y0271987D03*
X0128333Y0271987D03*
X0128333Y0278680D03*
X0118333Y0226680D03*
X0118333Y0219987D03*
X0088333Y0219987D03*
X0088333Y0226680D03*
X0133334Y0361984D03*
X0133334Y0368677D03*
X0143334Y0368677D03*
X0143334Y0361984D03*
X0153334Y0361984D03*
X0153334Y0368677D03*
X0153334Y0396984D03*
X0153334Y0403677D03*
X0143334Y0403677D03*
X0143334Y0396984D03*
X0133334Y0396984D03*
X0133334Y0403677D03*
X0118334Y0388677D03*
X0118334Y0381984D03*
X0118333Y0436987D03*
X0118333Y0443680D03*
X0088333Y0443680D03*
X0088333Y0436987D03*
X0168333Y0436987D03*
X0168333Y0443680D03*
X0198333Y0443680D03*
X0198333Y0436987D03*
X0250333Y0436987D03*
X0250333Y0443680D03*
X0280333Y0443680D03*
X0280333Y0436987D03*
X0295334Y0403677D03*
X0295334Y0396984D03*
X0305334Y0396984D03*
X0305334Y0403677D03*
X0315334Y0403677D03*
X0315334Y0396984D03*
X0315334Y0368677D03*
X0315334Y0361984D03*
X0305334Y0361984D03*
X0305334Y0368677D03*
X0295334Y0368677D03*
X0295334Y0361984D03*
X0280334Y0381984D03*
X0280334Y0388677D03*
X0330333Y0436987D03*
X0330333Y0443680D03*
X0360333Y0443680D03*
X0360333Y0436987D03*
X0320333Y0278680D03*
X0320333Y0271987D03*
X0305333Y0271987D03*
X0305333Y0278680D03*
X0290333Y0278680D03*
X0290333Y0271987D03*
X0280333Y0226680D03*
X0280333Y0219987D03*
X0250333Y0219987D03*
X0250333Y0226680D03*
X0295334Y0186677D03*
X0295334Y0179984D03*
X0305334Y0179984D03*
X0305334Y0186677D03*
X0315334Y0186677D03*
X0315334Y0179984D03*
X0315334Y0151677D03*
X0315334Y0144984D03*
X0305334Y0144984D03*
X0305334Y0151677D03*
X0295334Y0151677D03*
X0295334Y0144984D03*
X0280334Y0164984D03*
X0280334Y0171677D03*
X0330333Y0219987D03*
X0330333Y0226680D03*
X0360333Y0226680D03*
X0360333Y0219987D03*
X0320333Y0061680D03*
X0320333Y0054987D03*
X0305333Y0054987D03*
X0305333Y0061680D03*
X0290333Y0061680D03*
X0290333Y0054987D03*
D11*
X0068865Y0052307D03*
X0068865Y0074354D03*
X0068865Y0092307D03*
X0068865Y0114354D03*
X0068865Y0132307D03*
X0068865Y0154354D03*
X0068865Y0172307D03*
X0068865Y0194354D03*
X0068865Y0269307D03*
X0068865Y0291354D03*
X0068865Y0309307D03*
X0068865Y0331354D03*
X0068865Y0349307D03*
X0068865Y0371354D03*
X0068865Y0389307D03*
X0068865Y0411354D03*
X0217799Y0411356D03*
X0230865Y0411354D03*
X0230865Y0389307D03*
X0217799Y0389309D03*
X0217799Y0371356D03*
X0230865Y0371354D03*
X0230865Y0349307D03*
X0217799Y0349309D03*
X0217799Y0331356D03*
X0230865Y0331354D03*
X0230865Y0309307D03*
X0217799Y0309309D03*
X0217799Y0291356D03*
X0230865Y0291354D03*
X0230865Y0269307D03*
X0217799Y0269309D03*
X0217799Y0194356D03*
X0230865Y0194354D03*
X0230865Y0172307D03*
X0217799Y0172309D03*
X0217799Y0154356D03*
X0230865Y0154354D03*
X0230865Y0132307D03*
X0217799Y0132309D03*
X0217799Y0114356D03*
X0230865Y0114354D03*
X0230865Y0092307D03*
X0217799Y0092309D03*
X0217799Y0074356D03*
X0230865Y0074354D03*
X0230865Y0052307D03*
X0217799Y0052309D03*
X0379799Y0052309D03*
X0379799Y0074356D03*
X0379799Y0092309D03*
X0379799Y0114356D03*
X0379799Y0132309D03*
X0379799Y0154356D03*
X0379799Y0172309D03*
X0379799Y0194356D03*
X0379799Y0269309D03*
X0379799Y0291356D03*
X0379799Y0309309D03*
X0379799Y0331356D03*
X0379799Y0349309D03*
X0379799Y0371356D03*
X0379799Y0389309D03*
X0379799Y0411356D03*
D12*
X0365330Y0406238D03*
X0365330Y0402301D03*
X0365330Y0398364D03*
X0365330Y0394427D03*
X0365330Y0366238D03*
X0365330Y0362301D03*
X0365330Y0358364D03*
X0365330Y0354427D03*
X0365330Y0326238D03*
X0365330Y0322301D03*
X0365330Y0318364D03*
X0365330Y0314427D03*
X0365330Y0286238D03*
X0365330Y0282301D03*
X0365330Y0278364D03*
X0365330Y0274427D03*
X0365330Y0189238D03*
X0365330Y0185301D03*
X0365330Y0181364D03*
X0365330Y0177427D03*
X0365330Y0149238D03*
X0365330Y0145301D03*
X0365330Y0141364D03*
X0365330Y0137427D03*
X0365330Y0109238D03*
X0365330Y0105301D03*
X0365330Y0101364D03*
X0365330Y0097427D03*
X0365330Y0069238D03*
X0365330Y0065301D03*
X0365330Y0061364D03*
X0365330Y0057427D03*
X0245334Y0057425D03*
X0245334Y0061362D03*
X0245334Y0065299D03*
X0245334Y0069236D03*
X0245334Y0097425D03*
X0245334Y0101362D03*
X0245334Y0105299D03*
X0245334Y0109236D03*
X0245334Y0137425D03*
X0245334Y0141362D03*
X0245334Y0145299D03*
X0245334Y0149236D03*
X0245334Y0177425D03*
X0245334Y0181362D03*
X0245334Y0185299D03*
X0245334Y0189236D03*
X0203330Y0189238D03*
X0203330Y0185301D03*
X0203330Y0181364D03*
X0203330Y0177427D03*
X0203330Y0149238D03*
X0203330Y0145301D03*
X0203330Y0141364D03*
X0203330Y0137427D03*
X0203330Y0109238D03*
X0203330Y0105301D03*
X0203330Y0101364D03*
X0203330Y0097427D03*
X0203330Y0069238D03*
X0203330Y0065301D03*
X0203330Y0061364D03*
X0203330Y0057427D03*
X0083334Y0057425D03*
X0083334Y0061362D03*
X0083334Y0065299D03*
X0083334Y0069236D03*
X0083334Y0097425D03*
X0083334Y0101362D03*
X0083334Y0105299D03*
X0083334Y0109236D03*
X0083334Y0137425D03*
X0083334Y0141362D03*
X0083334Y0145299D03*
X0083334Y0149236D03*
X0083334Y0177425D03*
X0083334Y0181362D03*
X0083334Y0185299D03*
X0083334Y0189236D03*
X0083334Y0274425D03*
X0083334Y0278362D03*
X0083334Y0282299D03*
X0083334Y0286236D03*
X0083334Y0314425D03*
X0083334Y0318362D03*
X0083334Y0322299D03*
X0083334Y0326236D03*
X0083334Y0354425D03*
X0083334Y0358362D03*
X0083334Y0362299D03*
X0083334Y0366236D03*
X0083334Y0394425D03*
X0083334Y0398362D03*
X0083334Y0402299D03*
X0083334Y0406236D03*
X0203330Y0406238D03*
X0203330Y0402301D03*
X0203330Y0398364D03*
X0203330Y0394427D03*
X0203330Y0366238D03*
X0203330Y0362301D03*
X0203330Y0358364D03*
X0203330Y0354427D03*
X0203330Y0326238D03*
X0203330Y0322301D03*
X0203330Y0318364D03*
X0203330Y0314427D03*
X0203330Y0286238D03*
X0203330Y0282301D03*
X0203330Y0278364D03*
X0203330Y0274427D03*
X0245334Y0274425D03*
X0245334Y0278362D03*
X0245334Y0282299D03*
X0245334Y0286236D03*
X0245334Y0314425D03*
X0245334Y0318362D03*
X0245334Y0322299D03*
X0245334Y0326236D03*
X0245334Y0354425D03*
X0245334Y0358362D03*
X0245334Y0362299D03*
X0245334Y0366236D03*
X0245334Y0394425D03*
X0245334Y0398362D03*
X0245334Y0402299D03*
X0245334Y0406236D03*
D13*
X0293523Y0354385D03*
X0293523Y0351846D03*
X0293523Y0349287D03*
X0293523Y0346728D03*
X0293523Y0344169D03*
X0293523Y0341610D03*
X0293523Y0339051D03*
X0293523Y0336492D03*
X0293523Y0333933D03*
X0293523Y0331374D03*
X0293523Y0328815D03*
X0293523Y0326255D03*
X0317145Y0326255D03*
X0317145Y0328815D03*
X0317145Y0331374D03*
X0317145Y0333933D03*
X0317145Y0336492D03*
X0317145Y0339051D03*
X0317145Y0341610D03*
X0317145Y0344169D03*
X0317145Y0346728D03*
X0317145Y0349287D03*
X0317145Y0351846D03*
X0317145Y0354405D03*
X0155145Y0354405D03*
X0155145Y0351846D03*
X0155145Y0349287D03*
X0155145Y0346728D03*
X0155145Y0344169D03*
X0155145Y0341610D03*
X0155145Y0339051D03*
X0155145Y0336492D03*
X0155145Y0333933D03*
X0155145Y0331374D03*
X0155145Y0328815D03*
X0155145Y0326255D03*
X0131523Y0326255D03*
X0131523Y0328815D03*
X0131523Y0331374D03*
X0131523Y0333933D03*
X0131523Y0336492D03*
X0131523Y0339051D03*
X0131523Y0341610D03*
X0131523Y0344169D03*
X0131523Y0346728D03*
X0131523Y0349287D03*
X0131523Y0351846D03*
X0131523Y0354385D03*
X0131523Y0137385D03*
X0131523Y0134846D03*
X0131523Y0132287D03*
X0131523Y0129728D03*
X0131523Y0127169D03*
X0131523Y0124610D03*
X0131523Y0122051D03*
X0131523Y0119492D03*
X0131523Y0116933D03*
X0131523Y0114374D03*
X0131523Y0111815D03*
X0131523Y0109255D03*
X0155145Y0109255D03*
X0155145Y0111815D03*
X0155145Y0114374D03*
X0155145Y0116933D03*
X0155145Y0119492D03*
X0155145Y0122051D03*
X0155145Y0124610D03*
X0155145Y0127169D03*
X0155145Y0129728D03*
X0155145Y0132287D03*
X0155145Y0134846D03*
X0155145Y0137405D03*
X0293523Y0137385D03*
X0293523Y0134846D03*
X0293523Y0132287D03*
X0293523Y0129728D03*
X0293523Y0127169D03*
X0293523Y0124610D03*
X0293523Y0122051D03*
X0293523Y0119492D03*
X0293523Y0116933D03*
X0293523Y0114374D03*
X0293523Y0111815D03*
X0293523Y0109255D03*
X0317145Y0109255D03*
X0317145Y0111815D03*
X0317145Y0114374D03*
X0317145Y0116933D03*
X0317145Y0119492D03*
X0317145Y0122051D03*
X0317145Y0124610D03*
X0317145Y0127169D03*
X0317145Y0129728D03*
X0317145Y0132287D03*
X0317145Y0134846D03*
X0317145Y0137405D03*
D14*
X0335987Y0138333D03*
X0335986Y0143336D03*
X0335986Y0148336D03*
X0342679Y0148336D03*
X0342679Y0143336D03*
X0342680Y0138333D03*
X0342679Y0108336D03*
X0342679Y0103336D03*
X0342680Y0098333D03*
X0335987Y0098333D03*
X0335986Y0103336D03*
X0335986Y0108336D03*
X0335986Y0068336D03*
X0335986Y0063336D03*
X0335987Y0058333D03*
X0342680Y0058333D03*
X0342679Y0063336D03*
X0342679Y0068336D03*
X0274680Y0068330D03*
X0274680Y0063330D03*
X0274680Y0058330D03*
X0267987Y0058330D03*
X0267987Y0063330D03*
X0267987Y0068330D03*
X0267987Y0098330D03*
X0267987Y0103330D03*
X0267987Y0108330D03*
X0274680Y0108330D03*
X0274680Y0103330D03*
X0274680Y0098330D03*
X0274680Y0138330D03*
X0274680Y0143330D03*
X0274680Y0148330D03*
X0267987Y0148330D03*
X0267987Y0143330D03*
X0267987Y0138330D03*
X0267987Y0178330D03*
X0267987Y0183330D03*
X0267987Y0188330D03*
X0274680Y0188330D03*
X0274680Y0183330D03*
X0274680Y0178330D03*
X0335987Y0178333D03*
X0335986Y0183336D03*
X0335986Y0188336D03*
X0342679Y0188336D03*
X0342679Y0183336D03*
X0342680Y0178333D03*
X0342680Y0275333D03*
X0342679Y0280336D03*
X0342679Y0285336D03*
X0335986Y0285336D03*
X0335986Y0280336D03*
X0335987Y0275333D03*
X0335987Y0315333D03*
X0335986Y0320336D03*
X0335986Y0325336D03*
X0342679Y0325336D03*
X0342679Y0320336D03*
X0342680Y0315333D03*
X0342680Y0355333D03*
X0342679Y0360336D03*
X0342679Y0365336D03*
X0335986Y0365336D03*
X0335986Y0360336D03*
X0335987Y0355333D03*
X0335987Y0395333D03*
X0335986Y0400336D03*
X0335986Y0405336D03*
X0342679Y0405336D03*
X0342679Y0400336D03*
X0342680Y0395333D03*
X0274680Y0395330D03*
X0274680Y0400330D03*
X0274680Y0405330D03*
X0267987Y0405330D03*
X0267987Y0400330D03*
X0267987Y0395330D03*
X0267987Y0365330D03*
X0267987Y0360330D03*
X0267987Y0355330D03*
X0274680Y0355330D03*
X0274680Y0360330D03*
X0274680Y0365330D03*
X0274680Y0325330D03*
X0274680Y0320330D03*
X0274680Y0315330D03*
X0267987Y0315330D03*
X0267987Y0320330D03*
X0267987Y0325330D03*
X0267987Y0285330D03*
X0267987Y0280330D03*
X0267987Y0275330D03*
X0274680Y0275330D03*
X0274680Y0280330D03*
X0274680Y0285330D03*
X0180679Y0285336D03*
X0180679Y0280336D03*
X0180680Y0275333D03*
X0173987Y0275333D03*
X0173986Y0280336D03*
X0173986Y0285336D03*
X0173987Y0315333D03*
X0173986Y0320336D03*
X0173986Y0325336D03*
X0180679Y0325336D03*
X0180679Y0320336D03*
X0180680Y0315333D03*
X0180680Y0355333D03*
X0180679Y0360336D03*
X0180679Y0365336D03*
X0173986Y0365336D03*
X0173986Y0360336D03*
X0173987Y0355333D03*
X0173987Y0395333D03*
X0173986Y0400336D03*
X0173986Y0405336D03*
X0180679Y0405336D03*
X0180679Y0400336D03*
X0180680Y0395333D03*
X0112680Y0395330D03*
X0112680Y0400330D03*
X0112680Y0405330D03*
X0105987Y0405330D03*
X0105987Y0400330D03*
X0105987Y0395330D03*
X0105987Y0365330D03*
X0105987Y0360330D03*
X0105987Y0355330D03*
X0112680Y0355330D03*
X0112680Y0360330D03*
X0112680Y0365330D03*
X0112680Y0325330D03*
X0112680Y0320330D03*
X0112680Y0315330D03*
X0105987Y0315330D03*
X0105987Y0320330D03*
X0105987Y0325330D03*
X0105987Y0285330D03*
X0105987Y0280330D03*
X0105987Y0275330D03*
X0112680Y0275330D03*
X0112680Y0280330D03*
X0112680Y0285330D03*
X0112680Y0188330D03*
X0112680Y0183330D03*
X0112680Y0178330D03*
X0105987Y0178330D03*
X0105987Y0183330D03*
X0105987Y0188330D03*
X0105987Y0148330D03*
X0105987Y0143330D03*
X0105987Y0138330D03*
X0112680Y0138330D03*
X0112680Y0143330D03*
X0112680Y0148330D03*
X0112680Y0108330D03*
X0112680Y0103330D03*
X0112680Y0098330D03*
X0105987Y0098330D03*
X0105987Y0103330D03*
X0105987Y0108330D03*
X0105987Y0068330D03*
X0105987Y0063330D03*
X0105987Y0058330D03*
X0112680Y0058330D03*
X0112680Y0063330D03*
X0112680Y0068330D03*
X0173986Y0068336D03*
X0173986Y0063336D03*
X0173987Y0058333D03*
X0180680Y0058333D03*
X0180679Y0063336D03*
X0180679Y0068336D03*
X0180680Y0098333D03*
X0180679Y0103336D03*
X0180679Y0108336D03*
X0173986Y0108336D03*
X0173986Y0103336D03*
X0173987Y0098333D03*
X0173987Y0138333D03*
X0173986Y0143336D03*
X0173986Y0148336D03*
X0180679Y0148336D03*
X0180679Y0143336D03*
X0180680Y0138333D03*
X0180680Y0178333D03*
X0180679Y0183336D03*
X0180679Y0188336D03*
X0173986Y0188336D03*
X0173986Y0183336D03*
X0173987Y0178333D03*
D15*
X0154357Y0232802D03*
X0132310Y0232802D03*
X0294310Y0232802D03*
X0316357Y0232802D03*
X0316357Y0449802D03*
X0294310Y0449802D03*
X0154357Y0449802D03*
X0132310Y0449802D03*
D16*
X0137428Y0435333D03*
X0141365Y0435333D03*
X0145302Y0435333D03*
X0149239Y0435333D03*
X0299428Y0435333D03*
X0303365Y0435333D03*
X0307302Y0435333D03*
X0311239Y0435333D03*
X0311239Y0218333D03*
X0307302Y0218333D03*
X0303365Y0218333D03*
X0299428Y0218333D03*
X0149239Y0218333D03*
X0145302Y0218333D03*
X0141365Y0218333D03*
X0137428Y0218333D03*
D17*
X0108452Y0219593D03*
X0108452Y0227073D03*
X0098215Y0227073D03*
X0098215Y0223333D03*
X0098215Y0219593D03*
X0178215Y0219593D03*
X0178215Y0223333D03*
X0178215Y0227073D03*
X0188452Y0227073D03*
X0188452Y0219593D03*
X0260215Y0219593D03*
X0260215Y0223333D03*
X0260215Y0227073D03*
X0270452Y0227073D03*
X0270452Y0219593D03*
X0340215Y0219593D03*
X0340215Y0223333D03*
X0340215Y0227073D03*
X0350452Y0227073D03*
X0350452Y0219593D03*
X0350452Y0436593D03*
X0350452Y0444073D03*
X0340215Y0444073D03*
X0340215Y0440333D03*
X0340215Y0436593D03*
X0270452Y0436593D03*
X0270452Y0444073D03*
X0260215Y0444073D03*
X0260215Y0440333D03*
X0260215Y0436593D03*
X0188452Y0436593D03*
X0188452Y0444073D03*
X0178215Y0444073D03*
X0178215Y0440333D03*
X0178215Y0436593D03*
X0108452Y0436593D03*
X0108452Y0444073D03*
X0098215Y0444073D03*
X0098215Y0440333D03*
X0098215Y0436593D03*
D18*
X0126955Y0262408D02*
X0129711Y0262408D01*
X0126955Y0262408D02*
X0126955Y0265164D01*
X0129711Y0265164D01*
X0129711Y0262408D01*
X0129711Y0263588D02*
X0126955Y0263588D01*
X0126955Y0264768D02*
X0129711Y0264768D01*
X0129711Y0255503D02*
X0126955Y0255503D01*
X0126955Y0258259D01*
X0129711Y0258259D01*
X0129711Y0255503D01*
X0129711Y0256683D02*
X0126955Y0256683D01*
X0126955Y0257863D02*
X0129711Y0257863D01*
X0141955Y0255503D02*
X0144711Y0255503D01*
X0141955Y0255503D02*
X0141955Y0258259D01*
X0144711Y0258259D01*
X0144711Y0255503D01*
X0144711Y0256683D02*
X0141955Y0256683D01*
X0141955Y0257863D02*
X0144711Y0257863D01*
X0144711Y0262408D02*
X0141955Y0262408D01*
X0141955Y0265164D01*
X0144711Y0265164D01*
X0144711Y0262408D01*
X0144711Y0263588D02*
X0141955Y0263588D01*
X0141955Y0264768D02*
X0144711Y0264768D01*
X0156955Y0262408D02*
X0159711Y0262408D01*
X0156955Y0262408D02*
X0156955Y0265164D01*
X0159711Y0265164D01*
X0159711Y0262408D01*
X0159711Y0263588D02*
X0156955Y0263588D01*
X0156955Y0264768D02*
X0159711Y0264768D01*
X0159711Y0255503D02*
X0156955Y0255503D01*
X0156955Y0258259D01*
X0159711Y0258259D01*
X0159711Y0255503D01*
X0159711Y0256683D02*
X0156955Y0256683D01*
X0156955Y0257863D02*
X0159711Y0257863D01*
X0288955Y0255503D02*
X0291711Y0255503D01*
X0288955Y0255503D02*
X0288955Y0258259D01*
X0291711Y0258259D01*
X0291711Y0255503D01*
X0291711Y0256683D02*
X0288955Y0256683D01*
X0288955Y0257863D02*
X0291711Y0257863D01*
X0291711Y0262408D02*
X0288955Y0262408D01*
X0288955Y0265164D01*
X0291711Y0265164D01*
X0291711Y0262408D01*
X0291711Y0263588D02*
X0288955Y0263588D01*
X0288955Y0264768D02*
X0291711Y0264768D01*
X0303955Y0262408D02*
X0306711Y0262408D01*
X0303955Y0262408D02*
X0303955Y0265164D01*
X0306711Y0265164D01*
X0306711Y0262408D01*
X0306711Y0263588D02*
X0303955Y0263588D01*
X0303955Y0264768D02*
X0306711Y0264768D01*
X0306711Y0255503D02*
X0303955Y0255503D01*
X0303955Y0258259D01*
X0306711Y0258259D01*
X0306711Y0255503D01*
X0306711Y0256683D02*
X0303955Y0256683D01*
X0303955Y0257863D02*
X0306711Y0257863D01*
X0318955Y0255503D02*
X0321711Y0255503D01*
X0318955Y0255503D02*
X0318955Y0258259D01*
X0321711Y0258259D01*
X0321711Y0255503D01*
X0321711Y0256683D02*
X0318955Y0256683D01*
X0318955Y0257863D02*
X0321711Y0257863D01*
X0321711Y0262408D02*
X0318955Y0262408D01*
X0318955Y0265164D01*
X0321711Y0265164D01*
X0321711Y0262408D01*
X0321711Y0263588D02*
X0318955Y0263588D01*
X0318955Y0264768D02*
X0321711Y0264768D01*
X0321711Y0045408D02*
X0318955Y0045408D01*
X0318955Y0048164D01*
X0321711Y0048164D01*
X0321711Y0045408D01*
X0321711Y0046588D02*
X0318955Y0046588D01*
X0318955Y0047768D02*
X0321711Y0047768D01*
X0321711Y0038503D02*
X0318955Y0038503D01*
X0318955Y0041259D01*
X0321711Y0041259D01*
X0321711Y0038503D01*
X0321711Y0039683D02*
X0318955Y0039683D01*
X0318955Y0040863D02*
X0321711Y0040863D01*
X0306711Y0038503D02*
X0303955Y0038503D01*
X0303955Y0041259D01*
X0306711Y0041259D01*
X0306711Y0038503D01*
X0306711Y0039683D02*
X0303955Y0039683D01*
X0303955Y0040863D02*
X0306711Y0040863D01*
X0306711Y0045408D02*
X0303955Y0045408D01*
X0303955Y0048164D01*
X0306711Y0048164D01*
X0306711Y0045408D01*
X0306711Y0046588D02*
X0303955Y0046588D01*
X0303955Y0047768D02*
X0306711Y0047768D01*
X0291711Y0045408D02*
X0288955Y0045408D01*
X0288955Y0048164D01*
X0291711Y0048164D01*
X0291711Y0045408D01*
X0291711Y0046588D02*
X0288955Y0046588D01*
X0288955Y0047768D02*
X0291711Y0047768D01*
X0291711Y0038503D02*
X0288955Y0038503D01*
X0288955Y0041259D01*
X0291711Y0041259D01*
X0291711Y0038503D01*
X0291711Y0039683D02*
X0288955Y0039683D01*
X0288955Y0040863D02*
X0291711Y0040863D01*
X0159711Y0038503D02*
X0156955Y0038503D01*
X0156955Y0041259D01*
X0159711Y0041259D01*
X0159711Y0038503D01*
X0159711Y0039683D02*
X0156955Y0039683D01*
X0156955Y0040863D02*
X0159711Y0040863D01*
X0159711Y0045408D02*
X0156955Y0045408D01*
X0156955Y0048164D01*
X0159711Y0048164D01*
X0159711Y0045408D01*
X0159711Y0046588D02*
X0156955Y0046588D01*
X0156955Y0047768D02*
X0159711Y0047768D01*
X0144711Y0045408D02*
X0141955Y0045408D01*
X0141955Y0048164D01*
X0144711Y0048164D01*
X0144711Y0045408D01*
X0144711Y0046588D02*
X0141955Y0046588D01*
X0141955Y0047768D02*
X0144711Y0047768D01*
X0144711Y0038503D02*
X0141955Y0038503D01*
X0141955Y0041259D01*
X0144711Y0041259D01*
X0144711Y0038503D01*
X0144711Y0039683D02*
X0141955Y0039683D01*
X0141955Y0040863D02*
X0144711Y0040863D01*
X0129711Y0038503D02*
X0126955Y0038503D01*
X0126955Y0041259D01*
X0129711Y0041259D01*
X0129711Y0038503D01*
X0129711Y0039683D02*
X0126955Y0039683D01*
X0126955Y0040863D02*
X0129711Y0040863D01*
X0129711Y0045408D02*
X0126955Y0045408D01*
X0126955Y0048164D01*
X0129711Y0048164D01*
X0129711Y0045408D01*
X0129711Y0046588D02*
X0126955Y0046588D01*
X0126955Y0047768D02*
X0129711Y0047768D01*
M02*
