G75*
%MOIN*%
%OFA0B0*%
%FSLAX25Y25*%
%IPPOS*%
%LPD*%
%AMOC8*
5,1,8,0,0,1.08239X$1,22.5*
%
%ADD10C,0.08200*%
%ADD11C,0.13800*%
%ADD12R,0.03300X0.05800*%
%ADD13C,0.00500*%
%ADD14C,0.03900*%
D10*
X0093333Y0048333D03*
X0093333Y0058333D03*
X0093333Y0068333D03*
X0093333Y0078333D03*
X0093333Y0088333D03*
X0093333Y0098333D03*
X0093333Y0108333D03*
X0093333Y0118333D03*
X0093333Y0128333D03*
X0093333Y0138333D03*
X0093333Y0148333D03*
X0093333Y0158333D03*
X0093333Y0168333D03*
X0093333Y0178333D03*
X0093333Y0188333D03*
X0093333Y0198333D03*
X0118334Y0208330D03*
X0128333Y0208333D03*
X0138333Y0208333D03*
X0148333Y0208333D03*
X0158333Y0208333D03*
X0193333Y0198333D03*
X0193333Y0188333D03*
X0193333Y0178333D03*
X0193333Y0168333D03*
X0193333Y0158333D03*
X0193333Y0148333D03*
X0193333Y0138333D03*
X0193333Y0128333D03*
X0193333Y0118333D03*
X0193333Y0108333D03*
X0193333Y0098333D03*
X0193333Y0088333D03*
X0193333Y0078333D03*
X0193333Y0068333D03*
X0193333Y0058333D03*
X0193333Y0048333D03*
X0255333Y0048333D03*
X0255333Y0058333D03*
X0255333Y0068333D03*
X0255333Y0078333D03*
X0255333Y0088333D03*
X0255333Y0098333D03*
X0255333Y0108333D03*
X0255333Y0118333D03*
X0255333Y0128333D03*
X0255333Y0138333D03*
X0255333Y0148333D03*
X0255333Y0158333D03*
X0255333Y0168333D03*
X0255333Y0178333D03*
X0255333Y0188333D03*
X0255333Y0198333D03*
X0280334Y0208330D03*
X0290333Y0208333D03*
X0300333Y0208333D03*
X0310333Y0208333D03*
X0320333Y0208333D03*
X0355333Y0198333D03*
X0355333Y0188333D03*
X0355333Y0178333D03*
X0355333Y0168333D03*
X0355333Y0158333D03*
X0355333Y0148333D03*
X0355333Y0138333D03*
X0355333Y0128333D03*
X0355333Y0118333D03*
X0355333Y0108333D03*
X0355333Y0098333D03*
X0355333Y0088333D03*
X0355333Y0078333D03*
X0355333Y0068333D03*
X0355333Y0058333D03*
X0355333Y0048333D03*
X0355333Y0265333D03*
X0355333Y0275333D03*
X0355333Y0285333D03*
X0355333Y0295333D03*
X0355333Y0305333D03*
X0355333Y0315333D03*
X0355333Y0325333D03*
X0355333Y0335333D03*
X0355333Y0345333D03*
X0355333Y0355333D03*
X0355333Y0365333D03*
X0355333Y0375333D03*
X0355333Y0385333D03*
X0355333Y0395333D03*
X0355333Y0405333D03*
X0355333Y0415333D03*
X0320333Y0425333D03*
X0310333Y0425333D03*
X0300333Y0425333D03*
X0290333Y0425333D03*
X0280334Y0425330D03*
X0255333Y0415333D03*
X0255333Y0405333D03*
X0255333Y0395333D03*
X0255333Y0385333D03*
X0255333Y0375333D03*
X0255333Y0365333D03*
X0255333Y0355333D03*
X0255333Y0345333D03*
X0255333Y0335333D03*
X0255333Y0325333D03*
X0255333Y0315333D03*
X0255333Y0305333D03*
X0255333Y0295333D03*
X0255333Y0285333D03*
X0255333Y0275333D03*
X0255333Y0265333D03*
X0193333Y0265333D03*
X0193333Y0275333D03*
X0193333Y0285333D03*
X0193333Y0295333D03*
X0193333Y0305333D03*
X0193333Y0315333D03*
X0193333Y0325333D03*
X0193333Y0335333D03*
X0193333Y0345333D03*
X0193333Y0355333D03*
X0193333Y0365333D03*
X0193333Y0375333D03*
X0193333Y0385333D03*
X0193333Y0395333D03*
X0193333Y0405333D03*
X0193333Y0415333D03*
X0158333Y0425333D03*
X0148333Y0425333D03*
X0138333Y0425333D03*
X0128333Y0425333D03*
X0118334Y0425330D03*
X0093333Y0415333D03*
X0093333Y0405333D03*
X0093333Y0395333D03*
X0093333Y0385333D03*
X0093333Y0375333D03*
X0093333Y0365333D03*
X0093333Y0355333D03*
X0093333Y0345333D03*
X0093333Y0335333D03*
X0093333Y0325333D03*
X0093333Y0315333D03*
X0093333Y0305333D03*
X0093333Y0295333D03*
X0093333Y0285333D03*
X0093333Y0275333D03*
X0093333Y0265333D03*
D11*
X0073333Y0033333D03*
X0213333Y0033333D03*
X0235333Y0033333D03*
X0375333Y0033333D03*
X0375333Y0228333D03*
X0375333Y0250333D03*
X0235333Y0250333D03*
X0235333Y0228333D03*
X0213333Y0228333D03*
X0213333Y0250333D03*
X0073333Y0250333D03*
X0073333Y0228333D03*
X0073333Y0445333D03*
X0213333Y0445333D03*
X0235333Y0445333D03*
X0375333Y0445333D03*
D12*
X0309333Y0445333D03*
X0305333Y0445333D03*
X0301333Y0445333D03*
X0147333Y0445333D03*
X0143333Y0445333D03*
X0139333Y0445333D03*
X0139333Y0228333D03*
X0143333Y0228333D03*
X0147333Y0228333D03*
X0301333Y0228333D03*
X0305333Y0228333D03*
X0309333Y0228333D03*
D13*
X0308083Y0228221D02*
X0306583Y0228221D01*
X0306583Y0227833D02*
X0306583Y0228833D01*
X0308083Y0228833D01*
X0308083Y0227833D01*
X0306583Y0227833D01*
X0306583Y0228720D02*
X0308083Y0228720D01*
X0146083Y0228720D02*
X0144583Y0228720D01*
X0144583Y0228833D02*
X0144583Y0227833D01*
X0146083Y0227833D01*
X0146083Y0228833D01*
X0144583Y0228833D01*
X0144583Y0228221D02*
X0146083Y0228221D01*
X0146083Y0444833D02*
X0144583Y0444833D01*
X0144583Y0445833D01*
X0146083Y0445833D01*
X0146083Y0444833D01*
X0146083Y0445074D02*
X0144583Y0445074D01*
X0144583Y0445572D02*
X0146083Y0445572D01*
X0306583Y0445572D02*
X0308083Y0445572D01*
X0308083Y0445833D02*
X0306583Y0445833D01*
X0306583Y0444833D01*
X0308083Y0444833D01*
X0308083Y0445833D01*
X0308083Y0445074D02*
X0306583Y0445074D01*
D14*
X0320333Y0440333D03*
X0335333Y0450333D03*
X0365333Y0430333D03*
X0348334Y0395330D03*
X0320333Y0405333D03*
X0300334Y0395330D03*
X0288334Y0390330D03*
X0290333Y0405333D03*
X0274833Y0382333D03*
X0261834Y0388830D03*
X0295334Y0373330D03*
X0300334Y0380333D03*
X0305333Y0350333D03*
X0310333Y0350333D03*
X0305333Y0335333D03*
X0295334Y0320330D03*
X0315334Y0320330D03*
X0330333Y0300333D03*
X0348334Y0315330D03*
X0348334Y0275330D03*
X0335333Y0233333D03*
X0320333Y0223333D03*
X0320333Y0188333D03*
X0300334Y0178330D03*
X0288334Y0173330D03*
X0290333Y0188333D03*
X0274833Y0165333D03*
X0261834Y0171830D03*
X0295334Y0156330D03*
X0300334Y0163333D03*
X0305333Y0133333D03*
X0310333Y0133333D03*
X0305333Y0118333D03*
X0295334Y0103330D03*
X0315334Y0103330D03*
X0330333Y0083333D03*
X0348334Y0098330D03*
X0348334Y0058330D03*
X0275333Y0073333D03*
X0265334Y0093330D03*
X0275333Y0113333D03*
X0265334Y0133330D03*
X0265334Y0053330D03*
X0186334Y0058330D03*
X0168333Y0083333D03*
X0186334Y0098330D03*
X0153334Y0103330D03*
X0143333Y0118333D03*
X0143333Y0133333D03*
X0148333Y0133333D03*
X0133334Y0156330D03*
X0138334Y0163333D03*
X0138334Y0178330D03*
X0126334Y0173330D03*
X0128333Y0188333D03*
X0112833Y0165333D03*
X0099834Y0171830D03*
X0103334Y0133330D03*
X0113333Y0113333D03*
X0133334Y0103330D03*
X0113333Y0073333D03*
X0103334Y0093330D03*
X0103334Y0053330D03*
X0186334Y0138330D03*
X0186334Y0178330D03*
X0158333Y0188333D03*
X0158333Y0223333D03*
X0173333Y0233333D03*
X0203333Y0213333D03*
X0250333Y0213333D03*
X0255333Y0233333D03*
X0270333Y0213333D03*
X0280333Y0233333D03*
X0265334Y0270330D03*
X0275333Y0290333D03*
X0265334Y0310330D03*
X0275333Y0330333D03*
X0265334Y0350330D03*
X0270333Y0430333D03*
X0280333Y0450333D03*
X0255333Y0450333D03*
X0250333Y0430333D03*
X0203333Y0430333D03*
X0173333Y0450333D03*
X0158333Y0440333D03*
X0158333Y0405333D03*
X0138334Y0395330D03*
X0126334Y0390330D03*
X0128333Y0405333D03*
X0112833Y0382333D03*
X0099834Y0388830D03*
X0133334Y0373330D03*
X0138334Y0380333D03*
X0143333Y0350333D03*
X0148333Y0350333D03*
X0143333Y0335333D03*
X0133334Y0320330D03*
X0153334Y0320330D03*
X0168333Y0300333D03*
X0186334Y0315330D03*
X0186334Y0275330D03*
X0118333Y0233333D03*
X0108333Y0213333D03*
X0093333Y0233333D03*
X0088333Y0213333D03*
X0103334Y0270330D03*
X0113333Y0290333D03*
X0103334Y0310330D03*
X0113333Y0330333D03*
X0103334Y0350330D03*
X0108333Y0430333D03*
X0118333Y0450333D03*
X0093333Y0450333D03*
X0088333Y0430333D03*
X0186334Y0395330D03*
X0186334Y0355330D03*
X0348334Y0355330D03*
X0365333Y0213333D03*
X0348334Y0178330D03*
X0348334Y0138330D03*
M02*
