M48
;GenerationSoftware,Autodesk,EAGLE,9.6.0*%
;CreationDate,2020-05-19T16:20:14Z*%
FMAT,2
ICI,OFF
METRIC,TZ,000.000
T3C0.381
T2C1.016
T1C3.302
%
G90
M71
T1
X38608Y52070
X2540Y2540
X2540Y52070
X33020Y52070
X33020Y2540
X38608Y2540
X105156Y2540
X69088Y52070
X69088Y2540
X74676Y2540
X74676Y52070
X105156Y52070
X177292Y57658
X110744Y2540
X110744Y52070
X141224Y52070
X141224Y2540
X146812Y2540
X146812Y52070
X177292Y52070
X177292Y2540
X2540Y57658
X2540Y107188
X33020Y107188
X33020Y57658
X38608Y57658
X38608Y107188
X69088Y107188
X69088Y57658
X74676Y57658
X74676Y107188
X105156Y107188
X105156Y57658
X110744Y57658
X110744Y107188
X141224Y107188
X141224Y57658
X146812Y57658
X146812Y107188
X177292Y107188
T2
X155702Y102107
X11430Y46989
X47498Y46989
X83566Y46989
X119634Y46989
X155702Y46989
X11430Y102107
X47498Y102107
X83566Y102107
X119634Y102107
T3
X57658Y44450
X52578Y22860
X64897Y18922
X65278Y36830
X64897Y39116
X64897Y29210
X65278Y26670
X42418Y12699
X42418Y22859
X42418Y33019
X64897Y8635
X50038Y5080
X57658Y5080
X47498Y1270
X60198Y1270
X65278Y16510
X65278Y48260
X52578Y35560
X46228Y12954
X46228Y17526
X57658Y35560
X66548Y35560
X41148Y35560
X55118Y27940
X52578Y45720
X54356Y8890
X53848Y27940
X50038Y45720
X49530Y40639
X52578Y41909
X78867Y37718
X79756Y27685
X78486Y17779
X79756Y7619
X87376Y36576
X86106Y20320
X93726Y20320
X86106Y44450
X86106Y49530
X93726Y49530
X93726Y44450
X88646Y22860
X100965Y18922
X101346Y36830
X100965Y39116
X100965Y29210
X101346Y26670
X78486Y12699
X78486Y22859
X78486Y33019
X100965Y8635
X86106Y5080
X93726Y5080
X83566Y1270
X96266Y1270
X101346Y16510
X101346Y48260
X88646Y35560
X82296Y12954
X82296Y17526
X93726Y35560
X102616Y35560
X77216Y35560
X91186Y27940
X88646Y45720
X90424Y8890
X89916Y27940
X86106Y45720
X85598Y40639
X88646Y41909
X114935Y37718
X115824Y27685
X114554Y17779
X115824Y7619
X123444Y36576
X122174Y20320
X129794Y20320
X122174Y44450
X122174Y49530
X129794Y49530
X129794Y44450
X124714Y22860
X137033Y18922
X137414Y36830
X137033Y39116
X137033Y29210
X137414Y26670
X114554Y12699
X114554Y22859
X114554Y33019
X137033Y8635
X122174Y5080
X129794Y5080
X119634Y1270
X132334Y1270
X137414Y16510
X137414Y48260
X124714Y35560
X118364Y12954
X118364Y17526
X129794Y35560
X138684Y35560
X113284Y35560
X127254Y27940
X124714Y45720
X126492Y8890
X125984Y27940
X122174Y45720
X121666Y40639
X124714Y41909
X151003Y37718
X151892Y27685
X150622Y17779
X151892Y7619
X159512Y36576
X158242Y20320
X165862Y20320
X158242Y44450
X158242Y49530
X165862Y49530
X165862Y44450
X160782Y22860
X173101Y18922
X173482Y36830
X173101Y39116
X173101Y29210
X173482Y26670
X150622Y12699
X150622Y22859
X150622Y33019
X173101Y8635
X158242Y5080
X165862Y5080
X155702Y1270
X168402Y1270
X173482Y16510
X173482Y48260
X160782Y35560
X154432Y12954
X154432Y17526
X165862Y35560
X174752Y35560
X149352Y35560
X163322Y27940
X160782Y45720
X162560Y8890
X162052Y27940
X158242Y45720
X157734Y40639
X160782Y41909
X6731Y92836
X7620Y82803
X6350Y72897
X7620Y62737
X15240Y91694
X13970Y75438
X21590Y75438
X13970Y99568
X13970Y104648
X21590Y104648
X21590Y99568
X16510Y77978
X28829Y74040
X29210Y91948
X28829Y94234
X28829Y84328
X29210Y81788
X6350Y67817
X6350Y77977
X6350Y88137
X28829Y63753
X13970Y60198
X21590Y60198
X11430Y56388
X24130Y56388
X29210Y71628
X29210Y103378
X16510Y90678
X10160Y68072
X10160Y72644
X21590Y90678
X30480Y90678
X5080Y90678
X19050Y83058
X16510Y100838
X18288Y64008
X17780Y83058
X13970Y100838
X13462Y95757
X16510Y97027
X42799Y92836
X43688Y82803
X42418Y72897
X43688Y62737
X51308Y91694
X50038Y75438
X57658Y75438
X50038Y99568
X50038Y104648
X57658Y104648
X57658Y99568
X52578Y77978
X64897Y74040
X65278Y91948
X64897Y94234
X64897Y84328
X65278Y81788
X42418Y67817
X42418Y77977
X42418Y88137
X64897Y63753
X50038Y60198
X57658Y60198
X47498Y56388
X60198Y56388
X65278Y71628
X65278Y103378
X52578Y90678
X46228Y68072
X46228Y72644
X57658Y90678
X66548Y90678
X41148Y90678
X55118Y83058
X52578Y100838
X54356Y64008
X53848Y83058
X50038Y100838
X49530Y95757
X52578Y97027
X78867Y92836
X79756Y82803
X78486Y72897
X79756Y62737
X87376Y91694
X86106Y75438
X93726Y75438
X86106Y99568
X86106Y104648
X93726Y104648
X93726Y99568
X88646Y77978
X100965Y74040
X101346Y91948
X100965Y94234
X100965Y84328
X101346Y81788
X78486Y67817
X78486Y77977
X78486Y88137
X100965Y63753
X86106Y60198
X93726Y60198
X83566Y56388
X96266Y56388
X101346Y71628
X101346Y103378
X88646Y90678
X82296Y68072
X82296Y72644
X93726Y90678
X102616Y90678
X77216Y90678
X91186Y83058
X88646Y100838
X90424Y64008
X89916Y83058
X86106Y100838
X85598Y95757
X88646Y97027
X114935Y92836
X115824Y82803
X114554Y72897
X115824Y62737
X123444Y91694
X122174Y75438
X129794Y75438
X122174Y99568
X122174Y104648
X129794Y104648
X129794Y99568
X124714Y77978
X137033Y74040
X137414Y91948
X137033Y94234
X137033Y84328
X137414Y81788
X6731Y37718
X114554Y77977
X114554Y88137
X137033Y63753
X122174Y60198
X129794Y60198
X119634Y56388
X132334Y56388
X137414Y71628
X137414Y103378
X124714Y90678
X118364Y68072
X118364Y72644
X129794Y90678
X138684Y90678
X113284Y90678
X127254Y83058
X124714Y100838
X126492Y64008
X125984Y83058
X122174Y100838
X121666Y95757
X124714Y97027
X151003Y92836
X151892Y82803
X150622Y72897
X151892Y62737
X159512Y91694
X158242Y75438
X165862Y75438
X158242Y99568
X158242Y104648
X165862Y104648
X165862Y99568
X160782Y77978
X173101Y74040
X173482Y91948
X173101Y94234
X173101Y84328
X173482Y81788
X150622Y67817
X150622Y77977
X150622Y88137
X173101Y63753
X158242Y60198
X165862Y60198
X155702Y56388
X168402Y56388
X173482Y71628
X173482Y103378
X160782Y90678
X154432Y68072
X154432Y72644
X165862Y90678
X174752Y90678
X149352Y90678
X114554Y67817
X160782Y100838
X162560Y64008
X162052Y83058
X158242Y100838
X157734Y95757
X160782Y97027
X7620Y27685
X6350Y17779
X7620Y7619
X15240Y36576
X13970Y20320
X21590Y20320
X13970Y44450
X13970Y49530
X21590Y49530
X21590Y44450
X16510Y22860
X28829Y18922
X29210Y36830
X28829Y39116
X28829Y29210
X29210Y26670
X6350Y12699
X6350Y22859
X6350Y33019
X28829Y8635
X13970Y5080
X21590Y5080
X11430Y1270
X24130Y1270
X29210Y16510
X29210Y48260
X16510Y35560
X10160Y12954
X10160Y17526
X21590Y35560
X30480Y35560
X5080Y35560
X19050Y27940
X16510Y45720
X18288Y8890
X17780Y27940
X13970Y45720
X13462Y40639
X16510Y41909
X42799Y37718
X43688Y27685
X42418Y17779
X43688Y7619
X51308Y36576
X50038Y20320
X57658Y20320
X50038Y44450
X50038Y49530
X57658Y49530
X163322Y83058
M30