G04 EAGLE Gerber RS-274X export*
G75*
%MOMM*%
%FSLAX34Y34*%
%LPD*%
%INSolderpaste Top*%
%IPPOS*%
%AMOC8*
5,1,8,0,0,1.08239X$1,22.5*%
G01*
%ADD10R,1.000000X1.100000*%
%ADD11R,2.000000X1.200000*%
%ADD12R,1.350000X0.600000*%
%ADD13R,1.000000X0.300000*%
%ADD14R,1.100000X1.000000*%
%ADD15R,1.200000X2.000000*%
%ADD16R,0.600000X1.350000*%
%ADD17C,0.300000*%


D10*
X177801Y325992D03*
X177801Y308992D03*
X203201Y325992D03*
X203201Y308992D03*
D11*
X14051Y434392D03*
X14051Y378392D03*
D12*
X50801Y421392D03*
X50801Y411392D03*
X50801Y401392D03*
X50801Y391392D03*
D11*
X14051Y332792D03*
X14051Y276792D03*
D12*
X50801Y319792D03*
X50801Y309792D03*
X50801Y299792D03*
X50801Y289792D03*
D11*
X14051Y231192D03*
X14051Y175192D03*
D12*
X50801Y218192D03*
X50801Y208192D03*
X50801Y198192D03*
X50801Y188192D03*
D11*
X14051Y129592D03*
X14051Y73592D03*
D12*
X50801Y116592D03*
X50801Y106592D03*
X50801Y96592D03*
X50801Y86592D03*
D13*
X147801Y289692D03*
X147801Y283242D03*
X147801Y276742D03*
X147801Y270242D03*
X147801Y263742D03*
X147801Y257242D03*
X147801Y250742D03*
X147801Y244242D03*
X147801Y237742D03*
X147801Y231242D03*
X147801Y224742D03*
X147801Y218242D03*
X207801Y218242D03*
X207801Y224742D03*
X207801Y231242D03*
X207801Y237742D03*
X207801Y244242D03*
X207801Y250742D03*
X207801Y257242D03*
X207801Y263742D03*
X207801Y270242D03*
X207801Y276742D03*
X207801Y283242D03*
X207801Y289742D03*
D14*
X99941Y421632D03*
X82941Y421632D03*
X99941Y406392D03*
X82941Y406392D03*
X99941Y320032D03*
X82941Y320032D03*
X99941Y304792D03*
X82941Y304792D03*
X99941Y218432D03*
X82941Y218432D03*
X99941Y203192D03*
X82941Y203192D03*
X99941Y116832D03*
X82941Y116832D03*
X99941Y101592D03*
X82941Y101592D03*
D11*
X341542Y73599D03*
X341542Y129599D03*
D12*
X304792Y86599D03*
X304792Y96599D03*
X304792Y106599D03*
X304792Y116599D03*
D11*
X341542Y175199D03*
X341542Y231199D03*
D12*
X304792Y188199D03*
X304792Y198199D03*
X304792Y208199D03*
X304792Y218199D03*
D11*
X341542Y276799D03*
X341542Y332799D03*
D12*
X304792Y289799D03*
X304792Y299799D03*
X304792Y309799D03*
X304792Y319799D03*
D11*
X341542Y378399D03*
X341542Y434399D03*
D12*
X304792Y391399D03*
X304792Y401399D03*
X304792Y411399D03*
X304792Y421399D03*
D14*
X255659Y101608D03*
X272659Y101608D03*
X255659Y116848D03*
X272659Y116848D03*
X255659Y203208D03*
X272659Y203208D03*
X255659Y218448D03*
X272659Y218448D03*
X255659Y304808D03*
X272659Y304808D03*
X255659Y320048D03*
X272659Y320048D03*
X255659Y406408D03*
X272659Y406408D03*
X255659Y421648D03*
X272659Y421648D03*
D10*
X152401Y440292D03*
X152401Y423292D03*
X177801Y440292D03*
X177801Y423292D03*
X203201Y440292D03*
X203201Y423292D03*
X152401Y308992D03*
X152401Y325992D03*
D14*
X99941Y391152D03*
X82941Y391152D03*
X99941Y289552D03*
X82941Y289552D03*
X99941Y187952D03*
X82941Y187952D03*
X99941Y86352D03*
X82941Y86352D03*
D10*
X115571Y376792D03*
X115571Y359792D03*
D15*
X205800Y532050D03*
X149800Y532050D03*
D16*
X192800Y495300D03*
X182800Y495300D03*
X172800Y495300D03*
X162800Y495300D03*
D14*
X255660Y86360D03*
X272660Y86360D03*
X255660Y187960D03*
X272660Y187960D03*
X255660Y289560D03*
X272660Y289560D03*
X255660Y391160D03*
X272660Y391160D03*
D17*
X284670Y504500D02*
X284670Y511500D01*
X291670Y511500D01*
X291670Y504500D01*
X284670Y504500D01*
X284670Y507350D02*
X291670Y507350D01*
X291670Y510200D02*
X284670Y510200D01*
X267130Y511500D02*
X267130Y504500D01*
X267130Y511500D02*
X274130Y511500D01*
X274130Y504500D01*
X267130Y504500D01*
X267130Y507350D02*
X274130Y507350D01*
X274130Y510200D02*
X267130Y510200D01*
D14*
X270900Y495300D03*
X287900Y495300D03*
D15*
X149800Y14050D03*
X205800Y14050D03*
D16*
X162800Y50800D03*
X172800Y50800D03*
X182800Y50800D03*
X192800Y50800D03*
D10*
X538481Y325992D03*
X538481Y308992D03*
X563881Y325992D03*
X563881Y308992D03*
D11*
X374731Y434392D03*
X374731Y378392D03*
D12*
X411481Y421392D03*
X411481Y411392D03*
X411481Y401392D03*
X411481Y391392D03*
D11*
X374731Y332792D03*
X374731Y276792D03*
D12*
X411481Y319792D03*
X411481Y309792D03*
X411481Y299792D03*
X411481Y289792D03*
D11*
X374731Y231192D03*
X374731Y175192D03*
D12*
X411481Y218192D03*
X411481Y208192D03*
X411481Y198192D03*
X411481Y188192D03*
D11*
X374731Y129592D03*
X374731Y73592D03*
D12*
X411481Y116592D03*
X411481Y106592D03*
X411481Y96592D03*
X411481Y86592D03*
D13*
X508481Y289692D03*
X508481Y283242D03*
X508481Y276742D03*
X508481Y270242D03*
X508481Y263742D03*
X508481Y257242D03*
X508481Y250742D03*
X508481Y244242D03*
X508481Y237742D03*
X508481Y231242D03*
X508481Y224742D03*
X508481Y218242D03*
X568481Y218242D03*
X568481Y224742D03*
X568481Y231242D03*
X568481Y237742D03*
X568481Y244242D03*
X568481Y250742D03*
X568481Y257242D03*
X568481Y263742D03*
X568481Y270242D03*
X568481Y276742D03*
X568481Y283242D03*
X568481Y289742D03*
D14*
X460621Y421632D03*
X443621Y421632D03*
X460621Y406392D03*
X443621Y406392D03*
X460621Y320032D03*
X443621Y320032D03*
X460621Y304792D03*
X443621Y304792D03*
X460621Y218432D03*
X443621Y218432D03*
X460621Y203192D03*
X443621Y203192D03*
X460621Y116832D03*
X443621Y116832D03*
X460621Y101592D03*
X443621Y101592D03*
D11*
X702222Y73599D03*
X702222Y129599D03*
D12*
X665472Y86599D03*
X665472Y96599D03*
X665472Y106599D03*
X665472Y116599D03*
D11*
X702222Y175199D03*
X702222Y231199D03*
D12*
X665472Y188199D03*
X665472Y198199D03*
X665472Y208199D03*
X665472Y218199D03*
D11*
X702222Y276799D03*
X702222Y332799D03*
D12*
X665472Y289799D03*
X665472Y299799D03*
X665472Y309799D03*
X665472Y319799D03*
D11*
X702222Y378399D03*
X702222Y434399D03*
D12*
X665472Y391399D03*
X665472Y401399D03*
X665472Y411399D03*
X665472Y421399D03*
D14*
X616339Y101608D03*
X633339Y101608D03*
X616339Y116848D03*
X633339Y116848D03*
X616339Y203208D03*
X633339Y203208D03*
X616339Y218448D03*
X633339Y218448D03*
X616339Y304808D03*
X633339Y304808D03*
X616339Y320048D03*
X633339Y320048D03*
X616339Y406408D03*
X633339Y406408D03*
X616339Y421648D03*
X633339Y421648D03*
D10*
X513081Y440292D03*
X513081Y423292D03*
X538481Y440292D03*
X538481Y423292D03*
X563881Y440292D03*
X563881Y423292D03*
X513081Y308992D03*
X513081Y325992D03*
D14*
X460621Y391152D03*
X443621Y391152D03*
X460621Y289552D03*
X443621Y289552D03*
X460621Y187952D03*
X443621Y187952D03*
X460621Y86352D03*
X443621Y86352D03*
D10*
X476251Y376792D03*
X476251Y359792D03*
D15*
X566480Y532050D03*
X510480Y532050D03*
D16*
X553480Y495300D03*
X543480Y495300D03*
X533480Y495300D03*
X523480Y495300D03*
D14*
X616340Y86360D03*
X633340Y86360D03*
X616340Y187960D03*
X633340Y187960D03*
X616340Y289560D03*
X633340Y289560D03*
X616340Y391160D03*
X633340Y391160D03*
D17*
X645350Y504500D02*
X645350Y511500D01*
X652350Y511500D01*
X652350Y504500D01*
X645350Y504500D01*
X645350Y507350D02*
X652350Y507350D01*
X652350Y510200D02*
X645350Y510200D01*
X627810Y511500D02*
X627810Y504500D01*
X627810Y511500D02*
X634810Y511500D01*
X634810Y504500D01*
X627810Y504500D01*
X627810Y507350D02*
X634810Y507350D01*
X634810Y510200D02*
X627810Y510200D01*
D14*
X631580Y495300D03*
X648580Y495300D03*
D15*
X510480Y14050D03*
X566480Y14050D03*
D16*
X523480Y50800D03*
X533480Y50800D03*
X543480Y50800D03*
X553480Y50800D03*
D10*
X899161Y325992D03*
X899161Y308992D03*
X924561Y325992D03*
X924561Y308992D03*
D11*
X735411Y434392D03*
X735411Y378392D03*
D12*
X772161Y421392D03*
X772161Y411392D03*
X772161Y401392D03*
X772161Y391392D03*
D11*
X735411Y332792D03*
X735411Y276792D03*
D12*
X772161Y319792D03*
X772161Y309792D03*
X772161Y299792D03*
X772161Y289792D03*
D11*
X735411Y231192D03*
X735411Y175192D03*
D12*
X772161Y218192D03*
X772161Y208192D03*
X772161Y198192D03*
X772161Y188192D03*
D11*
X735411Y129592D03*
X735411Y73592D03*
D12*
X772161Y116592D03*
X772161Y106592D03*
X772161Y96592D03*
X772161Y86592D03*
D13*
X869161Y289692D03*
X869161Y283242D03*
X869161Y276742D03*
X869161Y270242D03*
X869161Y263742D03*
X869161Y257242D03*
X869161Y250742D03*
X869161Y244242D03*
X869161Y237742D03*
X869161Y231242D03*
X869161Y224742D03*
X869161Y218242D03*
X929161Y218242D03*
X929161Y224742D03*
X929161Y231242D03*
X929161Y237742D03*
X929161Y244242D03*
X929161Y250742D03*
X929161Y257242D03*
X929161Y263742D03*
X929161Y270242D03*
X929161Y276742D03*
X929161Y283242D03*
X929161Y289742D03*
D14*
X821301Y421632D03*
X804301Y421632D03*
X821301Y406392D03*
X804301Y406392D03*
X821301Y320032D03*
X804301Y320032D03*
X821301Y304792D03*
X804301Y304792D03*
X821301Y218432D03*
X804301Y218432D03*
X821301Y203192D03*
X804301Y203192D03*
X821301Y116832D03*
X804301Y116832D03*
X821301Y101592D03*
X804301Y101592D03*
D11*
X1062902Y73599D03*
X1062902Y129599D03*
D12*
X1026152Y86599D03*
X1026152Y96599D03*
X1026152Y106599D03*
X1026152Y116599D03*
D11*
X1062902Y175199D03*
X1062902Y231199D03*
D12*
X1026152Y188199D03*
X1026152Y198199D03*
X1026152Y208199D03*
X1026152Y218199D03*
D11*
X1062902Y276799D03*
X1062902Y332799D03*
D12*
X1026152Y289799D03*
X1026152Y299799D03*
X1026152Y309799D03*
X1026152Y319799D03*
D11*
X1062902Y378399D03*
X1062902Y434399D03*
D12*
X1026152Y391399D03*
X1026152Y401399D03*
X1026152Y411399D03*
X1026152Y421399D03*
D14*
X977019Y101608D03*
X994019Y101608D03*
X977019Y116848D03*
X994019Y116848D03*
X977019Y203208D03*
X994019Y203208D03*
X977019Y218448D03*
X994019Y218448D03*
X977019Y304808D03*
X994019Y304808D03*
X977019Y320048D03*
X994019Y320048D03*
X977019Y406408D03*
X994019Y406408D03*
X977019Y421648D03*
X994019Y421648D03*
D10*
X873761Y440292D03*
X873761Y423292D03*
X899161Y440292D03*
X899161Y423292D03*
X924561Y440292D03*
X924561Y423292D03*
X873761Y308992D03*
X873761Y325992D03*
D14*
X821301Y391152D03*
X804301Y391152D03*
X821301Y289552D03*
X804301Y289552D03*
X821301Y187952D03*
X804301Y187952D03*
X821301Y86352D03*
X804301Y86352D03*
D10*
X836931Y376792D03*
X836931Y359792D03*
D15*
X927160Y532050D03*
X871160Y532050D03*
D16*
X914160Y495300D03*
X904160Y495300D03*
X894160Y495300D03*
X884160Y495300D03*
D14*
X977020Y86360D03*
X994020Y86360D03*
X977020Y187960D03*
X994020Y187960D03*
X977020Y289560D03*
X994020Y289560D03*
X977020Y391160D03*
X994020Y391160D03*
D17*
X1006030Y504500D02*
X1006030Y511500D01*
X1013030Y511500D01*
X1013030Y504500D01*
X1006030Y504500D01*
X1006030Y507350D02*
X1013030Y507350D01*
X1013030Y510200D02*
X1006030Y510200D01*
X988490Y511500D02*
X988490Y504500D01*
X988490Y511500D02*
X995490Y511500D01*
X995490Y504500D01*
X988490Y504500D01*
X988490Y507350D02*
X995490Y507350D01*
X995490Y510200D02*
X988490Y510200D01*
D14*
X992260Y495300D03*
X1009260Y495300D03*
D15*
X871160Y14050D03*
X927160Y14050D03*
D16*
X884160Y50800D03*
X894160Y50800D03*
X904160Y50800D03*
X914160Y50800D03*
D10*
X1259841Y325992D03*
X1259841Y308992D03*
X1285241Y325992D03*
X1285241Y308992D03*
D11*
X1096091Y434392D03*
X1096091Y378392D03*
D12*
X1132841Y421392D03*
X1132841Y411392D03*
X1132841Y401392D03*
X1132841Y391392D03*
D11*
X1096091Y332792D03*
X1096091Y276792D03*
D12*
X1132841Y319792D03*
X1132841Y309792D03*
X1132841Y299792D03*
X1132841Y289792D03*
D11*
X1096091Y231192D03*
X1096091Y175192D03*
D12*
X1132841Y218192D03*
X1132841Y208192D03*
X1132841Y198192D03*
X1132841Y188192D03*
D11*
X1096091Y129592D03*
X1096091Y73592D03*
D12*
X1132841Y116592D03*
X1132841Y106592D03*
X1132841Y96592D03*
X1132841Y86592D03*
D13*
X1229841Y289692D03*
X1229841Y283242D03*
X1229841Y276742D03*
X1229841Y270242D03*
X1229841Y263742D03*
X1229841Y257242D03*
X1229841Y250742D03*
X1229841Y244242D03*
X1229841Y237742D03*
X1229841Y231242D03*
X1229841Y224742D03*
X1229841Y218242D03*
X1289841Y218242D03*
X1289841Y224742D03*
X1289841Y231242D03*
X1289841Y237742D03*
X1289841Y244242D03*
X1289841Y250742D03*
X1289841Y257242D03*
X1289841Y263742D03*
X1289841Y270242D03*
X1289841Y276742D03*
X1289841Y283242D03*
X1289841Y289742D03*
D14*
X1181981Y421632D03*
X1164981Y421632D03*
X1181981Y406392D03*
X1164981Y406392D03*
X1181981Y320032D03*
X1164981Y320032D03*
X1181981Y304792D03*
X1164981Y304792D03*
X1181981Y218432D03*
X1164981Y218432D03*
X1181981Y203192D03*
X1164981Y203192D03*
X1181981Y116832D03*
X1164981Y116832D03*
X1181981Y101592D03*
X1164981Y101592D03*
D11*
X1423582Y73599D03*
X1423582Y129599D03*
D12*
X1386832Y86599D03*
X1386832Y96599D03*
X1386832Y106599D03*
X1386832Y116599D03*
D11*
X1423582Y175199D03*
X1423582Y231199D03*
D12*
X1386832Y188199D03*
X1386832Y198199D03*
X1386832Y208199D03*
X1386832Y218199D03*
D11*
X1423582Y276799D03*
X1423582Y332799D03*
D12*
X1386832Y289799D03*
X1386832Y299799D03*
X1386832Y309799D03*
X1386832Y319799D03*
D11*
X1423582Y378399D03*
X1423582Y434399D03*
D12*
X1386832Y391399D03*
X1386832Y401399D03*
X1386832Y411399D03*
X1386832Y421399D03*
D14*
X1337699Y101608D03*
X1354699Y101608D03*
X1337699Y116848D03*
X1354699Y116848D03*
X1337699Y203208D03*
X1354699Y203208D03*
X1337699Y218448D03*
X1354699Y218448D03*
X1337699Y304808D03*
X1354699Y304808D03*
X1337699Y320048D03*
X1354699Y320048D03*
X1337699Y406408D03*
X1354699Y406408D03*
X1337699Y421648D03*
X1354699Y421648D03*
D10*
X1234441Y440292D03*
X1234441Y423292D03*
X1259841Y440292D03*
X1259841Y423292D03*
X1285241Y440292D03*
X1285241Y423292D03*
X1234441Y308992D03*
X1234441Y325992D03*
D14*
X1181981Y391152D03*
X1164981Y391152D03*
X1181981Y289552D03*
X1164981Y289552D03*
X1181981Y187952D03*
X1164981Y187952D03*
X1181981Y86352D03*
X1164981Y86352D03*
D10*
X1197611Y376792D03*
X1197611Y359792D03*
D15*
X1287840Y532050D03*
X1231840Y532050D03*
D16*
X1274840Y495300D03*
X1264840Y495300D03*
X1254840Y495300D03*
X1244840Y495300D03*
D14*
X1337700Y86360D03*
X1354700Y86360D03*
X1337700Y187960D03*
X1354700Y187960D03*
X1337700Y289560D03*
X1354700Y289560D03*
X1337700Y391160D03*
X1354700Y391160D03*
D17*
X1366710Y504500D02*
X1366710Y511500D01*
X1373710Y511500D01*
X1373710Y504500D01*
X1366710Y504500D01*
X1366710Y507350D02*
X1373710Y507350D01*
X1373710Y510200D02*
X1366710Y510200D01*
X1349170Y511500D02*
X1349170Y504500D01*
X1349170Y511500D02*
X1356170Y511500D01*
X1356170Y504500D01*
X1349170Y504500D01*
X1349170Y507350D02*
X1356170Y507350D01*
X1356170Y510200D02*
X1349170Y510200D01*
D14*
X1352940Y495300D03*
X1369940Y495300D03*
D15*
X1231840Y14050D03*
X1287840Y14050D03*
D16*
X1244840Y50800D03*
X1254840Y50800D03*
X1264840Y50800D03*
X1274840Y50800D03*
D10*
X1620521Y325992D03*
X1620521Y308992D03*
X1645921Y325992D03*
X1645921Y308992D03*
D11*
X1456771Y434392D03*
X1456771Y378392D03*
D12*
X1493521Y421392D03*
X1493521Y411392D03*
X1493521Y401392D03*
X1493521Y391392D03*
D11*
X1456771Y332792D03*
X1456771Y276792D03*
D12*
X1493521Y319792D03*
X1493521Y309792D03*
X1493521Y299792D03*
X1493521Y289792D03*
D11*
X1456771Y231192D03*
X1456771Y175192D03*
D12*
X1493521Y218192D03*
X1493521Y208192D03*
X1493521Y198192D03*
X1493521Y188192D03*
D11*
X1456771Y129592D03*
X1456771Y73592D03*
D12*
X1493521Y116592D03*
X1493521Y106592D03*
X1493521Y96592D03*
X1493521Y86592D03*
D13*
X1590521Y289692D03*
X1590521Y283242D03*
X1590521Y276742D03*
X1590521Y270242D03*
X1590521Y263742D03*
X1590521Y257242D03*
X1590521Y250742D03*
X1590521Y244242D03*
X1590521Y237742D03*
X1590521Y231242D03*
X1590521Y224742D03*
X1590521Y218242D03*
X1650521Y218242D03*
X1650521Y224742D03*
X1650521Y231242D03*
X1650521Y237742D03*
X1650521Y244242D03*
X1650521Y250742D03*
X1650521Y257242D03*
X1650521Y263742D03*
X1650521Y270242D03*
X1650521Y276742D03*
X1650521Y283242D03*
X1650521Y289742D03*
D14*
X1542661Y421632D03*
X1525661Y421632D03*
X1542661Y406392D03*
X1525661Y406392D03*
X1542661Y320032D03*
X1525661Y320032D03*
X1542661Y304792D03*
X1525661Y304792D03*
X1542661Y218432D03*
X1525661Y218432D03*
X1542661Y203192D03*
X1525661Y203192D03*
X1542661Y116832D03*
X1525661Y116832D03*
X1542661Y101592D03*
X1525661Y101592D03*
D11*
X1784262Y73599D03*
X1784262Y129599D03*
D12*
X1747512Y86599D03*
X1747512Y96599D03*
X1747512Y106599D03*
X1747512Y116599D03*
D11*
X1784262Y175199D03*
X1784262Y231199D03*
D12*
X1747512Y188199D03*
X1747512Y198199D03*
X1747512Y208199D03*
X1747512Y218199D03*
D11*
X1784262Y276799D03*
X1784262Y332799D03*
D12*
X1747512Y289799D03*
X1747512Y299799D03*
X1747512Y309799D03*
X1747512Y319799D03*
D11*
X1784262Y378399D03*
X1784262Y434399D03*
D12*
X1747512Y391399D03*
X1747512Y401399D03*
X1747512Y411399D03*
X1747512Y421399D03*
D14*
X1698379Y101608D03*
X1715379Y101608D03*
X1698379Y116848D03*
X1715379Y116848D03*
X1698379Y203208D03*
X1715379Y203208D03*
X1698379Y218448D03*
X1715379Y218448D03*
X1698379Y304808D03*
X1715379Y304808D03*
X1698379Y320048D03*
X1715379Y320048D03*
X1698379Y406408D03*
X1715379Y406408D03*
X1698379Y421648D03*
X1715379Y421648D03*
D10*
X1595121Y440292D03*
X1595121Y423292D03*
X1620521Y440292D03*
X1620521Y423292D03*
X1645921Y440292D03*
X1645921Y423292D03*
X1595121Y308992D03*
X1595121Y325992D03*
D14*
X1542661Y391152D03*
X1525661Y391152D03*
X1542661Y289552D03*
X1525661Y289552D03*
X1542661Y187952D03*
X1525661Y187952D03*
X1542661Y86352D03*
X1525661Y86352D03*
D10*
X1558291Y376792D03*
X1558291Y359792D03*
D15*
X1648520Y532050D03*
X1592520Y532050D03*
D16*
X1635520Y495300D03*
X1625520Y495300D03*
X1615520Y495300D03*
X1605520Y495300D03*
D14*
X1698380Y86360D03*
X1715380Y86360D03*
X1698380Y187960D03*
X1715380Y187960D03*
X1698380Y289560D03*
X1715380Y289560D03*
X1698380Y391160D03*
X1715380Y391160D03*
D17*
X1727390Y504500D02*
X1727390Y511500D01*
X1734390Y511500D01*
X1734390Y504500D01*
X1727390Y504500D01*
X1727390Y507350D02*
X1734390Y507350D01*
X1734390Y510200D02*
X1727390Y510200D01*
X1709850Y511500D02*
X1709850Y504500D01*
X1709850Y511500D02*
X1716850Y511500D01*
X1716850Y504500D01*
X1709850Y504500D01*
X1709850Y507350D02*
X1716850Y507350D01*
X1716850Y510200D02*
X1709850Y510200D01*
D14*
X1713620Y495300D03*
X1730620Y495300D03*
D15*
X1592520Y14050D03*
X1648520Y14050D03*
D16*
X1605520Y50800D03*
X1615520Y50800D03*
X1625520Y50800D03*
X1635520Y50800D03*
D10*
X177801Y877172D03*
X177801Y860172D03*
X203201Y877172D03*
X203201Y860172D03*
D11*
X14051Y985572D03*
X14051Y929572D03*
D12*
X50801Y972572D03*
X50801Y962572D03*
X50801Y952572D03*
X50801Y942572D03*
D11*
X14051Y883972D03*
X14051Y827972D03*
D12*
X50801Y870972D03*
X50801Y860972D03*
X50801Y850972D03*
X50801Y840972D03*
D11*
X14051Y782372D03*
X14051Y726372D03*
D12*
X50801Y769372D03*
X50801Y759372D03*
X50801Y749372D03*
X50801Y739372D03*
D11*
X14051Y680772D03*
X14051Y624772D03*
D12*
X50801Y667772D03*
X50801Y657772D03*
X50801Y647772D03*
X50801Y637772D03*
D13*
X147801Y840872D03*
X147801Y834422D03*
X147801Y827922D03*
X147801Y821422D03*
X147801Y814922D03*
X147801Y808422D03*
X147801Y801922D03*
X147801Y795422D03*
X147801Y788922D03*
X147801Y782422D03*
X147801Y775922D03*
X147801Y769422D03*
X207801Y769422D03*
X207801Y775922D03*
X207801Y782422D03*
X207801Y788922D03*
X207801Y795422D03*
X207801Y801922D03*
X207801Y808422D03*
X207801Y814922D03*
X207801Y821422D03*
X207801Y827922D03*
X207801Y834422D03*
X207801Y840922D03*
D14*
X99941Y972812D03*
X82941Y972812D03*
X99941Y957572D03*
X82941Y957572D03*
X99941Y871212D03*
X82941Y871212D03*
X99941Y855972D03*
X82941Y855972D03*
X99941Y769612D03*
X82941Y769612D03*
X99941Y754372D03*
X82941Y754372D03*
X99941Y668012D03*
X82941Y668012D03*
X99941Y652772D03*
X82941Y652772D03*
D11*
X341542Y624779D03*
X341542Y680779D03*
D12*
X304792Y637779D03*
X304792Y647779D03*
X304792Y657779D03*
X304792Y667779D03*
D11*
X341542Y726379D03*
X341542Y782379D03*
D12*
X304792Y739379D03*
X304792Y749379D03*
X304792Y759379D03*
X304792Y769379D03*
D11*
X341542Y827979D03*
X341542Y883979D03*
D12*
X304792Y840979D03*
X304792Y850979D03*
X304792Y860979D03*
X304792Y870979D03*
D11*
X341542Y929579D03*
X341542Y985579D03*
D12*
X304792Y942579D03*
X304792Y952579D03*
X304792Y962579D03*
X304792Y972579D03*
D14*
X255659Y652788D03*
X272659Y652788D03*
X255659Y668028D03*
X272659Y668028D03*
X255659Y754388D03*
X272659Y754388D03*
X255659Y769628D03*
X272659Y769628D03*
X255659Y855988D03*
X272659Y855988D03*
X255659Y871228D03*
X272659Y871228D03*
X255659Y957588D03*
X272659Y957588D03*
X255659Y972828D03*
X272659Y972828D03*
D10*
X152401Y991472D03*
X152401Y974472D03*
X177801Y991472D03*
X177801Y974472D03*
X203201Y991472D03*
X203201Y974472D03*
X152401Y860172D03*
X152401Y877172D03*
D14*
X99941Y942332D03*
X82941Y942332D03*
X99941Y840732D03*
X82941Y840732D03*
X99941Y739132D03*
X82941Y739132D03*
X99941Y637532D03*
X82941Y637532D03*
D10*
X115571Y927972D03*
X115571Y910972D03*
D15*
X205800Y1083230D03*
X149800Y1083230D03*
D16*
X192800Y1046480D03*
X182800Y1046480D03*
X172800Y1046480D03*
X162800Y1046480D03*
D14*
X255660Y637540D03*
X272660Y637540D03*
X255660Y739140D03*
X272660Y739140D03*
X255660Y840740D03*
X272660Y840740D03*
X255660Y942340D03*
X272660Y942340D03*
D17*
X284670Y1055680D02*
X284670Y1062680D01*
X291670Y1062680D01*
X291670Y1055680D01*
X284670Y1055680D01*
X284670Y1058530D02*
X291670Y1058530D01*
X291670Y1061380D02*
X284670Y1061380D01*
X267130Y1062680D02*
X267130Y1055680D01*
X267130Y1062680D02*
X274130Y1062680D01*
X274130Y1055680D01*
X267130Y1055680D01*
X267130Y1058530D02*
X274130Y1058530D01*
X274130Y1061380D02*
X267130Y1061380D01*
D14*
X270900Y1046480D03*
X287900Y1046480D03*
D15*
X149800Y565230D03*
X205800Y565230D03*
D16*
X162800Y601980D03*
X172800Y601980D03*
X182800Y601980D03*
X192800Y601980D03*
D10*
X538481Y877172D03*
X538481Y860172D03*
X563881Y877172D03*
X563881Y860172D03*
D11*
X374731Y985572D03*
X374731Y929572D03*
D12*
X411481Y972572D03*
X411481Y962572D03*
X411481Y952572D03*
X411481Y942572D03*
D11*
X374731Y883972D03*
X374731Y827972D03*
D12*
X411481Y870972D03*
X411481Y860972D03*
X411481Y850972D03*
X411481Y840972D03*
D11*
X374731Y782372D03*
X374731Y726372D03*
D12*
X411481Y769372D03*
X411481Y759372D03*
X411481Y749372D03*
X411481Y739372D03*
D11*
X374731Y680772D03*
X374731Y624772D03*
D12*
X411481Y667772D03*
X411481Y657772D03*
X411481Y647772D03*
X411481Y637772D03*
D13*
X508481Y840872D03*
X508481Y834422D03*
X508481Y827922D03*
X508481Y821422D03*
X508481Y814922D03*
X508481Y808422D03*
X508481Y801922D03*
X508481Y795422D03*
X508481Y788922D03*
X508481Y782422D03*
X508481Y775922D03*
X508481Y769422D03*
X568481Y769422D03*
X568481Y775922D03*
X568481Y782422D03*
X568481Y788922D03*
X568481Y795422D03*
X568481Y801922D03*
X568481Y808422D03*
X568481Y814922D03*
X568481Y821422D03*
X568481Y827922D03*
X568481Y834422D03*
X568481Y840922D03*
D14*
X460621Y972812D03*
X443621Y972812D03*
X460621Y957572D03*
X443621Y957572D03*
X460621Y871212D03*
X443621Y871212D03*
X460621Y855972D03*
X443621Y855972D03*
X460621Y769612D03*
X443621Y769612D03*
X460621Y754372D03*
X443621Y754372D03*
X460621Y668012D03*
X443621Y668012D03*
X460621Y652772D03*
X443621Y652772D03*
D11*
X702222Y624779D03*
X702222Y680779D03*
D12*
X665472Y637779D03*
X665472Y647779D03*
X665472Y657779D03*
X665472Y667779D03*
D11*
X702222Y726379D03*
X702222Y782379D03*
D12*
X665472Y739379D03*
X665472Y749379D03*
X665472Y759379D03*
X665472Y769379D03*
D11*
X702222Y827979D03*
X702222Y883979D03*
D12*
X665472Y840979D03*
X665472Y850979D03*
X665472Y860979D03*
X665472Y870979D03*
D11*
X702222Y929579D03*
X702222Y985579D03*
D12*
X665472Y942579D03*
X665472Y952579D03*
X665472Y962579D03*
X665472Y972579D03*
D14*
X616339Y652788D03*
X633339Y652788D03*
X616339Y668028D03*
X633339Y668028D03*
X616339Y754388D03*
X633339Y754388D03*
X616339Y769628D03*
X633339Y769628D03*
X616339Y855988D03*
X633339Y855988D03*
X616339Y871228D03*
X633339Y871228D03*
X616339Y957588D03*
X633339Y957588D03*
X616339Y972828D03*
X633339Y972828D03*
D10*
X513081Y991472D03*
X513081Y974472D03*
X538481Y991472D03*
X538481Y974472D03*
X563881Y991472D03*
X563881Y974472D03*
X513081Y860172D03*
X513081Y877172D03*
D14*
X460621Y942332D03*
X443621Y942332D03*
X460621Y840732D03*
X443621Y840732D03*
X460621Y739132D03*
X443621Y739132D03*
X460621Y637532D03*
X443621Y637532D03*
D10*
X476251Y927972D03*
X476251Y910972D03*
D15*
X566480Y1083230D03*
X510480Y1083230D03*
D16*
X553480Y1046480D03*
X543480Y1046480D03*
X533480Y1046480D03*
X523480Y1046480D03*
D14*
X616340Y637540D03*
X633340Y637540D03*
X616340Y739140D03*
X633340Y739140D03*
X616340Y840740D03*
X633340Y840740D03*
X616340Y942340D03*
X633340Y942340D03*
D17*
X645350Y1055680D02*
X645350Y1062680D01*
X652350Y1062680D01*
X652350Y1055680D01*
X645350Y1055680D01*
X645350Y1058530D02*
X652350Y1058530D01*
X652350Y1061380D02*
X645350Y1061380D01*
X627810Y1062680D02*
X627810Y1055680D01*
X627810Y1062680D02*
X634810Y1062680D01*
X634810Y1055680D01*
X627810Y1055680D01*
X627810Y1058530D02*
X634810Y1058530D01*
X634810Y1061380D02*
X627810Y1061380D01*
D14*
X631580Y1046480D03*
X648580Y1046480D03*
D15*
X510480Y565230D03*
X566480Y565230D03*
D16*
X523480Y601980D03*
X533480Y601980D03*
X543480Y601980D03*
X553480Y601980D03*
D10*
X899161Y877172D03*
X899161Y860172D03*
X924561Y877172D03*
X924561Y860172D03*
D11*
X735411Y985572D03*
X735411Y929572D03*
D12*
X772161Y972572D03*
X772161Y962572D03*
X772161Y952572D03*
X772161Y942572D03*
D11*
X735411Y883972D03*
X735411Y827972D03*
D12*
X772161Y870972D03*
X772161Y860972D03*
X772161Y850972D03*
X772161Y840972D03*
D11*
X735411Y782372D03*
X735411Y726372D03*
D12*
X772161Y769372D03*
X772161Y759372D03*
X772161Y749372D03*
X772161Y739372D03*
D11*
X735411Y680772D03*
X735411Y624772D03*
D12*
X772161Y667772D03*
X772161Y657772D03*
X772161Y647772D03*
X772161Y637772D03*
D13*
X869161Y840872D03*
X869161Y834422D03*
X869161Y827922D03*
X869161Y821422D03*
X869161Y814922D03*
X869161Y808422D03*
X869161Y801922D03*
X869161Y795422D03*
X869161Y788922D03*
X869161Y782422D03*
X869161Y775922D03*
X869161Y769422D03*
X929161Y769422D03*
X929161Y775922D03*
X929161Y782422D03*
X929161Y788922D03*
X929161Y795422D03*
X929161Y801922D03*
X929161Y808422D03*
X929161Y814922D03*
X929161Y821422D03*
X929161Y827922D03*
X929161Y834422D03*
X929161Y840922D03*
D14*
X821301Y972812D03*
X804301Y972812D03*
X821301Y957572D03*
X804301Y957572D03*
X821301Y871212D03*
X804301Y871212D03*
X821301Y855972D03*
X804301Y855972D03*
X821301Y769612D03*
X804301Y769612D03*
X821301Y754372D03*
X804301Y754372D03*
X821301Y668012D03*
X804301Y668012D03*
X821301Y652772D03*
X804301Y652772D03*
D11*
X1062902Y624779D03*
X1062902Y680779D03*
D12*
X1026152Y637779D03*
X1026152Y647779D03*
X1026152Y657779D03*
X1026152Y667779D03*
D11*
X1062902Y726379D03*
X1062902Y782379D03*
D12*
X1026152Y739379D03*
X1026152Y749379D03*
X1026152Y759379D03*
X1026152Y769379D03*
D11*
X1062902Y827979D03*
X1062902Y883979D03*
D12*
X1026152Y840979D03*
X1026152Y850979D03*
X1026152Y860979D03*
X1026152Y870979D03*
D11*
X1062902Y929579D03*
X1062902Y985579D03*
D12*
X1026152Y942579D03*
X1026152Y952579D03*
X1026152Y962579D03*
X1026152Y972579D03*
D14*
X977019Y652788D03*
X994019Y652788D03*
X977019Y668028D03*
X994019Y668028D03*
X977019Y754388D03*
X994019Y754388D03*
X977019Y769628D03*
X994019Y769628D03*
X977019Y855988D03*
X994019Y855988D03*
X977019Y871228D03*
X994019Y871228D03*
X977019Y957588D03*
X994019Y957588D03*
X977019Y972828D03*
X994019Y972828D03*
D10*
X873761Y991472D03*
X873761Y974472D03*
X899161Y991472D03*
X899161Y974472D03*
X924561Y991472D03*
X924561Y974472D03*
X873761Y860172D03*
X873761Y877172D03*
D14*
X821301Y942332D03*
X804301Y942332D03*
X821301Y840732D03*
X804301Y840732D03*
X821301Y739132D03*
X804301Y739132D03*
X821301Y637532D03*
X804301Y637532D03*
D10*
X836931Y927972D03*
X836931Y910972D03*
D15*
X927160Y1083230D03*
X871160Y1083230D03*
D16*
X914160Y1046480D03*
X904160Y1046480D03*
X894160Y1046480D03*
X884160Y1046480D03*
D14*
X977020Y637540D03*
X994020Y637540D03*
X977020Y739140D03*
X994020Y739140D03*
X977020Y840740D03*
X994020Y840740D03*
X977020Y942340D03*
X994020Y942340D03*
D17*
X1006030Y1055680D02*
X1006030Y1062680D01*
X1013030Y1062680D01*
X1013030Y1055680D01*
X1006030Y1055680D01*
X1006030Y1058530D02*
X1013030Y1058530D01*
X1013030Y1061380D02*
X1006030Y1061380D01*
X988490Y1062680D02*
X988490Y1055680D01*
X988490Y1062680D02*
X995490Y1062680D01*
X995490Y1055680D01*
X988490Y1055680D01*
X988490Y1058530D02*
X995490Y1058530D01*
X995490Y1061380D02*
X988490Y1061380D01*
D14*
X992260Y1046480D03*
X1009260Y1046480D03*
D15*
X871160Y565230D03*
X927160Y565230D03*
D16*
X884160Y601980D03*
X894160Y601980D03*
X904160Y601980D03*
X914160Y601980D03*
D10*
X1259841Y877172D03*
X1259841Y860172D03*
X1285241Y877172D03*
X1285241Y860172D03*
D11*
X1096091Y985572D03*
X1096091Y929572D03*
D12*
X1132841Y972572D03*
X1132841Y962572D03*
X1132841Y952572D03*
X1132841Y942572D03*
D11*
X1096091Y883972D03*
X1096091Y827972D03*
D12*
X1132841Y870972D03*
X1132841Y860972D03*
X1132841Y850972D03*
X1132841Y840972D03*
D11*
X1096091Y782372D03*
X1096091Y726372D03*
D12*
X1132841Y769372D03*
X1132841Y759372D03*
X1132841Y749372D03*
X1132841Y739372D03*
D11*
X1096091Y680772D03*
X1096091Y624772D03*
D12*
X1132841Y667772D03*
X1132841Y657772D03*
X1132841Y647772D03*
X1132841Y637772D03*
D13*
X1229841Y840872D03*
X1229841Y834422D03*
X1229841Y827922D03*
X1229841Y821422D03*
X1229841Y814922D03*
X1229841Y808422D03*
X1229841Y801922D03*
X1229841Y795422D03*
X1229841Y788922D03*
X1229841Y782422D03*
X1229841Y775922D03*
X1229841Y769422D03*
X1289841Y769422D03*
X1289841Y775922D03*
X1289841Y782422D03*
X1289841Y788922D03*
X1289841Y795422D03*
X1289841Y801922D03*
X1289841Y808422D03*
X1289841Y814922D03*
X1289841Y821422D03*
X1289841Y827922D03*
X1289841Y834422D03*
X1289841Y840922D03*
D14*
X1181981Y972812D03*
X1164981Y972812D03*
X1181981Y957572D03*
X1164981Y957572D03*
X1181981Y871212D03*
X1164981Y871212D03*
X1181981Y855972D03*
X1164981Y855972D03*
X1181981Y769612D03*
X1164981Y769612D03*
X1181981Y754372D03*
X1164981Y754372D03*
X1181981Y668012D03*
X1164981Y668012D03*
X1181981Y652772D03*
X1164981Y652772D03*
D11*
X1423582Y624779D03*
X1423582Y680779D03*
D12*
X1386832Y637779D03*
X1386832Y647779D03*
X1386832Y657779D03*
X1386832Y667779D03*
D11*
X1423582Y726379D03*
X1423582Y782379D03*
D12*
X1386832Y739379D03*
X1386832Y749379D03*
X1386832Y759379D03*
X1386832Y769379D03*
D11*
X1423582Y827979D03*
X1423582Y883979D03*
D12*
X1386832Y840979D03*
X1386832Y850979D03*
X1386832Y860979D03*
X1386832Y870979D03*
D11*
X1423582Y929579D03*
X1423582Y985579D03*
D12*
X1386832Y942579D03*
X1386832Y952579D03*
X1386832Y962579D03*
X1386832Y972579D03*
D14*
X1337699Y652788D03*
X1354699Y652788D03*
X1337699Y668028D03*
X1354699Y668028D03*
X1337699Y754388D03*
X1354699Y754388D03*
X1337699Y769628D03*
X1354699Y769628D03*
X1337699Y855988D03*
X1354699Y855988D03*
X1337699Y871228D03*
X1354699Y871228D03*
X1337699Y957588D03*
X1354699Y957588D03*
X1337699Y972828D03*
X1354699Y972828D03*
D10*
X1234441Y991472D03*
X1234441Y974472D03*
X1259841Y991472D03*
X1259841Y974472D03*
X1285241Y991472D03*
X1285241Y974472D03*
X1234441Y860172D03*
X1234441Y877172D03*
D14*
X1181981Y942332D03*
X1164981Y942332D03*
X1181981Y840732D03*
X1164981Y840732D03*
X1181981Y739132D03*
X1164981Y739132D03*
X1181981Y637532D03*
X1164981Y637532D03*
D10*
X1197611Y927972D03*
X1197611Y910972D03*
D15*
X1287840Y1083230D03*
X1231840Y1083230D03*
D16*
X1274840Y1046480D03*
X1264840Y1046480D03*
X1254840Y1046480D03*
X1244840Y1046480D03*
D14*
X1337700Y637540D03*
X1354700Y637540D03*
X1337700Y739140D03*
X1354700Y739140D03*
X1337700Y840740D03*
X1354700Y840740D03*
X1337700Y942340D03*
X1354700Y942340D03*
D17*
X1366710Y1055680D02*
X1366710Y1062680D01*
X1373710Y1062680D01*
X1373710Y1055680D01*
X1366710Y1055680D01*
X1366710Y1058530D02*
X1373710Y1058530D01*
X1373710Y1061380D02*
X1366710Y1061380D01*
X1349170Y1062680D02*
X1349170Y1055680D01*
X1349170Y1062680D02*
X1356170Y1062680D01*
X1356170Y1055680D01*
X1349170Y1055680D01*
X1349170Y1058530D02*
X1356170Y1058530D01*
X1356170Y1061380D02*
X1349170Y1061380D01*
D14*
X1352940Y1046480D03*
X1369940Y1046480D03*
D15*
X1231840Y565230D03*
X1287840Y565230D03*
D16*
X1244840Y601980D03*
X1254840Y601980D03*
X1264840Y601980D03*
X1274840Y601980D03*
D10*
X1620521Y877172D03*
X1620521Y860172D03*
X1645921Y877172D03*
X1645921Y860172D03*
D11*
X1456771Y985572D03*
X1456771Y929572D03*
D12*
X1493521Y972572D03*
X1493521Y962572D03*
X1493521Y952572D03*
X1493521Y942572D03*
D11*
X1456771Y883972D03*
X1456771Y827972D03*
D12*
X1493521Y870972D03*
X1493521Y860972D03*
X1493521Y850972D03*
X1493521Y840972D03*
D11*
X1456771Y782372D03*
X1456771Y726372D03*
D12*
X1493521Y769372D03*
X1493521Y759372D03*
X1493521Y749372D03*
X1493521Y739372D03*
D11*
X1456771Y680772D03*
X1456771Y624772D03*
D12*
X1493521Y667772D03*
X1493521Y657772D03*
X1493521Y647772D03*
X1493521Y637772D03*
D13*
X1590521Y840872D03*
X1590521Y834422D03*
X1590521Y827922D03*
X1590521Y821422D03*
X1590521Y814922D03*
X1590521Y808422D03*
X1590521Y801922D03*
X1590521Y795422D03*
X1590521Y788922D03*
X1590521Y782422D03*
X1590521Y775922D03*
X1590521Y769422D03*
X1650521Y769422D03*
X1650521Y775922D03*
X1650521Y782422D03*
X1650521Y788922D03*
X1650521Y795422D03*
X1650521Y801922D03*
X1650521Y808422D03*
X1650521Y814922D03*
X1650521Y821422D03*
X1650521Y827922D03*
X1650521Y834422D03*
X1650521Y840922D03*
D14*
X1542661Y972812D03*
X1525661Y972812D03*
X1542661Y957572D03*
X1525661Y957572D03*
X1542661Y871212D03*
X1525661Y871212D03*
X1542661Y855972D03*
X1525661Y855972D03*
X1542661Y769612D03*
X1525661Y769612D03*
X1542661Y754372D03*
X1525661Y754372D03*
X1542661Y668012D03*
X1525661Y668012D03*
X1542661Y652772D03*
X1525661Y652772D03*
D11*
X1784262Y624779D03*
X1784262Y680779D03*
D12*
X1747512Y637779D03*
X1747512Y647779D03*
X1747512Y657779D03*
X1747512Y667779D03*
D11*
X1784262Y726379D03*
X1784262Y782379D03*
D12*
X1747512Y739379D03*
X1747512Y749379D03*
X1747512Y759379D03*
X1747512Y769379D03*
D11*
X1784262Y827979D03*
X1784262Y883979D03*
D12*
X1747512Y840979D03*
X1747512Y850979D03*
X1747512Y860979D03*
X1747512Y870979D03*
D11*
X1784262Y929579D03*
X1784262Y985579D03*
D12*
X1747512Y942579D03*
X1747512Y952579D03*
X1747512Y962579D03*
X1747512Y972579D03*
D14*
X1698379Y652788D03*
X1715379Y652788D03*
X1698379Y668028D03*
X1715379Y668028D03*
X1698379Y754388D03*
X1715379Y754388D03*
X1698379Y769628D03*
X1715379Y769628D03*
X1698379Y855988D03*
X1715379Y855988D03*
X1698379Y871228D03*
X1715379Y871228D03*
X1698379Y957588D03*
X1715379Y957588D03*
X1698379Y972828D03*
X1715379Y972828D03*
D10*
X1595121Y991472D03*
X1595121Y974472D03*
X1620521Y991472D03*
X1620521Y974472D03*
X1645921Y991472D03*
X1645921Y974472D03*
X1595121Y860172D03*
X1595121Y877172D03*
D14*
X1542661Y942332D03*
X1525661Y942332D03*
X1542661Y840732D03*
X1525661Y840732D03*
X1542661Y739132D03*
X1525661Y739132D03*
X1542661Y637532D03*
X1525661Y637532D03*
D10*
X1558291Y927972D03*
X1558291Y910972D03*
D15*
X1648520Y1083230D03*
X1592520Y1083230D03*
D16*
X1635520Y1046480D03*
X1625520Y1046480D03*
X1615520Y1046480D03*
X1605520Y1046480D03*
D14*
X1698380Y637540D03*
X1715380Y637540D03*
X1698380Y739140D03*
X1715380Y739140D03*
X1698380Y840740D03*
X1715380Y840740D03*
X1698380Y942340D03*
X1715380Y942340D03*
D17*
X1727390Y1055680D02*
X1727390Y1062680D01*
X1734390Y1062680D01*
X1734390Y1055680D01*
X1727390Y1055680D01*
X1727390Y1058530D02*
X1734390Y1058530D01*
X1734390Y1061380D02*
X1727390Y1061380D01*
X1709850Y1062680D02*
X1709850Y1055680D01*
X1709850Y1062680D02*
X1716850Y1062680D01*
X1716850Y1055680D01*
X1709850Y1055680D01*
X1709850Y1058530D02*
X1716850Y1058530D01*
X1716850Y1061380D02*
X1709850Y1061380D01*
D14*
X1713620Y1046480D03*
X1730620Y1046480D03*
D15*
X1592520Y565230D03*
X1648520Y565230D03*
D16*
X1605520Y601980D03*
X1615520Y601980D03*
X1625520Y601980D03*
X1635520Y601980D03*
M02*
