G04 EAGLE Gerber RS-274X export*
G75*
%MOMM*%
%FSLAX34Y34*%
%LPD*%
%INSoldermask Bottom*%
%IPPOS*%
%AMOC8*
5,1,8,0,0,1.08239X$1,22.5*%
G01*
%ADD10C,2.082800*%
%ADD11C,3.505200*%
%ADD12C,1.203200*%


D10*
X114301Y469892D03*
D11*
X25400Y25400D03*
X25400Y520700D03*
X330200Y520700D03*
X330200Y25400D03*
D12*
X304800Y12700D03*
X50800Y533400D03*
D10*
X474981Y469892D03*
D11*
X386080Y25400D03*
X386080Y520700D03*
X690880Y520700D03*
X690880Y25400D03*
D12*
X665480Y12700D03*
X411480Y533400D03*
D10*
X835661Y469892D03*
D11*
X746760Y25400D03*
X746760Y520700D03*
X1051560Y520700D03*
X1051560Y25400D03*
D12*
X1026160Y12700D03*
X772160Y533400D03*
D10*
X1196341Y469892D03*
D11*
X1107440Y25400D03*
X1107440Y520700D03*
X1412240Y520700D03*
X1412240Y25400D03*
D12*
X1386840Y12700D03*
X1132840Y533400D03*
D10*
X1557021Y469892D03*
D11*
X1468120Y25400D03*
X1468120Y520700D03*
X1772920Y520700D03*
X1772920Y25400D03*
D12*
X1747520Y12700D03*
X1493520Y533400D03*
D10*
X114301Y1021072D03*
D11*
X25400Y576580D03*
X25400Y1071880D03*
X330200Y1071880D03*
X330200Y576580D03*
D12*
X304800Y563880D03*
X50800Y1084580D03*
D10*
X474981Y1021072D03*
D11*
X386080Y576580D03*
X386080Y1071880D03*
X690880Y1071880D03*
X690880Y576580D03*
D12*
X665480Y563880D03*
X411480Y1084580D03*
D10*
X835661Y1021072D03*
D11*
X746760Y576580D03*
X746760Y1071880D03*
X1051560Y1071880D03*
X1051560Y576580D03*
D12*
X1026160Y563880D03*
X772160Y1084580D03*
D10*
X1196341Y1021072D03*
D11*
X1107440Y576580D03*
X1107440Y1071880D03*
X1412240Y1071880D03*
X1412240Y576580D03*
D12*
X1386840Y563880D03*
X1132840Y1084580D03*
D10*
X1557021Y1021072D03*
D11*
X1468120Y576580D03*
X1468120Y1071880D03*
X1772920Y1071880D03*
X1772920Y576580D03*
D12*
X1747520Y563880D03*
X1493520Y1084580D03*
X68580Y1118235D03*
X1729105Y1118235D03*
M02*
