G04 EAGLE Gerber RS-274X export*
G75*
%MOMM*%
%FSLAX34Y34*%
%LPD*%
%INSoldermask Top*%
%IPPOS*%
%AMOC8*
5,1,8,0,0,1.08239X$1,22.5*%
G01*
%ADD10R,1.203200X1.303200*%
%ADD11C,1.203200*%
%ADD12R,2.203200X1.403200*%
%ADD13R,1.553200X0.803200*%
%ADD14R,1.203200X0.503200*%
%ADD15R,1.303200X1.203200*%
%ADD16R,1.473200X0.838200*%
%ADD17C,2.082800*%
%ADD18R,1.403200X2.203200*%
%ADD19R,0.803200X1.553200*%
%ADD20C,3.505200*%
%ADD21C,0.505344*%
%ADD22R,0.863600X1.473200*%
%ADD23C,1.270000*%
%ADD24C,1.703200*%

G36*
X1640270Y892187D02*
X1640270Y892187D01*
X1640336Y892189D01*
X1640379Y892207D01*
X1640426Y892215D01*
X1640483Y892249D01*
X1640543Y892274D01*
X1640578Y892305D01*
X1640619Y892330D01*
X1640661Y892381D01*
X1640709Y892425D01*
X1640731Y892467D01*
X1640760Y892504D01*
X1640781Y892566D01*
X1640812Y892625D01*
X1640820Y892679D01*
X1640832Y892716D01*
X1640831Y892756D01*
X1640839Y892810D01*
X1640839Y895350D01*
X1640828Y895415D01*
X1640826Y895481D01*
X1640808Y895524D01*
X1640800Y895571D01*
X1640766Y895628D01*
X1640741Y895688D01*
X1640710Y895723D01*
X1640685Y895764D01*
X1640634Y895806D01*
X1640590Y895854D01*
X1640548Y895876D01*
X1640511Y895905D01*
X1640449Y895926D01*
X1640390Y895957D01*
X1640336Y895965D01*
X1640299Y895977D01*
X1640259Y895976D01*
X1640205Y895984D01*
X1636395Y895984D01*
X1636330Y895973D01*
X1636264Y895971D01*
X1636221Y895953D01*
X1636174Y895945D01*
X1636117Y895911D01*
X1636057Y895886D01*
X1636022Y895855D01*
X1635981Y895830D01*
X1635940Y895779D01*
X1635891Y895735D01*
X1635869Y895693D01*
X1635840Y895656D01*
X1635819Y895594D01*
X1635788Y895535D01*
X1635780Y895481D01*
X1635768Y895444D01*
X1635768Y895441D01*
X1635769Y895404D01*
X1635761Y895350D01*
X1635761Y892810D01*
X1635772Y892745D01*
X1635774Y892679D01*
X1635792Y892636D01*
X1635800Y892589D01*
X1635834Y892532D01*
X1635859Y892472D01*
X1635890Y892437D01*
X1635915Y892396D01*
X1635966Y892355D01*
X1636010Y892306D01*
X1636052Y892284D01*
X1636089Y892255D01*
X1636151Y892234D01*
X1636210Y892203D01*
X1636264Y892195D01*
X1636301Y892183D01*
X1636341Y892184D01*
X1636395Y892176D01*
X1640205Y892176D01*
X1640270Y892187D01*
G37*
G36*
X548070Y892187D02*
X548070Y892187D01*
X548136Y892189D01*
X548179Y892207D01*
X548226Y892215D01*
X548283Y892249D01*
X548343Y892274D01*
X548378Y892305D01*
X548419Y892330D01*
X548461Y892381D01*
X548509Y892425D01*
X548531Y892467D01*
X548560Y892504D01*
X548581Y892566D01*
X548612Y892625D01*
X548620Y892679D01*
X548632Y892716D01*
X548631Y892756D01*
X548639Y892810D01*
X548639Y895350D01*
X548628Y895415D01*
X548626Y895481D01*
X548608Y895524D01*
X548600Y895571D01*
X548566Y895628D01*
X548541Y895688D01*
X548510Y895723D01*
X548485Y895764D01*
X548434Y895806D01*
X548390Y895854D01*
X548348Y895876D01*
X548311Y895905D01*
X548249Y895926D01*
X548190Y895957D01*
X548136Y895965D01*
X548099Y895977D01*
X548059Y895976D01*
X548005Y895984D01*
X544195Y895984D01*
X544130Y895973D01*
X544064Y895971D01*
X544021Y895953D01*
X543974Y895945D01*
X543917Y895911D01*
X543857Y895886D01*
X543822Y895855D01*
X543781Y895830D01*
X543740Y895779D01*
X543691Y895735D01*
X543669Y895693D01*
X543640Y895656D01*
X543619Y895594D01*
X543588Y895535D01*
X543580Y895481D01*
X543568Y895444D01*
X543568Y895441D01*
X543569Y895404D01*
X543561Y895350D01*
X543561Y892810D01*
X543572Y892745D01*
X543574Y892679D01*
X543592Y892636D01*
X543600Y892589D01*
X543634Y892532D01*
X543659Y892472D01*
X543690Y892437D01*
X543715Y892396D01*
X543766Y892355D01*
X543810Y892306D01*
X543852Y892284D01*
X543889Y892255D01*
X543951Y892234D01*
X544010Y892203D01*
X544064Y892195D01*
X544101Y892183D01*
X544141Y892184D01*
X544195Y892176D01*
X548005Y892176D01*
X548070Y892187D01*
G37*
G36*
X197550Y892187D02*
X197550Y892187D01*
X197616Y892189D01*
X197659Y892207D01*
X197706Y892215D01*
X197763Y892249D01*
X197823Y892274D01*
X197858Y892305D01*
X197899Y892330D01*
X197941Y892381D01*
X197989Y892425D01*
X198011Y892467D01*
X198040Y892504D01*
X198061Y892566D01*
X198092Y892625D01*
X198100Y892679D01*
X198112Y892716D01*
X198111Y892756D01*
X198119Y892810D01*
X198119Y895350D01*
X198108Y895415D01*
X198106Y895481D01*
X198088Y895524D01*
X198080Y895571D01*
X198046Y895628D01*
X198021Y895688D01*
X197990Y895723D01*
X197965Y895764D01*
X197914Y895806D01*
X197870Y895854D01*
X197828Y895876D01*
X197791Y895905D01*
X197729Y895926D01*
X197670Y895957D01*
X197616Y895965D01*
X197579Y895977D01*
X197539Y895976D01*
X197485Y895984D01*
X193675Y895984D01*
X193610Y895973D01*
X193544Y895971D01*
X193501Y895953D01*
X193454Y895945D01*
X193397Y895911D01*
X193337Y895886D01*
X193302Y895855D01*
X193261Y895830D01*
X193220Y895779D01*
X193171Y895735D01*
X193149Y895693D01*
X193120Y895656D01*
X193099Y895594D01*
X193068Y895535D01*
X193060Y895481D01*
X193048Y895444D01*
X193048Y895441D01*
X193049Y895404D01*
X193041Y895350D01*
X193041Y892810D01*
X193052Y892745D01*
X193054Y892679D01*
X193072Y892636D01*
X193080Y892589D01*
X193114Y892532D01*
X193139Y892472D01*
X193170Y892437D01*
X193195Y892396D01*
X193246Y892355D01*
X193290Y892306D01*
X193332Y892284D01*
X193369Y892255D01*
X193431Y892234D01*
X193490Y892203D01*
X193544Y892195D01*
X193581Y892183D01*
X193621Y892184D01*
X193675Y892176D01*
X197485Y892176D01*
X197550Y892187D01*
G37*
G36*
X558230Y892187D02*
X558230Y892187D01*
X558296Y892189D01*
X558339Y892207D01*
X558386Y892215D01*
X558443Y892249D01*
X558503Y892274D01*
X558538Y892305D01*
X558579Y892330D01*
X558621Y892381D01*
X558669Y892425D01*
X558691Y892467D01*
X558720Y892504D01*
X558741Y892566D01*
X558772Y892625D01*
X558780Y892679D01*
X558792Y892716D01*
X558791Y892756D01*
X558799Y892810D01*
X558799Y895350D01*
X558788Y895415D01*
X558786Y895481D01*
X558768Y895524D01*
X558760Y895571D01*
X558726Y895628D01*
X558701Y895688D01*
X558670Y895723D01*
X558645Y895764D01*
X558594Y895806D01*
X558550Y895854D01*
X558508Y895876D01*
X558471Y895905D01*
X558409Y895926D01*
X558350Y895957D01*
X558296Y895965D01*
X558259Y895977D01*
X558219Y895976D01*
X558165Y895984D01*
X554355Y895984D01*
X554290Y895973D01*
X554224Y895971D01*
X554181Y895953D01*
X554134Y895945D01*
X554077Y895911D01*
X554017Y895886D01*
X553982Y895855D01*
X553941Y895830D01*
X553900Y895779D01*
X553851Y895735D01*
X553829Y895693D01*
X553800Y895656D01*
X553779Y895594D01*
X553748Y895535D01*
X553740Y895481D01*
X553728Y895444D01*
X553728Y895441D01*
X553729Y895404D01*
X553721Y895350D01*
X553721Y892810D01*
X553732Y892745D01*
X553734Y892679D01*
X553752Y892636D01*
X553760Y892589D01*
X553794Y892532D01*
X553819Y892472D01*
X553850Y892437D01*
X553875Y892396D01*
X553926Y892355D01*
X553970Y892306D01*
X554012Y892284D01*
X554049Y892255D01*
X554111Y892234D01*
X554170Y892203D01*
X554224Y892195D01*
X554261Y892183D01*
X554301Y892184D01*
X554355Y892176D01*
X558165Y892176D01*
X558230Y892187D01*
G37*
G36*
X1630110Y892187D02*
X1630110Y892187D01*
X1630176Y892189D01*
X1630219Y892207D01*
X1630266Y892215D01*
X1630323Y892249D01*
X1630383Y892274D01*
X1630418Y892305D01*
X1630459Y892330D01*
X1630501Y892381D01*
X1630549Y892425D01*
X1630571Y892467D01*
X1630600Y892504D01*
X1630621Y892566D01*
X1630652Y892625D01*
X1630660Y892679D01*
X1630672Y892716D01*
X1630671Y892756D01*
X1630679Y892810D01*
X1630679Y895350D01*
X1630668Y895415D01*
X1630666Y895481D01*
X1630648Y895524D01*
X1630640Y895571D01*
X1630606Y895628D01*
X1630581Y895688D01*
X1630550Y895723D01*
X1630525Y895764D01*
X1630474Y895806D01*
X1630430Y895854D01*
X1630388Y895876D01*
X1630351Y895905D01*
X1630289Y895926D01*
X1630230Y895957D01*
X1630176Y895965D01*
X1630139Y895977D01*
X1630099Y895976D01*
X1630045Y895984D01*
X1626235Y895984D01*
X1626170Y895973D01*
X1626104Y895971D01*
X1626061Y895953D01*
X1626014Y895945D01*
X1625957Y895911D01*
X1625897Y895886D01*
X1625862Y895855D01*
X1625821Y895830D01*
X1625780Y895779D01*
X1625731Y895735D01*
X1625709Y895693D01*
X1625680Y895656D01*
X1625659Y895594D01*
X1625628Y895535D01*
X1625620Y895481D01*
X1625608Y895444D01*
X1625608Y895441D01*
X1625609Y895404D01*
X1625601Y895350D01*
X1625601Y892810D01*
X1625612Y892745D01*
X1625614Y892679D01*
X1625632Y892636D01*
X1625640Y892589D01*
X1625674Y892532D01*
X1625699Y892472D01*
X1625730Y892437D01*
X1625755Y892396D01*
X1625806Y892355D01*
X1625850Y892306D01*
X1625892Y892284D01*
X1625929Y892255D01*
X1625991Y892234D01*
X1626050Y892203D01*
X1626104Y892195D01*
X1626141Y892183D01*
X1626181Y892184D01*
X1626235Y892176D01*
X1630045Y892176D01*
X1630110Y892187D01*
G37*
G36*
X1279590Y892187D02*
X1279590Y892187D01*
X1279656Y892189D01*
X1279699Y892207D01*
X1279746Y892215D01*
X1279803Y892249D01*
X1279863Y892274D01*
X1279898Y892305D01*
X1279939Y892330D01*
X1279981Y892381D01*
X1280029Y892425D01*
X1280051Y892467D01*
X1280080Y892504D01*
X1280101Y892566D01*
X1280132Y892625D01*
X1280140Y892679D01*
X1280152Y892716D01*
X1280151Y892756D01*
X1280159Y892810D01*
X1280159Y895350D01*
X1280148Y895415D01*
X1280146Y895481D01*
X1280128Y895524D01*
X1280120Y895571D01*
X1280086Y895628D01*
X1280061Y895688D01*
X1280030Y895723D01*
X1280005Y895764D01*
X1279954Y895806D01*
X1279910Y895854D01*
X1279868Y895876D01*
X1279831Y895905D01*
X1279769Y895926D01*
X1279710Y895957D01*
X1279656Y895965D01*
X1279619Y895977D01*
X1279579Y895976D01*
X1279525Y895984D01*
X1275715Y895984D01*
X1275650Y895973D01*
X1275584Y895971D01*
X1275541Y895953D01*
X1275494Y895945D01*
X1275437Y895911D01*
X1275377Y895886D01*
X1275342Y895855D01*
X1275301Y895830D01*
X1275260Y895779D01*
X1275211Y895735D01*
X1275189Y895693D01*
X1275160Y895656D01*
X1275139Y895594D01*
X1275108Y895535D01*
X1275100Y895481D01*
X1275088Y895444D01*
X1275088Y895441D01*
X1275089Y895404D01*
X1275081Y895350D01*
X1275081Y892810D01*
X1275092Y892745D01*
X1275094Y892679D01*
X1275112Y892636D01*
X1275120Y892589D01*
X1275154Y892532D01*
X1275179Y892472D01*
X1275210Y892437D01*
X1275235Y892396D01*
X1275286Y892355D01*
X1275330Y892306D01*
X1275372Y892284D01*
X1275409Y892255D01*
X1275471Y892234D01*
X1275530Y892203D01*
X1275584Y892195D01*
X1275621Y892183D01*
X1275661Y892184D01*
X1275715Y892176D01*
X1279525Y892176D01*
X1279590Y892187D01*
G37*
G36*
X187390Y892187D02*
X187390Y892187D01*
X187456Y892189D01*
X187499Y892207D01*
X187546Y892215D01*
X187603Y892249D01*
X187663Y892274D01*
X187698Y892305D01*
X187739Y892330D01*
X187781Y892381D01*
X187829Y892425D01*
X187851Y892467D01*
X187880Y892504D01*
X187901Y892566D01*
X187932Y892625D01*
X187940Y892679D01*
X187952Y892716D01*
X187951Y892756D01*
X187959Y892810D01*
X187959Y895350D01*
X187948Y895415D01*
X187946Y895481D01*
X187928Y895524D01*
X187920Y895571D01*
X187886Y895628D01*
X187861Y895688D01*
X187830Y895723D01*
X187805Y895764D01*
X187754Y895806D01*
X187710Y895854D01*
X187668Y895876D01*
X187631Y895905D01*
X187569Y895926D01*
X187510Y895957D01*
X187456Y895965D01*
X187419Y895977D01*
X187379Y895976D01*
X187325Y895984D01*
X183515Y895984D01*
X183450Y895973D01*
X183384Y895971D01*
X183341Y895953D01*
X183294Y895945D01*
X183237Y895911D01*
X183177Y895886D01*
X183142Y895855D01*
X183101Y895830D01*
X183060Y895779D01*
X183011Y895735D01*
X182989Y895693D01*
X182960Y895656D01*
X182939Y895594D01*
X182908Y895535D01*
X182900Y895481D01*
X182888Y895444D01*
X182888Y895441D01*
X182889Y895404D01*
X182881Y895350D01*
X182881Y892810D01*
X182892Y892745D01*
X182894Y892679D01*
X182912Y892636D01*
X182920Y892589D01*
X182954Y892532D01*
X182979Y892472D01*
X183010Y892437D01*
X183035Y892396D01*
X183086Y892355D01*
X183130Y892306D01*
X183172Y892284D01*
X183209Y892255D01*
X183271Y892234D01*
X183330Y892203D01*
X183384Y892195D01*
X183421Y892183D01*
X183461Y892184D01*
X183515Y892176D01*
X187325Y892176D01*
X187390Y892187D01*
G37*
G36*
X908750Y892187D02*
X908750Y892187D01*
X908816Y892189D01*
X908859Y892207D01*
X908906Y892215D01*
X908963Y892249D01*
X909023Y892274D01*
X909058Y892305D01*
X909099Y892330D01*
X909141Y892381D01*
X909189Y892425D01*
X909211Y892467D01*
X909240Y892504D01*
X909261Y892566D01*
X909292Y892625D01*
X909300Y892679D01*
X909312Y892716D01*
X909311Y892756D01*
X909319Y892810D01*
X909319Y895350D01*
X909308Y895415D01*
X909306Y895481D01*
X909288Y895524D01*
X909280Y895571D01*
X909246Y895628D01*
X909221Y895688D01*
X909190Y895723D01*
X909165Y895764D01*
X909114Y895806D01*
X909070Y895854D01*
X909028Y895876D01*
X908991Y895905D01*
X908929Y895926D01*
X908870Y895957D01*
X908816Y895965D01*
X908779Y895977D01*
X908739Y895976D01*
X908685Y895984D01*
X904875Y895984D01*
X904810Y895973D01*
X904744Y895971D01*
X904701Y895953D01*
X904654Y895945D01*
X904597Y895911D01*
X904537Y895886D01*
X904502Y895855D01*
X904461Y895830D01*
X904420Y895779D01*
X904371Y895735D01*
X904349Y895693D01*
X904320Y895656D01*
X904299Y895594D01*
X904268Y895535D01*
X904260Y895481D01*
X904248Y895444D01*
X904248Y895441D01*
X904249Y895404D01*
X904241Y895350D01*
X904241Y892810D01*
X904252Y892745D01*
X904254Y892679D01*
X904272Y892636D01*
X904280Y892589D01*
X904314Y892532D01*
X904339Y892472D01*
X904370Y892437D01*
X904395Y892396D01*
X904446Y892355D01*
X904490Y892306D01*
X904532Y892284D01*
X904569Y892255D01*
X904631Y892234D01*
X904690Y892203D01*
X904744Y892195D01*
X904781Y892183D01*
X904821Y892184D01*
X904875Y892176D01*
X908685Y892176D01*
X908750Y892187D01*
G37*
G36*
X1269430Y892187D02*
X1269430Y892187D01*
X1269496Y892189D01*
X1269539Y892207D01*
X1269586Y892215D01*
X1269643Y892249D01*
X1269703Y892274D01*
X1269738Y892305D01*
X1269779Y892330D01*
X1269821Y892381D01*
X1269869Y892425D01*
X1269891Y892467D01*
X1269920Y892504D01*
X1269941Y892566D01*
X1269972Y892625D01*
X1269980Y892679D01*
X1269992Y892716D01*
X1269991Y892756D01*
X1269999Y892810D01*
X1269999Y895350D01*
X1269988Y895415D01*
X1269986Y895481D01*
X1269968Y895524D01*
X1269960Y895571D01*
X1269926Y895628D01*
X1269901Y895688D01*
X1269870Y895723D01*
X1269845Y895764D01*
X1269794Y895806D01*
X1269750Y895854D01*
X1269708Y895876D01*
X1269671Y895905D01*
X1269609Y895926D01*
X1269550Y895957D01*
X1269496Y895965D01*
X1269459Y895977D01*
X1269419Y895976D01*
X1269365Y895984D01*
X1265555Y895984D01*
X1265490Y895973D01*
X1265424Y895971D01*
X1265381Y895953D01*
X1265334Y895945D01*
X1265277Y895911D01*
X1265217Y895886D01*
X1265182Y895855D01*
X1265141Y895830D01*
X1265100Y895779D01*
X1265051Y895735D01*
X1265029Y895693D01*
X1265000Y895656D01*
X1264979Y895594D01*
X1264948Y895535D01*
X1264940Y895481D01*
X1264928Y895444D01*
X1264928Y895441D01*
X1264929Y895404D01*
X1264921Y895350D01*
X1264921Y892810D01*
X1264932Y892745D01*
X1264934Y892679D01*
X1264952Y892636D01*
X1264960Y892589D01*
X1264994Y892532D01*
X1265019Y892472D01*
X1265050Y892437D01*
X1265075Y892396D01*
X1265126Y892355D01*
X1265170Y892306D01*
X1265212Y892284D01*
X1265249Y892255D01*
X1265311Y892234D01*
X1265370Y892203D01*
X1265424Y892195D01*
X1265461Y892183D01*
X1265501Y892184D01*
X1265555Y892176D01*
X1269365Y892176D01*
X1269430Y892187D01*
G37*
G36*
X918910Y892187D02*
X918910Y892187D01*
X918976Y892189D01*
X919019Y892207D01*
X919066Y892215D01*
X919123Y892249D01*
X919183Y892274D01*
X919218Y892305D01*
X919259Y892330D01*
X919301Y892381D01*
X919349Y892425D01*
X919371Y892467D01*
X919400Y892504D01*
X919421Y892566D01*
X919452Y892625D01*
X919460Y892679D01*
X919472Y892716D01*
X919471Y892756D01*
X919479Y892810D01*
X919479Y895350D01*
X919468Y895415D01*
X919466Y895481D01*
X919448Y895524D01*
X919440Y895571D01*
X919406Y895628D01*
X919381Y895688D01*
X919350Y895723D01*
X919325Y895764D01*
X919274Y895806D01*
X919230Y895854D01*
X919188Y895876D01*
X919151Y895905D01*
X919089Y895926D01*
X919030Y895957D01*
X918976Y895965D01*
X918939Y895977D01*
X918899Y895976D01*
X918845Y895984D01*
X915035Y895984D01*
X914970Y895973D01*
X914904Y895971D01*
X914861Y895953D01*
X914814Y895945D01*
X914757Y895911D01*
X914697Y895886D01*
X914662Y895855D01*
X914621Y895830D01*
X914580Y895779D01*
X914531Y895735D01*
X914509Y895693D01*
X914480Y895656D01*
X914459Y895594D01*
X914428Y895535D01*
X914420Y895481D01*
X914408Y895444D01*
X914408Y895441D01*
X914409Y895404D01*
X914401Y895350D01*
X914401Y892810D01*
X914412Y892745D01*
X914414Y892679D01*
X914432Y892636D01*
X914440Y892589D01*
X914474Y892532D01*
X914499Y892472D01*
X914530Y892437D01*
X914555Y892396D01*
X914606Y892355D01*
X914650Y892306D01*
X914692Y892284D01*
X914729Y892255D01*
X914791Y892234D01*
X914850Y892203D01*
X914904Y892195D01*
X914941Y892183D01*
X914981Y892184D01*
X915035Y892176D01*
X918845Y892176D01*
X918910Y892187D01*
G37*
G36*
X918910Y341007D02*
X918910Y341007D01*
X918976Y341009D01*
X919019Y341027D01*
X919066Y341035D01*
X919123Y341069D01*
X919183Y341094D01*
X919218Y341125D01*
X919259Y341150D01*
X919301Y341201D01*
X919349Y341245D01*
X919371Y341287D01*
X919400Y341324D01*
X919421Y341386D01*
X919452Y341445D01*
X919460Y341499D01*
X919472Y341536D01*
X919471Y341576D01*
X919479Y341630D01*
X919479Y344170D01*
X919468Y344235D01*
X919466Y344301D01*
X919448Y344344D01*
X919440Y344391D01*
X919406Y344448D01*
X919381Y344508D01*
X919350Y344543D01*
X919325Y344584D01*
X919274Y344626D01*
X919230Y344674D01*
X919188Y344696D01*
X919151Y344725D01*
X919089Y344746D01*
X919030Y344777D01*
X918976Y344785D01*
X918939Y344797D01*
X918899Y344796D01*
X918845Y344804D01*
X915035Y344804D01*
X914970Y344793D01*
X914904Y344791D01*
X914861Y344773D01*
X914814Y344765D01*
X914757Y344731D01*
X914697Y344706D01*
X914662Y344675D01*
X914621Y344650D01*
X914580Y344599D01*
X914531Y344555D01*
X914509Y344513D01*
X914480Y344476D01*
X914459Y344414D01*
X914428Y344355D01*
X914420Y344301D01*
X914408Y344264D01*
X914408Y344261D01*
X914409Y344224D01*
X914401Y344170D01*
X914401Y341630D01*
X914412Y341565D01*
X914414Y341499D01*
X914432Y341456D01*
X914440Y341409D01*
X914474Y341352D01*
X914499Y341292D01*
X914530Y341257D01*
X914555Y341216D01*
X914606Y341175D01*
X914650Y341126D01*
X914692Y341104D01*
X914729Y341075D01*
X914791Y341054D01*
X914850Y341023D01*
X914904Y341015D01*
X914941Y341003D01*
X914981Y341004D01*
X915035Y340996D01*
X918845Y340996D01*
X918910Y341007D01*
G37*
G36*
X1269430Y341007D02*
X1269430Y341007D01*
X1269496Y341009D01*
X1269539Y341027D01*
X1269586Y341035D01*
X1269643Y341069D01*
X1269703Y341094D01*
X1269738Y341125D01*
X1269779Y341150D01*
X1269821Y341201D01*
X1269869Y341245D01*
X1269891Y341287D01*
X1269920Y341324D01*
X1269941Y341386D01*
X1269972Y341445D01*
X1269980Y341499D01*
X1269992Y341536D01*
X1269991Y341576D01*
X1269999Y341630D01*
X1269999Y344170D01*
X1269988Y344235D01*
X1269986Y344301D01*
X1269968Y344344D01*
X1269960Y344391D01*
X1269926Y344448D01*
X1269901Y344508D01*
X1269870Y344543D01*
X1269845Y344584D01*
X1269794Y344626D01*
X1269750Y344674D01*
X1269708Y344696D01*
X1269671Y344725D01*
X1269609Y344746D01*
X1269550Y344777D01*
X1269496Y344785D01*
X1269459Y344797D01*
X1269419Y344796D01*
X1269365Y344804D01*
X1265555Y344804D01*
X1265490Y344793D01*
X1265424Y344791D01*
X1265381Y344773D01*
X1265334Y344765D01*
X1265277Y344731D01*
X1265217Y344706D01*
X1265182Y344675D01*
X1265141Y344650D01*
X1265100Y344599D01*
X1265051Y344555D01*
X1265029Y344513D01*
X1265000Y344476D01*
X1264979Y344414D01*
X1264948Y344355D01*
X1264940Y344301D01*
X1264928Y344264D01*
X1264928Y344261D01*
X1264929Y344224D01*
X1264921Y344170D01*
X1264921Y341630D01*
X1264932Y341565D01*
X1264934Y341499D01*
X1264952Y341456D01*
X1264960Y341409D01*
X1264994Y341352D01*
X1265019Y341292D01*
X1265050Y341257D01*
X1265075Y341216D01*
X1265126Y341175D01*
X1265170Y341126D01*
X1265212Y341104D01*
X1265249Y341075D01*
X1265311Y341054D01*
X1265370Y341023D01*
X1265424Y341015D01*
X1265461Y341003D01*
X1265501Y341004D01*
X1265555Y340996D01*
X1269365Y340996D01*
X1269430Y341007D01*
G37*
G36*
X1640270Y341007D02*
X1640270Y341007D01*
X1640336Y341009D01*
X1640379Y341027D01*
X1640426Y341035D01*
X1640483Y341069D01*
X1640543Y341094D01*
X1640578Y341125D01*
X1640619Y341150D01*
X1640661Y341201D01*
X1640709Y341245D01*
X1640731Y341287D01*
X1640760Y341324D01*
X1640781Y341386D01*
X1640812Y341445D01*
X1640820Y341499D01*
X1640832Y341536D01*
X1640831Y341576D01*
X1640839Y341630D01*
X1640839Y344170D01*
X1640828Y344235D01*
X1640826Y344301D01*
X1640808Y344344D01*
X1640800Y344391D01*
X1640766Y344448D01*
X1640741Y344508D01*
X1640710Y344543D01*
X1640685Y344584D01*
X1640634Y344626D01*
X1640590Y344674D01*
X1640548Y344696D01*
X1640511Y344725D01*
X1640449Y344746D01*
X1640390Y344777D01*
X1640336Y344785D01*
X1640299Y344797D01*
X1640259Y344796D01*
X1640205Y344804D01*
X1636395Y344804D01*
X1636330Y344793D01*
X1636264Y344791D01*
X1636221Y344773D01*
X1636174Y344765D01*
X1636117Y344731D01*
X1636057Y344706D01*
X1636022Y344675D01*
X1635981Y344650D01*
X1635940Y344599D01*
X1635891Y344555D01*
X1635869Y344513D01*
X1635840Y344476D01*
X1635819Y344414D01*
X1635788Y344355D01*
X1635780Y344301D01*
X1635768Y344264D01*
X1635768Y344261D01*
X1635769Y344224D01*
X1635761Y344170D01*
X1635761Y341630D01*
X1635772Y341565D01*
X1635774Y341499D01*
X1635792Y341456D01*
X1635800Y341409D01*
X1635834Y341352D01*
X1635859Y341292D01*
X1635890Y341257D01*
X1635915Y341216D01*
X1635966Y341175D01*
X1636010Y341126D01*
X1636052Y341104D01*
X1636089Y341075D01*
X1636151Y341054D01*
X1636210Y341023D01*
X1636264Y341015D01*
X1636301Y341003D01*
X1636341Y341004D01*
X1636395Y340996D01*
X1640205Y340996D01*
X1640270Y341007D01*
G37*
G36*
X908750Y341007D02*
X908750Y341007D01*
X908816Y341009D01*
X908859Y341027D01*
X908906Y341035D01*
X908963Y341069D01*
X909023Y341094D01*
X909058Y341125D01*
X909099Y341150D01*
X909141Y341201D01*
X909189Y341245D01*
X909211Y341287D01*
X909240Y341324D01*
X909261Y341386D01*
X909292Y341445D01*
X909300Y341499D01*
X909312Y341536D01*
X909311Y341576D01*
X909319Y341630D01*
X909319Y344170D01*
X909308Y344235D01*
X909306Y344301D01*
X909288Y344344D01*
X909280Y344391D01*
X909246Y344448D01*
X909221Y344508D01*
X909190Y344543D01*
X909165Y344584D01*
X909114Y344626D01*
X909070Y344674D01*
X909028Y344696D01*
X908991Y344725D01*
X908929Y344746D01*
X908870Y344777D01*
X908816Y344785D01*
X908779Y344797D01*
X908739Y344796D01*
X908685Y344804D01*
X904875Y344804D01*
X904810Y344793D01*
X904744Y344791D01*
X904701Y344773D01*
X904654Y344765D01*
X904597Y344731D01*
X904537Y344706D01*
X904502Y344675D01*
X904461Y344650D01*
X904420Y344599D01*
X904371Y344555D01*
X904349Y344513D01*
X904320Y344476D01*
X904299Y344414D01*
X904268Y344355D01*
X904260Y344301D01*
X904248Y344264D01*
X904248Y344261D01*
X904249Y344224D01*
X904241Y344170D01*
X904241Y341630D01*
X904252Y341565D01*
X904254Y341499D01*
X904272Y341456D01*
X904280Y341409D01*
X904314Y341352D01*
X904339Y341292D01*
X904370Y341257D01*
X904395Y341216D01*
X904446Y341175D01*
X904490Y341126D01*
X904532Y341104D01*
X904569Y341075D01*
X904631Y341054D01*
X904690Y341023D01*
X904744Y341015D01*
X904781Y341003D01*
X904821Y341004D01*
X904875Y340996D01*
X908685Y340996D01*
X908750Y341007D01*
G37*
G36*
X548070Y341007D02*
X548070Y341007D01*
X548136Y341009D01*
X548179Y341027D01*
X548226Y341035D01*
X548283Y341069D01*
X548343Y341094D01*
X548378Y341125D01*
X548419Y341150D01*
X548461Y341201D01*
X548509Y341245D01*
X548531Y341287D01*
X548560Y341324D01*
X548581Y341386D01*
X548612Y341445D01*
X548620Y341499D01*
X548632Y341536D01*
X548631Y341576D01*
X548639Y341630D01*
X548639Y344170D01*
X548628Y344235D01*
X548626Y344301D01*
X548608Y344344D01*
X548600Y344391D01*
X548566Y344448D01*
X548541Y344508D01*
X548510Y344543D01*
X548485Y344584D01*
X548434Y344626D01*
X548390Y344674D01*
X548348Y344696D01*
X548311Y344725D01*
X548249Y344746D01*
X548190Y344777D01*
X548136Y344785D01*
X548099Y344797D01*
X548059Y344796D01*
X548005Y344804D01*
X544195Y344804D01*
X544130Y344793D01*
X544064Y344791D01*
X544021Y344773D01*
X543974Y344765D01*
X543917Y344731D01*
X543857Y344706D01*
X543822Y344675D01*
X543781Y344650D01*
X543740Y344599D01*
X543691Y344555D01*
X543669Y344513D01*
X543640Y344476D01*
X543619Y344414D01*
X543588Y344355D01*
X543580Y344301D01*
X543568Y344264D01*
X543568Y344261D01*
X543569Y344224D01*
X543561Y344170D01*
X543561Y341630D01*
X543572Y341565D01*
X543574Y341499D01*
X543592Y341456D01*
X543600Y341409D01*
X543634Y341352D01*
X543659Y341292D01*
X543690Y341257D01*
X543715Y341216D01*
X543766Y341175D01*
X543810Y341126D01*
X543852Y341104D01*
X543889Y341075D01*
X543951Y341054D01*
X544010Y341023D01*
X544064Y341015D01*
X544101Y341003D01*
X544141Y341004D01*
X544195Y340996D01*
X548005Y340996D01*
X548070Y341007D01*
G37*
G36*
X1279590Y341007D02*
X1279590Y341007D01*
X1279656Y341009D01*
X1279699Y341027D01*
X1279746Y341035D01*
X1279803Y341069D01*
X1279863Y341094D01*
X1279898Y341125D01*
X1279939Y341150D01*
X1279981Y341201D01*
X1280029Y341245D01*
X1280051Y341287D01*
X1280080Y341324D01*
X1280101Y341386D01*
X1280132Y341445D01*
X1280140Y341499D01*
X1280152Y341536D01*
X1280151Y341576D01*
X1280159Y341630D01*
X1280159Y344170D01*
X1280148Y344235D01*
X1280146Y344301D01*
X1280128Y344344D01*
X1280120Y344391D01*
X1280086Y344448D01*
X1280061Y344508D01*
X1280030Y344543D01*
X1280005Y344584D01*
X1279954Y344626D01*
X1279910Y344674D01*
X1279868Y344696D01*
X1279831Y344725D01*
X1279769Y344746D01*
X1279710Y344777D01*
X1279656Y344785D01*
X1279619Y344797D01*
X1279579Y344796D01*
X1279525Y344804D01*
X1275715Y344804D01*
X1275650Y344793D01*
X1275584Y344791D01*
X1275541Y344773D01*
X1275494Y344765D01*
X1275437Y344731D01*
X1275377Y344706D01*
X1275342Y344675D01*
X1275301Y344650D01*
X1275260Y344599D01*
X1275211Y344555D01*
X1275189Y344513D01*
X1275160Y344476D01*
X1275139Y344414D01*
X1275108Y344355D01*
X1275100Y344301D01*
X1275088Y344264D01*
X1275088Y344261D01*
X1275089Y344224D01*
X1275081Y344170D01*
X1275081Y341630D01*
X1275092Y341565D01*
X1275094Y341499D01*
X1275112Y341456D01*
X1275120Y341409D01*
X1275154Y341352D01*
X1275179Y341292D01*
X1275210Y341257D01*
X1275235Y341216D01*
X1275286Y341175D01*
X1275330Y341126D01*
X1275372Y341104D01*
X1275409Y341075D01*
X1275471Y341054D01*
X1275530Y341023D01*
X1275584Y341015D01*
X1275621Y341003D01*
X1275661Y341004D01*
X1275715Y340996D01*
X1279525Y340996D01*
X1279590Y341007D01*
G37*
G36*
X1630110Y341007D02*
X1630110Y341007D01*
X1630176Y341009D01*
X1630219Y341027D01*
X1630266Y341035D01*
X1630323Y341069D01*
X1630383Y341094D01*
X1630418Y341125D01*
X1630459Y341150D01*
X1630501Y341201D01*
X1630549Y341245D01*
X1630571Y341287D01*
X1630600Y341324D01*
X1630621Y341386D01*
X1630652Y341445D01*
X1630660Y341499D01*
X1630672Y341536D01*
X1630671Y341576D01*
X1630679Y341630D01*
X1630679Y344170D01*
X1630668Y344235D01*
X1630666Y344301D01*
X1630648Y344344D01*
X1630640Y344391D01*
X1630606Y344448D01*
X1630581Y344508D01*
X1630550Y344543D01*
X1630525Y344584D01*
X1630474Y344626D01*
X1630430Y344674D01*
X1630388Y344696D01*
X1630351Y344725D01*
X1630289Y344746D01*
X1630230Y344777D01*
X1630176Y344785D01*
X1630139Y344797D01*
X1630099Y344796D01*
X1630045Y344804D01*
X1626235Y344804D01*
X1626170Y344793D01*
X1626104Y344791D01*
X1626061Y344773D01*
X1626014Y344765D01*
X1625957Y344731D01*
X1625897Y344706D01*
X1625862Y344675D01*
X1625821Y344650D01*
X1625780Y344599D01*
X1625731Y344555D01*
X1625709Y344513D01*
X1625680Y344476D01*
X1625659Y344414D01*
X1625628Y344355D01*
X1625620Y344301D01*
X1625608Y344264D01*
X1625608Y344261D01*
X1625609Y344224D01*
X1625601Y344170D01*
X1625601Y341630D01*
X1625612Y341565D01*
X1625614Y341499D01*
X1625632Y341456D01*
X1625640Y341409D01*
X1625674Y341352D01*
X1625699Y341292D01*
X1625730Y341257D01*
X1625755Y341216D01*
X1625806Y341175D01*
X1625850Y341126D01*
X1625892Y341104D01*
X1625929Y341075D01*
X1625991Y341054D01*
X1626050Y341023D01*
X1626104Y341015D01*
X1626141Y341003D01*
X1626181Y341004D01*
X1626235Y340996D01*
X1630045Y340996D01*
X1630110Y341007D01*
G37*
G36*
X558230Y341007D02*
X558230Y341007D01*
X558296Y341009D01*
X558339Y341027D01*
X558386Y341035D01*
X558443Y341069D01*
X558503Y341094D01*
X558538Y341125D01*
X558579Y341150D01*
X558621Y341201D01*
X558669Y341245D01*
X558691Y341287D01*
X558720Y341324D01*
X558741Y341386D01*
X558772Y341445D01*
X558780Y341499D01*
X558792Y341536D01*
X558791Y341576D01*
X558799Y341630D01*
X558799Y344170D01*
X558788Y344235D01*
X558786Y344301D01*
X558768Y344344D01*
X558760Y344391D01*
X558726Y344448D01*
X558701Y344508D01*
X558670Y344543D01*
X558645Y344584D01*
X558594Y344626D01*
X558550Y344674D01*
X558508Y344696D01*
X558471Y344725D01*
X558409Y344746D01*
X558350Y344777D01*
X558296Y344785D01*
X558259Y344797D01*
X558219Y344796D01*
X558165Y344804D01*
X554355Y344804D01*
X554290Y344793D01*
X554224Y344791D01*
X554181Y344773D01*
X554134Y344765D01*
X554077Y344731D01*
X554017Y344706D01*
X553982Y344675D01*
X553941Y344650D01*
X553900Y344599D01*
X553851Y344555D01*
X553829Y344513D01*
X553800Y344476D01*
X553779Y344414D01*
X553748Y344355D01*
X553740Y344301D01*
X553728Y344264D01*
X553728Y344261D01*
X553729Y344224D01*
X553721Y344170D01*
X553721Y341630D01*
X553732Y341565D01*
X553734Y341499D01*
X553752Y341456D01*
X553760Y341409D01*
X553794Y341352D01*
X553819Y341292D01*
X553850Y341257D01*
X553875Y341216D01*
X553926Y341175D01*
X553970Y341126D01*
X554012Y341104D01*
X554049Y341075D01*
X554111Y341054D01*
X554170Y341023D01*
X554224Y341015D01*
X554261Y341003D01*
X554301Y341004D01*
X554355Y340996D01*
X558165Y340996D01*
X558230Y341007D01*
G37*
G36*
X197550Y341007D02*
X197550Y341007D01*
X197616Y341009D01*
X197659Y341027D01*
X197706Y341035D01*
X197763Y341069D01*
X197823Y341094D01*
X197858Y341125D01*
X197899Y341150D01*
X197941Y341201D01*
X197989Y341245D01*
X198011Y341287D01*
X198040Y341324D01*
X198061Y341386D01*
X198092Y341445D01*
X198100Y341499D01*
X198112Y341536D01*
X198111Y341576D01*
X198119Y341630D01*
X198119Y344170D01*
X198108Y344235D01*
X198106Y344301D01*
X198088Y344344D01*
X198080Y344391D01*
X198046Y344448D01*
X198021Y344508D01*
X197990Y344543D01*
X197965Y344584D01*
X197914Y344626D01*
X197870Y344674D01*
X197828Y344696D01*
X197791Y344725D01*
X197729Y344746D01*
X197670Y344777D01*
X197616Y344785D01*
X197579Y344797D01*
X197539Y344796D01*
X197485Y344804D01*
X193675Y344804D01*
X193610Y344793D01*
X193544Y344791D01*
X193501Y344773D01*
X193454Y344765D01*
X193397Y344731D01*
X193337Y344706D01*
X193302Y344675D01*
X193261Y344650D01*
X193220Y344599D01*
X193171Y344555D01*
X193149Y344513D01*
X193120Y344476D01*
X193099Y344414D01*
X193068Y344355D01*
X193060Y344301D01*
X193048Y344264D01*
X193048Y344261D01*
X193049Y344224D01*
X193041Y344170D01*
X193041Y341630D01*
X193052Y341565D01*
X193054Y341499D01*
X193072Y341456D01*
X193080Y341409D01*
X193114Y341352D01*
X193139Y341292D01*
X193170Y341257D01*
X193195Y341216D01*
X193246Y341175D01*
X193290Y341126D01*
X193332Y341104D01*
X193369Y341075D01*
X193431Y341054D01*
X193490Y341023D01*
X193544Y341015D01*
X193581Y341003D01*
X193621Y341004D01*
X193675Y340996D01*
X197485Y340996D01*
X197550Y341007D01*
G37*
G36*
X187390Y341007D02*
X187390Y341007D01*
X187456Y341009D01*
X187499Y341027D01*
X187546Y341035D01*
X187603Y341069D01*
X187663Y341094D01*
X187698Y341125D01*
X187739Y341150D01*
X187781Y341201D01*
X187829Y341245D01*
X187851Y341287D01*
X187880Y341324D01*
X187901Y341386D01*
X187932Y341445D01*
X187940Y341499D01*
X187952Y341536D01*
X187951Y341576D01*
X187959Y341630D01*
X187959Y344170D01*
X187948Y344235D01*
X187946Y344301D01*
X187928Y344344D01*
X187920Y344391D01*
X187886Y344448D01*
X187861Y344508D01*
X187830Y344543D01*
X187805Y344584D01*
X187754Y344626D01*
X187710Y344674D01*
X187668Y344696D01*
X187631Y344725D01*
X187569Y344746D01*
X187510Y344777D01*
X187456Y344785D01*
X187419Y344797D01*
X187379Y344796D01*
X187325Y344804D01*
X183515Y344804D01*
X183450Y344793D01*
X183384Y344791D01*
X183341Y344773D01*
X183294Y344765D01*
X183237Y344731D01*
X183177Y344706D01*
X183142Y344675D01*
X183101Y344650D01*
X183060Y344599D01*
X183011Y344555D01*
X182989Y344513D01*
X182960Y344476D01*
X182939Y344414D01*
X182908Y344355D01*
X182900Y344301D01*
X182888Y344264D01*
X182888Y344261D01*
X182889Y344224D01*
X182881Y344170D01*
X182881Y341630D01*
X182892Y341565D01*
X182894Y341499D01*
X182912Y341456D01*
X182920Y341409D01*
X182954Y341352D01*
X182979Y341292D01*
X183010Y341257D01*
X183035Y341216D01*
X183086Y341175D01*
X183130Y341126D01*
X183172Y341104D01*
X183209Y341075D01*
X183271Y341054D01*
X183330Y341023D01*
X183384Y341015D01*
X183421Y341003D01*
X183461Y341004D01*
X183515Y340996D01*
X187325Y340996D01*
X187390Y341007D01*
G37*
D10*
X177801Y325992D03*
X177801Y308992D03*
X203201Y325992D03*
X203201Y308992D03*
D11*
X50800Y533400D03*
X304800Y12700D03*
D12*
X14051Y434392D03*
X14051Y378392D03*
D13*
X50801Y421392D03*
X50801Y411392D03*
X50801Y401392D03*
X50801Y391392D03*
D12*
X14051Y332792D03*
X14051Y276792D03*
D13*
X50801Y319792D03*
X50801Y309792D03*
X50801Y299792D03*
X50801Y289792D03*
D12*
X14051Y231192D03*
X14051Y175192D03*
D13*
X50801Y218192D03*
X50801Y208192D03*
X50801Y198192D03*
X50801Y188192D03*
D12*
X14051Y129592D03*
X14051Y73592D03*
D13*
X50801Y116592D03*
X50801Y106592D03*
X50801Y96592D03*
X50801Y86592D03*
D14*
X147801Y289692D03*
X147801Y283242D03*
X147801Y276742D03*
X147801Y270242D03*
X147801Y263742D03*
X147801Y257242D03*
X147801Y250742D03*
X147801Y244242D03*
X147801Y237742D03*
X147801Y231242D03*
X147801Y224742D03*
X147801Y218242D03*
X207801Y218242D03*
X207801Y224742D03*
X207801Y231242D03*
X207801Y237742D03*
X207801Y244242D03*
X207801Y250742D03*
X207801Y257242D03*
X207801Y263742D03*
X207801Y270242D03*
X207801Y276742D03*
X207801Y283242D03*
X207801Y289742D03*
D15*
X99941Y421632D03*
X82941Y421632D03*
X99941Y406392D03*
X82941Y406392D03*
X99941Y320032D03*
X82941Y320032D03*
X99941Y304792D03*
X82941Y304792D03*
X99941Y218432D03*
X82941Y218432D03*
X99941Y203192D03*
X82941Y203192D03*
X99941Y116832D03*
X82941Y116832D03*
X99941Y101592D03*
X82941Y101592D03*
D12*
X341542Y73599D03*
X341542Y129599D03*
D13*
X304792Y86599D03*
X304792Y96599D03*
X304792Y106599D03*
X304792Y116599D03*
D12*
X341542Y175199D03*
X341542Y231199D03*
D13*
X304792Y188199D03*
X304792Y198199D03*
X304792Y208199D03*
X304792Y218199D03*
D12*
X341542Y276799D03*
X341542Y332799D03*
D13*
X304792Y289799D03*
X304792Y299799D03*
X304792Y309799D03*
X304792Y319799D03*
D12*
X341542Y378399D03*
X341542Y434399D03*
D13*
X304792Y391399D03*
X304792Y401399D03*
X304792Y411399D03*
X304792Y421399D03*
D15*
X255659Y101608D03*
X272659Y101608D03*
X255659Y116848D03*
X272659Y116848D03*
X255659Y203208D03*
X272659Y203208D03*
X255659Y218448D03*
X272659Y218448D03*
X255659Y304808D03*
X272659Y304808D03*
X255659Y320048D03*
X272659Y320048D03*
X255659Y406408D03*
X272659Y406408D03*
X255659Y421648D03*
X272659Y421648D03*
D10*
X152401Y440292D03*
X152401Y423292D03*
X177801Y440292D03*
X177801Y423292D03*
X203201Y440292D03*
X203201Y423292D03*
D16*
X203201Y404106D03*
X203201Y395978D03*
X177801Y404106D03*
X177801Y395978D03*
X152401Y404106D03*
X152401Y395978D03*
D10*
X152401Y308992D03*
X152401Y325992D03*
D15*
X99941Y391152D03*
X82941Y391152D03*
X99941Y289552D03*
X82941Y289552D03*
X99941Y187952D03*
X82941Y187952D03*
X99941Y86352D03*
X82941Y86352D03*
D10*
X115571Y376792D03*
X115571Y359792D03*
D17*
X114301Y469892D03*
D18*
X205800Y532050D03*
X149800Y532050D03*
D19*
X192800Y495300D03*
X182800Y495300D03*
X172800Y495300D03*
X162800Y495300D03*
D20*
X25400Y25400D03*
X25400Y520700D03*
X330200Y520700D03*
X330200Y25400D03*
D15*
X255660Y86360D03*
X272660Y86360D03*
X255660Y187960D03*
X272660Y187960D03*
X255660Y289560D03*
X272660Y289560D03*
X255660Y391160D03*
X272660Y391160D03*
D21*
X284680Y504510D02*
X284680Y511490D01*
X291660Y511490D01*
X291660Y504510D01*
X284680Y504510D01*
X284680Y509310D02*
X291660Y509310D01*
X267140Y511490D02*
X267140Y504510D01*
X267140Y511490D02*
X274120Y511490D01*
X274120Y504510D01*
X267140Y504510D01*
X267140Y509310D02*
X274120Y509310D01*
D15*
X270900Y495300D03*
X287900Y495300D03*
D22*
X200914Y342900D03*
X190500Y342900D03*
X180086Y342900D03*
D18*
X149800Y14050D03*
X205800Y14050D03*
D19*
X162800Y50800D03*
X172800Y50800D03*
X182800Y50800D03*
X192800Y50800D03*
D10*
X538481Y325992D03*
X538481Y308992D03*
X563881Y325992D03*
X563881Y308992D03*
D11*
X411480Y533400D03*
X665480Y12700D03*
D12*
X374731Y434392D03*
X374731Y378392D03*
D13*
X411481Y421392D03*
X411481Y411392D03*
X411481Y401392D03*
X411481Y391392D03*
D12*
X374731Y332792D03*
X374731Y276792D03*
D13*
X411481Y319792D03*
X411481Y309792D03*
X411481Y299792D03*
X411481Y289792D03*
D12*
X374731Y231192D03*
X374731Y175192D03*
D13*
X411481Y218192D03*
X411481Y208192D03*
X411481Y198192D03*
X411481Y188192D03*
D12*
X374731Y129592D03*
X374731Y73592D03*
D13*
X411481Y116592D03*
X411481Y106592D03*
X411481Y96592D03*
X411481Y86592D03*
D14*
X508481Y289692D03*
X508481Y283242D03*
X508481Y276742D03*
X508481Y270242D03*
X508481Y263742D03*
X508481Y257242D03*
X508481Y250742D03*
X508481Y244242D03*
X508481Y237742D03*
X508481Y231242D03*
X508481Y224742D03*
X508481Y218242D03*
X568481Y218242D03*
X568481Y224742D03*
X568481Y231242D03*
X568481Y237742D03*
X568481Y244242D03*
X568481Y250742D03*
X568481Y257242D03*
X568481Y263742D03*
X568481Y270242D03*
X568481Y276742D03*
X568481Y283242D03*
X568481Y289742D03*
D15*
X460621Y421632D03*
X443621Y421632D03*
X460621Y406392D03*
X443621Y406392D03*
X460621Y320032D03*
X443621Y320032D03*
X460621Y304792D03*
X443621Y304792D03*
X460621Y218432D03*
X443621Y218432D03*
X460621Y203192D03*
X443621Y203192D03*
X460621Y116832D03*
X443621Y116832D03*
X460621Y101592D03*
X443621Y101592D03*
D12*
X702222Y73599D03*
X702222Y129599D03*
D13*
X665472Y86599D03*
X665472Y96599D03*
X665472Y106599D03*
X665472Y116599D03*
D12*
X702222Y175199D03*
X702222Y231199D03*
D13*
X665472Y188199D03*
X665472Y198199D03*
X665472Y208199D03*
X665472Y218199D03*
D12*
X702222Y276799D03*
X702222Y332799D03*
D13*
X665472Y289799D03*
X665472Y299799D03*
X665472Y309799D03*
X665472Y319799D03*
D12*
X702222Y378399D03*
X702222Y434399D03*
D13*
X665472Y391399D03*
X665472Y401399D03*
X665472Y411399D03*
X665472Y421399D03*
D15*
X616339Y101608D03*
X633339Y101608D03*
X616339Y116848D03*
X633339Y116848D03*
X616339Y203208D03*
X633339Y203208D03*
X616339Y218448D03*
X633339Y218448D03*
X616339Y304808D03*
X633339Y304808D03*
X616339Y320048D03*
X633339Y320048D03*
X616339Y406408D03*
X633339Y406408D03*
X616339Y421648D03*
X633339Y421648D03*
D10*
X513081Y440292D03*
X513081Y423292D03*
X538481Y440292D03*
X538481Y423292D03*
X563881Y440292D03*
X563881Y423292D03*
D16*
X563881Y404106D03*
X563881Y395978D03*
X538481Y404106D03*
X538481Y395978D03*
X513081Y404106D03*
X513081Y395978D03*
D10*
X513081Y308992D03*
X513081Y325992D03*
D15*
X460621Y391152D03*
X443621Y391152D03*
X460621Y289552D03*
X443621Y289552D03*
X460621Y187952D03*
X443621Y187952D03*
X460621Y86352D03*
X443621Y86352D03*
D10*
X476251Y376792D03*
X476251Y359792D03*
D17*
X474981Y469892D03*
D18*
X566480Y532050D03*
X510480Y532050D03*
D19*
X553480Y495300D03*
X543480Y495300D03*
X533480Y495300D03*
X523480Y495300D03*
D20*
X386080Y25400D03*
X386080Y520700D03*
X690880Y520700D03*
X690880Y25400D03*
D15*
X616340Y86360D03*
X633340Y86360D03*
X616340Y187960D03*
X633340Y187960D03*
X616340Y289560D03*
X633340Y289560D03*
X616340Y391160D03*
X633340Y391160D03*
D21*
X645360Y504510D02*
X645360Y511490D01*
X652340Y511490D01*
X652340Y504510D01*
X645360Y504510D01*
X645360Y509310D02*
X652340Y509310D01*
X627820Y511490D02*
X627820Y504510D01*
X627820Y511490D02*
X634800Y511490D01*
X634800Y504510D01*
X627820Y504510D01*
X627820Y509310D02*
X634800Y509310D01*
D15*
X631580Y495300D03*
X648580Y495300D03*
D22*
X561594Y342900D03*
X551180Y342900D03*
X540766Y342900D03*
D18*
X510480Y14050D03*
X566480Y14050D03*
D19*
X523480Y50800D03*
X533480Y50800D03*
X543480Y50800D03*
X553480Y50800D03*
D10*
X899161Y325992D03*
X899161Y308992D03*
X924561Y325992D03*
X924561Y308992D03*
D11*
X772160Y533400D03*
X1026160Y12700D03*
D12*
X735411Y434392D03*
X735411Y378392D03*
D13*
X772161Y421392D03*
X772161Y411392D03*
X772161Y401392D03*
X772161Y391392D03*
D12*
X735411Y332792D03*
X735411Y276792D03*
D13*
X772161Y319792D03*
X772161Y309792D03*
X772161Y299792D03*
X772161Y289792D03*
D12*
X735411Y231192D03*
X735411Y175192D03*
D13*
X772161Y218192D03*
X772161Y208192D03*
X772161Y198192D03*
X772161Y188192D03*
D12*
X735411Y129592D03*
X735411Y73592D03*
D13*
X772161Y116592D03*
X772161Y106592D03*
X772161Y96592D03*
X772161Y86592D03*
D14*
X869161Y289692D03*
X869161Y283242D03*
X869161Y276742D03*
X869161Y270242D03*
X869161Y263742D03*
X869161Y257242D03*
X869161Y250742D03*
X869161Y244242D03*
X869161Y237742D03*
X869161Y231242D03*
X869161Y224742D03*
X869161Y218242D03*
X929161Y218242D03*
X929161Y224742D03*
X929161Y231242D03*
X929161Y237742D03*
X929161Y244242D03*
X929161Y250742D03*
X929161Y257242D03*
X929161Y263742D03*
X929161Y270242D03*
X929161Y276742D03*
X929161Y283242D03*
X929161Y289742D03*
D15*
X821301Y421632D03*
X804301Y421632D03*
X821301Y406392D03*
X804301Y406392D03*
X821301Y320032D03*
X804301Y320032D03*
X821301Y304792D03*
X804301Y304792D03*
X821301Y218432D03*
X804301Y218432D03*
X821301Y203192D03*
X804301Y203192D03*
X821301Y116832D03*
X804301Y116832D03*
X821301Y101592D03*
X804301Y101592D03*
D12*
X1062902Y73599D03*
X1062902Y129599D03*
D13*
X1026152Y86599D03*
X1026152Y96599D03*
X1026152Y106599D03*
X1026152Y116599D03*
D12*
X1062902Y175199D03*
X1062902Y231199D03*
D13*
X1026152Y188199D03*
X1026152Y198199D03*
X1026152Y208199D03*
X1026152Y218199D03*
D12*
X1062902Y276799D03*
X1062902Y332799D03*
D13*
X1026152Y289799D03*
X1026152Y299799D03*
X1026152Y309799D03*
X1026152Y319799D03*
D12*
X1062902Y378399D03*
X1062902Y434399D03*
D13*
X1026152Y391399D03*
X1026152Y401399D03*
X1026152Y411399D03*
X1026152Y421399D03*
D15*
X977019Y101608D03*
X994019Y101608D03*
X977019Y116848D03*
X994019Y116848D03*
X977019Y203208D03*
X994019Y203208D03*
X977019Y218448D03*
X994019Y218448D03*
X977019Y304808D03*
X994019Y304808D03*
X977019Y320048D03*
X994019Y320048D03*
X977019Y406408D03*
X994019Y406408D03*
X977019Y421648D03*
X994019Y421648D03*
D10*
X873761Y440292D03*
X873761Y423292D03*
X899161Y440292D03*
X899161Y423292D03*
X924561Y440292D03*
X924561Y423292D03*
D16*
X924561Y404106D03*
X924561Y395978D03*
X899161Y404106D03*
X899161Y395978D03*
X873761Y404106D03*
X873761Y395978D03*
D10*
X873761Y308992D03*
X873761Y325992D03*
D15*
X821301Y391152D03*
X804301Y391152D03*
X821301Y289552D03*
X804301Y289552D03*
X821301Y187952D03*
X804301Y187952D03*
X821301Y86352D03*
X804301Y86352D03*
D10*
X836931Y376792D03*
X836931Y359792D03*
D17*
X835661Y469892D03*
D18*
X927160Y532050D03*
X871160Y532050D03*
D19*
X914160Y495300D03*
X904160Y495300D03*
X894160Y495300D03*
X884160Y495300D03*
D20*
X746760Y25400D03*
X746760Y520700D03*
X1051560Y520700D03*
X1051560Y25400D03*
D15*
X977020Y86360D03*
X994020Y86360D03*
X977020Y187960D03*
X994020Y187960D03*
X977020Y289560D03*
X994020Y289560D03*
X977020Y391160D03*
X994020Y391160D03*
D21*
X1006040Y504510D02*
X1006040Y511490D01*
X1013020Y511490D01*
X1013020Y504510D01*
X1006040Y504510D01*
X1006040Y509310D02*
X1013020Y509310D01*
X988500Y511490D02*
X988500Y504510D01*
X988500Y511490D02*
X995480Y511490D01*
X995480Y504510D01*
X988500Y504510D01*
X988500Y509310D02*
X995480Y509310D01*
D15*
X992260Y495300D03*
X1009260Y495300D03*
D22*
X922274Y342900D03*
X911860Y342900D03*
X901446Y342900D03*
D18*
X871160Y14050D03*
X927160Y14050D03*
D19*
X884160Y50800D03*
X894160Y50800D03*
X904160Y50800D03*
X914160Y50800D03*
D10*
X1259841Y325992D03*
X1259841Y308992D03*
X1285241Y325992D03*
X1285241Y308992D03*
D11*
X1132840Y533400D03*
X1386840Y12700D03*
D12*
X1096091Y434392D03*
X1096091Y378392D03*
D13*
X1132841Y421392D03*
X1132841Y411392D03*
X1132841Y401392D03*
X1132841Y391392D03*
D12*
X1096091Y332792D03*
X1096091Y276792D03*
D13*
X1132841Y319792D03*
X1132841Y309792D03*
X1132841Y299792D03*
X1132841Y289792D03*
D12*
X1096091Y231192D03*
X1096091Y175192D03*
D13*
X1132841Y218192D03*
X1132841Y208192D03*
X1132841Y198192D03*
X1132841Y188192D03*
D12*
X1096091Y129592D03*
X1096091Y73592D03*
D13*
X1132841Y116592D03*
X1132841Y106592D03*
X1132841Y96592D03*
X1132841Y86592D03*
D14*
X1229841Y289692D03*
X1229841Y283242D03*
X1229841Y276742D03*
X1229841Y270242D03*
X1229841Y263742D03*
X1229841Y257242D03*
X1229841Y250742D03*
X1229841Y244242D03*
X1229841Y237742D03*
X1229841Y231242D03*
X1229841Y224742D03*
X1229841Y218242D03*
X1289841Y218242D03*
X1289841Y224742D03*
X1289841Y231242D03*
X1289841Y237742D03*
X1289841Y244242D03*
X1289841Y250742D03*
X1289841Y257242D03*
X1289841Y263742D03*
X1289841Y270242D03*
X1289841Y276742D03*
X1289841Y283242D03*
X1289841Y289742D03*
D15*
X1181981Y421632D03*
X1164981Y421632D03*
X1181981Y406392D03*
X1164981Y406392D03*
X1181981Y320032D03*
X1164981Y320032D03*
X1181981Y304792D03*
X1164981Y304792D03*
X1181981Y218432D03*
X1164981Y218432D03*
X1181981Y203192D03*
X1164981Y203192D03*
X1181981Y116832D03*
X1164981Y116832D03*
X1181981Y101592D03*
X1164981Y101592D03*
D12*
X1423582Y73599D03*
X1423582Y129599D03*
D13*
X1386832Y86599D03*
X1386832Y96599D03*
X1386832Y106599D03*
X1386832Y116599D03*
D12*
X1423582Y175199D03*
X1423582Y231199D03*
D13*
X1386832Y188199D03*
X1386832Y198199D03*
X1386832Y208199D03*
X1386832Y218199D03*
D12*
X1423582Y276799D03*
X1423582Y332799D03*
D13*
X1386832Y289799D03*
X1386832Y299799D03*
X1386832Y309799D03*
X1386832Y319799D03*
D12*
X1423582Y378399D03*
X1423582Y434399D03*
D13*
X1386832Y391399D03*
X1386832Y401399D03*
X1386832Y411399D03*
X1386832Y421399D03*
D15*
X1337699Y101608D03*
X1354699Y101608D03*
X1337699Y116848D03*
X1354699Y116848D03*
X1337699Y203208D03*
X1354699Y203208D03*
X1337699Y218448D03*
X1354699Y218448D03*
X1337699Y304808D03*
X1354699Y304808D03*
X1337699Y320048D03*
X1354699Y320048D03*
X1337699Y406408D03*
X1354699Y406408D03*
X1337699Y421648D03*
X1354699Y421648D03*
D10*
X1234441Y440292D03*
X1234441Y423292D03*
X1259841Y440292D03*
X1259841Y423292D03*
X1285241Y440292D03*
X1285241Y423292D03*
D16*
X1285241Y404106D03*
X1285241Y395978D03*
X1259841Y404106D03*
X1259841Y395978D03*
X1234441Y404106D03*
X1234441Y395978D03*
D10*
X1234441Y308992D03*
X1234441Y325992D03*
D15*
X1181981Y391152D03*
X1164981Y391152D03*
X1181981Y289552D03*
X1164981Y289552D03*
X1181981Y187952D03*
X1164981Y187952D03*
X1181981Y86352D03*
X1164981Y86352D03*
D10*
X1197611Y376792D03*
X1197611Y359792D03*
D17*
X1196341Y469892D03*
D18*
X1287840Y532050D03*
X1231840Y532050D03*
D19*
X1274840Y495300D03*
X1264840Y495300D03*
X1254840Y495300D03*
X1244840Y495300D03*
D20*
X1107440Y25400D03*
X1107440Y520700D03*
X1412240Y520700D03*
X1412240Y25400D03*
D15*
X1337700Y86360D03*
X1354700Y86360D03*
X1337700Y187960D03*
X1354700Y187960D03*
X1337700Y289560D03*
X1354700Y289560D03*
X1337700Y391160D03*
X1354700Y391160D03*
D21*
X1366720Y504510D02*
X1366720Y511490D01*
X1373700Y511490D01*
X1373700Y504510D01*
X1366720Y504510D01*
X1366720Y509310D02*
X1373700Y509310D01*
X1349180Y511490D02*
X1349180Y504510D01*
X1349180Y511490D02*
X1356160Y511490D01*
X1356160Y504510D01*
X1349180Y504510D01*
X1349180Y509310D02*
X1356160Y509310D01*
D15*
X1352940Y495300D03*
X1369940Y495300D03*
D22*
X1282954Y342900D03*
X1272540Y342900D03*
X1262126Y342900D03*
D18*
X1231840Y14050D03*
X1287840Y14050D03*
D19*
X1244840Y50800D03*
X1254840Y50800D03*
X1264840Y50800D03*
X1274840Y50800D03*
D10*
X1620521Y325992D03*
X1620521Y308992D03*
X1645921Y325992D03*
X1645921Y308992D03*
D11*
X1493520Y533400D03*
X1747520Y12700D03*
D12*
X1456771Y434392D03*
X1456771Y378392D03*
D13*
X1493521Y421392D03*
X1493521Y411392D03*
X1493521Y401392D03*
X1493521Y391392D03*
D12*
X1456771Y332792D03*
X1456771Y276792D03*
D13*
X1493521Y319792D03*
X1493521Y309792D03*
X1493521Y299792D03*
X1493521Y289792D03*
D12*
X1456771Y231192D03*
X1456771Y175192D03*
D13*
X1493521Y218192D03*
X1493521Y208192D03*
X1493521Y198192D03*
X1493521Y188192D03*
D12*
X1456771Y129592D03*
X1456771Y73592D03*
D13*
X1493521Y116592D03*
X1493521Y106592D03*
X1493521Y96592D03*
X1493521Y86592D03*
D14*
X1590521Y289692D03*
X1590521Y283242D03*
X1590521Y276742D03*
X1590521Y270242D03*
X1590521Y263742D03*
X1590521Y257242D03*
X1590521Y250742D03*
X1590521Y244242D03*
X1590521Y237742D03*
X1590521Y231242D03*
X1590521Y224742D03*
X1590521Y218242D03*
X1650521Y218242D03*
X1650521Y224742D03*
X1650521Y231242D03*
X1650521Y237742D03*
X1650521Y244242D03*
X1650521Y250742D03*
X1650521Y257242D03*
X1650521Y263742D03*
X1650521Y270242D03*
X1650521Y276742D03*
X1650521Y283242D03*
X1650521Y289742D03*
D15*
X1542661Y421632D03*
X1525661Y421632D03*
X1542661Y406392D03*
X1525661Y406392D03*
X1542661Y320032D03*
X1525661Y320032D03*
X1542661Y304792D03*
X1525661Y304792D03*
X1542661Y218432D03*
X1525661Y218432D03*
X1542661Y203192D03*
X1525661Y203192D03*
X1542661Y116832D03*
X1525661Y116832D03*
X1542661Y101592D03*
X1525661Y101592D03*
D12*
X1784262Y73599D03*
X1784262Y129599D03*
D13*
X1747512Y86599D03*
X1747512Y96599D03*
X1747512Y106599D03*
X1747512Y116599D03*
D12*
X1784262Y175199D03*
X1784262Y231199D03*
D13*
X1747512Y188199D03*
X1747512Y198199D03*
X1747512Y208199D03*
X1747512Y218199D03*
D12*
X1784262Y276799D03*
X1784262Y332799D03*
D13*
X1747512Y289799D03*
X1747512Y299799D03*
X1747512Y309799D03*
X1747512Y319799D03*
D12*
X1784262Y378399D03*
X1784262Y434399D03*
D13*
X1747512Y391399D03*
X1747512Y401399D03*
X1747512Y411399D03*
X1747512Y421399D03*
D15*
X1698379Y101608D03*
X1715379Y101608D03*
X1698379Y116848D03*
X1715379Y116848D03*
X1698379Y203208D03*
X1715379Y203208D03*
X1698379Y218448D03*
X1715379Y218448D03*
X1698379Y304808D03*
X1715379Y304808D03*
X1698379Y320048D03*
X1715379Y320048D03*
X1698379Y406408D03*
X1715379Y406408D03*
X1698379Y421648D03*
X1715379Y421648D03*
D10*
X1595121Y440292D03*
X1595121Y423292D03*
X1620521Y440292D03*
X1620521Y423292D03*
X1645921Y440292D03*
X1645921Y423292D03*
D16*
X1645921Y404106D03*
X1645921Y395978D03*
X1620521Y404106D03*
X1620521Y395978D03*
X1595121Y404106D03*
X1595121Y395978D03*
D10*
X1595121Y308992D03*
X1595121Y325992D03*
D15*
X1542661Y391152D03*
X1525661Y391152D03*
X1542661Y289552D03*
X1525661Y289552D03*
X1542661Y187952D03*
X1525661Y187952D03*
X1542661Y86352D03*
X1525661Y86352D03*
D10*
X1558291Y376792D03*
X1558291Y359792D03*
D17*
X1557021Y469892D03*
D18*
X1648520Y532050D03*
X1592520Y532050D03*
D19*
X1635520Y495300D03*
X1625520Y495300D03*
X1615520Y495300D03*
X1605520Y495300D03*
D20*
X1468120Y25400D03*
X1468120Y520700D03*
X1772920Y520700D03*
X1772920Y25400D03*
D15*
X1698380Y86360D03*
X1715380Y86360D03*
X1698380Y187960D03*
X1715380Y187960D03*
X1698380Y289560D03*
X1715380Y289560D03*
X1698380Y391160D03*
X1715380Y391160D03*
D21*
X1727400Y504510D02*
X1727400Y511490D01*
X1734380Y511490D01*
X1734380Y504510D01*
X1727400Y504510D01*
X1727400Y509310D02*
X1734380Y509310D01*
X1709860Y511490D02*
X1709860Y504510D01*
X1709860Y511490D02*
X1716840Y511490D01*
X1716840Y504510D01*
X1709860Y504510D01*
X1709860Y509310D02*
X1716840Y509310D01*
D15*
X1713620Y495300D03*
X1730620Y495300D03*
D22*
X1643634Y342900D03*
X1633220Y342900D03*
X1622806Y342900D03*
D18*
X1592520Y14050D03*
X1648520Y14050D03*
D19*
X1605520Y50800D03*
X1615520Y50800D03*
X1625520Y50800D03*
X1635520Y50800D03*
D10*
X177801Y877172D03*
X177801Y860172D03*
X203201Y877172D03*
X203201Y860172D03*
D11*
X50800Y1084580D03*
X304800Y563880D03*
D12*
X14051Y985572D03*
X14051Y929572D03*
D13*
X50801Y972572D03*
X50801Y962572D03*
X50801Y952572D03*
X50801Y942572D03*
D12*
X14051Y883972D03*
X14051Y827972D03*
D13*
X50801Y870972D03*
X50801Y860972D03*
X50801Y850972D03*
X50801Y840972D03*
D12*
X14051Y782372D03*
X14051Y726372D03*
D13*
X50801Y769372D03*
X50801Y759372D03*
X50801Y749372D03*
X50801Y739372D03*
D12*
X14051Y680772D03*
X14051Y624772D03*
D13*
X50801Y667772D03*
X50801Y657772D03*
X50801Y647772D03*
X50801Y637772D03*
D14*
X147801Y840872D03*
X147801Y834422D03*
X147801Y827922D03*
X147801Y821422D03*
X147801Y814922D03*
X147801Y808422D03*
X147801Y801922D03*
X147801Y795422D03*
X147801Y788922D03*
X147801Y782422D03*
X147801Y775922D03*
X147801Y769422D03*
X207801Y769422D03*
X207801Y775922D03*
X207801Y782422D03*
X207801Y788922D03*
X207801Y795422D03*
X207801Y801922D03*
X207801Y808422D03*
X207801Y814922D03*
X207801Y821422D03*
X207801Y827922D03*
X207801Y834422D03*
X207801Y840922D03*
D15*
X99941Y972812D03*
X82941Y972812D03*
X99941Y957572D03*
X82941Y957572D03*
X99941Y871212D03*
X82941Y871212D03*
X99941Y855972D03*
X82941Y855972D03*
X99941Y769612D03*
X82941Y769612D03*
X99941Y754372D03*
X82941Y754372D03*
X99941Y668012D03*
X82941Y668012D03*
X99941Y652772D03*
X82941Y652772D03*
D12*
X341542Y624779D03*
X341542Y680779D03*
D13*
X304792Y637779D03*
X304792Y647779D03*
X304792Y657779D03*
X304792Y667779D03*
D12*
X341542Y726379D03*
X341542Y782379D03*
D13*
X304792Y739379D03*
X304792Y749379D03*
X304792Y759379D03*
X304792Y769379D03*
D12*
X341542Y827979D03*
X341542Y883979D03*
D13*
X304792Y840979D03*
X304792Y850979D03*
X304792Y860979D03*
X304792Y870979D03*
D12*
X341542Y929579D03*
X341542Y985579D03*
D13*
X304792Y942579D03*
X304792Y952579D03*
X304792Y962579D03*
X304792Y972579D03*
D15*
X255659Y652788D03*
X272659Y652788D03*
X255659Y668028D03*
X272659Y668028D03*
X255659Y754388D03*
X272659Y754388D03*
X255659Y769628D03*
X272659Y769628D03*
X255659Y855988D03*
X272659Y855988D03*
X255659Y871228D03*
X272659Y871228D03*
X255659Y957588D03*
X272659Y957588D03*
X255659Y972828D03*
X272659Y972828D03*
D10*
X152401Y991472D03*
X152401Y974472D03*
X177801Y991472D03*
X177801Y974472D03*
X203201Y991472D03*
X203201Y974472D03*
D16*
X203201Y955286D03*
X203201Y947158D03*
X177801Y955286D03*
X177801Y947158D03*
X152401Y955286D03*
X152401Y947158D03*
D10*
X152401Y860172D03*
X152401Y877172D03*
D15*
X99941Y942332D03*
X82941Y942332D03*
X99941Y840732D03*
X82941Y840732D03*
X99941Y739132D03*
X82941Y739132D03*
X99941Y637532D03*
X82941Y637532D03*
D10*
X115571Y927972D03*
X115571Y910972D03*
D17*
X114301Y1021072D03*
D18*
X205800Y1083230D03*
X149800Y1083230D03*
D19*
X192800Y1046480D03*
X182800Y1046480D03*
X172800Y1046480D03*
X162800Y1046480D03*
D20*
X25400Y576580D03*
X25400Y1071880D03*
X330200Y1071880D03*
X330200Y576580D03*
D15*
X255660Y637540D03*
X272660Y637540D03*
X255660Y739140D03*
X272660Y739140D03*
X255660Y840740D03*
X272660Y840740D03*
X255660Y942340D03*
X272660Y942340D03*
D21*
X284680Y1055690D02*
X284680Y1062670D01*
X291660Y1062670D01*
X291660Y1055690D01*
X284680Y1055690D01*
X284680Y1060490D02*
X291660Y1060490D01*
X267140Y1062670D02*
X267140Y1055690D01*
X267140Y1062670D02*
X274120Y1062670D01*
X274120Y1055690D01*
X267140Y1055690D01*
X267140Y1060490D02*
X274120Y1060490D01*
D15*
X270900Y1046480D03*
X287900Y1046480D03*
D22*
X200914Y894080D03*
X190500Y894080D03*
X180086Y894080D03*
D18*
X149800Y565230D03*
X205800Y565230D03*
D19*
X162800Y601980D03*
X172800Y601980D03*
X182800Y601980D03*
X192800Y601980D03*
D10*
X538481Y877172D03*
X538481Y860172D03*
X563881Y877172D03*
X563881Y860172D03*
D11*
X411480Y1084580D03*
X665480Y563880D03*
D12*
X374731Y985572D03*
X374731Y929572D03*
D13*
X411481Y972572D03*
X411481Y962572D03*
X411481Y952572D03*
X411481Y942572D03*
D12*
X374731Y883972D03*
X374731Y827972D03*
D13*
X411481Y870972D03*
X411481Y860972D03*
X411481Y850972D03*
X411481Y840972D03*
D12*
X374731Y782372D03*
X374731Y726372D03*
D13*
X411481Y769372D03*
X411481Y759372D03*
X411481Y749372D03*
X411481Y739372D03*
D12*
X374731Y680772D03*
X374731Y624772D03*
D13*
X411481Y667772D03*
X411481Y657772D03*
X411481Y647772D03*
X411481Y637772D03*
D14*
X508481Y840872D03*
X508481Y834422D03*
X508481Y827922D03*
X508481Y821422D03*
X508481Y814922D03*
X508481Y808422D03*
X508481Y801922D03*
X508481Y795422D03*
X508481Y788922D03*
X508481Y782422D03*
X508481Y775922D03*
X508481Y769422D03*
X568481Y769422D03*
X568481Y775922D03*
X568481Y782422D03*
X568481Y788922D03*
X568481Y795422D03*
X568481Y801922D03*
X568481Y808422D03*
X568481Y814922D03*
X568481Y821422D03*
X568481Y827922D03*
X568481Y834422D03*
X568481Y840922D03*
D15*
X460621Y972812D03*
X443621Y972812D03*
X460621Y957572D03*
X443621Y957572D03*
X460621Y871212D03*
X443621Y871212D03*
X460621Y855972D03*
X443621Y855972D03*
X460621Y769612D03*
X443621Y769612D03*
X460621Y754372D03*
X443621Y754372D03*
X460621Y668012D03*
X443621Y668012D03*
X460621Y652772D03*
X443621Y652772D03*
D12*
X702222Y624779D03*
X702222Y680779D03*
D13*
X665472Y637779D03*
X665472Y647779D03*
X665472Y657779D03*
X665472Y667779D03*
D12*
X702222Y726379D03*
X702222Y782379D03*
D13*
X665472Y739379D03*
X665472Y749379D03*
X665472Y759379D03*
X665472Y769379D03*
D12*
X702222Y827979D03*
X702222Y883979D03*
D13*
X665472Y840979D03*
X665472Y850979D03*
X665472Y860979D03*
X665472Y870979D03*
D12*
X702222Y929579D03*
X702222Y985579D03*
D13*
X665472Y942579D03*
X665472Y952579D03*
X665472Y962579D03*
X665472Y972579D03*
D15*
X616339Y652788D03*
X633339Y652788D03*
X616339Y668028D03*
X633339Y668028D03*
X616339Y754388D03*
X633339Y754388D03*
X616339Y769628D03*
X633339Y769628D03*
X616339Y855988D03*
X633339Y855988D03*
X616339Y871228D03*
X633339Y871228D03*
X616339Y957588D03*
X633339Y957588D03*
X616339Y972828D03*
X633339Y972828D03*
D10*
X513081Y991472D03*
X513081Y974472D03*
X538481Y991472D03*
X538481Y974472D03*
X563881Y991472D03*
X563881Y974472D03*
D16*
X563881Y955286D03*
X563881Y947158D03*
X538481Y955286D03*
X538481Y947158D03*
X513081Y955286D03*
X513081Y947158D03*
D10*
X513081Y860172D03*
X513081Y877172D03*
D15*
X460621Y942332D03*
X443621Y942332D03*
X460621Y840732D03*
X443621Y840732D03*
X460621Y739132D03*
X443621Y739132D03*
X460621Y637532D03*
X443621Y637532D03*
D10*
X476251Y927972D03*
X476251Y910972D03*
D17*
X474981Y1021072D03*
D18*
X566480Y1083230D03*
X510480Y1083230D03*
D19*
X553480Y1046480D03*
X543480Y1046480D03*
X533480Y1046480D03*
X523480Y1046480D03*
D20*
X386080Y576580D03*
X386080Y1071880D03*
X690880Y1071880D03*
X690880Y576580D03*
D15*
X616340Y637540D03*
X633340Y637540D03*
X616340Y739140D03*
X633340Y739140D03*
X616340Y840740D03*
X633340Y840740D03*
X616340Y942340D03*
X633340Y942340D03*
D21*
X645360Y1055690D02*
X645360Y1062670D01*
X652340Y1062670D01*
X652340Y1055690D01*
X645360Y1055690D01*
X645360Y1060490D02*
X652340Y1060490D01*
X627820Y1062670D02*
X627820Y1055690D01*
X627820Y1062670D02*
X634800Y1062670D01*
X634800Y1055690D01*
X627820Y1055690D01*
X627820Y1060490D02*
X634800Y1060490D01*
D15*
X631580Y1046480D03*
X648580Y1046480D03*
D22*
X561594Y894080D03*
X551180Y894080D03*
X540766Y894080D03*
D18*
X510480Y565230D03*
X566480Y565230D03*
D19*
X523480Y601980D03*
X533480Y601980D03*
X543480Y601980D03*
X553480Y601980D03*
D10*
X899161Y877172D03*
X899161Y860172D03*
X924561Y877172D03*
X924561Y860172D03*
D11*
X772160Y1084580D03*
X1026160Y563880D03*
D12*
X735411Y985572D03*
X735411Y929572D03*
D13*
X772161Y972572D03*
X772161Y962572D03*
X772161Y952572D03*
X772161Y942572D03*
D12*
X735411Y883972D03*
X735411Y827972D03*
D13*
X772161Y870972D03*
X772161Y860972D03*
X772161Y850972D03*
X772161Y840972D03*
D12*
X735411Y782372D03*
X735411Y726372D03*
D13*
X772161Y769372D03*
X772161Y759372D03*
X772161Y749372D03*
X772161Y739372D03*
D12*
X735411Y680772D03*
X735411Y624772D03*
D13*
X772161Y667772D03*
X772161Y657772D03*
X772161Y647772D03*
X772161Y637772D03*
D14*
X869161Y840872D03*
X869161Y834422D03*
X869161Y827922D03*
X869161Y821422D03*
X869161Y814922D03*
X869161Y808422D03*
X869161Y801922D03*
X869161Y795422D03*
X869161Y788922D03*
X869161Y782422D03*
X869161Y775922D03*
X869161Y769422D03*
X929161Y769422D03*
X929161Y775922D03*
X929161Y782422D03*
X929161Y788922D03*
X929161Y795422D03*
X929161Y801922D03*
X929161Y808422D03*
X929161Y814922D03*
X929161Y821422D03*
X929161Y827922D03*
X929161Y834422D03*
X929161Y840922D03*
D15*
X821301Y972812D03*
X804301Y972812D03*
X821301Y957572D03*
X804301Y957572D03*
X821301Y871212D03*
X804301Y871212D03*
X821301Y855972D03*
X804301Y855972D03*
X821301Y769612D03*
X804301Y769612D03*
X821301Y754372D03*
X804301Y754372D03*
X821301Y668012D03*
X804301Y668012D03*
X821301Y652772D03*
X804301Y652772D03*
D12*
X1062902Y624779D03*
X1062902Y680779D03*
D13*
X1026152Y637779D03*
X1026152Y647779D03*
X1026152Y657779D03*
X1026152Y667779D03*
D12*
X1062902Y726379D03*
X1062902Y782379D03*
D13*
X1026152Y739379D03*
X1026152Y749379D03*
X1026152Y759379D03*
X1026152Y769379D03*
D12*
X1062902Y827979D03*
X1062902Y883979D03*
D13*
X1026152Y840979D03*
X1026152Y850979D03*
X1026152Y860979D03*
X1026152Y870979D03*
D12*
X1062902Y929579D03*
X1062902Y985579D03*
D13*
X1026152Y942579D03*
X1026152Y952579D03*
X1026152Y962579D03*
X1026152Y972579D03*
D15*
X977019Y652788D03*
X994019Y652788D03*
X977019Y668028D03*
X994019Y668028D03*
X977019Y754388D03*
X994019Y754388D03*
X977019Y769628D03*
X994019Y769628D03*
X977019Y855988D03*
X994019Y855988D03*
X977019Y871228D03*
X994019Y871228D03*
X977019Y957588D03*
X994019Y957588D03*
X977019Y972828D03*
X994019Y972828D03*
D10*
X873761Y991472D03*
X873761Y974472D03*
X899161Y991472D03*
X899161Y974472D03*
X924561Y991472D03*
X924561Y974472D03*
D16*
X924561Y955286D03*
X924561Y947158D03*
X899161Y955286D03*
X899161Y947158D03*
X873761Y955286D03*
X873761Y947158D03*
D10*
X873761Y860172D03*
X873761Y877172D03*
D15*
X821301Y942332D03*
X804301Y942332D03*
X821301Y840732D03*
X804301Y840732D03*
X821301Y739132D03*
X804301Y739132D03*
X821301Y637532D03*
X804301Y637532D03*
D10*
X836931Y927972D03*
X836931Y910972D03*
D17*
X835661Y1021072D03*
D18*
X927160Y1083230D03*
X871160Y1083230D03*
D19*
X914160Y1046480D03*
X904160Y1046480D03*
X894160Y1046480D03*
X884160Y1046480D03*
D20*
X746760Y576580D03*
X746760Y1071880D03*
X1051560Y1071880D03*
X1051560Y576580D03*
D15*
X977020Y637540D03*
X994020Y637540D03*
X977020Y739140D03*
X994020Y739140D03*
X977020Y840740D03*
X994020Y840740D03*
X977020Y942340D03*
X994020Y942340D03*
D21*
X1006040Y1055690D02*
X1006040Y1062670D01*
X1013020Y1062670D01*
X1013020Y1055690D01*
X1006040Y1055690D01*
X1006040Y1060490D02*
X1013020Y1060490D01*
X988500Y1062670D02*
X988500Y1055690D01*
X988500Y1062670D02*
X995480Y1062670D01*
X995480Y1055690D01*
X988500Y1055690D01*
X988500Y1060490D02*
X995480Y1060490D01*
D15*
X992260Y1046480D03*
X1009260Y1046480D03*
D22*
X922274Y894080D03*
X911860Y894080D03*
X901446Y894080D03*
D18*
X871160Y565230D03*
X927160Y565230D03*
D19*
X884160Y601980D03*
X894160Y601980D03*
X904160Y601980D03*
X914160Y601980D03*
D10*
X1259841Y877172D03*
X1259841Y860172D03*
X1285241Y877172D03*
X1285241Y860172D03*
D11*
X1132840Y1084580D03*
X1386840Y563880D03*
D12*
X1096091Y985572D03*
X1096091Y929572D03*
D13*
X1132841Y972572D03*
X1132841Y962572D03*
X1132841Y952572D03*
X1132841Y942572D03*
D12*
X1096091Y883972D03*
X1096091Y827972D03*
D13*
X1132841Y870972D03*
X1132841Y860972D03*
X1132841Y850972D03*
X1132841Y840972D03*
D12*
X1096091Y782372D03*
X1096091Y726372D03*
D13*
X1132841Y769372D03*
X1132841Y759372D03*
X1132841Y749372D03*
X1132841Y739372D03*
D12*
X1096091Y680772D03*
X1096091Y624772D03*
D13*
X1132841Y667772D03*
X1132841Y657772D03*
X1132841Y647772D03*
X1132841Y637772D03*
D14*
X1229841Y840872D03*
X1229841Y834422D03*
X1229841Y827922D03*
X1229841Y821422D03*
X1229841Y814922D03*
X1229841Y808422D03*
X1229841Y801922D03*
X1229841Y795422D03*
X1229841Y788922D03*
X1229841Y782422D03*
X1229841Y775922D03*
X1229841Y769422D03*
X1289841Y769422D03*
X1289841Y775922D03*
X1289841Y782422D03*
X1289841Y788922D03*
X1289841Y795422D03*
X1289841Y801922D03*
X1289841Y808422D03*
X1289841Y814922D03*
X1289841Y821422D03*
X1289841Y827922D03*
X1289841Y834422D03*
X1289841Y840922D03*
D15*
X1181981Y972812D03*
X1164981Y972812D03*
X1181981Y957572D03*
X1164981Y957572D03*
X1181981Y871212D03*
X1164981Y871212D03*
X1181981Y855972D03*
X1164981Y855972D03*
X1181981Y769612D03*
X1164981Y769612D03*
X1181981Y754372D03*
X1164981Y754372D03*
X1181981Y668012D03*
X1164981Y668012D03*
X1181981Y652772D03*
X1164981Y652772D03*
D12*
X1423582Y624779D03*
X1423582Y680779D03*
D13*
X1386832Y637779D03*
X1386832Y647779D03*
X1386832Y657779D03*
X1386832Y667779D03*
D12*
X1423582Y726379D03*
X1423582Y782379D03*
D13*
X1386832Y739379D03*
X1386832Y749379D03*
X1386832Y759379D03*
X1386832Y769379D03*
D12*
X1423582Y827979D03*
X1423582Y883979D03*
D13*
X1386832Y840979D03*
X1386832Y850979D03*
X1386832Y860979D03*
X1386832Y870979D03*
D12*
X1423582Y929579D03*
X1423582Y985579D03*
D13*
X1386832Y942579D03*
X1386832Y952579D03*
X1386832Y962579D03*
X1386832Y972579D03*
D15*
X1337699Y652788D03*
X1354699Y652788D03*
X1337699Y668028D03*
X1354699Y668028D03*
X1337699Y754388D03*
X1354699Y754388D03*
X1337699Y769628D03*
X1354699Y769628D03*
X1337699Y855988D03*
X1354699Y855988D03*
X1337699Y871228D03*
X1354699Y871228D03*
X1337699Y957588D03*
X1354699Y957588D03*
X1337699Y972828D03*
X1354699Y972828D03*
D10*
X1234441Y991472D03*
X1234441Y974472D03*
X1259841Y991472D03*
X1259841Y974472D03*
X1285241Y991472D03*
X1285241Y974472D03*
D16*
X1285241Y955286D03*
X1285241Y947158D03*
X1259841Y955286D03*
X1259841Y947158D03*
X1234441Y955286D03*
X1234441Y947158D03*
D10*
X1234441Y860172D03*
X1234441Y877172D03*
D15*
X1181981Y942332D03*
X1164981Y942332D03*
X1181981Y840732D03*
X1164981Y840732D03*
X1181981Y739132D03*
X1164981Y739132D03*
X1181981Y637532D03*
X1164981Y637532D03*
D10*
X1197611Y927972D03*
X1197611Y910972D03*
D17*
X1196341Y1021072D03*
D18*
X1287840Y1083230D03*
X1231840Y1083230D03*
D19*
X1274840Y1046480D03*
X1264840Y1046480D03*
X1254840Y1046480D03*
X1244840Y1046480D03*
D20*
X1107440Y576580D03*
X1107440Y1071880D03*
X1412240Y1071880D03*
X1412240Y576580D03*
D15*
X1337700Y637540D03*
X1354700Y637540D03*
X1337700Y739140D03*
X1354700Y739140D03*
X1337700Y840740D03*
X1354700Y840740D03*
X1337700Y942340D03*
X1354700Y942340D03*
D21*
X1366720Y1055690D02*
X1366720Y1062670D01*
X1373700Y1062670D01*
X1373700Y1055690D01*
X1366720Y1055690D01*
X1366720Y1060490D02*
X1373700Y1060490D01*
X1349180Y1062670D02*
X1349180Y1055690D01*
X1349180Y1062670D02*
X1356160Y1062670D01*
X1356160Y1055690D01*
X1349180Y1055690D01*
X1349180Y1060490D02*
X1356160Y1060490D01*
D15*
X1352940Y1046480D03*
X1369940Y1046480D03*
D22*
X1282954Y894080D03*
X1272540Y894080D03*
X1262126Y894080D03*
D18*
X1231840Y565230D03*
X1287840Y565230D03*
D19*
X1244840Y601980D03*
X1254840Y601980D03*
X1264840Y601980D03*
X1274840Y601980D03*
D10*
X1620521Y877172D03*
X1620521Y860172D03*
X1645921Y877172D03*
X1645921Y860172D03*
D11*
X1493520Y1084580D03*
X1747520Y563880D03*
D12*
X1456771Y985572D03*
X1456771Y929572D03*
D13*
X1493521Y972572D03*
X1493521Y962572D03*
X1493521Y952572D03*
X1493521Y942572D03*
D12*
X1456771Y883972D03*
X1456771Y827972D03*
D13*
X1493521Y870972D03*
X1493521Y860972D03*
X1493521Y850972D03*
X1493521Y840972D03*
D12*
X1456771Y782372D03*
X1456771Y726372D03*
D13*
X1493521Y769372D03*
X1493521Y759372D03*
X1493521Y749372D03*
X1493521Y739372D03*
D12*
X1456771Y680772D03*
X1456771Y624772D03*
D13*
X1493521Y667772D03*
X1493521Y657772D03*
X1493521Y647772D03*
X1493521Y637772D03*
D14*
X1590521Y840872D03*
X1590521Y834422D03*
X1590521Y827922D03*
X1590521Y821422D03*
X1590521Y814922D03*
X1590521Y808422D03*
X1590521Y801922D03*
X1590521Y795422D03*
X1590521Y788922D03*
X1590521Y782422D03*
X1590521Y775922D03*
X1590521Y769422D03*
X1650521Y769422D03*
X1650521Y775922D03*
X1650521Y782422D03*
X1650521Y788922D03*
X1650521Y795422D03*
X1650521Y801922D03*
X1650521Y808422D03*
X1650521Y814922D03*
X1650521Y821422D03*
X1650521Y827922D03*
X1650521Y834422D03*
X1650521Y840922D03*
D15*
X1542661Y972812D03*
X1525661Y972812D03*
X1542661Y957572D03*
X1525661Y957572D03*
X1542661Y871212D03*
X1525661Y871212D03*
X1542661Y855972D03*
X1525661Y855972D03*
X1542661Y769612D03*
X1525661Y769612D03*
X1542661Y754372D03*
X1525661Y754372D03*
X1542661Y668012D03*
X1525661Y668012D03*
X1542661Y652772D03*
X1525661Y652772D03*
D12*
X1784262Y624779D03*
X1784262Y680779D03*
D13*
X1747512Y637779D03*
X1747512Y647779D03*
X1747512Y657779D03*
X1747512Y667779D03*
D12*
X1784262Y726379D03*
X1784262Y782379D03*
D13*
X1747512Y739379D03*
X1747512Y749379D03*
X1747512Y759379D03*
X1747512Y769379D03*
D12*
X1784262Y827979D03*
X1784262Y883979D03*
D13*
X1747512Y840979D03*
X1747512Y850979D03*
X1747512Y860979D03*
X1747512Y870979D03*
D12*
X1784262Y929579D03*
X1784262Y985579D03*
D13*
X1747512Y942579D03*
X1747512Y952579D03*
X1747512Y962579D03*
X1747512Y972579D03*
D15*
X1698379Y652788D03*
X1715379Y652788D03*
X1698379Y668028D03*
X1715379Y668028D03*
X1698379Y754388D03*
X1715379Y754388D03*
X1698379Y769628D03*
X1715379Y769628D03*
X1698379Y855988D03*
X1715379Y855988D03*
X1698379Y871228D03*
X1715379Y871228D03*
X1698379Y957588D03*
X1715379Y957588D03*
X1698379Y972828D03*
X1715379Y972828D03*
D10*
X1595121Y991472D03*
X1595121Y974472D03*
X1620521Y991472D03*
X1620521Y974472D03*
X1645921Y991472D03*
X1645921Y974472D03*
D16*
X1645921Y955286D03*
X1645921Y947158D03*
X1620521Y955286D03*
X1620521Y947158D03*
X1595121Y955286D03*
X1595121Y947158D03*
D10*
X1595121Y860172D03*
X1595121Y877172D03*
D15*
X1542661Y942332D03*
X1525661Y942332D03*
X1542661Y840732D03*
X1525661Y840732D03*
X1542661Y739132D03*
X1525661Y739132D03*
X1542661Y637532D03*
X1525661Y637532D03*
D10*
X1558291Y927972D03*
X1558291Y910972D03*
D17*
X1557021Y1021072D03*
D18*
X1648520Y1083230D03*
X1592520Y1083230D03*
D19*
X1635520Y1046480D03*
X1625520Y1046480D03*
X1615520Y1046480D03*
X1605520Y1046480D03*
D20*
X1468120Y576580D03*
X1468120Y1071880D03*
X1772920Y1071880D03*
X1772920Y576580D03*
D15*
X1698380Y637540D03*
X1715380Y637540D03*
X1698380Y739140D03*
X1715380Y739140D03*
X1698380Y840740D03*
X1715380Y840740D03*
X1698380Y942340D03*
X1715380Y942340D03*
D21*
X1727400Y1055690D02*
X1727400Y1062670D01*
X1734380Y1062670D01*
X1734380Y1055690D01*
X1727400Y1055690D01*
X1727400Y1060490D02*
X1734380Y1060490D01*
X1709860Y1062670D02*
X1709860Y1055690D01*
X1709860Y1062670D02*
X1716840Y1062670D01*
X1716840Y1055690D01*
X1709860Y1055690D01*
X1709860Y1060490D02*
X1716840Y1060490D01*
D15*
X1713620Y1046480D03*
X1730620Y1046480D03*
D22*
X1643634Y894080D03*
X1633220Y894080D03*
X1622806Y894080D03*
D18*
X1592520Y565230D03*
X1648520Y565230D03*
D19*
X1605520Y601980D03*
X1615520Y601980D03*
X1625520Y601980D03*
X1635520Y601980D03*
D11*
X68580Y1118235D03*
X1729105Y1118235D03*
D23*
X59525Y-20955D02*
X59528Y-20733D01*
X59536Y-20511D01*
X59550Y-20289D01*
X59569Y-20067D01*
X59593Y-19847D01*
X59623Y-19626D01*
X59658Y-19407D01*
X59699Y-19188D01*
X59745Y-18971D01*
X59796Y-18755D01*
X59853Y-18540D01*
X59915Y-18326D01*
X59982Y-18115D01*
X60054Y-17904D01*
X60132Y-17696D01*
X60214Y-17490D01*
X60302Y-17286D01*
X60394Y-17083D01*
X60492Y-16884D01*
X60594Y-16687D01*
X60701Y-16492D01*
X60813Y-16300D01*
X60930Y-16111D01*
X61051Y-15924D01*
X61177Y-15741D01*
X61307Y-15561D01*
X61442Y-15384D01*
X61580Y-15211D01*
X61723Y-15041D01*
X61871Y-14874D01*
X62022Y-14711D01*
X62177Y-14552D01*
X62336Y-14397D01*
X62499Y-14246D01*
X62666Y-14098D01*
X62836Y-13955D01*
X63009Y-13817D01*
X63186Y-13682D01*
X63366Y-13552D01*
X63549Y-13426D01*
X63736Y-13305D01*
X63925Y-13188D01*
X64117Y-13076D01*
X64312Y-12969D01*
X64509Y-12867D01*
X64708Y-12769D01*
X64911Y-12677D01*
X65115Y-12589D01*
X65321Y-12507D01*
X65529Y-12429D01*
X65740Y-12357D01*
X65951Y-12290D01*
X66165Y-12228D01*
X66380Y-12171D01*
X66596Y-12120D01*
X66813Y-12074D01*
X67032Y-12033D01*
X67251Y-11998D01*
X67472Y-11968D01*
X67692Y-11944D01*
X67914Y-11925D01*
X68136Y-11911D01*
X68358Y-11903D01*
X68580Y-11900D01*
X68802Y-11903D01*
X69024Y-11911D01*
X69246Y-11925D01*
X69468Y-11944D01*
X69688Y-11968D01*
X69909Y-11998D01*
X70128Y-12033D01*
X70347Y-12074D01*
X70564Y-12120D01*
X70780Y-12171D01*
X70995Y-12228D01*
X71209Y-12290D01*
X71420Y-12357D01*
X71631Y-12429D01*
X71839Y-12507D01*
X72045Y-12589D01*
X72249Y-12677D01*
X72452Y-12769D01*
X72651Y-12867D01*
X72848Y-12969D01*
X73043Y-13076D01*
X73235Y-13188D01*
X73424Y-13305D01*
X73611Y-13426D01*
X73794Y-13552D01*
X73974Y-13682D01*
X74151Y-13817D01*
X74324Y-13955D01*
X74494Y-14098D01*
X74661Y-14246D01*
X74824Y-14397D01*
X74983Y-14552D01*
X75138Y-14711D01*
X75289Y-14874D01*
X75437Y-15041D01*
X75580Y-15211D01*
X75718Y-15384D01*
X75853Y-15561D01*
X75983Y-15741D01*
X76109Y-15924D01*
X76230Y-16111D01*
X76347Y-16300D01*
X76459Y-16492D01*
X76566Y-16687D01*
X76668Y-16884D01*
X76766Y-17083D01*
X76858Y-17286D01*
X76946Y-17490D01*
X77028Y-17696D01*
X77106Y-17904D01*
X77178Y-18115D01*
X77245Y-18326D01*
X77307Y-18540D01*
X77364Y-18755D01*
X77415Y-18971D01*
X77461Y-19188D01*
X77502Y-19407D01*
X77537Y-19626D01*
X77567Y-19847D01*
X77591Y-20067D01*
X77610Y-20289D01*
X77624Y-20511D01*
X77632Y-20733D01*
X77635Y-20955D01*
X77632Y-21177D01*
X77624Y-21399D01*
X77610Y-21621D01*
X77591Y-21843D01*
X77567Y-22063D01*
X77537Y-22284D01*
X77502Y-22503D01*
X77461Y-22722D01*
X77415Y-22939D01*
X77364Y-23155D01*
X77307Y-23370D01*
X77245Y-23584D01*
X77178Y-23795D01*
X77106Y-24006D01*
X77028Y-24214D01*
X76946Y-24420D01*
X76858Y-24624D01*
X76766Y-24827D01*
X76668Y-25026D01*
X76566Y-25223D01*
X76459Y-25418D01*
X76347Y-25610D01*
X76230Y-25799D01*
X76109Y-25986D01*
X75983Y-26169D01*
X75853Y-26349D01*
X75718Y-26526D01*
X75580Y-26699D01*
X75437Y-26869D01*
X75289Y-27036D01*
X75138Y-27199D01*
X74983Y-27358D01*
X74824Y-27513D01*
X74661Y-27664D01*
X74494Y-27812D01*
X74324Y-27955D01*
X74151Y-28093D01*
X73974Y-28228D01*
X73794Y-28358D01*
X73611Y-28484D01*
X73424Y-28605D01*
X73235Y-28722D01*
X73043Y-28834D01*
X72848Y-28941D01*
X72651Y-29043D01*
X72452Y-29141D01*
X72249Y-29233D01*
X72045Y-29321D01*
X71839Y-29403D01*
X71631Y-29481D01*
X71420Y-29553D01*
X71209Y-29620D01*
X70995Y-29682D01*
X70780Y-29739D01*
X70564Y-29790D01*
X70347Y-29836D01*
X70128Y-29877D01*
X69909Y-29912D01*
X69688Y-29942D01*
X69468Y-29966D01*
X69246Y-29985D01*
X69024Y-29999D01*
X68802Y-30007D01*
X68580Y-30010D01*
X68358Y-30007D01*
X68136Y-29999D01*
X67914Y-29985D01*
X67692Y-29966D01*
X67472Y-29942D01*
X67251Y-29912D01*
X67032Y-29877D01*
X66813Y-29836D01*
X66596Y-29790D01*
X66380Y-29739D01*
X66165Y-29682D01*
X65951Y-29620D01*
X65740Y-29553D01*
X65529Y-29481D01*
X65321Y-29403D01*
X65115Y-29321D01*
X64911Y-29233D01*
X64708Y-29141D01*
X64509Y-29043D01*
X64312Y-28941D01*
X64117Y-28834D01*
X63925Y-28722D01*
X63736Y-28605D01*
X63549Y-28484D01*
X63366Y-28358D01*
X63186Y-28228D01*
X63009Y-28093D01*
X62836Y-27955D01*
X62666Y-27812D01*
X62499Y-27664D01*
X62336Y-27513D01*
X62177Y-27358D01*
X62022Y-27199D01*
X61871Y-27036D01*
X61723Y-26869D01*
X61580Y-26699D01*
X61442Y-26526D01*
X61307Y-26349D01*
X61177Y-26169D01*
X61051Y-25986D01*
X60930Y-25799D01*
X60813Y-25610D01*
X60701Y-25418D01*
X60594Y-25223D01*
X60492Y-25026D01*
X60394Y-24827D01*
X60302Y-24624D01*
X60214Y-24420D01*
X60132Y-24214D01*
X60054Y-24006D01*
X59982Y-23795D01*
X59915Y-23584D01*
X59853Y-23370D01*
X59796Y-23155D01*
X59745Y-22939D01*
X59699Y-22722D01*
X59658Y-22503D01*
X59623Y-22284D01*
X59593Y-22063D01*
X59569Y-21843D01*
X59550Y-21621D01*
X59536Y-21399D01*
X59528Y-21177D01*
X59525Y-20955D01*
D24*
X68580Y-20955D03*
M02*
